<svg xmlns="http://www.w3.org/2000/svg" width="820" height="480" viewBox="0 0 820 480">
  <g id="Grupo_1104399" data-name="Grupo 1104399" transform="translate(-664 -3512)">
    <rect id="Rectángulo_401170" data-name="Rectángulo 401170" width="820" height="480" rx="12" transform="translate(664 3512)" fill="#e1fbf3"/>
    <g id="Grupo_1095667" data-name="Grupo 1095667" transform="translate(65 13)">
      <path id="Trazado_872870" data-name="Trazado 872870" d="M-9529.518-7749.064-9662-7890.564" transform="translate(10495 11644.564)" fill="none" stroke="#124cbc" stroke-width="2"/>
      <path id="Trazado_872871" data-name="Trazado 872871" d="M-9529.518-7890.564-9662-7749.064h132.482" transform="translate(10495 11503.064)" fill="none" stroke="#124cbc" stroke-width="2"/>
      <g id="Grupo_1095666" data-name="Grupo 1095666" transform="translate(-2)">
        <g id="Grupo_1095665" data-name="Grupo 1095665" transform="translate(965 3558)">
          <rect id="Rectángulo_401167" data-name="Rectángulo 401167" width="429" height="95" rx="12" fill="#88ebcb"/>
          <text id="_3._Garantizar_una_vida_sana_y_promover_el_bienestar_para_todos_en_todas_las_edades." data-name="3. Garantizar una vida sana y promover el bienestar para todos en todas las edades." transform="translate(33 23)" fill="#12263f" font-size="20" font-family="Lato-Bold, Lato" font-weight="700"><tspan x="0" y="20">3.</tspan><tspan y="20" xml:space="preserve" font-family="Lato-Regular, Lato" font-weight="400"> Garantizar una vida sana y promover el </tspan><tspan x="0" y="44" font-family="Lato-Regular, Lato" font-weight="400">bienestar para todos en todas las edades.</tspan></text>
        </g>
        <g id="Grupo_1095663" data-name="Grupo 1095663" transform="translate(965 3848)">
          <rect id="Rectángulo_401169" data-name="Rectángulo 401169" width="429" height="95" rx="12" fill="#88ebcb"/>
          <text id="_10._Reducir_la_desigualdad_en_y_entre_los_países." data-name="10. Reducir la desigualdad en y entre los países." transform="translate(33 23)" fill="#12263f" font-size="20" font-family="Lato-Bold, Lato" font-weight="700"><tspan x="0" y="20">10.</tspan><tspan y="20" xml:space="preserve" font-family="Lato-Regular, Lato" font-weight="400"> Reducir la desigualdad en y entre los </tspan><tspan x="0" y="44" font-family="Lato-Regular, Lato" font-weight="400">países.</tspan></text>
        </g>
      </g>
      <g id="Grupo_1095664" data-name="Grupo 1095664" transform="translate(963 3706)">
        <rect id="Rectángulo_401168" data-name="Rectángulo 401168" width="429" height="95" rx="12" fill="#88ebcb"/>
        <text id="_5._Lograr_la_igualdad_entre_los_géneros_y_empoderar_a_todas_las_mujeres_y_las_niñas." data-name="5. Lograr la igualdad entre los géneros y empoderar a todas las mujeres y las niñas." transform="translate(33 23)" fill="#12263f" font-size="20" font-family="Lato-Bold, Lato" font-weight="700"><tspan x="0" y="20">5. </tspan><tspan y="20" font-family="Lato-Regular, Lato" font-weight="400">Lograr la igualdad entre los géneros y </tspan><tspan x="0" y="44" font-family="Lato-Regular, Lato" font-weight="400">empoderar a todas las mujeres y las niñas.</tspan></text>
      </g>
      <rect id="Rectángulo_401166" data-name="Rectángulo 401166" width="207" height="95" rx="12" transform="translate(626 3703)" fill="#3479ff"/>
      <text id="Objetivos" transform="translate(686 3742)" fill="#fff" font-size="20" font-family="Lato-Bold, Lato" font-weight="700"><tspan x="0" y="20">Objetivos</tspan></text>
    </g>
    <path id="star" d="M3.345,17.251a.62.62,0,0,0,.871.692L9.34,15.309l5.123,2.633a.619.619,0,0,0,.871-.691l-.969-5.521,4.111-3.917A.648.648,0,0,0,18.147,6.7L12.43,5.892,9.881.841A.6.6,0,0,0,8.8.841L6.249,5.893.532,6.705A.649.649,0,0,0,.2,7.814l4.112,3.917-.969,5.521Zm5.725-3.23-4.3,2.211.81-4.619a.66.66,0,0,0-.19-.589L2,7.79l4.73-.672a.613.613,0,0,0,.459-.336l2.154-4.27,2.156,4.27a.613.613,0,0,0,.459.336l4.73.671L13.29,11.022a.66.66,0,0,0-.19.591l.81,4.619-4.3-2.211a.587.587,0,0,0-.538,0Z" transform="translate(723.66 3613.074)" fill="#fff"/>
  </g>
</svg>
