<svg xmlns="http://www.w3.org/2000/svg" xmlns:xlink="http://www.w3.org/1999/xlink" width="349" height="227.742" viewBox="0 0 349 227.742">
  <defs>
    <filter id="Rectángulo_394184" x="-53" y="-53" width="469" height="347.742" filterUnits="userSpaceOnUse">
      <feOffset dx="7" dy="7" input="SourceAlpha"/>
      <feGaussianBlur stdDeviation="20" result="blur"/>
      <feFlood flood-opacity="0.149"/>
      <feComposite operator="in" in2="blur"/>
      <feComposite in="SourceGraphic"/>
    </filter>
    <clipPath id="clip-path">
      <g transform="matrix(1, 0, 0, 1, 0, 0)" filter="url(#Rectángulo_394184)">
        <path id="Rectángulo_394184-2" data-name="Rectángulo 394184" d="M24,0H325a24,24,0,0,1,24,24V227.742a0,0,0,0,1,0,0H0a0,0,0,0,1,0,0V24A24,24,0,0,1,24,0Z" transform="translate(-8463.56 5645.95)" fill="#12263f" opacity="0.46"/>
      </g>
    </clipPath>
    <clipPath id="clip-path-2">
      <rect id="Rectángulo_394182" data-name="Rectángulo 394182" width="351" height="311" fill="none" stroke="#e9cfb0" stroke-width="1"/>
    </clipPath>
    <clipPath id="clip-path-3">
      <rect id="Rectángulo_394183" data-name="Rectángulo 394183" width="311.04" height="529.392" fill="none"/>
    </clipPath>
  </defs>
  <g id="_12" data-name="12" transform="translate(8463.563 -5645.945)" clip-path="url(#clip-path)">
    <g id="Grupo_1079435" data-name="Grupo 1079435" transform="translate(20 -229)">
      <rect id="Rectángulo_394181" data-name="Rectángulo 394181" width="351" height="311" transform="translate(-8484 5875)" fill="#fff0df"/>
      <path id="Trazado_845592" data-name="Trazado 845592" d="M401.007,321.452l-7.22,1.335-1.613,7.611-1.613-7.611-7.22-1.338,7.189-1.757,1.644-7.189,1.645,7.189Z" transform="translate(-8596.259 5756.615)" fill="#e9cfb0"/>
      <path id="Trazado_845593" data-name="Trazado 845593" d="M251.334,24.057l-5.172.956-1.156,5.452-1.156-5.452-5.172-.959,5.149-1.258,1.178-5.149,1.178,5.149Z" transform="translate(-8636.567 5882.202)" fill="#e9cfb0"/>
      <path id="Trazado_845594" data-name="Trazado 845594" d="M473.8,142.978l-4.035.746-.9,4.254-.9-4.254-4.035-.749,4.018-.981.919-4.018.919,4.018Z" transform="translate(-8619.14 5822.345)" fill="#e9cfb0"/>
      <path id="Trazado_845595" data-name="Trazado 845595" d="M473.8,451.232l-4.035.746-.9,4.254-.9-4.254-4.035-.748,4.018-.982.919-4.018.919,4.018Z" transform="translate(-8619.14 5706.25)" fill="#e9cfb0"/>
      <g id="Grupo_1079432" data-name="Grupo 1079432" transform="translate(-8484 5875)">
        <g id="Grupo_1079431" data-name="Grupo 1079431" clip-path="url(#clip-path-2)">
          <path id="Trazado_845596" data-name="Trazado 845596" d="M431.75,254.561a1.174,1.174,0,1,0,0,2.34,1.174,1.174,0,1,0,0-2.34" transform="translate(-128.079 -96.563)" fill="#e9cfb0" stroke="#e9cfb0" stroke-width="1"/>
          <path id="Trazado_845597" data-name="Trazado 845597" d="M46.595,44.477a1.174,1.174,0,1,0,0,2.34,1.174,1.174,0,1,0,0-2.34" transform="translate(-13.903 -17.441)" fill="#fff" stroke="#e9cfb0" stroke-width="1"/>
          <path id="Trazado_845598" data-name="Trazado 845598" d="M46.595,44.477a1.174,1.174,0,1,0,0,2.34,1.174,1.174,0,1,0,0-2.34" transform="translate(137.097 -33.441)" fill="#fff" stroke="#e9cfb0" stroke-width="1"/>
          <path id="Trazado_845599" data-name="Trazado 845599" d="M429.938,28.247a1.174,1.174,0,1,0,0,2.34,1.174,1.174,0,1,0,0-2.34" transform="translate(-127.542 -11.329)" fill="#fff" stroke="#e9cfb0" stroke-width="1"/>
          <path id="Trazado_845600" data-name="Trazado 845600" d="M58.837,286.247a1.174,1.174,0,1,0,0,2.34,1.174,1.174,0,1,0,0-2.34" transform="translate(-17.532 -108.496)" fill="#fff" stroke="#e9cfb0" stroke-width="1"/>
          <path id="Trazado_845601" data-name="Trazado 845601" d="M302.5,42.6a1.174,1.174,0,1,0,0,2.34,1.174,1.174,0,1,0,0-2.34" transform="translate(-89.764 -16.734)" fill="#fff" stroke="#e9cfb0" stroke-width="1"/>
          <path id="Trazado_845602" data-name="Trazado 845602" d="M410.017,166.333a.831.831,0,1,0,0,1.655.831.831,0,1,0,0-1.655" transform="translate(-121.747 -63.335)" fill="#fff" stroke="#e9cfb0" stroke-width="1"/>
          <path id="Trazado_845603" data-name="Trazado 845603" d="M45.47,431.012a.831.831,0,1,0,0,1.655.831.831,0,1,0,0-1.655" transform="translate(-13.68 -163.018)" fill="#fff" stroke="#e9cfb0" stroke-width="1"/>
          <path id="Trazado_845604" data-name="Trazado 845604" d="M391.345,273.04a2.251,2.251,0,1,0,0,4.486,2.251,2.251,0,1,0,0-4.486" transform="translate(-115.755 -103.522)" fill="#e9cfb0" stroke="#e9cfb0" stroke-width="1"/>
          <path id="Trazado_845605" data-name="Trazado 845605" d="M448.82,106a2.251,2.251,0,1,0,0,4.486,2.251,2.251,0,1,0,0-4.486" transform="translate(-132.793 -40.612)" fill="none" stroke="#e9cfb0" stroke-width="1"/>
          <path id="Trazado_845606" data-name="Trazado 845606" d="M61.82,418.8a2.251,2.251,0,1,0,0,4.486,2.251,2.251,0,1,0,0-4.486" transform="translate(-18.07 -158.42)" fill="#fff" stroke="#e9cfb0" stroke-width="1"/>
        </g>
      </g>
      <g id="Grupo_1079434" data-name="Grupo 1079434" transform="translate(-8466.25 5887.785)">
        <g id="Grupo_1079433" data-name="Grupo 1079433" clip-path="url(#clip-path-3)">
          <path id="Trazado_845607" data-name="Trazado 845607" d="M251.957,408.118c0,8.735-35.692,15.817-79.72,15.817s-79.72-7.082-79.72-15.817,35.692-10.756,79.72-10.756,79.72,2.021,79.72,10.756" transform="translate(24.553 105.456)" fill="#f2f2f2"/>
          <path id="Trazado_845608" data-name="Trazado 845608" d="M158.009,297.851c-1.283-20.062-1.648-36.065-.114-41.258,5.263-17.819,52.833-64.777,61.213-64.5,8.26.273,28.983,42.815,12.755,101.444-24.03,5.115-49.21,6.99-73.855,4.315" transform="translate(41.637 50.979)" fill="#a0222b"/>
          <path id="Trazado_845609" data-name="Trazado 845609" d="M233.959,269.439c-.24.868-.486,1.735-.742,2.611-17.943,61.258-50.9,123.692-52.609,126.979s-9.873,7.475-11.223-.929c0,0-9.8-74.462-12.994-124.321,25.185,2.733,53.011.886,77.567-4.34" transform="translate(41.505 71.507)" fill="#e02239"/>
          <path id="Trazado_845610" data-name="Trazado 845610" d="M165.177,414.111h-1.7s-3.639-29.524-1.941-33.814,7.521-10.6,7.521-10.6l10.918-.5s9.706,9.589,10.676,20.692.971,18.926,1.7,19.684,8.249,3.532,8.249,4.541-31.3.5-31.3,0-.971-28.516-2.67-28.516-1.455,28.516-1.455,28.516" transform="translate(42.751 97.981)" fill="#e02239"/>
          <path id="Trazado_845611" data-name="Trazado 845611" d="M167.679,283.843c16.332.833,33.206.547,48.734-2.726" transform="translate(44.501 74.606)" fill="none" stroke="#000" stroke-linecap="round" stroke-linejoin="round" stroke-width="0.591"/>
          <path id="Trazado_845612" data-name="Trazado 845612" d="M169.059,374a88.886,88.886,0,0,1,13.974,4.724" transform="translate(44.867 99.257)" fill="none" stroke="#000" stroke-linecap="round" stroke-linejoin="round" stroke-width="0.591"/>
          <path id="Trazado_845613" data-name="Trazado 845613" d="M172.1,383.333c1.569-3.856,3.1-7.772,4.542-11.626" transform="translate(45.673 98.648)" fill="none" stroke="#000" stroke-linecap="round" stroke-linejoin="round" stroke-width="0.591"/>
          <path id="Trazado_845614" data-name="Trazado 845614" d="M107.839,196.506s35.9-23.707,72.053-23.707,61.048,34.062,61.048,34.062-22.533,20.165-36.157,32.155c-13,11.44-28.035,23.162-31.7,23.162h-9.17Z" transform="translate(28.62 45.859)" fill="#e02239"/>
          <path id="Trazado_845615" data-name="Trazado 845615" d="M166.851,239.613c4.548-4.4,9.2-9.051,13.624-13.624" transform="translate(44.281 59.976)" fill="none" stroke="#000" stroke-linecap="round" stroke-linejoin="round" stroke-width="0.591"/>
          <path id="Trazado_845616" data-name="Trazado 845616" d="M171.456,299.256c1.9-20.01,2.747-35.993,1.373-41.233-4.716-17.985-50.829-66.49-59.214-66.49-8.264,0-30.274,41.836-15.844,100.972,23.861,5.9,48.971,8.611,73.685,6.751" transform="translate(24.677 50.831)" fill="#b74a47"/>
          <path id="Trazado_845617" data-name="Trazado 845617" d="M95.3,268.457c.214.876.433,1.751.662,2.633,16.064,61.821,47.1,125.312,48.707,128.652s9.638,7.8,11.246-.557c0,0,12.071-74.1,16.78-123.83-25.256,1.9-53.011-.864-77.4-6.9" transform="translate(25.292 71.246)" fill="#fc596d"/>
          <path id="Trazado_845618" data-name="Trazado 845618" d="M108.834,311.729c14.98,41.156,31.1,74.147,32.245,76.53,1.607,3.342,9.64,7.8,11.246-.557,0,0,4.329-26.572,8.812-58.569-17.791-4.839-35.46-9.866-52.3-17.4" transform="translate(28.884 82.73)" fill="#f24452"/>
          <path id="Trazado_845619" data-name="Trazado 845619" d="M131.128,418.559h-1.834s-3.93-31.882-2.1-36.514S135.32,370.6,135.32,370.6l11.791-.544s10.48,10.355,11.528,22.344,1.048,20.437,1.834,21.255,8.908,3.815,8.908,4.9-33.8.545-33.8,0-1.048-30.792-2.883-30.792-1.572,30.792-1.572,30.792" transform="translate(33.628 98.209)" fill="#f24452"/>
          <path id="Trazado_845620" data-name="Trazado 845620" d="M105.976,279.395c16.073,3.515,32.952,3.634,49.258,3.815" transform="translate(28.125 74.149)" fill="none" stroke="#000" stroke-linecap="round" stroke-linejoin="round" stroke-width="0.591"/>
          <path id="Trazado_845621" data-name="Trazado 845621" d="M134.273,374.578a105.572,105.572,0,0,1,16.07,5.45" transform="translate(35.635 99.41)" fill="none" stroke="#000" stroke-linecap="round" stroke-linejoin="round" stroke-width="0.591"/>
          <path id="Trazado_845622" data-name="Trazado 845622" d="M136.482,385.935a86.461,86.461,0,0,1,6.637-13.08" transform="translate(36.221 98.953)" fill="none" stroke="#000" stroke-linecap="round" stroke-linejoin="round" stroke-width="0.591"/>
          <path id="Trazado_845623" data-name="Trazado 845623" d="M135.493,189.245l-6.932-38.622,75.263.991L195.9,193.207Z" transform="translate(34.119 39.974)" fill="#e02239"/>
          <path id="Trazado_845624" data-name="Trazado 845624" d="M122.209,110.121c1.329-1.772-29.737-36.064-18.032-66.749S148.149-2.5,156.691,2.562s8.858,5.062,17.715,5.062S190.856-3.765,205.092,1.3,249.7,35.146,247.8,59.189s-20.721,49.192-19.614,50.3,14.552-6.327,17.083,4.745-39.227,23.093-73.076,23.093-73.076-14.236-70.862-24.991,18.981.316,20.879-2.214" transform="translate(26.868 0)" fill="#851dbc"/>
          <path id="Trazado_845625" data-name="Trazado 845625" d="M228.185,94.7c-.9-.9,11.253-17.533,16.931-36.588-19.411,21.007-48.534,31.3-77.67,27.413-24.378-3.18-46.077-14.366-64.384-29.808,4.92,20.931,20.083,38.365,19.147,39.614-1.9,2.531-18.665-8.541-20.879,2.214s37.013,24.991,70.862,24.991,75.607-12.021,73.076-23.093-15.976-3.638-17.083-4.745" transform="translate(26.868 14.787)" fill="#6f13aa"/>
          <path id="Trazado_845626" data-name="Trazado 845626" d="M136.135,63.032S131.917,50.8,124.746,54.6s-5.694,24.675,11.389,22.356,0-13.919,0-13.919" transform="translate(32.03 14.295)" fill="#a0222b"/>
          <path id="Trazado_845627" data-name="Trazado 845627" d="M127.448,56.775c1.88,2.164,3.344,6.112,4.349,9.042-6.333,2.1-6.1,3.632.5,4.244" transform="translate(33.756 15.068)" fill="none" stroke="#000" stroke-linecap="round" stroke-linejoin="round" stroke-width="0.7"/>
          <path id="Trazado_845628" data-name="Trazado 845628" d="M185.28,63.032S189.5,50.8,196.669,54.6s5.694,24.675-11.389,22.356,0-13.919,0-13.919" transform="translate(47.157 14.295)" fill="#a0222b"/>
          <path id="Trazado_845629" data-name="Trazado 845629" d="M190.205,56.775c-1.88,2.164-3.344,6.112-4.349,9.042,6.333,2.1,6.1,3.632-.5,4.244" transform="translate(49.192 15.068)" fill="none" stroke="#000" stroke-linecap="round" stroke-linejoin="round" stroke-width="0.7"/>
          <path id="Trazado_845630" data-name="Trazado 845630" d="M106.061,118.129a188.31,188.31,0,0,1,28.471-10.756c14.868-4.113,24.991-4.113,24.991-5.694s.316-12.654.316-12.654l19.3.633s-1.265,10.756-1.265,12.338,19.43,4.662,29.42,6.327a83,83,0,0,1,28.471,10.123L170.6,122.874Z" transform="translate(28.148 23.626)" fill="#a0222b"/>
          <path id="Trazado_845631" data-name="Trazado 845631" d="M198.548,75.338a33.344,33.344,0,0,1-66.689,0V60.62a33.344,33.344,0,0,1,66.689,0Z" transform="translate(34.994 7.239)" fill="#b74a47"/>
          <path id="Trazado_845632" data-name="Trazado 845632" d="M150.653,61.926a1,1,0,1,1-2,0V58.258a1,1,0,1,1,2,0Z" transform="translate(39.451 15.196)"/>
          <path id="Trazado_845633" data-name="Trazado 845633" d="M164.427,61.926a1,1,0,1,0,2,0V58.258a1,1,0,1,0-2,0Z" transform="translate(43.638 15.196)"/>
          <path id="Trazado_845634" data-name="Trazado 845634" d="M153.742,65.379c1.5.79,3.138,1.684,4.487,2.449" transform="translate(40.802 17.351)" fill="none" stroke="#000" stroke-linecap="round" stroke-linejoin="round" stroke-width="0.7"/>
          <path id="Trazado_845635" data-name="Trazado 845635" d="M159.545,68.319a44.152,44.152,0,0,0,3.877-3.262" transform="translate(42.342 17.266)" fill="none" stroke="#000" stroke-linecap="round" stroke-linejoin="round" stroke-width="0.7"/>
          <path id="Trazado_845636" data-name="Trazado 845636" d="M155.67,80.33a18.1,18.1,0,0,0,6.732-.2" transform="translate(41.313 21.265)" fill="none" stroke="#000" stroke-linecap="round" stroke-linejoin="round" stroke-width="0.7"/>
          <path id="Trazado_845637" data-name="Trazado 845637" d="M153.033,68.449a9.792,9.792,0,1,1-9.792-9.792,9.793,9.793,0,0,1,9.792,9.792" transform="translate(35.416 15.567)" fill="#e02239"/>
          <path id="Trazado_845638" data-name="Trazado 845638" d="M185.9,66.949a9.792,9.792,0,1,1-9.793-9.792,9.793,9.793,0,0,1,9.793,9.792" transform="translate(44.139 15.169)" fill="#e02239"/>
          <path id="Trazado_845639" data-name="Trazado 845639" d="M142.895,54.227c.869.347,15.817,4.519,15.817,4.519s-3.477-6.431-6.605-6.952-9.212,2.433-9.212,2.433" transform="translate(37.923 13.729)" fill="#64b2f9"/>
          <path id="Trazado_845640" data-name="Trazado 845640" d="M175.712,54.227c-.869.347-15.817,4.519-15.817,4.519s3.477-6.431,6.605-6.952,9.212,2.433,9.212,2.433" transform="translate(42.435 13.729)" fill="#64b2f9"/>
          <path id="Trazado_845641" data-name="Trazado 845641" d="M139.7,56.669c.491,1.054,47.658.421,47.9-.211s5.651-20.668-8.353-29.1-36.112-3.585-40.78,5.906,1.229,23.41,1.229,23.41" transform="translate(36.273 6.105)" fill="#a630d9"/>
          <path id="Trazado_845642" data-name="Trazado 845642" d="M157.239,50.817c0-8.038-.938-16-.843-24.042" transform="translate(41.504 7.106)" fill="none" stroke="#000" stroke-linecap="round" stroke-linejoin="round" stroke-width="0.7"/>
          <path id="Trazado_845643" data-name="Trazado 845643" d="M152.149,42.344c-.157-3.029-.3-6.038-.421-9.069" transform="translate(40.267 8.831)" fill="none" stroke="#000" stroke-linecap="round" stroke-linejoin="round" stroke-width="0.7"/>
          <line id="Línea_432" data-name="Línea 432" y1="9.279" transform="translate(185.88 42.95)" fill="none" stroke="#000" stroke-linecap="round" stroke-linejoin="round" stroke-width="0.7"/>
          <path id="Trazado_845644" data-name="Trazado 845644" d="M165.152,49.032c-.172-7.032-.5-14.051-.421-21.09" transform="translate(43.715 7.416)" fill="none" stroke="#000" stroke-linecap="round" stroke-linejoin="round" stroke-width="0.7"/>
          <path id="Trazado_845645" data-name="Trazado 845645" d="M125.45,92.45a241.707,241.707,0,0,1-11.389-24.675" transform="translate(30.271 17.987)" fill="none" stroke="#000" stroke-linecap="round" stroke-linejoin="round" stroke-width="0.7"/>
          <path id="Trazado_845646" data-name="Trazado 845646" d="M193.561,88.154a92.059,92.059,0,0,0,8.225-20.879" transform="translate(51.369 17.854)" fill="none" stroke="#000" stroke-linecap="round" stroke-linejoin="round" stroke-width="0.7"/>
          <path id="Trazado_845647" data-name="Trazado 845647" d="M156.811,64.341a3.8,3.8,0,0,0,4.745-.316" transform="translate(41.616 16.992)" fill="none" stroke="#fff" stroke-linecap="round" stroke-linejoin="round" stroke-width="1"/>
          <path id="Trazado_845648" data-name="Trazado 845648" d="M181.811,2.775a64.857,64.857,0,0,1,17.4,11.389" transform="translate(48.251 0.736)" fill="none" stroke="#fff" stroke-linecap="round" stroke-linejoin="round" stroke-width="1"/>
          <path id="Trazado_845649" data-name="Trazado 845649" d="M185.061,9.025a16.214,16.214,0,0,0,4.113,3.163" transform="translate(49.114 2.395)" fill="none" stroke="#fff" stroke-linecap="round" stroke-linejoin="round" stroke-width="1"/>
          <path id="Trazado_845650" data-name="Trazado 845650" d="M119.811,37.878a148.363,148.363,0,0,1,9.807-13.6" transform="translate(31.797 6.442)" fill="none" stroke="#000" stroke-linecap="round" stroke-linejoin="round" stroke-width="0.7"/>
          <path id="Trazado_845651" data-name="Trazado 845651" d="M183.811,23.525a67.334,67.334,0,0,1,8.541,10.439" transform="translate(48.782 6.243)" fill="none" stroke="#000" stroke-linecap="round" stroke-linejoin="round" stroke-width="0.7"/>
          <path id="Trazado_845652" data-name="Trazado 845652" d="M148.561,71.417s2.319-4.429,5.906-4.64,6.327,3.586,6.327,3.586,3.163-3.8,7.171-3.586,5.694,4.64,5.694,4.64.21,11.389-12.444,11.389-12.654-11.389-12.654-11.389" transform="translate(39.427 17.72)" fill="#a630d9"/>
          <path id="Trazado_845653" data-name="Trazado 845653" d="M144.552,67.988c12.231,8.211,24.738,11.968,34.681-1.836" transform="translate(38.363 17.556)" fill="none" stroke="#000" stroke-linecap="round" stroke-linejoin="round" stroke-width="0.7"/>
          <path id="Trazado_845654" data-name="Trazado 845654" d="M93.811,153.849s10.123-25.308,11.072-27.839,34.482,0,34.482,0-21.512,58.208-29.737,65.168Z" transform="translate(24.897 33.144)" fill="#a0222b"/>
          <path id="Trazado_845655" data-name="Trazado 845655" d="M188.228,125.038s28.683,37.118,31.213,39.227,36.7,5.483,35.431,2.531-29.948-39.649-31.213-41.337-35.431-.421-35.431-.421" transform="translate(49.954 33.063)" fill="#a0222b"/>
          <path id="Trazado_845656" data-name="Trazado 845656" d="M123.56,118.525c-4.448,5.14-7,11.073-7,17.4,0,19.568,24.289,35.431,54.254,35.431s54.254-15.863,54.254-35.431c0-6.326-2.551-12.259-7-17.4Z" transform="translate(30.935 31.456)" fill="#f24452"/>
          <path id="Trazado_845657" data-name="Trazado 845657" d="M107.346,112.184c1.7-1.7,60.106,1.265,68.015,1.265s63.9-3.163,64.851-1.582,7.276,14.236,7.276,17.4-44.921,4.429-72.444,4.429-72.76,0-73.709-1.582,4.113-18.032,6.011-19.93" transform="translate(26.862 29.571)" fill="#fc596d"/>
          <path id="Trazado_845658" data-name="Trazado 845658" d="M119.561,134.275c4.6,12.548,15.251,20.887,29.1,23.41" transform="translate(31.73 35.635)" fill="none" stroke="#000" stroke-linecap="round" stroke-linejoin="round" stroke-width="0.7"/>
          <path id="Trazado_845659" data-name="Trazado 845659" d="M184.728,172.957s3.163-13.285,6.538-15.395,21.933,2.318,21.933,2.318Z" transform="translate(49.025 41.664)" fill="#a0222b"/>
          <path id="Trazado_845660" data-name="Trazado 845660" d="M206.069,158.076c1.492-1.492,12.233-10.967,25.729-10.123s26.995,19.825,24.464,28.261c-2.84,9.466-43.022,5.483-45.975,5.483s-6.748-21.09-4.218-23.621" transform="translate(54.469 39.251)" fill="#b74a47"/>
          <path id="Trazado_845661" data-name="Trazado 845661" d="M211.921,152.409a36.718,36.718,0,0,0-5.852,4.469c-2.531,2.531,1.265,23.621,4.218,23.621,1.312,0,9.97.783,19.439.826,1.76-12.454-6.266-25.951-17.8-28.917" transform="translate(54.469 40.448)" fill="#a0222b"/>
          <path id="Trazado_845662" data-name="Trazado 845662" d="M227.806,184.354c-8.71,15.544-35.216,10.982-37.1,9.665s-9.875-14.1-9.25-16.89,30.912-21.828,33.213-21.707,18.328,19.676,13.141,28.932" transform="translate(48.147 41.248)" fill="#b74a47"/>
          <path id="Trazado_845663" data-name="Trazado 845663" d="M210.354,180.442a115.616,115.616,0,0,1-20.469,3.748" transform="translate(50.394 47.888)" fill="none" stroke="#000" stroke-linecap="round" stroke-linejoin="round" stroke-width="0.7"/>
          <path id="Trazado_845664" data-name="Trazado 845664" d="M207.26,174.942c-6.508,2.619-14.813,3.781-21.61,5.858" transform="translate(49.27 46.428)" fill="none" stroke="#000" stroke-linecap="round" stroke-linejoin="round" stroke-width="0.7"/>
          <path id="Trazado_845665" data-name="Trazado 845665" d="M202.987,168.275a128.607,128.607,0,0,1-18.719,8.676" transform="translate(48.903 44.659)" fill="none" stroke="#000" stroke-linecap="round" stroke-linejoin="round" stroke-width="0.7"/>
          <path id="Trazado_845666" data-name="Trazado 845666" d="M3.38,124.095,79.4,100.953,2.991,78.843a82.021,82.021,0,0,0,.388,45.252" transform="translate(0 20.924)" fill="#f27405"/>
          <line id="Línea_433" data-name="Línea 433" y1="23.141" x2="76.017" transform="translate(3.379 121.878)" fill="none" stroke="#a0222b" stroke-miterlimit="10" stroke-width="4"/>
          <path id="Trazado_845667" data-name="Trazado 845667" d="M79.314,110.952,40.23,40.036A81.878,81.878,0,0,0,2.364,89.142l76.406,22.11.319-.1Z" transform="translate(0.627 10.625)" fill="#f2b705"/>
          <path id="Trazado_845668" data-name="Trazado 845668" d="M125.579,56.959a82.123,82.123,0,0,0-39.131-23.54L63.661,112.162Z" transform="translate(16.895 8.869)" fill="#246ddc"/>
          <line id="Línea_434" data-name="Línea 434" y1="55.203" x2="61.918" transform="translate(80.556 65.828)" fill="none" stroke="#a0222b" stroke-miterlimit="10" stroke-width="4"/>
          <path id="Trazado_845669" data-name="Trazado 845669" d="M71.987,112.748,94.774,34.005a81.869,81.869,0,0,0-60.835,7.414c-.561.309-1.1.639-1.651.96L71.372,113.3Z" transform="translate(8.569 8.283)" fill="#04bf33"/>
          <line id="Línea_435" data-name="Línea 435" y1="11.811" x2="54.412" transform="translate(36.563 81.333)" fill="none" stroke="#000" stroke-linecap="round" stroke-linejoin="round" stroke-width="0.7"/>
          <line id="Línea_436" data-name="Línea 436" y1="2.952" x2="15.606" transform="translate(55.122 77.96)" fill="none" stroke="#000" stroke-linecap="round" stroke-linejoin="round" stroke-width="0.7"/>
          <path id="Trazado_845670" data-name="Trazado 845670" d="M116.3,200.741c3.422,0,12.654-15.5,7.276-22.777s-51.248-77.189-51.248-77.189l-12.97.316s-3.163,61.371,13.6,79.72,40.493,19.93,43.34,19.93" transform="translate(15.691 26.745)" fill="#b74a47"/>
          <path id="Trazado_845671" data-name="Trazado 845671" d="M94.252,134.085c-11.494-17.418-21.92-33.31-21.92-33.31l-12.97.316a295.951,295.951,0,0,0,.554,33.509,231.2,231.2,0,0,0,34.336-.515" transform="translate(15.691 26.745)" fill="#a0222b"/>
          <path id="Trazado_845672" data-name="Trazado 845672" d="M46.586,94.733C49.773,77.2,76.323,72.9,78.537,73.537S92.456,83.66,92.773,86.508s-22.144,30.686-24.359,31.318S44.688,105.172,46.586,94.733" transform="translate(12.332 19.501)" fill="#b74a47"/>
          <path id="Trazado_845673" data-name="Trazado 845673" d="M56.061,87.98a137.916,137.916,0,0,1,19.614-11.7" transform="translate(14.878 20.243)" fill="none" stroke="#000" stroke-linecap="round" stroke-linejoin="round" stroke-width="0.7"/>
          <path id="Trazado_845674" data-name="Trazado 845674" d="M63.561,91.812c5.3-4.591,11.013-9.116,16.766-13.287" transform="translate(16.869 20.84)" fill="none" stroke="#000" stroke-linecap="round" stroke-linejoin="round" stroke-width="0.7"/>
          <path id="Trazado_845675" data-name="Trazado 845675" d="M69.061,95.245a103.635,103.635,0,0,1,13.287-12.97" transform="translate(18.328 21.835)" fill="none" stroke="#000" stroke-linecap="round" stroke-linejoin="round" stroke-width="0.7"/>
        </g>
      </g>
    </g>
  </g>
</svg>
