<svg xmlns="http://www.w3.org/2000/svg" xmlns:xlink="http://www.w3.org/1999/xlink" width="469" height="347.742" viewBox="0 0 469 347.742">
  <defs>
    <filter id="Rectángulo_393222" x="0" y="0" width="469" height="347.742" filterUnits="userSpaceOnUse">
      <feOffset dx="7" dy="7" input="SourceAlpha"/>
      <feGaussianBlur stdDeviation="20" result="blur"/>
      <feFlood flood-opacity="0.149"/>
      <feComposite operator="in" in2="blur"/>
      <feComposite in="SourceGraphic"/>
    </filter>
    <filter id="Rectángulo_393138" x="0" y="0" width="469" height="347.742" filterUnits="userSpaceOnUse">
      <feOffset dx="7" dy="7" input="SourceAlpha"/>
      <feGaussianBlur stdDeviation="20" result="blur-2"/>
      <feFlood flood-opacity="0.149"/>
      <feComposite operator="in" in2="blur-2"/>
      <feComposite in="SourceGraphic"/>
    </filter>
    <clipPath id="clip-path">
      <g transform="matrix(1, 0, 0, 1, 0, 0)" filter="url(#Rectángulo_393222)">
        <path id="Rectángulo_393222-2" data-name="Rectángulo 393222" d="M24,0H325a24,24,0,0,1,24,24V227.742a0,0,0,0,1,0,0H0a0,0,0,0,1,0,0V24A24,24,0,0,1,24,0Z" transform="translate(-8463.56 6220.95)" fill="#727997" opacity="0.46"/>
      </g>
    </clipPath>
    <clipPath id="clip-path-2">
      <rect id="Rectángulo_393218" data-name="Rectángulo 393218" width="611.613" height="529.363" fill="none"/>
    </clipPath>
    <clipPath id="clip-path-4">
      <rect id="Rectángulo_393220" data-name="Rectángulo 393220" width="522.439" height="522.439" fill="none"/>
    </clipPath>
  </defs>
  <g id="_13" data-name="13" transform="translate(8516.563 -6167.945)">
    <g transform="matrix(1, 0, 0, 1, -8516.56, 6167.95)" filter="url(#Rectángulo_393138)">
      <path id="Rectángulo_393138-2" data-name="Rectángulo 393138" d="M24,0H325a24,24,0,0,1,24,24V227.742a0,0,0,0,1,0,0H0a0,0,0,0,1,0,0V24A24,24,0,0,1,24,0Z" transform="translate(53 53)" fill="#12263f"/>
    </g>
    <g id="Enmascarar_grupo_1074883" data-name="Enmascarar grupo 1074883" clip-path="url(#clip-path)">
      <g id="Grupo_1076501" data-name="Grupo 1076501" transform="translate(-8581.117 6220.768)">
        <g id="Grupo_1076494" data-name="Grupo 1076494" transform="translate(0 0)">
          <g id="Grupo_1076493" data-name="Grupo 1076493" clip-path="url(#clip-path-2)">
            <path id="Trazado_833233" data-name="Trazado 833233" d="M1546.458,267.587a32.3,32.3,0,1,1-32.3-32.3,32.3,32.3,0,0,1,32.3,32.3" transform="translate(-1094.768 -173.826)" fill="#7ae07a"/>
            <path id="Trazado_833234" data-name="Trazado 833234" d="M1356.9,184.523c-2.217-11.227,5.109-20.965,25.938-22.583s30.958,26.231,17.012,43.385-45.893-11.183-42.95-20.8" transform="translate(-1002.168 -119.589)" fill="#7ae07a"/>
            <path id="Trazado_833235" data-name="Trazado 833235" d="M1421.917,845.893l18.177,274.388,15.9-1.479,9.045-272.909Z" transform="translate(-1050.484 -624.93)" fill="#d17a2e"/>
            <path id="Trazado_833236" data-name="Trazado 833236" d="M1260.73,441l-5.224,41-28-37.561-8.09,3.646s22.362,64.354,41.317,64.62c16.94.237,23.157-61.925,23.157-61.925Z" transform="translate(-900.879 -325.805)" fill="#e88833"/>
            <path id="Trazado_833237" data-name="Trazado 833237" d="M1625.708,444.914l28.7,57.738,45.226,39.551-4.927,5.872s-42.108-20.54-50.078-31.876l-39.111-55.625Z" transform="translate(-1186.127 -328.694)" fill="#e88833"/>
            <path id="Trazado_833238" data-name="Trazado 833238" d="M1937.032,802.909s-1.474,5.872,4.1,7.06c2.367.5,5.732-.552,4.608-2.02-2.511-3.051,7.665-6.966,7.665-6.966l-.5-2.32Z" transform="translate(-1430.911 -590.036)" fill="#e88833"/>
            <path id="Trazado_833239" data-name="Trazado 833239" d="M1943.68,832.972a20.791,20.791,0,0,0,13.308.876c-.356-2.4-4.852-.917-4.852-.917a7.78,7.78,0,0,0-5.4-2.029c-3.18.165-4.192,1.508-3.055,2.07" transform="translate(-1435.62 -613.848)" fill="#e88833"/>
            <path id="Trazado_833240" data-name="Trazado 833240" d="M1996.489,798.662l7.064,5.354a4.628,4.628,0,0,1-4.989-.6c-2.632-1.974-2.665-3.983-2.665-3.983Z" transform="translate(-1474.532 -590.036)" fill="#e88833"/>
            <path id="Trazado_833241" data-name="Trazado 833241" d="M1998.19,797.455l8.852-.458a4.629,4.629,0,0,1-4.2,2.754c-3.284.187-4.6-1.328-4.6-1.328Z" transform="translate(-1476.224 -588.806)" fill="#e88833"/>
            <path id="Trazado_833242" data-name="Trazado 833242" d="M1654.326,915.143c-1.031,17.969-75.4,56.622-75.4,56.622l-5.446-12.7,50.042-52.207-20.048-29.324-21.628-31.626H1629.8s3.847,7.73,8.5,18.227c7.353,16.543,16.664,39.992,16.028,51" transform="translate(-1162.458 -624.944)" fill="#d17a2e"/>
            <path id="Trazado_833243" data-name="Trazado 833243" d="M1661.96,864.138c-10.421,2.322-28.225,5.162-34.822,13.4l-21.628-31.626h47.947s3.848,7.731,8.5,18.227" transform="translate(-1186.12 -624.943)" fill="#804b1c"/>
            <path id="Trazado_833244" data-name="Trazado 833244" d="M1453.752,467.4l3.56-52.989c-1.806-7.832-11.236-15.062-23.371-7.759-6.725,3.6-20.687,4.391-33.2.364-11.575-6.577-21.659-.855-23.156,6.842,13.633,18.742,20.692,32.813,34.8,53.541Z" transform="translate(-1017.731 -298.189)" fill="#e88833"/>
            <path id="Trazado_833245" data-name="Trazado 833245" d="M1480.862,464.353c-5.369-11.266-61.068-6.263-66.482,8.267,2.5,8.146,10.952,17.555,19.839,41.079-37.229,22.368-21.561,65.44-21.561,65.44l104.569-1.759s-11.544-42.77-26.529-59c-4.03-4.364-13.451-10.673-13.451-10.673.512-17.617,3.907-34.729,3.614-43.355" transform="translate(-1041.227 -338.499)" fill="#ff4aee"/>
            <path id="Trazado_833246" data-name="Trazado 833246" d="M1472.448,288.677l16.892,37.444h-25.756l-8.772-29.356Z" transform="translate(-1074.787 -213.269)" fill="#e88833"/>
            <path id="Trazado_833247" data-name="Trazado 833247" d="M1368.861,242.566c-3.8-.333-11.247-5.75-15.144-14.384a28.494,28.494,0,0,1-2.518-10.234c-.729-14.4,8.142-26.565,19.8-27.151,12.137,1.529,14.006,22.618,24.87,25.568.729,14.415-21.86,26.628-27.008,26.2" transform="translate(-998.208 -140.957)" fill="#e88833"/>
            <path id="Trazado_833248" data-name="Trazado 833248" d="M1382.716,293.441a4.515,4.515,0,0,1-3.1-.912.884.884,0,0,1-.329-.646c-.006-.5.475-.966,1.2-1.669a14.182,14.182,0,0,0,4.334-6.957.221.221,0,0,1,.427.117,14.774,14.774,0,0,1-4.453,7.159c-.6.578-1.073,1.034-1.069,1.345,0,.068.022.176.192.332,1.177,1.177,4.225.685,4.255.68a.221.221,0,0,1,.073.437,10.138,10.138,0,0,1-1.534.115" transform="translate(-1018.99 -209.144)" fill="#ffe8d9"/>
            <path id="Trazado_833249" data-name="Trazado 833249" d="M1362.156,264.42s.251-4.318-2.63-7-5.106-.4-5.106-.4a3.129,3.129,0,0,0,2.376,3.034c2.376.505,5.21,2.519,5.36,4.369" transform="translate(-1000.619 -189.214)" fill="#008cf0"/>
            <path id="Trazado_833250" data-name="Trazado 833250" d="M1360.388,258.855s.8-1.819-3.512-4.007c-5.155-2.615-4.355-6.264-4.355-6.264s-2.347,4.841,3.179,7.062c4.044,1.626,4.688,3.209,4.688,3.209" transform="translate(-998.851 -183.649)"/>
            <path id="Trazado_833251" data-name="Trazado 833251" d="M1410.787,273.059s1.3-5.679,6.729-6.454,7.182,1.652,9.675,0a10.875,10.875,0,0,1-9,4.146,9.383,9.383,0,0,0-7.4,2.308" transform="translate(-1042.262 -196.847)" fill="#008cf0"/>
            <path id="Trazado_833252" data-name="Trazado 833252" d="M1410.787,270.517c.092-1.02,1.474-3.129,7.484-3.438,7.466-.384,9.334-4.072,9.334-4.072s-1.846,6.6-8.811,5.919c-6.351-.619-8.007,1.591-8.007,1.591" transform="translate(-1042.262 -194.305)"/>
            <path id="Trazado_833253" data-name="Trazado 833253" d="M1442.341,297.737s-2.333,7.756-13.455,11.4c10.111.708,14.219-6.444,13.455-11.4" transform="translate(-1055.633 -219.963)" fill="#b05127"/>
            <path id="Trazado_833254" data-name="Trazado 833254" d="M1384.913,343.9s1.247-3.995,4.055-1.636c2.243-1.984,4.206.893,4.562,2.661,0,0-.749,4.609-4.828,4.14-3.4-.392-3.789-5.165-3.789-5.165" transform="translate(-1023.147 -252.308)" fill="#d10404"/>
            <path id="Trazado_833255" data-name="Trazado 833255" d="M1390.719,352.486a16.8,16.8,0,0,0,5.223.239c-1.5.512-1.29,2.255-2.612,2.253-.956,0-1.127-1.758-2.611-2.492" transform="translate(-1027.436 -260.41)" fill="#850404"/>
            <path id="Trazado_833256" data-name="Trazado 833256" d="M1428.505,474.093s2.275-11.334,34.3-13.912c4.246,25.023-27.579,28.24-34.3,13.912" transform="translate(-1055.352 -339.973)" fill="#ab00ab"/>
            <path id="Trazado_833257" data-name="Trazado 833257" d="M1558.879,458.322s27.458-3.5,32.177,5.645c-.69,18.062-36.325,13.193-32.177-5.645" transform="translate(-1151.422 -338.114)" fill="#ab00ab"/>
            <path id="Trazado_833258" data-name="Trazado 833258" d="M1476.787,383.269l22.629-3.506,2.455,5.442-23.752,2.522Z" transform="translate(-1091.022 -280.562)" fill="#ff0"/>
            <path id="Trazado_833259" data-name="Trazado 833259" d="M1517.309,302.267a2.781,2.781,0,1,1-2.781-2.781,2.781,2.781,0,0,1,2.781,2.781" transform="translate(-1116.849 -221.255)" fill="#fff"/>
          </g>
        </g>
        <path id="Trazado_833260" data-name="Trazado 833260" d="M666.783,397.551l10.6-26.724,16.889.947-.439,26.643Z" transform="translate(-492.607 -273.96)" fill="#f5a689"/>
        <g id="Grupo_1076496" data-name="Grupo 1076496" transform="translate(0 0)">
          <g id="Grupo_1076495" data-name="Grupo 1076495" clip-path="url(#clip-path-2)">
            <path id="Trazado_833261" data-name="Trazado 833261" d="M673.355,272.084s-18.933.987-22.461-5.647a10.243,10.243,0,0,1-.567-6.614c10.72,3.2,15.289-2.267,15.289-2.267l-11.561-7.439a46.233,46.233,0,0,1,2.491-4.088s-3.865-4.054-2.9-5.618,11.012-2.526,11.012-2.526,11.7-9.844,25.287-5.6c16.426,4.929,24.2,47.036-16.587,39.8" transform="translate(-480.245 -170.823)" fill="#f5a689"/>
            <path id="Trazado_833262" data-name="Trazado 833262" d="M649.9,332.664s7.591,4.318,14.928-.635c-.595,2.138-9.661,5.211-15.289,2.267-.9-.527-.649-1.709.362-1.632" transform="translate(-479.455 -245.297)" fill="red"/>
            <path id="Trazado_833263" data-name="Trazado 833263" d="M661.035,303.551s-1.883,1.579-1.479,3.025,3.62,3.665,13.04,4.414c-4.25-2.76-11.561-7.439-11.561-7.439" transform="translate(-487.225 -224.258)" fill="#fff"/>
            <path id="Trazado_833264" data-name="Trazado 833264" d="M663.581,300.266c-.133-1.228,1.259-1.108,4.1,1.431,2.532,2.26,7.922,6.306,7.922,6.306s-11.523-3.1-12.024-7.737" transform="translate(-490.235 -221.271)" fill="red"/>
            <path id="Trazado_833265" data-name="Trazado 833265" d="M730.135,259.153s3.453-1.349,5.584,1.185a8.521,8.521,0,0,1,1.6,6.109s-4.847-1.34-6.166-3.888-1.015-3.406-1.015-3.406" transform="translate(-539.387 -191.192)" fill="#f66"/>
            <path id="Trazado_833266" data-name="Trazado 833266" d="M726.481,259.883s-6.16-2.5-7.181-7.293c-3.748-1.316-3.861-2.68-3.861-2.68s2.694,9.25,11.042,9.973" transform="translate(-528.553 -184.629)"/>
            <path id="Trazado_833267" data-name="Trazado 833267" d="M752.6,206.029S736.808,221.088,738.781,228,750.4,239.165,750.4,239.165s-3.4-6.783-2.193-9.743c4.167.548,18.641,3.18,24.124-4.606,3.01-4.274-1.338-10.738-1.338-10.738a14.42,14.42,0,0,0,5.06-8.049c1.1-5.178-1.091-14.547-17.648-20.688-9.252-3.431-14.81-13.794-14.81-13.794-3.613,10.595,1.9,20.493,9,34.482" transform="translate(-545.671 -126.736)" fill="#d65f00"/>
            <path id="Trazado_833268" data-name="Trazado 833268" d="M760.85,328.184a5.3,5.3,0,1,1-6.132-3.807,5.11,5.11,0,0,1,6.132,3.807" transform="translate(-554.378 -239.564)" fill="#f5a689"/>
            <path id="Trazado_833269" data-name="Trazado 833269" d="M755.484,361.358a5.876,5.876,0,0,1-.157-11.751l.014.515a5.361,5.361,0,1,0,5.286,3.861,5.329,5.329,0,0,0-1.751-2.649l.326-.4a5.877,5.877,0,0,1-3.719,10.423" transform="translate(-553.792 -258.283)" fill="#ff0"/>
            <path id="Trazado_833270" data-name="Trazado 833270" d="M715.439,312.972c2.4,2.352,11,2.095,13.321-3.311.771,6.807-9.488,11.165-13.321,3.311" transform="translate(-528.553 -228.772)" fill="#ed8a66"/>
            <path id="Trazado_833271" data-name="Trazado 833271" d="M496.5,380.647l-34.157,11.678,11.227-42.255-5.922-1.692c-7.706,21.291-28.733,45.453-21.627,58.505,6.893,10.224,55.746-2.145,55.746-2.145,13.557-3.831,7.589-28.438-5.267-24.091" transform="translate(-328.442 -257.375)" fill="#f5a689"/>
            <path id="Trazado_833272" data-name="Trazado 833272" d="M515.159,320.366s6.4,1.015,6.388-5.087c0-2.42-1.38-5.591-2.669-4.265-2.654,2.928-8.008-6.57-8.008-6.57l-2.222.836Z" transform="translate(-375.779 -224.918)" fill="#f5a689"/>
            <path id="Trazado_833273" data-name="Trazado 833273" d="M549.111,316.131s1.6-5.362-1.424-12.454c-2.32.7-.2,4.934-.2,4.934a7.779,7.779,0,0,0-1.221,5.638c.625,3.122,2.456,3.088,2.846,1.882" transform="translate(-403.474 -224.351)" fill="#f5a689"/>
            <path id="Trazado_833274" data-name="Trazado 833274" d="M508.668,285.812l4.269-7.768a4.628,4.628,0,0,1,.129,5.024c-1.57,2.891-3.552,3.216-3.552,3.216Z" transform="translate(-375.794 -205.414)" fill="#f5a689"/>
            <path id="Trazado_833275" data-name="Trazado 833275" d="M503.826,283.155l-1.742-8.691a4.629,4.629,0,0,1,3.337,3.758c.663,3.222-.644,4.748-.644,4.748Z" transform="translate(-370.93 -202.769)" fill="#f5a689"/>
            <path id="Trazado_833276" data-name="Trazado 833276" d="M534.1,469.706c11.464-3.267,45.825-8.025,49.491,8.658,2.755,10.571-3.483,23.868-10.351,57.182,27.968,17.458,17.635,38.284,16.4,51.473-1.555,16.645-6.179,40.837-6.179,40.837s-61.887-11.378-86.44-18.266c10.927-23.617,26.662-53.082,36.742-72.215-.444-10.358-15.351-57.386.335-67.669" transform="translate(-367.19 -344.626)" fill="red"/>
            <path id="Trazado_833277" data-name="Trazado 833277" d="M414.16,692.782a21.98,21.98,0,0,0-24.7,1.53A20.81,20.81,0,0,0,383.5,717.8c-10.565-9.7-29.766-7.73-37.9,3.883s-3.143,29.927,9.855,36.151c-12.326-2.189-25.4,7.458-26.614,19.645s9.676,24.3,22.185,24.662c-11.887,8.2-11.729,28.391.287,36.58s31.331,1.271,35-12.534c2,14,16.916,25.315,31.078,22.762s23.807-19.377,17.865-32.285c9.122,10.981,28.606,11.224,37.853.473s5.714-29.542-6.863-36.506c15.62,4.086,33.291-8.542,34.041-24.326s-15.637-30.2-31.566-27.773c9.73-10.425,6.018-29.748-6.943-36.145s-30.905,2.238-33.565,16.153c-4.99-5.621-8.849-12.545-14.046-15.76" transform="translate(-242.871 -509.538)" fill="red"/>
            <path id="Trazado_833278" data-name="Trazado 833278" d="M489.556,809.6c-1.233,22.171-36.03,9.654-36.03,9.654S451.333,856.1,435.1,857.415s-22.588-22.369-22.588-22.369-15.571,38.378-34.212,19.3,10.527-44.738,10.527-44.738-20.615,15.132-34.212,6.081c-9.685-6.447-6.241-18.215-3.457-24.455A21.893,21.893,0,0,0,345.6,796.7c-8.136,11.613-3.143,29.927,9.855,36.151-12.326-2.189-25.4,7.458-26.613,19.646s9.675,24.3,22.184,24.662c-11.887,8.2-11.728,28.391.287,36.58s31.331,1.271,35-12.534c2,14,16.916,25.314,31.078,22.762s23.807-19.377,17.865-32.285c9.122,10.981,28.606,11.224,37.853.473s5.714-29.543-6.863-36.506c15.62,4.086,33.291-8.542,34.041-24.327.4-8.406-4.062-16.422-10.725-21.715" transform="translate(-242.872 -584.547)" fill="#c00"/>
            <path id="Trazado_833279" data-name="Trazado 833279" d="M635.995,450.844s-7.306-4.325-3.509-9.351c16.046,7.32,32.3,1.265,46.9-.49,0,2.965-5.19,8.566-9.723,12.62-2.381,2.129-24.343,1.112-33.663-2.779" transform="translate(-466.46 -325.805)" fill="red"/>
            <path id="Trazado_833280" data-name="Trazado 833280" d="M674.231,493.01l-1.162,33.018-16.977-27.089-6.041,2.432s13.22,45.525,25.49,45.95c14.481.5,21.71-54.648,21.71-54.648.717-6.068-4.6-11.03-9.108-11.823a11.878,11.878,0,0,0-13.913,12.159" transform="translate(-480.246 -355.117)" fill="#f5a689"/>
            <path id="Trazado_833281" data-name="Trazado 833281" d="M648.2,503.448c-1.195-3.063-.547-6.034.279-8.6a112.859,112.859,0,0,0,2.965-11.56c1.215,0,.737,10.012.737,10.012s2.053-7.827,2.57-9.625c1.452,0,0,9.625,0,9.625s3.64-6.864,4.2-8.366c1.195.233-2.361,11.408-2.361,11.408.594,1.827,6.181-3.561,7.012-.5a27.955,27.955,0,0,0-5.984,5.662c-1.642,2.851-7.091,7.895-9.415,1.937" transform="translate(-478.39 -357.048)" fill="#f5a689"/>
            <path id="Trazado_833282" data-name="Trazado 833282" d="M645.52,506.522c-.167-.931-1.289-10.116-1.289-10.116s2.521.877,2.973,7.148-1.518,3.9-1.685,2.967" transform="translate(-475.945 -366.735)" fill="#f5a689"/>
            <path id="Trazado_833283" data-name="Trazado 833283" d="M655.284,581.126a1.009,1.009,0,1,1-1.009-1.009,1.009,1.009,0,0,1,1.009,1.009" transform="translate(-482.62 -428.579)" fill="#fff"/>
            <path id="Trazado_833284" data-name="Trazado 833284" d="M663.879,581.126a1.009,1.009,0,1,1-1.009-1.009,1.009,1.009,0,0,1,1.009,1.009" transform="translate(-488.97 -428.579)" fill="#fff"/>
            <path id="Trazado_833285" data-name="Trazado 833285" d="M674.1,578.454a1.009,1.009,0,1,1-1.009-1.009,1.009,1.009,0,0,1,1.009,1.009" transform="translate(-496.521 -426.605)" fill="#fff"/>
            <path id="Trazado_833286" data-name="Trazado 833286" d="M682.6,574.591a1.009,1.009,0,1,1-1.009-1.009,1.009,1.009,0,0,1,1.009,1.009" transform="translate(-502.803 -423.752)" fill="#fff"/>
            <path id="Trazado_833287" data-name="Trazado 833287" d="M687.742,567.22a1.009,1.009,0,1,1-1.009-1.009,1.009,1.009,0,0,1,1.009,1.009" transform="translate(-506.6 -418.306)" fill="#fff"/>
          </g>
        </g>
        <g id="Grupo_1076498" data-name="Grupo 1076498" transform="translate(35.166)">
          <g id="Grupo_1076497" data-name="Grupo 1076497" clip-path="url(#clip-path-4)">
            <path id="Trazado_833288" data-name="Trazado 833288" d="M885.709,132.319c-4.647-8.183.888-21.417,11.09-24.8,11.108-3.686,20.213-.263,29.99,3.5,7.922-7.648,21.954-9.325,30.519-3.647s10.429,17.892,4.053,26.565c10.317-1.244,20.643,3.24,25.364,11.014s1.668,22.265-4.7,30c11.338,9.716,9.6,22.771,3.868,36.949,16.289,49.52-45.9,69.857-84.554,52.768-20.872-9.074-25.283-33.7-23-42.266,4.825-18.094,15.528-20.561,23-29.54,3.376-8.109-7.87-14.731-8.869-23.414-2.041-17.734,13.514-17.56,7.572-26.293-4.153-5.47-10.894-4.725-14.33-10.843" transform="translate(-683.664 -76.835)" fill="#f66"/>
            <path id="Trazado_833289" data-name="Trazado 833289" d="M1019.143,203.225c-3.7,2.741-28.536,6.908-35.3,2.05s-11.642-11.849-14.724-9.616c-7.566,5.483,7.785,18.2-3.034,36.394,18.109,6.986,16.74,22.661,16.74,22.661.2,4.223,10.552,15.947,32.238-6.092-6.579-9.43,7.785-48.137,4.084-45.4" transform="translate(-748.888 -144.233)" fill="#ed4949"/>
            <path id="Trazado_833290" data-name="Trazado 833290" d="M990.563,440.661c7.566-10.935,54.158-13.177,64.435-6.486,13.385,8.714,5.634,31.339,5.634,71.715-19.912,4.488-36.967,2.948-52.441,1.723-6.265-33.88-14.438-53.74-17.628-66.951" transform="translate(-766.974 -317.974)" fill="#f5ceab"/>
            <path id="Trazado_833291" data-name="Trazado 833291" d="M1057.668,339.222l4.5,27s7.212,4.289,28.5-3.169c-11.331-16.625-13.013-30.853-13.013-30.853Z" transform="translate(-816.55 -245.42)" fill="#f5b984"/>
            <path id="Trazado_833292" data-name="Trazado 833292" d="M1027.948,216.166a30.255,30.255,0,0,1-11.682,9.586c-9.071,4.192-18.45,3.058-21.577.67-3.058-2.319-4.364-6.665-5.394-10.84a65.953,65.953,0,0,0-1.752-6.51,21.62,21.62,0,0,1-1.409-12.421,25.487,25.487,0,0,1,11.819-18.141,18.408,18.408,0,0,1,3.677-1.873c6.476-2.491,16.028-2.715,23.037,2.336,11.7,8.469,12.094,25.219,3.281,37.192" transform="translate(-763.465 -129.228)" fill="#f5b984"/>
            <path id="Trazado_833293" data-name="Trazado 833293" d="M1022.538,195.025c-2.3,3.728-18.743,3.939-26.044,2.29-4.741-1.065-7.851,1.769-9.449,3.882a25.488,25.488,0,0,1,11.819-18.141,18.4,18.4,0,0,1,3.676-1.873c17.248-1.357,22.161,10.32,20,13.841" transform="translate(-764.376 -133.774)" fill="#f5a35b"/>
            <path id="Trazado_833294" data-name="Trazado 833294" d="M1025.877,302.3s-3.728,10.72-10.84,7.4c-3.487-1.632-9.4-2.542-13.76-1.186a5.061,5.061,0,0,0-2.13,1.168c1.031,4.175,2.337,8.521,5.394,10.84,3.126,2.388,12.506,3.522,21.577-.67,7.6-4.448-.241-17.557-.241-17.557m-8.392,13.762c-.824,2.646-4.826,4.035-8.554,3.378-6.628-1.17-8.5-5.436-7.652-7.676s3.147-3.181,8.01-2.45c5.859.881,9,4.121,8.2,6.749" transform="translate(-773.315 -223.335)"/>
            <path id="Trazado_833295" data-name="Trazado 833295" d="M1014.522,284.889a4.895,4.895,0,0,1-3.362-.989.957.957,0,0,1-.356-.7c-.007-.544.515-1.048,1.306-1.81a15.386,15.386,0,0,0,4.7-7.545.24.24,0,0,1,.463.127,16.019,16.019,0,0,1-4.829,7.763c-.65.627-1.163,1.122-1.159,1.459,0,.074.024.191.208.36,1.277,1.277,4.582.742,4.615.737a.24.24,0,0,1,.079.473,10.953,10.953,0,0,1-1.664.125" transform="translate(-781.928 -202.181)" fill="#9c6636"/>
            <path id="Trazado_833296" data-name="Trazado 833296" d="M997.263,178.206s11.2,12.12,32.823,9.781c5.1,0-3.312,13.251-3.312,13.251s1.4-.595,3.991.351c2.256.823,4.219,3.031,1.1,6.78-6.531,7.848,1.348,27.8,14.177,27.8-3.345-13.347,2.237-30.827-1.6-46.153-4.778-19.064-19.509-19.826-29.595-17.591a118.755,118.755,0,0,0-17.581,5.778" transform="translate(-771.924 -126.736)" fill="#f66"/>
            <path id="Trazado_833297" data-name="Trazado 833297" d="M1044.121,273.277a13.313,13.313,0,0,1,4.247,1.01c4.994,2.059,9.6-2.061,10.478-4.33,0,0-1.872.963-6.829.8-6.1-.2-7.9,2.517-7.9,2.517" transform="translate(-806.542 -199.439)" fill="#fff"/>
            <path id="Trazado_833298" data-name="Trazado 833298" d="M1043.8,259.9c.1-1.106,1.6-3.393,8.116-3.729,8.1-.417,10.122-4.416,10.122-4.416s-2,7.155-9.555,6.419c-6.887-.671-8.683,1.725-8.683,1.725" transform="translate(-806.306 -185.991)"/>
            <path id="Trazado_833299" data-name="Trazado 833299" d="M990.123,257.846a16.9,16.9,0,0,0,4.272,2.562,6.3,6.3,0,0,1,3.417,3.506s.017-.236-4.17-.923-3.519-5.144-3.519-5.144" transform="translate(-766.621 -190.492)" fill="#fff"/>
            <path id="Trazado_833300" data-name="Trazado 833300" d="M994.55,249.247s.87-1.972-3.808-4.345c-5.59-2.836-4.723-6.794-4.723-6.794s-1.918,4.649,3.448,7.659c4.122,2.313,5.084,3.479,5.084,3.479" transform="translate(-763.371 -175.91)"/>
            <path id="Trazado_833301" data-name="Trazado 833301" d="M1011.384,335.946s2.09-3.011,5.871-.721a4.8,4.8,0,0,1,6.238,2.785s-1.436,3.574-7.17,2.61c-4.785-.8-4.94-4.673-4.94-4.673" transform="translate(-782.357 -247.023)" fill="#d10404"/>
            <path id="Trazado_833302" data-name="Trazado 833302" d="M1069,273.1a1.6,1.6,0,1,1,1.538,2.021A1.83,1.83,0,0,1,1069,273.1" transform="translate(-824.921 -200.266)"/>
            <path id="Trazado_833303" data-name="Trazado 833303" d="M1002.775,267.566a1.219,1.219,0,1,1,1.185,1.506,1.375,1.375,0,0,1-1.185-1.506" transform="translate(-775.996 -196.56)"/>
            <path id="Trazado_833304" data-name="Trazado 833304" d="M1188.485,438.085c-18.792-3.76-10.986,26.187.65,35.517.839,7.461,1.64,13.917,5.683,23.255-12.452,16.722-11.395,29.343-19.3,52.457-1.47,4.472,7.125,4.872,9.657.987,13.474-20.669,27.8-37.441,27.4-45.96-.277-5.884-7.114-61.245-24.1-66.256" transform="translate(-903.495 -323.409)" fill="#f5bc89"/>
            <path id="Trazado_833305" data-name="Trazado 833305" d="M1175.935,854.315c-.586,5.029-.86,6.455-.181,15.253l5.571,11.732s2.065-1.542.241-4.911-1.832-3.74-1.832-3.74l7.438,1.9a2.235,2.235,0,0,0-1.437-2.2,28.257,28.257,0,0,0-5.141-1.1l7.106-1.351a7.86,7.86,0,0,0-1.642-1.347c-.86-.293-4.489.429-4.489.429a9.472,9.472,0,0,1,3.279-6.44c2.211-1.98,3.573-7.132,1.5-8.862-5.978-4.975-10.106-1.969-10.41.635" transform="translate(-903.495 -628.705)" fill="#f5bc89"/>
            <path id="Trazado_833306" data-name="Trazado 833306" d="M1327.773,757.137c-39.042-19.1-59.125-49.547-56.02-93.372,3.761-53.111-5.585-84.112-47.538-117.012-33.092-25.951-54.413-74.474-56.331-116.961-3.383-.405-6.669-.662-9.959-.788,2.209,43.213,15.673,95.328,41.586,129.627,18.873,24.981,33.114,51.608,40.644,82.339,9.835,40.141-4.05,72.838-12.748,109.953-9.2,39.24,10.676,72.307,39.573,95.379q62.581-1.712,125.157-3.539c1.729-4.6,3.383-9.81,5.354-14.667,17.718-43.665-41.562-57.186-69.718-70.961" transform="translate(-890.617 -316.939)" fill="#ff9800"/>
            <path id="Trazado_833307" data-name="Trazado 833307" d="M150.419,785.984c-6.8-55.573,5.237-98.266,47-135.569,39.684-35.443,72.633-67.219,85.391-120.322,8.008-33.33,3.739-57.206-3.6-92.334-5.061.686-8.908,1.289-8.908,1.289-.435,66.1-23.143,144.406-86.7,176.156-46,22.981-64.03,65.5-82.3,110.873C80.446,777.907,51.808,821.238,0,846.711c46.3,2.3,92.873,1.833,139.218,2.5,8.89-19.667,13.82-41.818,11.2-63.224" transform="translate(-35.166 -323.409)" fill="#b300b3"/>
            <path id="Trazado_833308" data-name="Trazado 833308" d="M675.67,581.324c12.628-48.3,12.8-97.527,6.269-147.842-3.077.344-6.218.741-8.995,1.118,6.382,32.05,11.124,57.246,4.543,88.19-11.36,53.418-46.645,89.022-86.329,124.465-41.767,37.3-53.8,80-47,135.569,2.618,21.406-2.311,43.557-11.2,63.223q50.606.71,101.213,1.38c-13.579-29.093-19.466-59.482-22.381-90.9-6.542-70.51,47.481-112.454,63.886-175.205" transform="translate(-428.901 -320.248)" fill="#0094ff"/>
            <path id="Trazado_833309" data-name="Trazado 833309" d="M926.483,702.251c22.831-55.373,5.745-112.425-3.057-170.891-4.943-32.833-10.215-67.024-12.767-100.67-2.207.19-4.732.441-7.314.729,6.534,50.315,6.359,99.537-6.269,147.842-16.405,62.751-70.428,104.695-63.886,175.205,2.915,31.416,8.8,61.8,22.381,90.9q37.723.5,75.446.981C895.6,810.42,910.093,742,926.483,702.251" transform="translate(-650.308 -318.185)" fill="#00ad00"/>
            <path id="Trazado_833310" data-name="Trazado 833310" d="M1203.194,754.388c9.563-38.616,22.854-73.284,13.018-113.425-7.53-30.732-21.771-57.359-40.644-82.339-25.913-34.3-39.377-86.414-41.586-129.627-.62-.024-3.36.129-6.955.44,2.552,33.646,7.823,67.837,12.766,100.67,8.8,58.465,25.887,115.518,3.057,170.891-16.39,39.752-30.881,108.17,4.536,144.1q47.825.61,95.651,1.2c-24.217-22.929-48.209-58.129-39.844-91.908" transform="translate(-866.676 -316.932)" fill="#ff0"/>
            <path id="Trazado_833311" data-name="Trazado 833311" d="M1448.683,775.782c-4.3-69.606-117.977-76.751-121.648-154.2-1.921-40.519-26.968-60.5-57.757-82.181-37.325-26.281-62.217-59.478-67.135-106.484-2.037-.361-4.073-.654-6.095-.9,1.918,42.487,23.239,91.01,56.331,116.961,41.953,32.9,51.3,63.9,47.538,117.012-3.1,43.825,16.978,74.271,56.02,93.372,28.156,13.775,87.434,27.3,69.718,70.96-1.97,4.857-3.625,10.068-5.354,14.667q37.465-1.107,74.928-2.255c-25.777-13.016-44.746-37.766-46.548-66.958" transform="translate(-918.784 -319.17)" fill="red"/>
            <path id="Trazado_833312" data-name="Trazado 833312" d="M941.258,444.84c-15.575,2.143-16.89,17.787-11.794,30.595a43.03,43.03,0,0,1,3.271,17.788c-.218,4.824-.591,12.272.356,18.826-8.639,19.132-9.584,33.925-24.364,55.523-1.9,4.754,6.613,6.214,9.515,2.233,15.444-21.181,28.828-44.334,30.354-53.619,1.42-8.64,11.268-67.542-7.339-71.346" transform="translate(-706.314 -328.639)" fill="#f5bc89"/>
            <path id="Trazado_833313" data-name="Trazado 833313" d="M876.285,890.8c-9.24,4.632-12.837,8.819-13.851,24.565,3.519-1.8,5.053-10.9,5.053-10.9s4.708-5.571,5.74-3.966c1.086,1.691-3.382,4.843-3.382,4.843s-3.926,3.127-2.659,5.784c3.639-.942,10.115-5.6,16.329-11.892,2.865-2.079,2.011-13.064-7.229-8.432" transform="translate(-672.315 -657.273)" fill="#f5bc89"/>
            <path id="Trazado_833314" data-name="Trazado 833314" d="M850.41,913.794l-12.561,13.029s1.838,1.184,5.426-.865,6.522-8.317,7.135-12.163" transform="translate(-654.152 -675.093)" fill="#f5bc89"/>
            <path id="Trazado_833315" data-name="Trazado 833315" d="M1123.538,309.429a2.459,2.459,0,1,1,3.049,1.674,2.459,2.459,0,0,1-3.049-1.674" transform="translate(-865.141 -226.274)" fill="#fff"/>
            <path id="Trazado_833316" data-name="Trazado 833316" d="M1020.113,418.513s6.277-10,27.534-10.325,25.794,8.048,25.794,8.048-20.974-3.408-53.327,2.277" transform="translate(-788.805 -301.555)" fill="#fff"/>
          </g>
        </g>
        <g id="Grupo_1076500" data-name="Grupo 1076500" transform="translate(0 0)">
          <g id="Grupo_1076499" data-name="Grupo 1076499" clip-path="url(#clip-path-2)">
            <path id="Trazado_833317" data-name="Trazado 833317" d="M841.576,417.059c-3.71.873-4.418,1.58-5.291,5.29-.873-3.71-1.58-4.418-5.29-5.29,3.71-.873,4.418-1.58,5.29-5.29.873,3.71,1.58,4.418,5.291,5.29" transform="translate(-613.923 -304.207)" fill="#fff"/>
            <path id="Trazado_833318" data-name="Trazado 833318" d="M1846.934,579.634c-6.1,1.435-7.263,2.6-8.7,8.7-1.435-6.1-2.6-7.263-8.7-8.7,6.1-1.435,7.263-2.6,8.7-8.7,1.435,6.1,2.6,7.263,8.7,8.7" transform="translate(-1351.628 -421.797)" fill="#f66"/>
            <path id="Trazado_833319" data-name="Trazado 833319" d="M442.806,645.916c-8.447,1.987-10.058,3.6-12.045,12.045-1.987-8.447-3.6-10.057-12.045-12.045,8.447-1.987,10.057-3.6,12.045-12.045,1.987,8.447,3.6,10.057,12.045,12.045" transform="translate(-309.34 -468.292)" fill="#0094ff"/>
          </g>
        </g>
      </g>
    </g>
  </g>
</svg>
