<svg xmlns="http://www.w3.org/2000/svg" xmlns:xlink="http://www.w3.org/1999/xlink" width="349" height="227.742" viewBox="0 0 349 227.742">
  <defs>
    <filter id="Rectángulo_394246" x="-53" y="-53" width="469" height="347.742" filterUnits="userSpaceOnUse">
      <feOffset dx="7" dy="7" input="SourceAlpha"/>
      <feGaussianBlur stdDeviation="20" result="blur"/>
      <feFlood flood-opacity="0.149"/>
      <feComposite operator="in" in2="blur"/>
      <feComposite in="SourceGraphic"/>
    </filter>
    <clipPath id="clip-path">
      <g transform="matrix(1, 0, 0, 1, 0, 0)" filter="url(#Rectángulo_394246)">
        <path id="Rectángulo_394246-2" data-name="Rectángulo 394246" d="M24,0H325a24,24,0,0,1,24,24V227.742a0,0,0,0,1,0,0H0a0,0,0,0,1,0,0V24A24,24,0,0,1,24,0Z" transform="translate(-8463.56 6745.95)" fill="#12263f" opacity="0.48"/>
      </g>
    </clipPath>
    <clipPath id="clip-path-2">
      <rect id="Rectángulo_394244" data-name="Rectángulo 394244" width="480.567" height="379.125" fill="none"/>
    </clipPath>
    <clipPath id="clip-path-4">
      <rect id="Rectángulo_394242" data-name="Rectángulo 394242" width="480.069" height="378.332" fill="none"/>
    </clipPath>
    <clipPath id="clip-path-5">
      <rect id="Rectángulo_394245" data-name="Rectángulo 394245" width="332.073" height="265.974" transform="translate(0 0)" fill="none"/>
    </clipPath>
  </defs>
  <g id="_15" data-name="15" transform="translate(8463.563 -6745.945)" clip-path="url(#clip-path)">
    <g id="Grupo_1079579" data-name="Grupo 1079579" transform="translate(-8529.846 6685.687)">
      <g id="Grupo_1079578" data-name="Grupo 1079578" clip-path="url(#clip-path-2)">
        <rect id="Rectángulo_394241" data-name="Rectángulo 394241" width="394.243" height="270.318" transform="translate(41.209 52.935)" fill="#ffebe3"/>
        <g id="Grupo_1079577" data-name="Grupo 1079577">
          <g id="Grupo_1079576" data-name="Grupo 1079576" clip-path="url(#clip-path-2)">
            <g id="Grupo_1079575" data-name="Grupo 1079575" transform="translate(0.249 0.564)" opacity="0.05">
              <g id="Grupo_1079574" data-name="Grupo 1079574">
                <g id="Grupo_1079573" data-name="Grupo 1079573" clip-path="url(#clip-path-4)">
                  <path id="Trazado_846250" data-name="Trazado 846250" d="M82.141,147.853l5.91,7.991,15.965,21.588,23.58,31.885L156.352,248.2l31.49,42.58,31.786,42.979,29.64,40.079,25.115,33.96,18.045,24.4,8.505,11.5.36.487c.614.83,2.022.022,1.4-.819l-5.91-7.991-15.965-21.588L257.239,381.9,228.483,343.02l-31.49-42.58L165.207,257.46l-29.64-40.079-25.115-33.96-18.045-24.4-8.505-11.5-.36-.487c-.614-.83-2.022-.022-1.4.818" transform="translate(-37.911 -67.947)" fill="#6e0081"/>
                  <path id="Trazado_846251" data-name="Trazado 846251" d="M.242,205.736l1.888,1.848,5.411,5.3,8.553,8.37L27.408,232.32l13.692,13.4,15.689,15.354,17.306,16.935,18.448,18.053,19.392,18.977L131.8,334.48l19.958,19.532,19.671,19.25,19,18.595,17.95,17.566L224.9,425.586l14.7,14.39,12.509,12.242,9.933,9.721,6.976,6.827,3.637,3.56.448.438c.746.73,1.894-.415,1.147-1.147l-1.888-1.848-5.411-5.3L258.4,456.1l-11.313-11.071-13.692-13.4L217.7,416.279,200.4,399.343,181.951,381.29,162.56,362.313l-19.866-19.441-19.958-19.532-19.67-19.249-19-18.595-17.95-17.566L49.6,251.766l-14.7-14.39L22.384,225.135l-9.934-9.721-6.976-6.827-3.637-3.56-.448-.438c-.747-.731-1.894.415-1.147,1.147" transform="translate(-0.249 -94.438)" fill="#6e0081"/>
                  <path id="Trazado_846252" data-name="Trazado 846252" d="M377.944,35.415l.829,9.137q1.132,12.489,2.265,24.977l3.34,36.823q2.036,22.458,4.073,44.916,2.238,24.683,4.477,49.367,2.251,24.829,4.5,49.658,2.1,23.149,4.2,46.3,1.774,19.563,3.548,39.127,1.276,14.071,2.552,28.141c.4,4.447.784,8.9,1.21,13.343.018.192.035.384.052.577.094,1.031,1.716,1.041,1.622,0l-.829-9.137q-1.132-12.489-2.265-24.977l-3.34-36.823q-2.036-22.458-4.073-44.916-2.238-24.684-4.477-49.367-2.251-24.829-4.5-49.658l-4.2-46.3q-1.774-19.563-3.548-39.127Q382.1,63.4,380.828,49.334c-.4-4.447-.784-8.9-1.21-13.342-.018-.192-.035-.384-.052-.577-.094-1.031-1.717-1.041-1.622,0" transform="translate(-173.861 -16.476)" fill="#6e0081"/>
                  <path id="Trazado_846253" data-name="Trazado 846253" d="M253.128,1q1.281,4.487,2.562,8.973,3.486,12.209,6.972,24.418,5.137,17.988,10.274,35.976l12.528,43.874,13.768,48.216,13.9,48.671,12.917,45.234q5.475,19.175,10.951,38.35,3.936,13.779,7.87,27.558c1.237,4.33,2.414,8.683,3.711,13,.056.184.106.37.159.556a.812.812,0,0,0,1.564-.431q-1.282-4.487-2.563-8.973-3.485-12.209-6.973-24.418-5.137-17.988-10.272-35.976-6.265-21.936-12.528-43.874-6.885-24.107-13.769-48.216l-13.9-48.671q-6.458-22.617-12.916-45.234L266.431,41.682l-7.87-27.558c-1.236-4.33-2.414-8.684-3.711-13-.056-.184-.106-.371-.159-.556A.811.811,0,0,0,253.128,1" transform="translate(-116.511 -0.564)" fill="#6e0081"/>
                  <path id="Trazado_846254" data-name="Trazado 846254" d="M170.934,101.263l4.295,8.512,11.734,23.256,17.305,34.3L225.446,209.3l23.124,45.829,23.337,46.251L293.664,344.5l18.385,36.438,13.221,26.2c2.086,4.135,4.1,8.318,6.263,12.414.093.176.18.355.269.533.47.932,1.87.112,1.4-.819l-4.295-8.512L317.174,387.5l-17.305-34.3-21.178-41.972L255.567,265.4l-23.337-46.251-21.757-43.121-18.385-36.438-13.221-26.2c-2.086-4.135-4.1-8.318-6.263-12.414-.093-.176-.18-.356-.269-.533-.47-.932-1.87-.112-1.4.819" transform="translate(-78.727 -46.516)" fill="#6e0081"/>
                  <path id="Trazado_846255" data-name="Trazado 846255" d="M617.689,147.034l-5.91,7.991-15.966,21.588L572.234,208.5,543.479,247.38l-31.49,42.58L480.2,332.939l-29.64,40.079-25.115,33.96-18.045,24.4-8.505,11.5-.36.487c-.621.84.786,1.649,1.4.818l5.91-7.991,15.965-21.588,23.58-31.885,28.755-38.883,31.49-42.58,31.786-42.979,29.64-40.078,25.115-33.961,18.044-24.4,8.506-11.5.36-.487c.621-.84-.786-1.649-1.4-.819" transform="translate(-183.252 -67.947)" fill="#6e0081"/>
                  <path id="Trazado_846256" data-name="Trazado 846256" d="M654.272,204.588l-1.888,1.848-5.411,5.3-8.553,8.37-11.313,11.071-13.692,13.4-15.69,15.354L580.42,276.861l-18.448,18.053-19.391,18.977-19.866,19.441-19.959,19.532-19.67,19.25-19,18.595-17.95,17.566-16.518,16.164-14.7,14.39L402.406,451.07l-9.934,9.721-6.976,6.827-3.637,3.56-.448.438c-.748.731.4,1.878,1.147,1.147l1.888-1.848,5.411-5.3,8.553-8.37,11.313-11.071,13.692-13.4L439.1,417.425l17.306-16.936,18.448-18.053,19.391-18.977,19.866-19.441,19.959-19.532,19.67-19.25,19-18.594,17.95-17.566,16.518-16.164,14.7-14.39,12.509-12.242,9.933-9.721,6.976-6.827,3.637-3.56.448-.438c.747-.731-.4-1.878-1.147-1.147" transform="translate(-175.344 -94.437)" fill="#6e0081"/>
                  <path id="Trazado_846257" data-name="Trazado 846257" d="M480.459,35.415l-.829,9.137q-1.132,12.489-2.265,24.977l-3.339,36.823q-2.036,22.458-4.073,44.916l-4.476,49.367q-2.252,24.829-4.5,49.658-2.1,23.149-4.2,46.3-1.774,19.563-3.548,39.127-1.276,14.071-2.552,28.141c-.4,4.442-.922,8.891-1.21,13.343-.012.193-.035.384-.052.577-.095,1.039,1.528,1.033,1.622,0q.414-4.569.828-9.137,1.133-12.489,2.265-24.977,1.669-18.412,3.339-36.823,2.036-22.458,4.073-44.916,2.238-24.684,4.477-49.367,2.251-24.829,4.5-49.658,2.1-23.149,4.2-46.3,1.774-19.563,3.548-39.127,1.276-14.071,2.552-28.142c.4-4.442.922-8.891,1.21-13.342.012-.192.035-.385.052-.577.094-1.039-1.528-1.033-1.622,0" transform="translate(-206.692 -16.476)" fill="#6e0081"/>
                  <path id="Trazado_846258" data-name="Trazado 846258" d="M551.578.572l-2.563,8.973-6.973,24.418q-5.136,17.988-10.273,35.976l-12.528,43.873q-6.884,24.108-13.768,48.216l-13.9,48.671-12.917,45.234-10.951,38.351-7.87,27.558c-1.236,4.33-2.548,8.646-3.711,13-.05.186-.106.37-.159.556a.812.812,0,0,0,1.564.431l2.562-8.973,6.973-24.418,10.273-35.976q6.264-21.936,12.528-43.874,6.883-24.107,13.768-48.215l13.9-48.671,12.916-45.234L541.4,42.114q3.935-13.779,7.869-27.558c1.237-4.33,2.547-8.646,3.711-13,.05-.186.106-.371.159-.556a.812.812,0,0,0-1.564-.431" transform="translate(-209.689 -0.565)" fill="#6e0081"/>
                  <path id="Trazado_846259" data-name="Trazado 846259" d="M578.523,100.444l-4.295,8.512-11.734,23.256-17.305,34.3-21.177,41.972L500.888,254.31l-23.337,46.251-21.757,43.121L437.409,380.12l-13.221,26.2c-2.087,4.137-4.2,8.263-6.263,12.414-.089.178-.18.355-.269.533-.469.93.93,1.752,1.4.819l4.295-8.512,11.734-23.257,17.305-34.3,21.177-41.972,23.124-45.829,23.337-46.251,21.757-43.121,18.385-36.438,13.221-26.2c2.087-4.137,4.2-8.262,6.263-12.414.089-.178.179-.355.269-.533.469-.929-.929-1.752-1.4-.819" transform="translate(-192.062 -46.516)" fill="#6e0081"/>
                </g>
              </g>
            </g>
          </g>
        </g>
      </g>
    </g>
    <g id="Grupo_1079581" data-name="Grupo 1079581" transform="translate(-8455.6 6757.327)">
      <g id="Grupo_1079580" data-name="Grupo 1079580" transform="translate(0 0.001)" clip-path="url(#clip-path-5)">
        <path id="Trazado_846260" data-name="Trazado 846260" d="M267.782,499.672s17.865,12.84,84.005,10.492,85.926-9.2,85.926-9.2l31.948,61.49s14.486,31.219-1.948,69.067c-7.79,17.942,3.143,30.384,3.143,30.384l-238.436-2.215S209.6,620.945,215.4,571.6c6.208-52.8,52.385-71.926,52.385-71.926" transform="translate(-181.039 -421.817)" fill="#d84950"/>
        <path id="Trazado_846261" data-name="Trazado 846261" d="M470.858,788.3s-10.934-12.442-3.144-30.384c16.434-37.849,1.948-69.067,1.948-69.067l-15.929-30.657c-87.192,8.472-173.64-1.959-216.806-8.8a88.09,88.09,0,0,0-21.53,48.6c-5.8,49.347,17.024,88.093,17.024,88.093Z" transform="translate(-181.039 -548.213)" fill="#ff9160"/>
        <path id="Trazado_846262" data-name="Trazado 846262" d="M470.858,923.336s-10.934-12.442-3.144-30.384c16.434-37.849,1.948-69.067,1.948-69.067l-2.826-5.439c-122.5,20.151-217.248-1.369-245.4-9.092a90.154,90.154,0,0,0-6.042,23.674c-5.8,49.347,17.024,88.093,17.024,88.093Z" transform="translate(-181.039 -683.246)" fill="#e5b767"/>
        <path id="Trazado_846263" data-name="Trazado 846263" d="M214.622,1022.025c-2.154,44.748,17.805,78.63,17.805,78.63l238.436,2.215s-10.934-12.442-3.144-30.384a92.943,92.943,0,0,0,7.666-43.066c-101.814,25.792-238.048,0-260.764-7.4" transform="translate(-181.044 -862.781)" fill="#61b462"/>
        <path id="Trazado_846264" data-name="Trazado 846264" d="M483.872,1220.988c-121.043,11.383-256.948-2.622-256.949-2.622,4.648,28.723,16.026,48.037,16.026,48.037l238.436,2.215s-10.934-12.442-3.143-30.384a95.372,95.372,0,0,0,5.63-17.247" transform="translate(-191.566 -1028.529)" fill="#5664af"/>
        <path id="Trazado_846265" data-name="Trazado 846265" d="M267.834,1383.172a129.934,129.934,0,0,0,9.651,22.359l238.436,2.215a28.745,28.745,0,0,1-5.1-24.573h0s-38.474,2.975-123.752,4.521-119.238-4.521-119.238-4.521" transform="translate(-226.102 -1167.656)" fill="#8b38b4"/>
        <path id="Trazado_846266" data-name="Trazado 846266" d="M1025.412,42.114a6.665,6.665,0,0,1,2.811-10.138,5.853,5.853,0,0,1,3.634-11.082,5.761,5.761,0,0,1,4.781-7.231c-.021-.027-.042-.053-.062-.08a5.239,5.239,0,0,1,8-6.741A7.57,7.57,0,0,1,1059,4.436a5.761,5.761,0,0,1,11.127,1.242,7.666,7.666,0,0,1,14.027,6.133,5.761,5.761,0,0,1,7.516,8.144,6.609,6.609,0,0,1,3.41,11.84,5.761,5.761,0,0,1-.411,11.409,6.368,6.368,0,0,1-6.1,9.213,4.592,4.592,0,1,1-8.719,2.71c-7.163,4.011-18.9,4.262-28.63.9a4.675,4.675,0,0,1-9.3-.953A7.6,7.6,0,0,1,1031.1,44.79a6.654,6.654,0,0,1-5.691-2.676" transform="translate(-864.527 -0.001)" fill="#1d2633"/>
        <path id="Trazado_846267" data-name="Trazado 846267" d="M873.966,585.872s-8.218,3.452-12,7.964-43.541,62.02-43.541,62.02l23.18,20.676,36.8-43.3Z" transform="translate(-690.904 -494.586)" fill="#fff"/>
        <path id="Trazado_846268" data-name="Trazado 846268" d="M1146.792,1310.587l-7.683,55.948h38.144l4.9-18.3,1.421,18.3h39.935s3.624-30.8,3.624-40.526-.728-22.316-.728-22.316Z" transform="translate(-961.621 -1100.561)" fill="#f44d4d"/>
        <path id="Trazado_846269" data-name="Trazado 846269" d="M953.721,784.415s6.427,26.7,13.249,35.4,43.941,19.322,43.941,19.322l4.094-7.89-28.068-27.107-13.433-35Z" transform="translate(-805.119 -649.296)" fill="#efa48f"/>
        <path id="Trazado_846270" data-name="Trazado 846270" d="M919.718,522.687S931,522.5,935.057,529.9c3.232,5.887,15.729,38.981,15.729,38.981l-25.226,13.005Z" transform="translate(-776.414 -441.245)" fill="#69f"/>
        <path id="Trazado_846271" data-name="Trazado 846271" d="M1160.719,499.648l-18.572,7.872s-12.294,24.329-1.811,54.715c9.105,26.4,3.267,60.762,3.919,64.025s18.936,6.1,41.559,5.881,38.779-5.881,38.779-5.881,5.95-53.349,4.145-83.289c-1.811-30.045-12.978-47.589-12.978-47.589l-28.42-2.324Z" transform="translate(-959.084 -416.233)" fill="#fff"/>
        <path id="Trazado_846272" data-name="Trazado 846272" d="M1280.361,319.5l12.711,27.042,6.023.493a19.35,19.35,0,0,1-9.246,9.61c-7.179,3.729-17.548,4.409-22.614,2.927s-5.884-4.278-5.884-4.278l5.1-2.162-4.863-12.569Z" transform="translate(-1064.816 -269.721)" fill="#c67159"/>
        <path id="Trazado_846273" data-name="Trazado 846273" d="M1632.595,507.972s10.685.154,18.211,8.151,17.707,60.581,17.707,60.581l-30.033,11.719a186.806,186.806,0,0,1-7.772-39.834c-1.027-12.936-1.746-27.015,1.888-40.617" transform="translate(-1375.92 -428.824)" fill="#fc9"/>
        <path id="Trazado_846274" data-name="Trazado 846274" d="M1625.864,805.55c-.664-1.771-1.2-3.57-1.7-5.378s-.938-3.628-1.34-5.457-.759-3.667-1.068-5.517-.567-3.709-.7-5.6c.666,1.771,1.2,3.57,1.7,5.377s.939,3.628,1.339,5.457.758,3.667,1.066,5.517.568,3.709.706,5.6" transform="translate(-1368.471 -661.508)" fill="#eaa66a"/>
        <path id="Trazado_846275" data-name="Trazado 846275" d="M1656.932,933.633a12.928,12.928,0,0,1-2.348-.087,13.209,13.209,0,0,1-2.321-.491,10.009,10.009,0,0,1-2.206-.965,7.582,7.582,0,0,1-1.9-1.561,6.963,6.963,0,0,1-.733-1.009,12.175,12.175,0,0,1-.584-1.071,10.951,10.951,0,0,1-.8-2.32,10.692,10.692,0,0,1-.241-2.457,10,10,0,0,1,.1-1.239c.03-.206.069-.412.114-.618.022-.1.048-.206.076-.31s.055-.2.1-.332l.053.558c-.14-.235-.244-.436-.354-.656s-.209-.433-.3-.653c-.191-.439-.365-.885-.512-1.341a15.039,15.039,0,0,1-.633-2.8,12.068,12.068,0,0,1,.609-5.7,14,14,0,0,1,1.269-2.555,12.81,12.81,0,0,1,.815-1.159c.287-.373.594-.729.911-1.075a16.443,16.443,0,0,1,4.392-3.393c-.37.275-.724.566-1.067.869s-.679.612-1,.935a19.882,19.882,0,0,0-1.8,2.036,16.346,16.346,0,0,0-1.463,2.251,12.991,12.991,0,0,0-1.03,2.441,11.269,11.269,0,0,0-.48,2.566,12.872,12.872,0,0,0,.1,2.613,15.026,15.026,0,0,0,.606,2.56c.14.417.293.83.467,1.233.086.2.178.4.273.6s.2.4.294.558l.008.014a.646.646,0,0,1,.046.544c-.019.05-.049.147-.072.225s-.047.169-.067.256c-.041.173-.078.349-.107.528a8.971,8.971,0,0,0-.111,1.083,9.677,9.677,0,0,0,.149,2.185,10.568,10.568,0,0,0,.626,2.116c.144.341.3.68.477,1.007a5.992,5.992,0,0,0,.586.913,7.479,7.479,0,0,0,1.594,1.508,10.669,10.669,0,0,0,1.981,1.078,16.247,16.247,0,0,0,4.474,1.115" transform="translate(-1388.135 -761.796)" fill="#eaa66a"/>
        <path id="Trazado_846276" data-name="Trazado 846276" d="M1665.309,951.815a22.329,22.329,0,0,0-1.25,2.515c-.36.84-.664,1.691-.945,2.553-.127.436-.272.866-.382,1.31-.058.221-.132.438-.182.662s-.109.447-.168.671c-.026.113-.066.223-.088.337s-.048.227-.076.34c-.052.227-.111.455-.172.684-.11.46-.21.925-.368,1.4-.065-.237-.113-.476-.158-.716s-.088-.482-.111-.725-.032-.486-.04-.73a6.035,6.035,0,0,1,0-.733,10.246,10.246,0,0,1,.16-1.46c.046-.241.081-.485.148-.722l.2-.712a10.233,10.233,0,0,1,1.3-2.657,6.833,6.833,0,0,1,.45-.59c.081-.094.158-.19.242-.281l.26-.265c.087-.087.178-.171.273-.251s.185-.163.288-.234a3.646,3.646,0,0,1,.625-.4" transform="translate(-1402.497 -803.51)" fill="#eaa66a"/>
        <path id="Trazado_846277" data-name="Trazado 846277" d="M1157.995,506.813s-10.4,25.636-41.7,35.42-48.613,6.839-48.613,6.839v5.293s26.17,32.075,68.968,32.3c42.638.222,53.3-18.36,53.3-18.36s2.154-46.732-6.759-55.462c-8.162-7.995-25.189-6.028-25.189-6.028" transform="translate(-901.319 -427.665)" fill="#f84851"/>
        <path id="Trazado_846278" data-name="Trazado 846278" d="M1136.612,598.455c42.638.222,53.3-18.36,53.3-18.36s2.154-46.732-6.759-55.462a18.919,18.919,0,0,0-6.687-4.065l-.465.33s-32.816,47.263-108.362,41.894l.006,3.365s26.17,32.075,68.968,32.3" transform="translate(-901.285 -439.457)" fill="#ff9160"/>
        <path id="Trazado_846279" data-name="Trazado 846279" d="M1136.646,653.584c42.638.222,53.3-18.36,53.3-18.36s1.563-33.906-3.482-49.352c0,0-45.21,40.669-118.784,33.073v2.341s26.17,32.075,68.969,32.3" transform="translate(-901.319 -494.586)" fill="#fc6"/>
        <path id="Trazado_846280" data-name="Trazado 846280" d="M1136.646,713.886c42.638.222,53.3-18.36,53.3-18.36s1-21.642-1.174-38.222c-7.831,6.558-48.456,37.686-121.092,22.579v1.705s26.17,32.075,68.969,32.3" transform="translate(-901.319 -554.888)" fill="#66cc65"/>
        <path id="Trazado_846281" data-name="Trazado 846281" d="M1067.676,750.283v1.246s26.17,32.075,68.969,32.3c42.638.222,53.3-18.36,53.3-18.36s.563-12.209-.077-25.312h0s-44.559,45.813-122.188,10.129" transform="translate(-901.318 -624.829)" fill="#586ac6"/>
        <path id="Trazado_846282" data-name="Trazado 846282" d="M1136.646,842.245c42.638.222,53.3-18.36,53.3-18.36s.263-5.7.225-13.487c-16.949,15.251-58.579,40.432-122.491-1.043v.593s26.17,32.075,68.969,32.3" transform="translate(-901.319 -683.246)" fill="#8b38b4"/>
        <path id="Trazado_846283" data-name="Trazado 846283" d="M1684.78,430.72c2.62-17,18.708-58.784,18.708-58.784a14.7,14.7,0,0,1-4.822-8.8,141.825,141.825,0,0,0-3.025-14.242,4.577,4.577,0,0,1,4.616,1.768,21.375,21.375,0,0,1,2.895,6.064s6.895-26.324,9.657-26.153-.8,13.09-.8,13.09,6.882-14.176,9.433-13.408.864,4.82.864,4.82,2.006-3.253,3.561-1.9c2.209,1.924-3.829,16.521-3.829,16.521s8.5-11.306,10.5-8.985-7.166,14.925-8.65,17.878c-4.073,8.1-8.62,15.816-8.62,15.816s2.292,38.131-.758,57.7c-2.774,17.8-14.1,20.584-17.959,20.593-5.221.013-14.23-6.038-11.773-21.978" transform="translate(-1421.918 -278.77)" fill="#c67159"/>
        <path id="Trazado_846284" data-name="Trazado 846284" d="M1846.248,512.272a5.366,5.366,0,0,0-1.338,2.556,8.033,8.033,0,0,0-.134,2.925l.117.724c.059.236.123.471.188.706l.1.351c.038.115.086.227.129.34.087.226.178.45.272.673.2.441.442.858.67,1.277.273.4.543.792.842,1.164-.143-.462-.315-.9-.484-1.336l-.437-1.326c-.058-.224-.118-.447-.183-.667l-.094-.331-.07-.336-.146-.669-.1-.674a11.638,11.638,0,0,1-.049-2.709,8.639,8.639,0,0,1,.718-2.667" transform="translate(-1557.275 -432.454)" fill="#a84636"/>
        <path id="Trazado_846285" data-name="Trazado 846285" d="M1845.218,440.174a10.037,10.037,0,0,1,3.091.367,11.805,11.805,0,0,1,2.8,1.191l.642.408a2.5,2.5,0,0,1,.312.217l.3.229a14.749,14.749,0,0,1,1.18.974,7.51,7.51,0,0,1,.553.534l.552.544c.349.381.686.776,1.06,1.152-.241-.464-.506-.919-.784-1.368l-.474-.634a5.983,5.983,0,0,0-.506-.614,10.365,10.365,0,0,0-1.153-1.109l-.311-.255a2.772,2.772,0,0,0-.323-.241l-.679-.441c-.231-.139-.481-.249-.721-.374a5.565,5.565,0,0,0-.748-.32l-.382-.141-.394-.109-.394-.106c-.133-.03-.269-.047-.4-.07a6.749,6.749,0,0,0-3.22.166" transform="translate(-1557.709 -371.351)" fill="#a84636"/>
        <path id="Trazado_846286" data-name="Trazado 846286" d="M1896.424,361.35a29.189,29.189,0,0,0-1.727,2.531c-.275.429-.524.872-.785,1.308l-.745,1.33c-.486.893-.941,1.8-1.373,2.723a28.934,28.934,0,0,0-1.173,2.831,28.779,28.779,0,0,0,1.729-2.531c.535-.866,1.047-1.744,1.528-2.639l.706-1.351c.222-.457.457-.908.666-1.373a29.1,29.1,0,0,0,1.174-2.831" transform="translate(-1596.039 -305.047)" fill="#a84636"/>
        <path id="Trazado_846287" data-name="Trazado 846287" d="M1649.75,1385.76c.163,3.667.192,7.338.162,11.008,0,.918-.019,1.835-.038,2.752s-.038,1.835-.064,2.752c-.047,1.835-.133,3.668-.208,5.5-.105,1.833-.2,3.666-.334,5.5s-.288,3.66-.459,5.488c-.368,3.653-.829,7.3-1.479,10.912q.531-5.481.922-10.959c.1-1.829.252-3.655.339-5.485.116-1.828.2-3.658.3-5.487s.176-3.66.247-5.491c.089-1.83.144-3.662.221-5.493Z" transform="translate(-1390.656 -1169.841)" fill="#d33535"/>
        <path id="Trazado_846288" data-name="Trazado 846288" d="M1522.356,1439.407a12.164,12.164,0,0,1-2.843.7,14.349,14.349,0,0,1-2.949.081,13.692,13.692,0,0,1-5.667-1.675,14.746,14.746,0,0,1-4.467-3.863,18.852,18.852,0,0,1-2.837-5.117,27.2,27.2,0,0,0,3.267,4.76c.306.368.65.7.98,1.042.163.174.349.323.522.486s.349.323.539.465.369.3.554.447l.579.412c.189.143.4.259.6.385l.3.186c.1.063.208.113.311.17.209.11.411.235.626.333l.642.3.66.262c.221.085.448.151.671.232a15.625,15.625,0,0,0,2.778.619,16.827,16.827,0,0,0,2.864.124,16.111,16.111,0,0,0,2.872-.353" transform="translate(-1269.314 -1206.795)" fill="#d33535"/>
        <path id="Trazado_846289" data-name="Trazado 846289" d="M1374.015,1507.955c-.188-.86-.341-1.725-.489-2.59s-.278-1.732-.408-2.6-.245-1.736-.345-2.606l-.159-1.3-.14-1.307.143.244c-.535-.385-1.063-.781-1.59-1.178s-1.05-.8-1.572-1.2-1.038-.816-1.55-1.235-1.021-.84-1.518-1.279c.575.33,1.139.676,1.7,1.027s1.115.709,1.667,1.071,1.1.727,1.644,1.1,1.09.744,1.626,1.127a.347.347,0,0,1,.143.24v0l.158,1.3.14,1.307c.1.871.169,1.745.253,2.617s.139,1.748.19,2.624.1,1.753.108,2.633" transform="translate(-1153.486 -1260.286)" fill="#d33535"/>
        <path id="Trazado_846290" data-name="Trazado 846290" d="M1282.285,385.425,1269.3,398.92l2.079,5.257s7.868-2.046,10.8-9.738c1.625-4.263.112-9.014.112-9.014" transform="translate(-1071.523 -325.371)" fill="#a84636"/>
        <path id="Trazado_846291" data-name="Trazado 846291" d="M1142.563,148.166s1.538,18.67,7.687,29.022c7.7,12.963,22.951,8.24,27.334-6.572,4.742-16.025.688-41.631-18.548-39.851s-16.473,17.4-16.473,17.4" transform="translate(-964.421 -110.316)" fill="#c67159"/>
        <path id="Trazado_846292" data-name="Trazado 846292" d="M1262.163,380.217c2.363,1.07-.478,7.3-4.8,4.524-2.884-1.855,2.949-5.36,4.8-4.524" transform="translate(-1060.788 -320.868)" fill="#aa4636"/>
        <path id="Trazado_846293" data-name="Trazado 846293" d="M1166.906,296.963a3.832,3.832,0,0,1,.589-1.7,2.521,2.521,0,0,1,1.467-1.133,2.288,2.288,0,0,1,1.891.443,3.99,3.99,0,0,1,1.2,1.441,10.5,10.5,0,0,0-1.474-.9,2.084,2.084,0,0,0-1.4-.207,2.7,2.7,0,0,0-1.219.776,11.654,11.654,0,0,0-1.057,1.282" transform="translate(-985.087 -248.255)" fill="#1e2633"/>
        <path id="Trazado_846294" data-name="Trazado 846294" d="M1183.151,304.485c.2,1.062-.22,2.037-.944,2.178s-1.474-.606-1.677-1.668.22-2.037.944-2.178,1.474.606,1.677,1.668" transform="translate(-996.546 -255.62)" fill="#1e2633"/>
        <path id="Trazado_846295" data-name="Trazado 846295" d="M1254.522,271.983a4.292,4.292,0,0,1,.838-1.751,2.948,2.948,0,0,1,1.624-1.092,2.346,2.346,0,0,1,1.056.01,2.867,2.867,0,0,1,.977.459,4.388,4.388,0,0,1,1.352,1.608,9.126,9.126,0,0,0-1.591-1.077,2.352,2.352,0,0,0-1.578-.228,3.412,3.412,0,0,0-1.421.779,12.473,12.473,0,0,0-1.256,1.292" transform="translate(-1059.051 -227.158)" fill="#1e2633"/>
        <path id="Trazado_846296" data-name="Trazado 846296" d="M1273.988,280.313c.182,1.166-.292,2.2-1.059,2.3s-1.537-.751-1.719-1.917.292-2.2,1.059-2.3,1.537.751,1.719,1.917" transform="translate(-1073.107 -235.011)" fill="#1e2633"/>
        <path id="Trazado_846297" data-name="Trazado 846297" d="M1212.852,312.5a18.636,18.636,0,0,1,.326,2.188,11.091,11.091,0,0,1-.013,2.239,8.9,8.9,0,0,1-.534,2.2,10.47,10.47,0,0,1-1.044,2l-.108-.459c.556.374,1.106.757,1.645,1.157s1.075.806,1.59,1.246c-.622-.267-1.226-.564-1.821-.873s-1.185-.63-1.766-.962l-.274-.157.166-.3a14.252,14.252,0,0,0,.9-1.92,11.254,11.254,0,0,0,.558-2.033,19.339,19.339,0,0,0,.233-2.135c.042-.724.071-1.458.139-2.194" transform="translate(-1022.185 -263.807)" fill="#1e2633"/>
        <path id="Trazado_846298" data-name="Trazado 846298" d="M1240.34,234.159c.518,2.168,9.83.921,9.4-1s-9.919-1.167-9.4,1" transform="translate(-1047.062 -195.898)" fill="#1e2633"/>
        <path id="Trazado_846299" data-name="Trazado 846299" d="M1146.516,257.455c.978,1.749,8.722-1.6,7.88-3.162s-8.858,1.414-7.88,3.162" transform="translate(-967.804 -214.302)" fill="#1e2633"/>
        <path id="Trazado_846300" data-name="Trazado 846300" d="M1120.565,121.136s5.238.086,7.169-3.844a5.672,5.672,0,0,0-.934-6.616s2.308,2.709,4.619,1.6,1.84-3.968,1.84-3.968,1.24,4.52,4.6,4.128,4.1-4.773,4.1-4.773.81,3.044,2.716,2.954,2.712-2.912,2.712-2.912a5.282,5.282,0,0,0,2.123,5.883c3.3,2.15,6.388-.9,6.388-.9a5.09,5.09,0,0,0-1.069,5.221c1.175,2.959,4.635,4.282,4.635,4.282l6.219-2.983s-1.9-17.336-14.583-22.62-25.66,1.345-29.915,9.15a18.052,18.052,0,0,0-.614,15.4" transform="translate(-944.742 -79.938)" fill="#1d2633"/>
        <path id="Trazado_846301" data-name="Trazado 846301" d="M1363.5,255.83c-1.661,3.488-.571,7.476,2.436,8.908s6.789-.236,8.45-3.724.57-7.476-2.436-8.908-6.79.236-8.45,3.724" transform="translate(-1150.392 -212.392)" fill="#c6725a"/>
        <path id="Trazado_846302" data-name="Trazado 846302" d="M1387.58,279.5a3.088,3.088,0,0,0-1.32-.014,3.706,3.706,0,0,0-1.194.46,3.492,3.492,0,0,0-.95.824,3.932,3.932,0,0,0-.641,1.093.358.358,0,0,1-.48.2.393.393,0,0,1-.226-.392v-.014a10.91,10.91,0,0,1,.349-2.086,8.272,8.272,0,0,1,.354-1.009,5.947,5.947,0,0,1,.525-.938,3.82,3.82,0,0,1,1.613-1.364,3.629,3.629,0,0,1,2-.239,4.747,4.747,0,0,0-1.8.651,3.98,3.98,0,0,0-1.254,1.351,5.521,5.521,0,0,0-.406.857,7.5,7.5,0,0,0-.3.919,13.966,13.966,0,0,0-.352,1.945l-.705-.206a4.612,4.612,0,0,1,.834-1.24,3.849,3.849,0,0,1,1.2-.834,3.557,3.557,0,0,1,1.392-.294,2.668,2.668,0,0,1,1.351.329" transform="translate(-1167.315 -232.979)" fill="#1e2633"/>
        <path id="Trazado_846303" data-name="Trazado 846303" d="M1250.806,374.625a11.352,11.352,0,0,0,2.491-.823,7.564,7.564,0,0,0,2.091-1.436,6.746,6.746,0,0,0,1.424-2.082,11.968,11.968,0,0,0,.74-2.515,6.623,6.623,0,0,1-.276,2.692,5.851,5.851,0,0,1-1.441,2.358,6.364,6.364,0,0,1-2.351,1.441,6.476,6.476,0,0,1-2.678.365" transform="translate(-1055.914 -310.466)" fill="#1e2633"/>
        <path id="Trazado_846304" data-name="Trazado 846304" d="M431.329,1218.366a263.026,263.026,0,0,0,0,28.046c.887,12.451,3.362,48.091,3.362,48.091h40.881l4.156-70.533Z" transform="translate(-363.79 -1028.529)" fill="#364351"/>
        <path id="Trazado_846305" data-name="Trazado 846305" d="M712.1,1218.366l10.694,76.137H684.563l-9.97-42.765-4.65-30.443Z" transform="translate(-565.557 -1028.529)" fill="#364351"/>
        <path id="Trazado_846306" data-name="Trazado 846306" d="M420.17,499.672s-27.016,26.8-25.106,33.6,1.91,78.867,1.91,78.867,21.487,9.133,45.488,9.176a168.477,168.477,0,0,0,42.6-5.23s1.186-54.836-.724-73.064-7.61-39.759-7.61-39.759Z" transform="translate(-333.426 -421.817)" fill="#69f"/>
        <path id="Trazado_846307" data-name="Trazado 846307" d="M408.229,773.223l.056,3.029,9.592,2.273,4.622-21.5Z" transform="translate(-344.622 -639.072)" fill="#4481e2"/>
        <path id="Trazado_846308" data-name="Trazado 846308" d="M631.514,327.393l-7.969,27.891-7.242-.459s4.166,16.964,20.434,17.671c15.321.665,19.261-15.154,19.261-15.154l-4.624-.293,1.118-11.143Z" transform="translate(-520.275 -276.381)" fill="#efa48f"/>
        <path id="Trazado_846309" data-name="Trazado 846309" d="M752.185,382.132l15,9.984-.5,4.978s-7.818-.048-12.327-6.562a14.848,14.848,0,0,1-2.178-8.4" transform="translate(-634.974 -322.591)" fill="#d47b77"/>
        <path id="Trazado_846310" data-name="Trazado 846310" d="M733.342,131.373s2.857,17.8-.509,28.894c-4.215,13.888-19.556,12.982-27.06.146-8.118-13.887-10.22-38.753,8.168-41.515s19.4,12.475,19.4,12.475" transform="translate(-590.749 -100.09)" fill="#efa48f"/>
        <path id="Trazado_846311" data-name="Trazado 846311" d="M804.768,362.043c-1.962,1.543,2.126,6.713,5.523,3.125,2.269-2.4-3.989-4.331-5.523-3.125" transform="translate(-678.944 -305.321)" fill="#d47b77"/>
        <path id="Trazado_846312" data-name="Trazado 846312" d="M881.873,259.567a3.689,3.689,0,0,0-.94-1.45,2.426,2.426,0,0,0-1.632-.722,2.2,2.2,0,0,0-1.666.849,3.839,3.839,0,0,0-.793,1.624,10.092,10.092,0,0,1,1.169-1.185,2.008,2.008,0,0,1,1.262-.516,2.6,2.6,0,0,1,1.317.445,11.223,11.223,0,0,1,1.283.955" transform="translate(-740.219 -217.29)" fill="#1e2633"/>
        <path id="Trazado_846313" data-name="Trazado 846313" d="M881.814,267.967c.055,1.039.674,1.854,1.383,1.819s1.239-.906,1.183-1.945-.674-1.854-1.383-1.819-1.239.906-1.183,1.945" transform="translate(-744.412 -224.572)" fill="#1e2633"/>
        <path id="Trazado_846314" data-name="Trazado 846314" d="M790.945,256.87a4.133,4.133,0,0,0-1.186-1.444,2.836,2.836,0,0,0-1.769-.647,2.254,2.254,0,0,0-.984.252,2.755,2.755,0,0,0-.807.654,4.219,4.219,0,0,0-.894,1.814,8.769,8.769,0,0,1,1.24-1.372,2.263,2.263,0,0,1,1.423-.577,3.287,3.287,0,0,1,1.508.4,12.016,12.016,0,0,1,1.471.919" transform="translate(-662.944 -215.081)" fill="#1e2633"/>
        <path id="Trazado_846315" data-name="Trazado 846315" d="M791.683,264.992c.1,1.132.778,1.987,1.52,1.911s1.263-1.055,1.166-2.187-.778-1.987-1.52-1.911-1.263,1.055-1.166,2.187" transform="translate(-668.319 -221.853)" fill="#1e2633"/>
        <path id="Trazado_846316" data-name="Trazado 846316" d="M856.028,284.3a17.979,17.979,0,0,0,.2,2.12,10.679,10.679,0,0,0,.528,2.09,8.572,8.572,0,0,0,1.007,1.937,10.062,10.062,0,0,0,1.436,1.63l0-.454c-.433.477-.859.962-1.271,1.46s-.819,1-1.2,1.53c.52-.392,1.016-.809,1.5-1.235s.962-.861,1.429-1.305l.22-.21-.225-.244a13.7,13.7,0,0,1-1.287-1.586,10.841,10.841,0,0,1-.989-1.772,18.63,18.63,0,0,1-.709-1.942c-.206-.667-.4-1.346-.635-2.018" transform="translate(-722.648 -240.002)" fill="#1e2633"/>
        <path id="Trazado_846317" data-name="Trazado 846317" d="M776.113,219.847c.014,2.146-8.976,3.122-9.016,1.227s9-3.373,9.016-1.227" transform="translate(-647.573 -184.698)" fill="#1e2633"/>
        <path id="Trazado_846318" data-name="Trazado 846318" d="M875.632,222.605c-.512,1.859-8.521.507-8.093-1.142s8.6-.717,8.093,1.142" transform="translate(-732.352 -186.234)" fill="#1e2633"/>
        <path id="Trazado_846319" data-name="Trazado 846319" d="M810.818,357.013a10.939,10.939,0,0,1-2.517-.2,7.284,7.284,0,0,1-2.285-.861,6.5,6.5,0,0,1-1.81-1.619,11.508,11.508,0,0,1-1.27-2.18,6.373,6.373,0,0,0,.877,2.452,5.634,5.634,0,0,0,1.89,1.873,6.124,6.124,0,0,0,2.529.806,6.235,6.235,0,0,0,2.587-.275" transform="translate(-677.828 -297.287)" fill="#1e2633"/>
        <path id="Trazado_846320" data-name="Trazado 846320" d="M634.021,85.1S620.94,59.122,623.856,47.212c2.709-11.067,13.961-9.027,13.961-9.027s1.05-8.724,7.618-8.84c5.768-.1,4.89,5.879,4.89,5.879s4.116-10.471,12.591-7.612c6.62,2.233,2.516,10.109,2.516,10.109s9.154-2.2,11,4.871c1.64,6.264-5.78,10.083-15.713,10.083a74.537,74.537,0,0,1-18.11-2.3s-1.934,13.815-5.12,17.068l-.778,9.112Z" transform="translate(-526.293 -22.892)" fill="#1e2633"/>
        <path id="Trazado_846321" data-name="Trazado 846321" d="M655.782,271.277c2.355,2.878,2.253,6.857-.228,8.886s-6.4,1.341-8.755-1.537-2.253-6.857.228-8.886,6.4-1.341,8.755,1.537" transform="translate(-544.583 -226.727)" fill="#efa48f"/>
        <path id="Trazado_846322" data-name="Trazado 846322" d="M670.775,295.9a2.971,2.971,0,0,1,1.23-.317,3.562,3.562,0,0,1,1.222.156,3.356,3.356,0,0,1,1.078.552,3.78,3.78,0,0,1,.85.874.345.345,0,0,0,.5.077.378.378,0,0,0,.121-.418l0-.013a10.5,10.5,0,0,0-.806-1.869,7.979,7.979,0,0,0-.563-.862,5.727,5.727,0,0,0-.706-.756,3.676,3.676,0,0,0-1.821-.9,3.491,3.491,0,0,0-1.927.238,4.568,4.568,0,0,1,1.83.195,3.831,3.831,0,0,1,1.482.974,5.341,5.341,0,0,1,.576.707,7.218,7.218,0,0,1,.491.791,13.474,13.474,0,0,1,.776,1.737l.612-.354a4.443,4.443,0,0,0-1.065-.967,3.705,3.705,0,0,0-1.315-.5,3.425,3.425,0,0,0-1.369.045,2.567,2.567,0,0,0-1.187.619" transform="translate(-565.558 -246.814)" fill="#1e2633"/>
        <path id="Trazado_846323" data-name="Trazado 846323" d="M466.823,1273.561q-.134,2.713-.136,5.425l0,1.356c0,.452.009.9.013,1.355l.013,1.355.033,1.355.034,1.354.051,1.354.05,1.354c.015.451.048.9.071,1.353.056.9.082,1.8.149,2.705l.19,2.7c.063.9.15,1.8.224,2.7l.115,1.35.14,1.347.274,2.7.325,2.691.16,1.346c.05.449.125.895.182,1.343l.368,2.687c.236,1.794.556,3.574.8,5.37l-.3-1.325-.284-1.328-.284-1.329-.141-.665-.125-.668c-.315-1.784-.666-3.563-.909-5.36-.134-.9-.269-1.793-.392-2.691l-.323-2.7q-.081-.675-.154-1.351l-.124-1.354c-.079-.9-.173-1.805-.24-2.709-.265-3.617-.408-7.243-.394-10.869a90.594,90.594,0,0,1,.616-10.851" transform="translate(-393.565 -1075.124)" fill="#1e2633"/>
        <path id="Trazado_846324" data-name="Trazado 846324" d="M489.746,1302.446a18.206,18.206,0,0,0,5.448-.248,19.326,19.326,0,0,0,2.62-.7,17.768,17.768,0,0,0,2.493-1.053,19.16,19.16,0,0,0,2.329-1.382c.192-.121.372-.257.555-.391s.368-.264.545-.406c.348-.291.712-.562,1.047-.87a32.372,32.372,0,0,0,3.773-3.979,20.6,20.6,0,0,1-3.409,4.373,18.338,18.338,0,0,1-4.53,3.268,16.921,16.921,0,0,1-5.336,1.667,16.178,16.178,0,0,1-2.789.136,11.935,11.935,0,0,1-2.744-.416" transform="translate(-413.437 -1091.885)" fill="#1e2633"/>
        <path id="Trazado_846325" data-name="Trazado 846325" d="M726.7,1395.478c-.021-.663-.013-1.323-.006-1.983s.029-1.32.059-1.978.063-1.317.1-1.975.091-1.315.136-1.972a.333.333,0,0,1,.154-.259l.006,0c.591-.371,1.191-.73,1.786-1.1s1.2-.715,1.809-1.058l.912-.517.92-.5c.619-.328,1.236-.658,1.87-.96-.551.436-1.12.843-1.688,1.253l-.859.6-.867.589c-.577.394-1.166.77-1.749,1.154s-1.178.75-1.772,1.117l.16-.263c-.06.656-.109,1.313-.178,1.969s-.132,1.311-.215,1.966-.164,1.309-.255,1.963-.195,1.306-.32,1.957" transform="translate(-613.458 -1167.655)" fill="#1e2633"/>
        <path id="Trazado_846326" data-name="Trazado 846326" d="M538.68,1050.241a47.154,47.154,0,0,0,5.925,7.844c1.117,1.192,2.264,2.352,3.483,3.434a45.448,45.448,0,0,0,3.779,3.094c.642.5,1.318.955,1.984,1.424.682.445,1.36.9,2.061,1.313.686.441,1.4.834,2.11,1.238.353.205.722.379,1.081.573s.716.394,1.087.566a73.773,73.773,0,0,0,9.124,3.729,41.388,41.388,0,0,1-9.556-2.795,42.405,42.405,0,0,1-8.679-4.992,41.265,41.265,0,0,1-7.247-6.911,31.767,31.767,0,0,1-5.151-8.517" transform="translate(-454.747 -886.6)" fill="#4481e2"/>
        <path id="Trazado_846327" data-name="Trazado 846327" d="M601.954,1069.487a38.389,38.389,0,0,0,4.07,4.29c.353.338.737.646,1.1.973s.744.634,1.127.938c.745.632,1.535,1.21,2.319,1.794.8.559,1.587,1.143,2.416,1.668.41.268.806.56,1.229.808s.84.509,1.255.773.844.506,1.271.753l1.279.751c.859.494,1.741.948,2.6,1.481q-1.448-.391-2.87-.895c-.923-.386-1.875-.725-2.767-1.187q-1.362-.649-2.659-1.429c-.879-.5-1.7-1.086-2.528-1.66-.406-.3-.795-.623-1.193-.933s-.785-.636-1.157-.978-.75-.677-1.1-1.04-.718-.71-1.044-1.1a18.375,18.375,0,0,1-3.341-5.01" transform="translate(-508.162 -902.847)" fill="#4481e2"/>
        <path id="Trazado_846328" data-name="Trazado 846328" d="M232.965,793.09s-12.451,21.395-12.451,26.208,19.819,50.828,26.331,53.339c3.823,1.474,9.01-1.638,10.5-.181s4.568,6.187,7.163,6.685c1.9.365,2.571-.61,2.571-.61l-4.288-6.074s4.943,5.878,8.648,5.991a4.462,4.462,0,0,0,2.533-.681l-1.771-1.931a5.575,5.575,0,0,0,3.162.531,3.227,3.227,0,0,0,1.764-.988l-9.1-9.877s6.173,5.233,9.1,5.5a3.594,3.594,0,0,0,2.822-.988s-8.889-8.607-11.217-9.1a57.754,57.754,0,0,0-8.131-.447s4.188-.65,5.319-2.1a4.994,4.994,0,0,0,.832-3.024l-16.325,3.83s-4.951-35.728-5.092-37.209S255.7,799,255.7,799Z" transform="translate(-186.155 -669.517)" fill="#efa48f"/>
        <path id="Trazado_846329" data-name="Trazado 846329" d="M463.623,1235.022a7.044,7.044,0,0,1-1.178,2.123,14.4,14.4,0,0,1-1.632,1.792c-.29.281-.6.538-.907.8s-.633.5-.957.735-.667.451-1.006.666-.7.406-1.061.583c.27-.3.559-.582.845-.861s.57-.558.864-.824.578-.542.867-.811.582-.534.863-.808q.866-.8,1.7-1.638a19.964,19.964,0,0,0,1.6-1.754" transform="translate(-385.694 -1042.59)" fill="#d47b77"/>
        <path id="Trazado_846330" data-name="Trazado 846330" d="M519.173,1285.188a20.516,20.516,0,0,1-1.74-1.616q-.823-.848-1.584-1.748t-1.467-1.847a20.26,20.26,0,0,1-1.31-1.98,20.252,20.252,0,0,1,1.741,1.615q.823.848,1.584,1.748t1.466,1.848a20.593,20.593,0,0,1,1.311,1.98" transform="translate(-433.128 -1078.869)" fill="#d47b77"/>
        <path id="Trazado_846331" data-name="Trazado 846331" d="M486.051,1294.84a7.988,7.988,0,0,1-1.18-.89,13.5,13.5,0,0,1-1.029-1.026,13.29,13.29,0,0,1-.914-1.129,7.9,7.9,0,0,1-.762-1.267,7.911,7.911,0,0,1,1.181.889,13.27,13.27,0,0,1,1.028,1.027,13.509,13.509,0,0,1,.914,1.13,8.008,8.008,0,0,1,.762,1.266" transform="translate(-407.038 -1089.447)" fill="#d47b77"/>
        <path id="Trazado_846332" data-name="Trazado 846332" d="M529.439,1260.83a6.063,6.063,0,0,1-1.17-.526,10.025,10.025,0,0,1-1.048-.689,9.855,9.855,0,0,1-.955-.812,5.984,5.984,0,0,1-.832-.976,5.984,5.984,0,0,1,1.17.525,9.9,9.9,0,0,1,1.047.689,10.078,10.078,0,0,1,.955.813,6.068,6.068,0,0,1,.832.976" transform="translate(-443.565 -1061.842)" fill="#d47b77"/>
        <path id="Trazado_846333" data-name="Trazado 846333" d="M299.752,497.409s-20.214-3.352-27.414,8.936c-5.511,9.407-20.015,39.777-20.015,39.777l32.135,9.244s5.77-16.752,9.158-24.773c4.811-11.389,6.917-23.145,6.136-33.184" transform="translate(-213.008 -419.554)" fill="#69f"/>
        <path id="Trazado_846334" data-name="Trazado 846334" d="M259.113,488.37s8.907,21.562,36.608,33.184,35.486,11.056,35.486,11.056v5.119s-18.866,33.745-88.1,31.561c-38.737-1.222-32.059,46.617-32.059,46.617s-24.616-83.3,19.353-123.952c10.973-10.145,28.708-3.586,28.708-3.586" transform="translate(-172.369 -410.515)" fill="#f84851"/>
        <path id="Trazado_846335" data-name="Trazado 846335" d="M948.254,665.244s1.048-3.681-2.311-10.532-13.166-9.247-13.166-9.247.406,13.624,5.923,17.232a14.645,14.645,0,0,0,9.554,2.548" transform="translate(-787.438 -544.893)" fill="#ff9160"/>
        <path id="Trazado_846336" data-name="Trazado 846336" d="M938.7,662.7a15.013,15.013,0,0,0,9.26,2.581c-.494-.329-1.052-.671-1.683-1.029a26.566,26.566,0,0,1-13.5-18.783s.406,13.624,5.923,17.232" transform="translate(-787.438 -544.894)" fill="#fc6"/>
        <path id="Trazado_846337" data-name="Trazado 846337" d="M947.274,663.861l1.115.392c.1-1.518-.1-4.755-2.447-9.541-3.359-6.851-13.166-9.247-13.166-9.247,8.617,5.988,14.5,18.4,14.5,18.4" transform="translate(-787.438 -544.893)" fill="#f84851"/>
        <path id="Trazado_846338" data-name="Trazado 846338" d="M1064.4,668.733s-1.048-3.681,2.311-10.532,13.166-9.247,13.166-9.247-.406,13.624-5.923,17.232a14.644,14.644,0,0,1-9.554,2.548" transform="translate(-898.425 -547.839)" fill="#586ac6"/>
        <path id="Trazado_846339" data-name="Trazado 846339" d="M1076.387,666.185a15.012,15.012,0,0,1-9.26,2.581c.494-.329,1.052-.671,1.683-1.029a26.566,26.566,0,0,0,13.5-18.783s-.406,13.624-5.923,17.232" transform="translate(-900.855 -547.839)" fill="#66cc65"/>
        <path id="Trazado_846340" data-name="Trazado 846340" d="M1065.385,667.35l-1.115.392c-.1-1.518.1-4.754,2.447-9.541,3.359-6.851,13.166-9.247,13.166-9.247-8.617,5.988-14.5,18.4-14.5,18.4" transform="translate(-898.427 -547.839)" fill="#8b38b4"/>
        <path id="Trazado_846341" data-name="Trazado 846341" d="M1016.882,758.227a6.435,6.435,0,1,1-6.435-6.435,6.435,6.435,0,0,1,6.435,6.435" transform="translate(-847.574 -634.653)" fill="#66cc65"/>
        <path id="Trazado_846342" data-name="Trazado 846342" d="M211.052,632.01s-6.678-47.839,32.059-46.617c69.23,2.183,88.1-31.561,88.1-31.561l-.019-4.509c-22.74,2.545-52.274-11.917-71.917-24.987-12.344-8.213-19.179-16.642-25.159-18.978a19.722,19.722,0,0,0-3.707,2.7c-43.97,40.654-19.354,123.952-19.354,123.952" transform="translate(-172.369 -426.618)" fill="#ff9160"/>
        <path id="Trazado_846343" data-name="Trazado 846343" d="M211.061,723.193s-6.678-47.839,32.059-46.617c69.23,2.183,88.1-31.561,88.1-31.561v-3.641c-4.964.476-17.509.9-35.941-1.861-29.184-4.374-42.19-14.975-54.687-20.529-7.466-3.318-15.707-5.8-21.905-5.6-27.317,43.16-7.622,109.81-7.622,109.81" transform="translate(-172.378 -517.801)" fill="#fc6"/>
        <path id="Trazado_846344" data-name="Trazado 846344" d="M211.06,816.888s-6.678-47.839,32.059-46.617c69.23,2.183,88.1-31.561,88.1-31.561v-3.2s-17.51,5.391-41.64,5.391c-15.828,0-32.548-5.391-48.987-11.448-13.85-5.1-24.333-6.054-30.426-4.242-13.936,41.479.9,91.681.9,91.681" transform="translate(-172.377 -611.495)" fill="#66cc65"/>
        <path id="Trazado_846345" data-name="Trazado 846345" d="M331.21,795.9c-19.247,14.663-55.715,16.569-86.532,10.169-15.627-3.246-32.188-3.031-39.406,1.6-4.35,35.317,5.783,69.608,5.783,69.608s-6.678-47.839,32.059-46.617c69.23,2.183,88.1-31.561,88.1-31.561Z" transform="translate(-172.372 -671.892)" fill="#586ac6"/>
        <path id="Trazado_846346" data-name="Trazado 846346" d="M331.758,808.172c-2.888,2.91-17.113,14.571-42.963,18.876-19.993,3.33-40.384-2.732-63.479,1.572-8.689,1.62-16.26,8.606-20.48,13.787a201.351,201.351,0,0,0,6.767,45.234s-6.678-47.839,32.059-46.617c69.23,2.183,88.1-31.561,88.1-31.561Z" transform="translate(-172.92 -682.249)" fill="#8b38b4"/>
        <path id="Trazado_846347" data-name="Trazado 846347" d="M1015.974,764.1a12.176,12.176,0,0,0-2.423-5.433,9.6,9.6,0,0,0-5.533-3.823l-.2.087a6.435,6.435,0,1,0,8.157,9.169" transform="translate(-847.575 -637.233)" fill="#586ac6"/>
        <path id="Trazado_846348" data-name="Trazado 846348" d="M1014.437,777.916c-10.934-3.034-9.23-8.779-9.23-8.779a6.433,6.433,0,0,0,9.23,8.779" transform="translate(-847.574 -649.296)" fill="#8b38b4"/>
        <path id="Trazado_846349" data-name="Trazado 846349" d="M359.882,146.97h0a.391.391,0,0,1-.384-.331c-1.01-6.514-3.992-10.779-9.118-13.038a.391.391,0,0,1,.07-.739c5.294-1.216,8.168-5.695,9.045-14.1a.391.391,0,0,1,.774-.029c1.407,7.778,4.145,11.916,8.617,13.02a.391.391,0,0,1,.051.743c-4.532,1.806-7.367,6.432-8.667,14.144a.391.391,0,0,1-.386.326m-8.23-13.629c4.284,2.2,6.992,5.876,8.23,11.173,1.381-6.3,3.946-10.349,7.8-12.306-3.766-1.367-6.255-4.935-7.713-11.069-1.11,6.812-3.791,10.739-8.316,12.2" transform="translate(-295.587 -99.964)" fill="#ffb3b3"/>
        <path id="Trazado_846350" data-name="Trazado 846350" d="M108.161,363.6c-.665,7.257-2.72,11.793-8.05,13.187,4.86,2.44,7.244,6.007,8.05,14.055.674-8.854,3.227-12.149,7.672-14.166-6.162-1.281-7.384-7.474-7.672-13.076" transform="translate(-84.512 -306.945)" fill="#ffb3b3"/>
        <path id="Trazado_846351" data-name="Trazado 846351" d="M2017.509,1127.956c-.815,8.888-3.332,14.444-9.859,16.15,5.952,2.988,8.873,7.357,9.859,17.214.825-10.844,3.952-14.88,9.4-17.35-7.547-1.568-9.044-9.154-9.4-16.014" transform="translate(-1694.832 -952.206)" fill="#ffb3b3"/>
        <path id="Trazado_846352" data-name="Trazado 846352" d="M1967.809,596.525h0a.3.3,0,0,1-.3-.257c-.783-5.054-3.1-8.363-7.074-10.116a.3.3,0,0,1,.055-.574c4.107-.943,6.337-4.418,7.018-10.937a.3.3,0,0,1,.6-.022c1.092,6.035,3.216,9.245,6.685,10.1a.3.3,0,0,1,.04.577c-3.516,1.4-5.716,4.99-6.724,10.974a.3.3,0,0,1-.3.253m-6.386-10.574c3.323,1.708,5.425,4.559,6.385,8.669,1.072-4.89,3.062-8.029,6.051-9.548-2.922-1.061-4.854-3.829-5.984-8.588-.862,5.285-2.941,8.332-6.452,9.467" transform="translate(-1654.821 -484.876)" fill="#ffb3b3"/>
        <path id="Trazado_846353" data-name="Trazado 846353" d="M1610.245,64.691h0a.409.409,0,0,1-.4-.347c-1.056-6.814-4.176-11.275-9.538-13.639a.409.409,0,0,1,.074-.774c5.537-1.272,8.544-5.957,9.462-14.746a.409.409,0,0,1,.81-.03c1.472,8.137,4.336,12.465,9.014,13.621a.409.409,0,0,1,.053.778c-4.74,1.889-7.706,6.728-9.066,14.8a.41.41,0,0,1-.4.341m-8.61-14.257c4.481,2.3,7.314,6.147,8.61,11.688,1.445-6.593,4.128-10.826,8.158-12.873-3.94-1.43-6.544-5.163-8.069-11.579-1.161,7.126-3.966,11.234-8.7,12.764" transform="translate(-1350.749 -29.394)" fill="#ffb3b3"/>
        <path id="Trazado_846354" data-name="Trazado 846354" d="M35.6,1053.5h0a.4.4,0,0,1-.393-.339c-1.032-6.66-4.082-11.02-9.322-13.33a.4.4,0,0,1,.072-.756c5.412-1.243,8.351-5.823,9.248-14.412a.4.4,0,0,1,.792-.03c1.439,7.953,4.238,12.183,8.81,13.312a.4.4,0,0,1,.052.76c-4.633,1.846-7.532,6.576-8.861,14.461a.4.4,0,0,1-.395.334m-8.415-13.934c4.38,2.252,7.149,6.008,8.415,11.424,1.412-6.444,4.035-10.581,7.974-12.582-3.851-1.4-6.4-5.046-7.886-11.317-1.135,6.964-3.876,10.98-8.5,12.475" transform="translate(-21.65 -864.701)" fill="#ffb3b3"/>
      </g>
    </g>
  </g>
</svg>
