<svg xmlns="http://www.w3.org/2000/svg" xmlns:xlink="http://www.w3.org/1999/xlink" width="349" height="227.742" viewBox="0 0 349 227.742">
  <defs>
    <filter id="Rectángulo_394259" x="-53" y="-53" width="469" height="347.742" filterUnits="userSpaceOnUse">
      <feOffset dx="7" dy="7" input="SourceAlpha"/>
      <feGaussianBlur stdDeviation="20" result="blur"/>
      <feFlood flood-opacity="0.149"/>
      <feComposite operator="in" in2="blur"/>
      <feComposite in="SourceGraphic"/>
    </filter>
    <clipPath id="clip-path">
      <g transform="matrix(1, 0, 0, 1, 0, 0)" filter="url(#Rectángulo_394259)">
        <path id="Rectángulo_394259-2" data-name="Rectángulo 394259" d="M24,0H325a24,24,0,0,1,24,24V227.742a0,0,0,0,1,0,0H0a0,0,0,0,1,0,0V24A24,24,0,0,1,24,0Z" transform="translate(-7960 6745.95)" fill="#12263f" opacity="0.48"/>
      </g>
    </clipPath>
    <clipPath id="clip-path-2">
      <rect id="Rectángulo_394258" data-name="Rectángulo 394258" width="576.253" height="340.647" fill="none"/>
    </clipPath>
    <clipPath id="clip-path-4">
      <rect id="Rectángulo_394248" data-name="Rectángulo 394248" width="89.979" height="141.796" fill="none"/>
    </clipPath>
    <clipPath id="clip-path-5">
      <rect id="Rectángulo_394249" data-name="Rectángulo 394249" width="67.208" height="69.108" fill="none"/>
    </clipPath>
    <clipPath id="clip-path-6">
      <path id="Trazado_846461" data-name="Trazado 846461" d="M426.819,289.343c-2.837-3.381-5.315-5.613-10.48-5.613-.645,0-1.332.035-2.066.107-4.471.436-9.64,4.529-10.268,12.372v2.61c.586,7.507,6.252,16.766,22.814,28.382,16.562-11.616,22.229-20.875,22.815-28.382v-2.61c-.631-7.843-5.8-11.936-10.27-12.372-.734-.072-1.422-.107-2.066-.107-5.166,0-7.643,2.233-10.479,5.613" transform="translate(-404.004 -283.73)" fill="none"/>
    </clipPath>
  </defs>
  <g id="_16" data-name="16" transform="translate(7960 -6745.945)" clip-path="url(#clip-path)">
    <g id="Grupo_1079595" data-name="Grupo 1079595" transform="translate(-8073.626 6702.667)">
      <g id="Grupo_1079594" data-name="Grupo 1079594" clip-path="url(#clip-path-2)">
        <rect id="Rectángulo_394247" data-name="Rectángulo 394247" width="576.253" height="340.647" transform="translate(0 5)" fill="#f2d9d6"/>
        <g id="Grupo_1079589" data-name="Grupo 1079589">
          <g id="Grupo_1079588" data-name="Grupo 1079588" clip-path="url(#clip-path-2)">
            <path id="Trazado_846355" data-name="Trazado 846355" d="M459.417,167.542c0,65.056-54.486,117.794-121.7,117.794s-121.7-52.738-121.7-117.794S270.508,49.748,337.72,49.748s121.7,52.738,121.7,117.794" transform="translate(-49.593 2.782)" fill="#fcedeb"/>
            <path id="Trazado_846356" data-name="Trazado 846356" d="M495.231,479.341l.078-.6.1.6h52.809l.2-39.643-96.546-4.518s-.689,10.718-1.681,26.065c-.356,5.523-.747,11.654-1.16,18.1Z" transform="translate(-143.109 -138.694)" fill="#ef5e99"/>
            <path id="Trazado_846357" data-name="Trazado 846357" d="M463.711,479.341a48.213,48.213,0,0,0,17.3-15.4,63.1,63.1,0,0,0,9.643-21.588,101.922,101.922,0,0,0,19.219,21.863,108.869,108.869,0,0,0,23.049,15.121h15.294l.2-39.643-96.05-4.491-.5-.027s-.634,9.919-1.57,24.356c-.042.565-.069,1.13-.11,1.709-.356,5.523-.747,11.654-1.16,18.1Z" transform="translate(-143.109 -138.694)" fill="#d83d83"/>
            <path id="Trazado_846358" data-name="Trazado 846358" d="M491.2,435.378a101.923,101.923,0,0,0,19.219,21.863c10.346-.276,21.519-.965,33.27-2.259l-.245,17.38h5.317l.2-39.642-94.589-19.439s-.675,6.516-1.46,14.947c-.73,7.673-1.557,16.959-2.067,24.33-.041.565-.069,1.13-.11,1.708,7.535,1.006,18.033,2.108,30.818,2.7a63.088,63.088,0,0,0,9.644-21.587" transform="translate(-143.652 -131.715)" fill="#d83d83"/>
            <path id="Trazado_846359" data-name="Trazado 846359" d="M445.9,406.768a50.257,50.257,0,0,0,36.039-29.138l8.211-18.791a91.572,91.572,0,0,0,57.82,47.694l.882.234,1-126.956,8.874-61.679-15.981-6.288v-.014l-6.365-.689-6.213-.674-10.1-1.116-19.011,3.554-20.747,5.455-10.9,2.866-.84.221L445.9,232.91s10.208,9.45,10.718,27.248c.441,14.934-6.778,87.908-10.718,146.61" transform="translate(-142.112 -66.721)" fill="#2c2349"/>
            <path id="Trazado_846360" data-name="Trazado 846360" d="M519.723,348.274A3.079,3.079,0,1,0,522.8,345.2a3.08,3.08,0,0,0-3.079,3.079" transform="translate(-165.639 -110.016)" fill="#385077"/>
            <path id="Trazado_846361" data-name="Trazado 846361" d="M517.231,378.732a3.079,3.079,0,1,0,3.079-3.079,3.08,3.08,0,0,0-3.079,3.079" transform="translate(-164.845 -119.723)" fill="#385077"/>
            <path id="Trazado_846362" data-name="Trazado 846362" d="M517.231,409.19a3.079,3.079,0,1,0,3.079-3.079,3.08,3.08,0,0,0-3.079,3.079" transform="translate(-164.845 -129.43)" fill="#385077"/>
            <path id="Trazado_846363" data-name="Trazado 846363" d="M552.481,211.133c-.191-1.226-31.435,36.887-45.23,43.1-3.12-.184-6.353-7.852-7.066-10.6-4.112-17.56-3.778-25.28-3.775-25.279a397.2,397.2,0,0,1,39.759-9.009c3.816.43,12.57,1.384,16.312,1.79" transform="translate(-158.207 -66.719)" fill="#f3a080"/>
            <path id="Trazado_846364" data-name="Trazado 846364" d="M547.988,197.97c-.471-.6-23.1,10.47-23.1,10.47s-.976-8.984,0-14.509c.3-1.711.511-2.936.546-3.208.288-2.222-.361-12.093-.361-12.093l25.02-7.74s-.259,4.92-.593,10.343c-.4,6.542.338,19.072-1.512,16.735" transform="translate(-167.147 -54.464)" fill="#f3a080"/>
            <path id="Trazado_846365" data-name="Trazado 846365" d="M549.7,181.234c-7.178,3.913-22.983,12.463-24.48,12.686a1.22,1.22,0,0,1-.131.01c.3-1.712.51-2.936.546-3.208.288-2.222-.361-12.092-.361-12.092l25.02-7.74s-.259,4.92-.593,10.343" transform="translate(-167.35 -54.464)" fill="#ea7c6f"/>
            <path id="Trazado_846366" data-name="Trazado 846366" d="M546.781,145.6a.043.043,0,0,1-.006.018,11.693,11.693,0,0,1-3.33,3.99h-.006a24.022,24.022,0,0,1-1.936,1.483c-2.836,1.948-29.209,12.639-33.227,12.021s-7.544-14.54-7.726-16c-.047-.354-.095-.742-.142-1.153-1.212-9.962-4-35.487-4-35.487,10.538-29.891,45.69-13.61,49.662-10.574s.706,45.7.706,45.7" transform="translate(-158.21 -29.56)" fill="#f3a080"/>
            <path id="Trazado_846367" data-name="Trazado 846367" d="M535.257,163.7l-17.683,3.988s2.207,8.43,10.326,7.047,7.357-11.034,7.357-11.034" transform="translate(-164.954 -52.171)" fill="#fff"/>
            <path id="Trazado_846368" data-name="Trazado 846368" d="M545.375,175.039a23.5,23.5,0,0,1-1.938,1.483c-2.833,1.949-29.209,12.639-33.229,12.022s-7.542-14.539-7.723-16c2.389,6.132,5.059,14.6,7.917,14.385,4.307-.318,31.765-10.282,34.973-11.891" transform="translate(-160.145 -54.991)" fill="#f8bf92"/>
            <path id="Trazado_846369" data-name="Trazado 846369" d="M500.051,133.7s4.943-6.352,7.579-3.746,1.422,2.851,1.422,2.851Z" transform="translate(-159.369 -41.218)" fill="#ffdda0"/>
            <path id="Trazado_846370" data-name="Trazado 846370" d="M549.328,125.347s-11.664-6.912-13.971-2.314c-1.347,2.684.51,3.591.51,3.591Z" transform="translate(-170.466 -38.708)" fill="#ffdda0"/>
            <path id="Trazado_846371" data-name="Trazado 846371" d="M503.551,142.828c-.042,2.095.982,3.815,2.287,3.84s2.4-1.651,2.438-3.747-.983-3.814-2.288-3.84-2.4,1.651-2.437,3.746" transform="translate(-160.484 -44.326)" fill="#1d1e1e"/>
            <path id="Trazado_846372" data-name="Trazado 846372" d="M500.628,141.805a5.215,5.215,0,0,0,4.881,2.089,5.215,5.215,0,0,0-4.881-2.089" transform="translate(-159.553 -45.184)" fill="#fff"/>
            <path id="Trazado_846373" data-name="Trazado 846373" d="M543.849,138.194c.05,2.54-1.192,4.625-2.773,4.656s-2.905-2-2.956-4.543,1.192-4.625,2.773-4.656,2.905,2,2.956,4.543" transform="translate(-171.502 -42.595)" fill="#1d1e1e"/>
            <path id="Trazado_846374" data-name="Trazado 846374" d="M547.3,136.953a6.325,6.325,0,0,1-5.919,2.533,6.326,6.326,0,0,1,5.919-2.533" transform="translate(-172.543 -43.635)" fill="#fff"/>
            <path id="Trazado_846375" data-name="Trazado 846375" d="M504.147,158.423c-.434,1.093-2.816,1.174-5.32.18s-4.182-2.687-3.747-3.781,2.816-1.174,5.32-.18,4.182,2.687,3.748,3.781" transform="translate(-157.763 -49.064)" fill="#ea7c6f"/>
            <path id="Trazado_846376" data-name="Trazado 846376" d="M548.654,153.051c.4,1.67-2.38,3.761-6.2,4.672s-7.246.3-7.644-1.375,2.38-3.762,6.2-4.672,7.246-.294,7.643,1.376" transform="translate(-170.434 -48.206)" fill="#ea7c6f"/>
            <path id="Trazado_846377" data-name="Trazado 846377" d="M517.638,157.3a33.271,33.271,0,0,0,7.118.962,4.562,4.562,0,0,1-3.468,2.6,23.3,23.3,0,0,1-5.1-.1,15.456,15.456,0,0,0,1.447-3.465" transform="translate(-164.513 -50.131)" fill="#ea7c6f"/>
            <path id="Trazado_846378" data-name="Trazado 846378" d="M515.036,155.223c2.568-4.394,3.441-9.189,3.819-14.207.007-.092.148-.119.169-.02,1,4.9-.2,9.631-2.438,13.984,1.745.084,3.449-.046,5.209-.017a.456.456,0,0,1,.1.894,12.759,12.759,0,0,1-6.333.33.644.644,0,0,1-.529-.965" transform="translate(-164.115 -44.916)" fill="#dd5b67"/>
            <path id="Trazado_846379" data-name="Trazado 846379" d="M564.665,160.986a16.412,16.412,0,0,0,11.532-6.069,13.14,13.14,0,0,0,1.169-1.671c1.593-2.759,2.227-12.425-1.69-14.753-2.745-1.628-4.81.615-5.8,2.107v0a9.118,9.118,0,0,0-.65,1.132Z" transform="translate(-179.962 -43.958)" fill="#f8bf92"/>
            <path id="Trazado_846380" data-name="Trazado 846380" d="M564.665,161.407a16.412,16.412,0,0,0,11.532-6.069q.28-.4.49-.771c1.594-2.759,2.227-12.425-1.689-14.75-2.222-1.321-4-.1-5.122,1.2v0a9.117,9.117,0,0,0-.65,1.132Z" transform="translate(-179.962 -44.379)" fill="#f3a080"/>
            <path id="Trazado_846381" data-name="Trazado 846381" d="M578.781,149.246a4.156,4.156,0,0,1-.228,2.34c-1.147,3.225-4.438,5.639-7.588,7.878a8.148,8.148,0,0,0,1.19-5.063c-.055-.6-.172-1.206-.166-1.811.025-2.435,5.711-7.943,6.793-3.344" transform="translate(-181.97 -47)" fill="#ea7c6f"/>
            <path id="Trazado_846382" data-name="Trazado 846382" d="M568.65,160.329l.179-.1c.114-.067.3-.153.506-.289a7.029,7.029,0,0,0,1.559-1.354,6.246,6.246,0,0,0,1.311-2.553,5.388,5.388,0,0,0-.324-3.419,3,3,0,0,0-.217-.431l-.06-.1c-.015-.026-.006-.01-.008-.013v0h0s0,0,.009-.017l.052-.092.109-.183c.074-.121.147-.241.223-.357a14.459,14.459,0,0,1,.962-1.32c.334-.408.679-.784,1.02-1.126a8.842,8.842,0,0,1,1-.894,2.183,2.183,0,0,1,1.013-.424,1.6,1.6,0,0,1,.853.159.811.811,0,0,1,.373.353.658.658,0,0,1,.052.164.4.4,0,0,0-.006-.173.766.766,0,0,0-.311-.448,1.741,1.741,0,0,0-.974-.328,2.74,2.74,0,0,0-1.339.354,8.689,8.689,0,0,0-1.226.843,13.09,13.09,0,0,0-1.215,1.1,11.646,11.646,0,0,0-1.13,1.346c-.089.122-.173.247-.257.373l-.123.192-.164.271-.113.191c.027.065.069.129.1.194l.153.279a2.59,2.59,0,0,1,.186.374,5.688,5.688,0,0,1,.442,3.026,6.447,6.447,0,0,1-.87,2.447,7.155,7.155,0,0,1-1.2,1.474c-.169.162-.322.273-.416.357l-.148.125" transform="translate(-181.232 -46.972)" fill="#b54b57"/>
            <path id="Trazado_846383" data-name="Trazado 846383" d="M524.457,89.087a6.765,6.765,0,0,0-.441-1.185,2.88,2.88,0,0,0,.441,1.185" transform="translate(-167.007 -28.015)" fill="#5f1234"/>
            <path id="Trazado_846384" data-name="Trazado 846384" d="M550.872,117.251c-.028,2.273-.138,3.706-.138,3.706s-4.257,2.728-6.324,10.512a122.857,122.857,0,0,1,.041-14.933c-1.418-1.13-3.32-2.329-3.582-4.12-.592-4.188-.565-8.982-1.157-13.156a111.952,111.952,0,0,1-43.328,8.39,19.113,19.113,0,0,1,.372-5.621c1.957-9.079,10.539-14.094,18.984-16.822A29.116,29.116,0,0,1,544.99,92.33c5.414,5.621,5.965,18.543,5.882,24.922" transform="translate(-158.182 -26.73)" fill="#edc88d"/>
            <path id="Trazado_846385" data-name="Trazado 846385" d="M551.075,117.251a20.024,20.024,0,0,0-2.769,2.631,53.1,53.1,0,0,1-5.772-25.06c-9.093,2.921-18.24,5.869-27.7,7.164a62.166,62.166,0,0,1-17.868.042,17.9,17.9,0,0,1,5.084-9.038c3.706-3.678,8.83-6.144,13.9-7.784a29.3,29.3,0,0,1,26.988,5.057,22.824,22.824,0,0,1,2.26,2.066c.165.178.33.358.482.55,3.954,4.685,5.1,13.46,5.345,19.949.069,1.653.069,3.168.055,4.422" transform="translate(-158.384 -26.731)" fill="#ffdda0"/>
            <path id="Trazado_846386" data-name="Trazado 846386" d="M545.31,90.264a95.837,95.837,0,0,1-40.888,2.728c3.706-3.679,8.83-6.145,13.9-7.784a29.3,29.3,0,0,1,26.988,5.056" transform="translate(-160.762 -26.731)" fill="#feeaaf"/>
            <path id="Trazado_846387" data-name="Trazado 846387" d="M573.731,117.043a12.283,12.283,0,0,1-2.549-3.65,30.624,30.624,0,0,1-2.8-16.3c3.954,4.684,5.1,13.46,5.345,19.948" transform="translate(-181.096 -30.945)" fill="#feeaaf"/>
            <path id="Trazado_846388" data-name="Trazado 846388" d="M548.65,156.125a.043.043,0,0,1-.006.018,11.693,11.693,0,0,1-3.33,3.99h-.006a24,24,0,0,1-1.936,1.482c-2.836,1.948-29.209,12.639-33.227,12.021s-7.544-14.54-7.726-16c-.047-.354-.095-.742-.142-1.153,1.3,2.542,5.961,11.527,7.761,13.351,2.113,2.137,30.591-11.05,31.045-12.721s1.683-31.345,1.683-31.345l3.584,4.119Z" transform="translate(-160.079 -40.083)" fill="#edc88d"/>
            <path id="Trazado_846389" data-name="Trazado 846389" d="M442.457,269.986l-55.865-24.956s-11.707-17.684-14.2-23.371-10.648-9.294-10.648-9.294l-6.728,3.97s4.09,30.86,6.374,41.672c2.04,9.652,57.678,22.738,79.957,30.112Z" transform="translate(-113.146 -67.682)" fill="#f3a080"/>
            <path id="Trazado_846390" data-name="Trazado 846390" d="M239.722,463.136H285.66c-.01-6.826-.016-13.4-.02-19.083l4.646,19.083h44.509c-6.261-30.685-13.834-65.607-16.863-78.8l-71.108,2.021c-2.3,6.529-11.126,41.731-10.484,46.722.281,2.152,1.711,14.967,3.381,30.061" transform="translate(-75.312 -122.489)" fill="#2c2349"/>
            <path id="Trazado_846391" data-name="Trazado 846391" d="M321.393,484.7l-2.93-12.71,8.828-20-18.574,13.623,4.646,19.083Z" transform="translate(-98.39 -144.053)" fill="#191430"/>
            <path id="Trazado_846392" data-name="Trazado 846392" d="M239.722,464.081h7.454c-1.4-11.384-2.561-20.658-2.9-23.026-1.014-7.218,2.547-53.758,2.547-53.758-2.3,6.529-11.126,41.731-10.484,46.722.281,2.152,1.711,14.967,3.381,30.061" transform="translate(-75.312 -123.434)" fill="#191430"/>
            <path id="Trazado_846393" data-name="Trazado 846393" d="M329.505,246.393c-1.547,11.064-10.437,22.919-10.437,22.919l6.568,59.947.5,4.633c-25.555,11.548-52.821,18.62-89.978,0l17.155-70.752-.967-57.781,7.235-1.8,11.282-2.807,36.769,4.415,16.228,3.5-2.507,9.695s9.49,18.388,8.148,28.035" transform="translate(-75.266 -63.981)" fill="#ef5e99"/>
            <g id="Grupo_1079584" data-name="Grupo 1079584" transform="translate(160.895 139.579)" opacity="0.7" style="mix-blend-mode: soft-light;isolation: isolate">
              <g id="Grupo_1079583" data-name="Grupo 1079583">
                <g id="Grupo_1079582" data-name="Grupo 1079582" clip-path="url(#clip-path-4)">
                  <path id="Trazado_846394" data-name="Trazado 846394" d="M326.139,335.2c-25.555,11.548-52.821,18.62-89.978,0l17.155-70.752-.967-57.781,7.235-1.8c1.69,14.58,5.655,50.143,5.655,62,0,15.063-14.2,60.24-14.2,60.24s47.111,8.666,74.595,3.461Z" transform="translate(-236.161 -204.873)" fill="#1e080b"/>
                </g>
              </g>
            </g>
            <path id="Trazado_846395" data-name="Trazado 846395" d="M257.729,152.441a8.683,8.683,0,0,0,.1.98c3,18.1,64.3,29.595,77.542,11.468,13.466-18.453-9.346-40.4-9.346-40.4a25.37,25.37,0,0,0,1-4.836,29.6,29.6,0,0,0-.188-8.479c-.817-4.785-4.208-8.454-7.889-11.079a33.125,33.125,0,0,0-20.174-5.9c-17.1.352-24.809,8.517-27.585,11.87-3.241,3.919-2.726,14.358-2.726,14.358s-11.645,13.365-10.74,32.019" transform="translate(-82.124 -30.017)" fill="#38102b"/>
            <path id="Trazado_846396" data-name="Trazado 846396" d="M287.105,193.286c0,.013.012.038.012.05,1.9,6.457,8.517,24.834,23.327,23.992,13.378-.791,18.8-11.493,20.664-16.908.013-.012.013-.012.013-.025-1.42-.113-3.053-.226-4.761-.377-.641-.05-1.294-.113-1.947-.176-.8-.063-1.621-.138-2.437-.226a.97.97,0,0,1-.188-.012c-3.4-.327-6.733-.729-9.095-1.206a.65.65,0,0,1-.151-.025,7.622,7.622,0,0,1-3.165-1.068l-.038-.037a.129.129,0,0,1-.05-.063,1.022,1.022,0,0,1-.1-.2c-.013-.025-.013-.037-.026-.063a4,4,0,0,1-.1-1.47,13.777,13.777,0,0,1,.339-2.136c.264-1.181.64-2.487,1.03-3.743a2.184,2.184,0,0,0,.088-.264c.226-.678.452-1.331.666-1.946.138-.4.264-.779.39-1.131.3-.816.553-1.494.715-1.922.076-.176.138-.314.176-.414a.85.85,0,0,1,.05-.138l-13.139-6.444a1.714,1.714,0,0,1-.05.175c-.025.114-.076.264-.125.465-.126.452-.314,1.131-.553,1.947a1.976,1.976,0,0,0-.088.289c-.012.037-.025.075-.038.125-.2.666-.415,1.42-.666,2.211-.264.867-.54,1.784-.842,2.7-.163.515-.339,1.031-.515,1.545-.012.05-.037.1-.05.164-1.118,3.316-2.324,6.406-3.141,7.122a.677.677,0,0,1-.113.088c-.012.013-.025.013-.037.025a.067.067,0,0,1-.05.037Z" transform="translate(-91.502 -56.517)" fill="#f3a080"/>
            <path id="Trazado_846397" data-name="Trazado 846397" d="M287.105,200.749c0,.013.012.038.012.05,1.9,6.457,8.517,24.834,23.327,23.992,13.378-.791,18.8-11.493,20.664-16.908.013-.012.013-.012.013-.025-1.42-.113-3.053-.226-4.761-.377-3.015,5.879-9.509,16.053-17.373,13.679-7.462-2.248-13.026-12.975-15.79-19.533-.012.013-.025.013-.037.025a.067.067,0,0,1-.05.037Z" transform="translate(-91.502 -63.98)" fill="#fbf1e8"/>
            <path id="Trazado_846398" data-name="Trazado 846398" d="M301.646,185.248c3.421,3.288,7.64,7.2,9.091,7.906a4.494,4.494,0,0,0,3.3.186,77.44,77.44,0,0,1,3.114-9.557l-13.137-6.442s-1.065,3.86-2.37,7.906" transform="translate(-96.136 -56.52)" fill="#ea7c6f"/>
            <path id="Trazado_846399" data-name="Trazado 846399" d="M291.455,121.055c6.254-9.692,18.462-14.112,29.18-9.849,2.464.98,4.5,2.2,5.553,3.725,4.224,6.083,12.406,29.539,9.1,41.872s-11.414,11.894-14.338,11.487-16.906-3.975-20.582-7.828-13.449-25.081-12.838-31.074c.2-2,1.839-5.1,3.926-8.332" transform="translate(-91.629 -34.924)" fill="#f8bf92"/>
            <path id="Trazado_846400" data-name="Trazado 846400" d="M289.764,118.694c6.254-9.692,18.462-14.112,29.181-9.849,2.464.98,4.5,2.2,5.553,3.725,4.224,6.083,12.406,29.539,9.1,41.872s-11.414,11.894-14.338,11.487-16.906-3.975-20.582-7.828-13.45-25.081-12.838-31.074c.2-2,1.839-5.1,3.926-8.332" transform="translate(-91.09 -34.172)" fill="#f3a080"/>
            <path id="Trazado_846401" data-name="Trazado 846401" d="M339.73,148.723a5.053,5.053,0,0,1,7.717-3.249,10.481,10.481,0,0,0-7.717,3.249" transform="translate(-108.274 -46.106)" fill="#1d1e1e"/>
            <path id="Trazado_846402" data-name="Trazado 846402" d="M338.089,172.869s-9.764-4.833-18.864.2c0,0,4.314,7.814,9.2,7.631,5.931-.221,9.663-7.833,9.663-7.833" transform="translate(-101.739 -54.428)" fill="#dd5b67"/>
            <path id="Trazado_846403" data-name="Trazado 846403" d="M320.05,173.938a10.988,10.988,0,0,0,1.89,2.808,8.847,8.847,0,0,0,7.214,3.088,9.92,9.92,0,0,0,3.806-.959,10.205,10.205,0,0,0,4.166-3.78,7.757,7.757,0,0,0,.679-1.264s-6.7-1.824-17.716.106c0-.014-.013,0-.013,0Z" transform="translate(-102.002 -55.153)" fill="#38102b"/>
            <path id="Trazado_846404" data-name="Trazado 846404" d="M320.108,173.938a13.791,13.791,0,0,0,3.687,2.036c1.251.173,9.4.16,11.513,0a3.543,3.543,0,0,0,1.837-.878,7.715,7.715,0,0,0,.679-1.264s-6.694-1.824-17.716.106" transform="translate(-102.02 -55.153)" fill="#fff"/>
            <path id="Trazado_846405" data-name="Trazado 846405" d="M334.314,162.317a4.148,4.148,0,0,0-1.828.148,5.919,5.919,0,0,0,4.063,1.862.864.864,0,0,0,.349-.038.877.877,0,0,0,.329-.273,6.962,6.962,0,0,0,1.319-2.38,1.349,1.349,0,0,0,.086-.544c-.065-.609-.408-.35-.7-.1a5.514,5.514,0,0,1-3.622,1.326" transform="translate(-105.965 -51.221)" fill="#ea7c6f"/>
            <path id="Trazado_846406" data-name="Trazado 846406" d="M337.366,159.143c.236-.427.529-.822.776-1.244a9.277,9.277,0,0,0,.766-1.637c-2.27-.619-2.921-2.534-3.592-4.73a6.676,6.676,0,0,1,.275-4.629,6.771,6.771,0,0,1,.379-.736,2.4,2.4,0,0,1,.51-.574c-.067.168-.091.345-.147.513a12.913,12.913,0,0,0-.407,1.314,8.249,8.249,0,0,0,.176,4.137,6.724,6.724,0,0,0,1.3,2.389,5.3,5.3,0,0,0,2.658,1.718c.01,0-.739,1.895-.82,2.055a6.979,6.979,0,0,1-.749,1.181,2.422,2.422,0,0,1-1.061.92.772.772,0,0,1-.439.021,1.553,1.553,0,0,0,.154-.248c.019-.038.036-.077.053-.116q.077-.172.168-.335" transform="translate(-106.775 -46.401)" fill="#dd5b67"/>
            <path id="Trazado_846407" data-name="Trazado 846407" d="M297.951,165.814c-.753-.232-4.991-4.348-7.056-1.149s-2.032,7.97.711,10.236c2.5,2.07,5.876,4.2,9.379,2.727Z" transform="translate(-92.245 -52.093)" fill="#f3a080"/>
            <path id="Trazado_846408" data-name="Trazado 846408" d="M292.474,169.69a3.581,3.581,0,0,0,.438,1.859c1.234,2.476,4,4.073,6.636,5.545a6.976,6.976,0,0,1-1.474-3.95c-.027-.491-.006-.988-.08-1.474-.294-1.957-5.223-5.794-5.521-1.98" transform="translate(-93.211 -53.563)" fill="#ea7c6f"/>
            <path id="Trazado_846409" data-name="Trazado 846409" d="M301.07,177.606l-.146-.059c-.093-.042-.242-.092-.416-.179a5.512,5.512,0,0,1-1.333-.926,5.211,5.211,0,0,1-1.281-1.918,4.63,4.63,0,0,1-.143-2.785,2.491,2.491,0,0,1,.116-.369l.033-.091c.008-.022,0-.008,0-.011v0h0s0,0-.009-.013l-.05-.069-.1-.136c-.069-.089-.138-.178-.209-.264a12.025,12.025,0,0,0-.878-.961c-.3-.294-.6-.559-.9-.8a7.09,7.09,0,0,0-.858-.615,1.614,1.614,0,0,0-.815-.235,1.156,1.156,0,0,0-.627.217.64.64,0,0,0-.243.323.53.53,0,0,0-.02.138.473.473,0,0,1-.015-.14.622.622,0,0,1,.185-.393,1.277,1.277,0,0,1,.7-.367,2,2,0,0,1,1.053.145,6.566,6.566,0,0,1,1.023.55,10.189,10.189,0,0,1,1.044.755,9.4,9.4,0,0,1,1.008.965c.081.089.158.181.236.274l.115.142.155.2.107.142c-.013.055-.037.111-.056.167l-.084.24a2.152,2.152,0,0,0-.1.321,4.892,4.892,0,0,0,.009,2.482,5.473,5.473,0,0,0,.935,1.878,5.786,5.786,0,0,0,1.076,1.06c.146.113.275.186.356.244l.126.085" transform="translate(-93.438 -53.522)" fill="#b54b57"/>
            <path id="Trazado_846410" data-name="Trazado 846410" d="M346.2,133.764s-3.871-2.16-6.01-1.628-2.495,2.618-1.581,2.886,7.592-1.258,7.592-1.258" transform="translate(-107.765 -42.086)" fill="#4a0e2f"/>
            <path id="Trazado_846411" data-name="Trazado 846411" d="M305.688,143.125s4.347-5.146,7.619-6.29,4.826.638,3.678,1.614-11.3,4.676-11.3,4.676" transform="translate(-97.425 -43.492)" fill="#4a0e2f"/>
            <path id="Trazado_846412" data-name="Trazado 846412" d="M317.3,166.027c.017,1.053-2.222,1.942-5,1.988s-5.046-.77-5.063-1.822,2.222-1.942,5-1.988,5.047.77,5.064,1.822" transform="translate(-97.919 -52.332)" fill="#ea7c6f"/>
            <path id="Trazado_846413" data-name="Trazado 846413" d="M356.422,153.172c.442.663-.818,2.282-2.816,3.614s-3.977,1.877-4.419,1.213.818-2.281,2.816-3.614,3.977-1.877,4.419-1.213" transform="translate(-111.26 -48.727)" fill="#ea7c6f"/>
            <path id="Trazado_846414" data-name="Trazado 846414" d="M314.392,151.842c.441,2.355,1.987,4.042,3.453,3.768s2.3-2.406,1.857-4.762-1.987-4.041-3.453-3.767-2.3,2.406-1.858,4.76" transform="translate(-100.161 -46.867)" fill="#1d1e1e"/>
            <path id="Trazado_846415" data-name="Trazado 846415" d="M310.533,151.524a5.964,5.964,0,0,0,5.95,1.2,5.964,5.964,0,0,0-5.95-1.2" transform="translate(-98.969 -48.19)" fill="#fff"/>
            <path id="Trazado_846416" data-name="Trazado 846416" d="M278.381,125.221a63.313,63.313,0,0,0,3.479,7.725c.365.766.754,1.545,1.131,2.312,2.211,4.384,4.359,8.492,4.359,8.492l7.06,1.143-2.776-13.616a28.853,28.853,0,0,1,17.26-9.71,13.136,13.136,0,0,0,4.471-9.986l14.773,10.174s.314-.98.7-2.348c.088-.289.175-.616.264-.942.138-.5.276-1.03.4-1.57.037-.176.087-.352.125-.54.5-2.072.854-4.182.6-5.2-.867-3.58-7.624-9.522-15.01-12.65s-26.128,5.728-26.128,5.728-7.826,3.178-8.83,5.025c-.025.05-.05.1-.076.163-.993,2.3-2.237,13.693-1.809,15.8" transform="translate(-88.694 -31.18)" fill="#38102b"/>
            <path id="Trazado_846417" data-name="Trazado 846417" d="M257.728,152.443a8.69,8.69,0,0,0,.1.98,17.251,17.251,0,0,1,18.855-13.517,20.256,20.256,0,0,1-2.3-13.83c1.369,1.758,2.739,3.5,4.108,5.263.062-2.273.112-4.547.163-6.808A33.363,33.363,0,0,0,302.422,99.7a64.707,64.707,0,0,0,24.608,19.96,29.455,29.455,0,0,0-.163-8.34c-.013-.05-.013-.089-.025-.139-.817-4.785-4.208-8.454-7.889-11.079a31.873,31.873,0,0,0-14.709-5.627,35.551,35.551,0,0,0-5.05-.276c-.138-.013-.277,0-.415,0-17.1.352-24.809,8.517-27.585,11.87-3.241,3.919-2.726,14.358-2.726,14.358a49.648,49.648,0,0,0-8.768,16.732,44.6,44.6,0,0,0-1.972,15.287" transform="translate(-82.123 -30.019)" fill="#4a0e2f"/>
            <path id="Trazado_846418" data-name="Trazado 846418" d="M340.736,100.231A31.865,31.865,0,0,0,326.027,94.6a46.112,46.112,0,0,0,9.245,10.5,29.74,29.74,0,0,0,13.378,6.344c-.012-.05-.012-.088-.025-.138-.817-4.785-4.208-8.454-7.889-11.079" transform="translate(-103.907 -30.151)" fill="#5f1234"/>
            <path id="Trazado_846419" data-name="Trazado 846419" d="M269.214,135.134a32.444,32.444,0,0,1,4.033-17.36c.163,1.344.326,2.7.5,4.045a41.217,41.217,0,0,1,5.8-9.371c-.037,2.035-.063,4.057-.1,6.079A57.256,57.256,0,0,0,300.14,94.2c-.138-.013-.277,0-.415,0-17.1.352-24.809,8.516-27.585,11.87-3.241,3.919-2.726,14.358-2.726,14.358a49.648,49.648,0,0,0-8.768,16.731,36.51,36.51,0,0,1,8.567-2.022" transform="translate(-83.07 -30.019)" fill="#5f1234"/>
            <path id="Trazado_846420" data-name="Trazado 846420" d="M464.69,401.746c-3,6.534-38.193,11.121-51.066,11.121a122.854,122.854,0,0,1-14.7-1.267c-15.5-2.083-35.055-6.369-37.047-9.854-.815-1.418,2.6-52.816,2.761-69.1.015-1.222.015-2.248-.015-3.033V329.6c-.06-1.524-.106-3.048-.166-4.573-.091-2.55-.2-5.1-.287-7.62-.106-2.581-.2-5.131-.3-7.635-.091-2.6-.181-5.146-.257-7.621-.076-2.354-.121-4.663-.166-6.881l.271-.739,2.883-7.636,11.046-29.335,20.674-4.09c.151,0,.287-.015.422-.015h.076l23.948-1.011,29.426,7.47c.347,3.8,2.535,14.984,3.954,26.981.3,2.535.574,5.1.77,7.636.226,2.6.377,5.145.452,7.62.016.422.031.845.031,1.268.03,1.931.106,4.074.211,6.353.106,2.384.256,4.949.437,7.635.166,2.445.347,5,.559,7.62.2,2.49.407,5.025.634,7.621,2.58,30.044,6.805,66.156,5.448,69.1" transform="translate(-115.293 -80.455)" fill="#fff"/>
            <path id="Trazado_846421" data-name="Trazado 846421" d="M399.619,196.018a14.565,14.565,0,0,1-10.074-5.678,11.623,11.623,0,0,1-.994-1.512c-1.343-2.488-1.658-11.079,1.875-13.043,2.476-1.374,4.251.668,5.091,2.017v0a8.231,8.231,0,0,1,.548,1.02Z" transform="translate(-123.534 -55.878)" fill="#f8bf92"/>
            <path id="Trazado_846422" data-name="Trazado 846422" d="M399.889,196.4a14.564,14.564,0,0,1-10.074-5.678q-.238-.366-.416-.7c-1.343-2.489-1.658-11.079,1.875-13.041,2.005-1.115,3.551.013,4.513,1.2v0a8.233,8.233,0,0,1,.548,1.02Z" transform="translate(-123.805 -56.26)" fill="#f3a080"/>
            <path id="Trazado_846423" data-name="Trazado 846423" d="M389.98,185.28a3.684,3.684,0,0,0,.142,2.081c.935,2.891,3.793,5.116,6.53,7.182a7.235,7.235,0,0,1-.926-4.521c.064-.534.184-1.065.194-1.6.04-2.16-4.863-7.191-5.941-3.14" transform="translate(-124.259 -58.562)" fill="#ea7c6f"/>
            <path id="Trazado_846424" data-name="Trazado 846424" d="M398.407,195.356l-.155-.09c-.1-.061-.26-.142-.442-.269a6.252,6.252,0,0,1-1.348-1.24,5.548,5.548,0,0,1-1.1-2.3,4.78,4.78,0,0,1,.375-3.024,2.545,2.545,0,0,1,.2-.376l.055-.092c.014-.022.006-.008.008-.011v0l0,0h0s0,0-.008-.016l-.045-.083-.091-.165c-.063-.108-.124-.217-.189-.322a12.912,12.912,0,0,0-.82-1.195c-.286-.371-.582-.713-.876-1.025a7.947,7.947,0,0,0-.865-.818,1.931,1.931,0,0,0-.888-.4,1.418,1.418,0,0,0-.76.119.726.726,0,0,0-.341.3.583.583,0,0,0-.05.144.356.356,0,0,1,.01-.153.686.686,0,0,1,.288-.39,1.544,1.544,0,0,1,.873-.266,2.428,2.428,0,0,1,1.179.348,7.686,7.686,0,0,1,1.066.779,11.579,11.579,0,0,1,1.05,1,10.457,10.457,0,0,1,.968,1.223c.076.11.147.223.219.338l.1.173.138.245.1.172c-.026.057-.065.113-.1.17l-.142.243a2.3,2.3,0,0,0-.174.328,5.049,5.049,0,0,0-.469,2.673,5.716,5.716,0,0,0,.709,2.192,6.351,6.351,0,0,0,1.028,1.338c.146.148.279.251.36.327l.128.115" transform="translate(-124.637 -58.542)" fill="#b54b57"/>
            <path id="Trazado_846425" data-name="Trazado 846425" d="M463.772,196.018a14.564,14.564,0,0,0,10.074-5.678,11.62,11.62,0,0,0,.994-1.512c1.343-2.488,1.658-11.079-1.875-13.043-2.476-1.374-4.251.668-5.091,2.017v0a8.116,8.116,0,0,0-.548,1.02Z" transform="translate(-147.807 -55.878)" fill="#f8bf92"/>
            <path id="Trazado_846426" data-name="Trazado 846426" d="M463.121,196.4a15.652,15.652,0,0,0,10.518-5.678q.239-.366.416-.7c1.344-2.489,1.658-11.079-1.875-13.041-2.005-1.115-3.55.013-4.513,1.2v0a8.048,8.048,0,0,0-.547,1.02Z" transform="translate(-147.599 -56.26)" fill="#f3a080"/>
            <path id="Trazado_846427" data-name="Trazado 846427" d="M468.22,227.4c-3.605,0-5.551-6.7-5.551-13s1.945-13,5.551-13,5.55,6.7,5.55,13-1.945,13-5.55,13m0-23.957c-1.43,0-3.507,4.268-3.507,10.957s2.077,10.957,3.507,10.957,3.506-4.268,3.506-10.957-2.076-10.957-3.506-10.957" transform="translate(-147.455 -64.186)" fill="#fff"/>
            <path id="Trazado_846428" data-name="Trazado 846428" d="M396.536,227.4c-3.605,0-5.551-6.7-5.551-13s1.945-13,5.551-13,5.551,6.7,5.551,13-1.945,13-5.551,13m0-23.957c-1.43,0-3.507,4.268-3.507,10.957s2.077,10.957,3.507,10.957,3.507-4.268,3.507-10.957-2.077-10.957-3.507-10.957" transform="translate(-124.61 -64.186)" fill="#fff"/>
            <path id="Trazado_846429" data-name="Trazado 846429" d="M475.863,185.28a3.683,3.683,0,0,1-.142,2.081c-.935,2.891-3.793,5.116-6.53,7.182a7.235,7.235,0,0,0,.926-4.521c-.064-.534-.184-1.065-.194-1.6-.04-2.16,4.863-7.191,5.941-3.14" transform="translate(-149.534 -58.562)" fill="#ea7c6f"/>
            <path id="Trazado_846430" data-name="Trazado 846430" d="M467.169,195.356l.156-.09c.1-.061.26-.142.441-.269a6.236,6.236,0,0,0,1.348-1.24,5.547,5.547,0,0,0,1.1-2.3,4.78,4.78,0,0,0-.375-3.024,2.542,2.542,0,0,0-.2-.376l-.055-.092c-.014-.022-.006-.008-.007-.011v0l0,0h0s0,0,.008-.016l.044-.083.091-.165c.063-.108.124-.217.189-.322a12.931,12.931,0,0,1,.82-1.195c.286-.371.583-.713.876-1.025a8.009,8.009,0,0,1,.864-.818,1.937,1.937,0,0,1,.888-.4,1.418,1.418,0,0,1,.76.119.722.722,0,0,1,.341.3.583.583,0,0,1,.05.144.355.355,0,0,0-.01-.153.683.683,0,0,0-.287-.39,1.544,1.544,0,0,0-.873-.266,2.428,2.428,0,0,0-1.179.348,7.725,7.725,0,0,0-1.066.779,11.579,11.579,0,0,0-1.05,1,10.467,10.467,0,0,0-.968,1.223c-.076.11-.146.223-.218.338l-.1.173-.138.245-.1.172c.026.057.065.113.1.17l.142.243a2.362,2.362,0,0,1,.175.328,5.055,5.055,0,0,1,.469,2.673,5.716,5.716,0,0,1-.709,2.192,6.329,6.329,0,0,1-1.028,1.338c-.146.148-.279.251-.36.327l-.128.115" transform="translate(-148.89 -58.542)" fill="#b54b57"/>
            <path id="Trazado_846431" data-name="Trazado 846431" d="M433.944,237.283a21.814,21.814,0,0,1-13.521-2.145c.258-5.394.24-11.907.24-11.907l18.212.226a93.435,93.435,0,0,0,.138,11.193,10.1,10.1,0,0,1-5.069,2.633" transform="translate(-133.991 -71.145)" fill="#ea7c6f"/>
            <path id="Trazado_846432" data-name="Trazado 846432" d="M435.676,253.846c1.92-1.4,3-3.477,4.293-5.309l-.086-.069c-1.444-1.186-2.139-4.723-2.458-8.476a10.1,10.1,0,0,1-5.069,2.633,21.811,21.811,0,0,1-13.521-2.145,34.891,34.891,0,0,1-.7,6.537c-.189.585-1.2,1.455-2.7,2.479,3.209,3.255,6.692,6.14,10.888,7.164,3.184.837,6.4-.719,9.351-2.812" transform="translate(-132.402 -76.487)" fill="#f3a080"/>
            <path id="Trazado_846433" data-name="Trazado 846433" d="M445.781,173.188s-3.88,19.728-8.249,24.6-14.518,5.8-14.518,5.8-10.149-.922-14.509-5.8-7.643-24.657-7.643-24.657a25.787,25.787,0,0,1-1.076-5.754v-.036a78.8,78.8,0,0,1-.027-11.469s.226-11.461,5.78-16.336c2.378-2.09,5.925-2.388,9.208-2.044a80.3,80.3,0,0,0,16.544,0c3.284-.344,6.829-.046,9.208,2.044,2.795,2.451,4.242,6.576,4.984,10.059a36.582,36.582,0,0,1,.8,6.277s1.5,11.46-.5,17.312" transform="translate(-127.341 -43.782)" fill="#f3a080"/>
            <path id="Trazado_846434" data-name="Trazado 846434" d="M437.23,197.994c-5.526,9.374-21.618,7.243-27.858,1-9.813-14.932-9.332-35.5-5.958-54.731-3.49,5.476-3.654,13.8-3.654,13.8s-.9,11.4,1.106,17.261c0,0,3.276,19.783,7.639,24.656s14.515,5.8,14.515,5.8,10.151-.929,14.514-5.8,8.244-24.6,8.244-24.6c1.378-4.024,1.1-10.694.79-14.473-1.119,12.312-1.848,24.377-9.337,37.08" transform="translate(-127.342 -45.978)" fill="#f8bf92"/>
            <path id="Trazado_846435" data-name="Trazado 846435" d="M410.407,194.331c-.386,1.029-3.212.922-6.314-.238s-5.3-2.936-4.918-3.967,3.212-.922,6.314.238,5.3,2.937,4.918,3.966" transform="translate(-127.206 -60.369)" fill="#ea7c6f"/>
            <path id="Trazado_846436" data-name="Trazado 846436" d="M465.533,189.859c.422,1.015-1.713,2.87-4.771,4.142s-5.878,1.483-6.3.468,1.713-2.87,4.771-4.143,5.878-1.483,6.3-.467" transform="translate(-144.823 -60.304)" fill="#ea7c6f"/>
            <path id="Trazado_846437" data-name="Trazado 846437" d="M438.774,193.461a8.846,8.846,0,0,1-9.485.766c.463,2.28-.018,4.591,2.3,4.418s7.062-2.859,7.182-5.183" transform="translate(-136.817 -61.657)" fill="#ea7c6f"/>
            <path id="Trazado_846438" data-name="Trazado 846438" d="M437.519,190.143c-3.816,1.549-4.65,1.918-7.135,1.848a30.655,30.655,0,0,1,1-15.075s-4.653,7.713-2.041,16.569c0,0,5.495.189,8.18-3.342" transform="translate(-136.579 -56.384)" fill="#dd5b67"/>
            <path id="Trazado_846439" data-name="Trazado 846439" d="M406.783,178.773a7.6,7.6,0,0,0,6.166,3.531A7.158,7.158,0,0,0,419,178.877a14.343,14.343,0,0,1-12.214-.1" transform="translate(-129.644 -56.976)" fill="#1d1e1e"/>
            <path id="Trazado_846440" data-name="Trazado 846440" d="M441.137,178.773A7.6,7.6,0,0,0,447.3,182.3a7.157,7.157,0,0,0,6.048-3.427,14.342,14.342,0,0,1-12.213-.1" transform="translate(-140.593 -56.976)" fill="#1d1e1e"/>
            <path id="Trazado_846441" data-name="Trazado 846441" d="M407.544,167.076s9.945-6.353,12.722-3.05c1.621,1.928.012,2.791.012,2.791Z" transform="translate(-129.887 -51.973)" fill="#3b3482"/>
            <path id="Trazado_846442" data-name="Trazado 846442" d="M452.966,166.274s-8.753-7.915-12.04-5.118c-1.919,1.632-.475,2.75-.475,2.75Z" transform="translate(-140.208 -51.171)" fill="#3b3482"/>
            <path id="Trazado_846443" data-name="Trazado 846443" d="M439.92,205.97s-4.813,4.6-11.352,4.619a15.092,15.092,0,0,1-10.645-4.713s9.452,5.144,22,.093" transform="translate(-133.195 -65.614)" fill="#dd5b67"/>
            <path id="Trazado_846444" data-name="Trazado 846444" d="M436.947,214.306a10.4,10.4,0,0,1-6.463,2.63,8.591,8.591,0,0,1-6.059-2.683,15.485,15.485,0,0,0,12.522.053" transform="translate(-135.267 -68.284)" fill="#ea7c6f"/>
            <path id="Trazado_846445" data-name="Trazado 846445" d="M448.417,143.327a24.927,24.927,0,0,1-1.66,5.916,61.257,61.257,0,0,1-3.063,6.609l-5.644,3.033-2.49-16.463a8.753,8.753,0,0,1-9.809-5.824,11.613,11.613,0,0,1-8.315,4.813c-3.3.2-6.912-1.359-8.315-4.346-1.313,3.395-3.395,6.715-6.639,8.375-3.018,1.554-7.168,1.147-9.3-1.4l-2.2,15.467-4.165-4.12-.377-4.014a11.651,11.651,0,0,1-2.4.951c-4.21,1.041-9.1-.8-11.166-4.618a8.208,8.208,0,0,1-.951-4.27v-.016a8.188,8.188,0,0,1,4.059-6.971c-2.55-2.46-2.113-6.79-.362-9.884a15.254,15.254,0,0,1,21.73-5.146c1.177-3.727,4.044-7.5,7.862-8.375a11.51,11.51,0,0,1,10.714,3.26c2.791-.468,6.156-.71,8.828.241,2.656.95,4.965,3.441,4.874,6.262a11.462,11.462,0,0,1,9.311,3.5c2.338,2.489,2.957,9.144,3.018,9.144,0,0,6.986,2.972,6.458,7.877" transform="translate(-118.532 -35.941)" fill="#222066"/>
            <path id="Trazado_846446" data-name="Trazado 846446" d="M448.42,143.327a24.928,24.928,0,0,1-1.66,5.916,8.08,8.08,0,0,1-5.689-1.675,8.211,8.211,0,0,1-1.977-9.929c-2.4,1.207-5.433.015-7.168-2.023s-2.474-4.723-3.169-7.3c-2.656,2.671-5.6,5.478-9.311,6.006a9.056,9.056,0,0,1-9.748-6.64,35.03,35.03,0,0,1-4.859,7.772,12.317,12.317,0,0,1-7.847,4.361c-3.048.257-6.353-1.268-7.59-4.074,0,4.9-3.214,9.854-7.953,11.106a9.319,9.319,0,0,1-9.522-3.411v-.016a8.188,8.188,0,0,1,4.059-6.971c-2.037-1.962-2.173-5.131-1.237-7.907a11.044,11.044,0,0,1,.875-1.977,15.254,15.254,0,0,1,21.73-5.146c1.177-3.727,4.044-7.5,7.862-8.375a11.51,11.51,0,0,1,10.714,3.26c2.791-.468,6.156-.71,8.828.241,2.656.95,4.965,3.441,4.874,6.262a11.462,11.462,0,0,1,9.311,3.5c2.338,2.489,2.957,9.144,3.018,9.144,0,0,4.27,1.811,5.885,4.95a5.054,5.054,0,0,1,.573,2.928" transform="translate(-118.536 -35.941)" fill="#3b3482"/>
            <path id="Trazado_846447" data-name="Trazado 846447" d="M444.353,142.859a6.3,6.3,0,0,0-5.463-7.651,9.624,9.624,0,0,0-3.682-8.616c-2.671-1.887-6.715-1.8-8.994.544a4.108,4.108,0,0,0-1.493-5.267,6.154,6.154,0,0,0-5.8-.181,13.247,13.247,0,0,0-4.618,3.818,16.014,16.014,0,0,0-3.8-3.682,5.547,5.547,0,0,0-5.071-.634,7.573,7.573,0,0,0-2.474,2.068,36.046,36.046,0,0,0-4.874,7.244,13.733,13.733,0,0,0-13.567-6.791,13.475,13.475,0,0,0-8.45,4.829,11.063,11.063,0,0,1,.875-1.977,15.255,15.255,0,0,1,21.73-5.145c1.177-3.727,4.044-7.5,7.861-8.375a11.512,11.512,0,0,1,10.715,3.259c2.791-.467,6.156-.709,8.828.241,2.656.951,4.965,3.441,4.874,6.262a11.462,11.462,0,0,1,9.311,3.5c2.339,2.49,2.958,9.145,3.018,9.145,0,0,4.27,1.811,5.885,4.949a14.573,14.573,0,0,0-4.813,2.46" transform="translate(-119.856 -35.941)" fill="#5d54b2"/>
            <path id="Trazado_846448" data-name="Trazado 846448" d="M507.529,421.606c-.05-.3-.1-.605-.149-.911-.007-.034-.014-.075-.021-.109q-.3-1.809-.606-3.652c-.047-.272-.089-.545-.136-.818-.232-1.39-.464-2.8-.7-4.217-.033-.218-.074-.436-.108-.661-.028-.15-.055-.3-.076-.456-.164-.974-.327-1.949-.49-2.93-.021-.136-.048-.266-.068-.4s-.042-.245-.061-.375c-.1-.579-.191-1.158-.293-1.744-.089-.518-.17-1.036-.259-1.553-.178-1.036-.348-2.078-.525-3.12-.108-.647-.211-1.294-.319-1.942a3.089,3.089,0,0,1-.062-.347c-.041-.245-.082-.491-.123-.729-.082-.491-.17-.988-.245-1.478-.069-.368-.129-.743-.191-1.117l-.245-1.451c-.115-.715-.238-1.437-.36-2.16-.136-.77-.266-1.547-.4-2.33-.566-3.332-1.132-6.69-1.7-10.056q-.144-.838-.286-1.7c-.259-1.54-.525-3.079-.783-4.619-.008-.034-.014-.075-.021-.109q-.663-3.883-1.328-7.78-.369-2.126-.736-4.251c-.055-.334-.116-.668-.17-1q-.144-.828-.286-1.656c-.157-.886-.307-1.771-.457-2.65-.095-.525-.183-1.049-.272-1.567-.117-.661-.225-1.315-.341-1.969q-.226-1.3-.45-2.6-.072-.409-.142-.818c-.1-.552-.191-1.1-.287-1.642-.108-.627-.217-1.247-.327-1.874-.033-.211-.067-.416-.108-.627-.014-.068-.021-.143-.035-.211-.116-.64-.224-1.281-.341-1.921-.293-1.7-.593-3.406-.892-5.089-.1-.6-.2-1.192-.313-1.792-.034-.177-.062-.347-.089-.518-.151-.845-.3-1.69-.45-2.528-.047-.279-.095-.559-.149-.838-.034-.211-.075-.422-.11-.634-.054-.3-.109-.606-.164-.906-.054-.32-.108-.634-.163-.954-.027-.123-.048-.252-.067-.375-.034-.177-.062-.347-.089-.518-.062-.307-.116-.606-.17-.913-.007-.055-.021-.109-.028-.17-.694-3.9-1.382-7.733-2.057-11.459-.116-.64-.232-1.274-.347-1.914-.014-.061-.021-.129-.034-.191-.129-.7-.252-1.4-.382-2.085-.069-.416-.151-.824-.226-1.233-.17-.961-.347-1.914-.525-2.861-.1-.572-.2-1.145-.313-1.71-.021-.1-.035-.2-.055-.3-.123-.647-.238-1.294-.362-1.935q-.1-.552-.2-1.1c-.054-.307-.108-.6-.164-.9-.02-.1-.033-.2-.055-.3-.089-.45-.17-.9-.252-1.342-.054-.3-.116-.6-.17-.892-.19-1.015-.375-2.017-.565-3.011-.069-.354-.129-.7-.2-1.049-.061-.327-.123-.647-.183-.974-.2-1.022-.388-2.037-.58-3.032-.115-.62-.238-1.233-.354-1.84-.027-.143-.054-.279-.082-.416-.041-.218-.082-.429-.123-.64-.061-.32-.123-.634-.183-.947a.8.8,0,0,1-.028-.123c-.055-.273-.1-.538-.156-.811-.014-.075-.034-.15-.048-.232-.04-.232-.089-.463-.129-.688a.787.787,0,0,1-.027-.123c-.185-.927-.362-1.84-.546-2.732q-.1-.521-.2-1.042c-.054-.279-.108-.559-.17-.831-.048-.252-.095-.5-.149-.749-.041-.218-.089-.443-.129-.661q-.021-.092-.041-.184-.144-.715-.286-1.41c0-.014-.007-.027-.007-.048-.055-.273-.11-.538-.164-.8-.021-.075-.035-.143-.048-.211-.11-.538-.225-1.063-.328-1.587q-.019-.092-.041-.184c-.149-.709-.3-1.4-.442-2.085q-.113-.542-.225-1.063c-.109-.511-.219-1.015-.327-1.506-.035-.164-.076-.334-.11-.5l-.061-.293c-.116-.491-.218-.974-.328-1.444-.048-.211-.095-.416-.142-.627-.028-.109-.048-.225-.076-.334s-.041-.184-.061-.273c-.075-.307-.144-.606-.211-.9-.021-.1-.041-.184-.069-.279s-.034-.17-.054-.252-.034-.15-.055-.225c-.007-.027-.014-.055-.02-.089-.047-.184-.088-.368-.129-.545-.021-.089-.042-.17-.061-.252s-.048-.191-.068-.279c-.041-.17-.082-.334-.123-.491,0-.007-.006-.02-.006-.027q-.3-1.2-.573-2.207c-.055-.218-.115-.436-.177-.647-.259-.933-.5-1.724-.715-2.364-.061-.184-.122-.347-.177-.5-.123-.313-.231-.572-.326-.784-.034-.061-.069-.123-.1-.177a2.109,2.109,0,0,0-.19-.3.7.7,0,0,0-.129-.123c-.11-.075-.218-.143-.335-.211-.006,0-.006,0-.013-.007s-.014-.007-.028-.014l-.266-.143c-.033-.014-.068-.034-.1-.048a2.737,2.737,0,0,0-.251-.116c-.007,0-.014-.007-.02-.007a1.75,1.75,0,0,0-.2-.089c-.061-.02-.122-.041-.183-.068l-.164-.061c-.014,0-.027-.007-.041-.007a.241.241,0,0,0-.061-.027c-.02-.007-.041-.014-.068-.02a1.341,1.341,0,0,0-.176-.055.764.764,0,0,0-.109-.041.916.916,0,0,0-.13-.034.244.244,0,0,0-.075-.027c-.149-.041-.3-.082-.456-.116-.279-.068-.572-.136-.879-.191-.333-.061-.681-.116-1.035-.164-.014.007-.02,0-.035,0-.129-.014-.258-.034-.388-.041-.246-.027-.491-.048-.743-.075l-.214-.014a45.681,45.681,0,0,0-5.864-.027l-.7.041c-.694.041-1.376.1-2.03.157-3.856.347-6.874.913-6.874.913s-1.574,52.017-6.152,60.09c-1.71,3.018-9.879,17.686-19.635,37.192-10.179,20.358-22.081,45.983-30.16,69.108Z" transform="translate(-127.189 -80.959)" fill="#ec4d38"/>
            <path id="Trazado_846449" data-name="Trazado 846449" d="M518.437,421.609c-.05-.3-.1-.605-.149-.911-.007-.034-.014-.075-.021-.109q-.3-1.809-.606-3.652c-.047-.272-.089-.545-.136-.818-.232-1.39-.464-2.8-.7-4.217-.033-.218-.074-.436-.108-.661-.028-.15-.055-.3-.076-.456-.164-.974-.327-1.949-.49-2.93-.021-.136-.048-.266-.068-.4s-.042-.245-.061-.375c-.1-.579-.191-1.158-.293-1.744-.089-.518-.17-1.036-.259-1.553-.178-1.036-.348-2.078-.525-3.12-.108-.647-.211-1.294-.319-1.942a3.075,3.075,0,0,1-.062-.347c-.041-.245-.082-.491-.123-.729-.082-.491-.17-.988-.245-1.478-.069-.368-.129-.743-.191-1.117l-.245-1.451c-.115-.715-.238-1.437-.36-2.16-.136-.77-.266-1.547-.4-2.33-.566-3.332-1.132-6.69-1.7-10.056q-.144-.838-.286-1.7c-.259-1.54-.525-3.079-.783-4.619-.008-.034-.014-.075-.021-.109q-.663-3.883-1.328-7.78-.369-2.126-.736-4.251c-.055-.334-.116-.668-.17-1q-.144-.828-.286-1.656c-.157-.886-.307-1.771-.457-2.65-.095-.525-.183-1.049-.272-1.567-.117-.661-.226-1.315-.341-1.969q-.226-1.3-.45-2.6c-.048-.273-.095-.545-.142-.818-.1-.552-.191-1.1-.287-1.642-.108-.627-.217-1.247-.327-1.874-.033-.211-.067-.416-.108-.627-.014-.068-.021-.143-.035-.211-.116-.64-.224-1.281-.341-1.921-.293-1.7-.593-3.406-.892-5.089-.1-.6-.2-1.192-.313-1.792-.034-.177-.062-.347-.089-.518-.151-.845-.3-1.69-.45-2.528-.047-.279-.095-.559-.149-.838-.034-.211-.075-.422-.11-.634-.054-.3-.109-.606-.164-.906-.054-.32-.108-.634-.163-.954-.027-.123-.048-.252-.067-.375-.034-.177-.062-.347-.089-.518-.062-.307-.116-.606-.17-.913-.007-.055-.021-.109-.028-.17-.694-3.9-1.382-7.733-2.057-11.459-.116-.64-.232-1.274-.347-1.914-.014-.061-.021-.129-.034-.191-.129-.7-.252-1.4-.382-2.085-.069-.416-.151-.824-.226-1.233-.17-.961-.347-1.914-.525-2.861-.1-.572-.2-1.145-.313-1.71-.021-.1-.035-.2-.055-.3-.123-.647-.238-1.294-.362-1.935q-.1-.552-.2-1.1c-.054-.307-.108-.6-.164-.9-.02-.1-.033-.2-.055-.3-.089-.45-.17-.9-.252-1.342-.054-.3-.116-.6-.17-.892-.19-1.015-.375-2.017-.565-3.011-.069-.354-.129-.7-.2-1.049-.061-.327-.123-.647-.183-.974-.2-1.022-.388-2.037-.58-3.032-.115-.62-.238-1.233-.354-1.84-.027-.143-.054-.279-.082-.416-.041-.218-.082-.429-.123-.64-.061-.32-.123-.634-.183-.947a.792.792,0,0,1-.028-.123c-.055-.272-.1-.538-.156-.811-.014-.075-.034-.15-.048-.232-.04-.232-.089-.463-.129-.688a.789.789,0,0,1-.027-.123c-.185-.927-.362-1.84-.546-2.732q-.1-.521-.2-1.042c-.054-.279-.108-.559-.17-.831-.048-.252-.095-.5-.149-.749-.041-.218-.089-.443-.129-.661q-.021-.092-.041-.184-.144-.715-.286-1.41c0-.014-.007-.027-.007-.048-.055-.273-.11-.538-.164-.8-.021-.075-.035-.143-.048-.211-.11-.538-.225-1.063-.328-1.587q-.019-.092-.041-.184c-.149-.709-.3-1.4-.442-2.085q-.113-.542-.225-1.063c-.109-.511-.219-1.015-.327-1.506-.035-.164-.076-.334-.11-.5l-.061-.293c-.117-.491-.218-.974-.328-1.444-.048-.211-.095-.416-.142-.627-.028-.109-.048-.225-.076-.334s-.041-.184-.061-.273c-.075-.307-.144-.606-.211-.9-.021-.1-.041-.184-.069-.279s-.034-.17-.054-.252-.034-.15-.055-.225c-.007-.027-.014-.055-.02-.089-.047-.184-.088-.368-.129-.545-.021-.089-.042-.17-.061-.252s-.048-.191-.068-.279c-.041-.17-.082-.334-.123-.491,0-.007-.006-.02-.006-.027q-.3-1.2-.573-2.207c-.055-.218-.115-.436-.177-.647-.259-.933-.5-1.724-.715-2.364-.061-.184-.122-.347-.177-.5-.123-.313-.231-.572-.326-.784-.034-.061-.069-.123-.1-.177a2.112,2.112,0,0,0-.19-.3.7.7,0,0,0-.129-.123c-.11-.075-.218-.143-.335-.211-.006,0-.006,0-.013-.007s-.014-.007-.028-.014l-.266-.143c-.033-.014-.068-.034-.1-.048a2.729,2.729,0,0,0-.251-.116c-.007,0-.014-.007-.02-.007a1.752,1.752,0,0,0-.2-.089c-.061-.02-.122-.041-.183-.068l-.164-.061a.582.582,0,0,0-.1-.034c-.02-.007-.041-.014-.068-.02-.1-.034-.191-.068-.285-.1a.913.913,0,0,0-.13-.034.244.244,0,0,0-.075-.027c-.149-.041-.3-.082-.456-.116-.279-.068-.572-.136-.879-.191-.333-.061-.681-.116-1.035-.164-.014.007-.02,0-.035,0-.129-.014-.258-.034-.388-.041-.246-.027-.491-.048-.743-.075l-.914-.061c-.232-.007-.463-.02-.695-.027l-.818-.02c-1.206-.02-2.446.007-3.652.068l-.7.041c-.694.048-1.376.1-2.03.157v45.688c.014,9.436-10.587,51.1-18.667,66.576-.709,1.356-1.6,3.332-2.643,5.811-4.4,10.473-11.413,29.884-18.191,49.228Z" transform="translate(-138.098 -80.962)" fill="#ff933b"/>
            <path id="Trazado_846450" data-name="Trazado 846450" d="M528.011,421.612c-.05-.3-.1-.605-.149-.911-.007-.034-.014-.075-.021-.109q-.3-1.809-.606-3.652c-.047-.273-.089-.545-.136-.818-.232-1.39-.464-2.8-.7-4.217-.033-.218-.074-.436-.108-.661-.028-.15-.055-.3-.076-.456-.163-.974-.327-1.949-.49-2.93-.021-.136-.048-.266-.068-.4s-.042-.245-.061-.375c-.1-.579-.191-1.158-.293-1.744-.089-.518-.17-1.036-.259-1.553-.178-1.036-.348-2.078-.525-3.12-.108-.647-.211-1.294-.32-1.942a3.116,3.116,0,0,1-.062-.347c-.041-.245-.082-.491-.123-.729-.082-.491-.17-.988-.245-1.478-.069-.368-.129-.743-.191-1.117l-.245-1.451c-.115-.715-.238-1.437-.36-2.16-.136-.77-.266-1.547-.4-2.33-.566-3.332-1.132-6.69-1.7-10.056q-.144-.838-.286-1.7c-.259-1.54-.525-3.079-.784-4.619-.007-.034-.014-.075-.021-.109q-.663-3.883-1.328-7.78-.369-2.126-.736-4.251c-.055-.334-.116-.668-.17-1q-.144-.828-.286-1.656c-.157-.886-.307-1.771-.457-2.65-.095-.525-.183-1.049-.272-1.567-.116-.661-.226-1.315-.341-1.969q-.226-1.3-.45-2.6-.072-.409-.142-.818c-.1-.552-.191-1.1-.287-1.642-.108-.627-.217-1.247-.327-1.874-.033-.211-.067-.416-.108-.627-.014-.068-.021-.143-.035-.211-.116-.64-.224-1.281-.341-1.921-.293-1.7-.593-3.406-.892-5.089-.1-.6-.2-1.192-.313-1.792-.034-.177-.062-.347-.089-.518-.151-.845-.3-1.69-.45-2.528-.047-.279-.095-.559-.149-.838-.034-.211-.075-.422-.11-.634-.054-.3-.109-.606-.164-.906-.054-.32-.108-.634-.164-.954-.027-.123-.048-.252-.067-.375-.034-.177-.062-.347-.089-.518-.062-.307-.116-.606-.17-.913-.007-.055-.021-.109-.028-.17-.694-3.9-1.382-7.733-2.057-11.459-.116-.64-.232-1.274-.347-1.914-.014-.061-.021-.129-.034-.191-.129-.7-.252-1.4-.382-2.085-.069-.416-.151-.824-.225-1.233-.17-.961-.347-1.914-.525-2.861-.1-.572-.2-1.145-.313-1.71-.021-.1-.035-.2-.055-.3-.123-.647-.238-1.294-.362-1.935q-.1-.552-.2-1.1c-.054-.307-.108-.6-.164-.9-.02-.1-.033-.2-.055-.3-.089-.45-.17-.9-.252-1.342-.054-.3-.116-.6-.17-.893-.19-1.015-.375-2.017-.565-3.011-.069-.354-.129-.7-.2-1.049-.061-.327-.123-.647-.183-.974-.2-1.022-.388-2.037-.58-3.032-.115-.62-.238-1.233-.354-1.84-.027-.143-.054-.279-.082-.416-.041-.218-.082-.429-.123-.64-.061-.32-.123-.634-.183-.947a.794.794,0,0,1-.028-.123c-.055-.273-.1-.538-.156-.811-.014-.075-.034-.15-.048-.232-.04-.232-.089-.463-.129-.688a.788.788,0,0,1-.027-.123c-.185-.927-.362-1.839-.546-2.732-.068-.347-.136-.695-.2-1.042-.054-.279-.108-.559-.17-.831-.048-.252-.095-.5-.149-.749-.041-.218-.089-.443-.129-.661q-.021-.092-.041-.184-.144-.715-.286-1.41c0-.014-.007-.027-.007-.048-.054-.273-.11-.538-.163-.8-.021-.075-.035-.143-.048-.211-.11-.538-.225-1.063-.328-1.587q-.02-.092-.041-.184c-.149-.709-.3-1.4-.442-2.085q-.113-.542-.225-1.063c-.109-.511-.219-1.015-.327-1.506-.035-.164-.076-.334-.11-.5l-.061-.293c-.116-.491-.218-.974-.328-1.444-.048-.211-.095-.416-.142-.627-.028-.109-.048-.225-.076-.334s-.041-.184-.061-.273c-.075-.307-.144-.606-.211-.9-.021-.1-.041-.184-.069-.279s-.034-.17-.054-.252-.034-.15-.055-.225c-.007-.027-.014-.055-.02-.089-.047-.184-.088-.368-.129-.545-.021-.089-.042-.17-.061-.252s-.048-.191-.068-.279c-.041-.17-.082-.334-.123-.491,0-.007-.006-.02-.006-.027q-.3-1.2-.573-2.207c-.055-.218-.115-.436-.177-.647-.259-.933-.5-1.724-.715-2.364-.061-.184-.122-.347-.177-.5-.123-.313-.231-.572-.326-.784-.034-.061-.069-.123-.1-.177a2.113,2.113,0,0,0-.19-.3.7.7,0,0,0-.129-.123c-.11-.075-.218-.143-.335-.211-.006,0-.006,0-.013-.007s-.014-.007-.028-.014l-.266-.143c-.033-.014-.068-.034-.1-.048a2.742,2.742,0,0,0-.251-.116c-.007,0-.014-.007-.02-.007-.061-.027-.13-.055-.2-.089s-.122-.041-.183-.068-.137-.048-.205-.068a2.727,2.727,0,0,0-.306-.1c-.082-.027-.157-.048-.239-.075l-.081-.02a17.685,17.685,0,0,0-2.786-.518c-.246-.027-.491-.048-.743-.075l-.914-.061c-.232-.007-.463-.02-.695-.027l-.818-.02c.136,22.387.347,97.125-2.786,104.749-1.247,3.025-6.506,17.6-12.924,35.57-3.075,8.6-6.415,17.983-9.709,27.25Z" transform="translate(-147.672 -80.965)" fill="#ffcb5d"/>
            <path id="Trazado_846451" data-name="Trazado 846451" d="M490.943,421.94h45.863c-.05-.305-.1-.6-.15-.911-.007-.034-.014-.075-.02-.109-.2-1.206-.4-2.425-.606-3.652-.048-.272-.089-.545-.136-.818-.232-1.39-.47-2.8-.7-4.217-.034-.218-.075-.436-.109-.661-.116-.661-.225-1.322-.334-1.989-.075-.463-.157-.927-.232-1.4-.021-.136-.048-.266-.068-.4s-.041-.252-.061-.375c-.1-.572-.191-1.151-.293-1.731-.089-.525-.177-1.042-.259-1.567-.177-1.036-.348-2.078-.525-3.12-.027-.15-.048-.293-.075-.436-.082-.5-.164-1-.245-1.506a3.112,3.112,0,0,1-.061-.347c-.041-.245-.082-.491-.123-.729q-.133-.777-.266-1.574c-.055-.341-.116-.681-.17-1.022l-.245-1.451c-.068-.388-.13-.77-.2-1.158l-.164-1c-.136-.77-.266-1.547-.4-2.33-.566-3.332-1.131-6.69-1.7-10.056q-.143-.838-.286-1.7c-.136-.784-.266-1.574-.4-2.364-.061-.354-.123-.709-.184-1.07-.068-.4-.136-.79-.2-1.185-.007-.034-.014-.075-.021-.109q-.664-3.883-1.328-7.78c-.1-.565-.2-1.124-.293-1.69-.15-.852-.293-1.71-.443-2.562-.054-.334-.116-.668-.17-1l-.286-1.656c-.157-.886-.307-1.771-.456-2.65-.1-.525-.184-1.049-.273-1.567-.116-.661-.225-1.315-.341-1.969l-.45-2.6-.143-.818c-.1-.552-.191-1.1-.286-1.642-.109-.627-.218-1.247-.327-1.874-.034-.211-.068-.416-.109-.627-.014-.068-.02-.143-.034-.211l-.327-1.84a.341.341,0,0,0-.014-.082c-.293-1.7-.593-3.406-.892-5.089-.1-.6-.2-1.192-.313-1.792-.034-.177-.061-.347-.089-.518-.15-.845-.3-1.69-.45-2.528-.048-.279-.1-.559-.15-.838-.034-.211-.075-.422-.109-.634-.055-.3-.109-.606-.164-.906-.027-.136-.048-.279-.075-.422-.027-.177-.061-.354-.089-.531-.027-.123-.048-.252-.068-.375-.034-.177-.061-.347-.089-.518-.068-.361-.136-.722-.2-1.083-.695-3.9-1.383-7.733-2.058-11.459-.116-.64-.232-1.274-.347-1.914-.014-.061-.02-.129-.034-.191-.129-.7-.252-1.4-.381-2.085-.075-.416-.15-.824-.225-1.233-.17-.961-.347-1.914-.525-2.861-.1-.572-.211-1.145-.313-1.71-.021-.1-.034-.2-.055-.3-.123-.647-.238-1.294-.361-1.935l-.2-1.1c-.055-.307-.109-.6-.164-.9-.014-.068-.027-.136-.041-.2a.52.52,0,0,1-.014-.1c-.089-.45-.17-.9-.252-1.342-.054-.3-.116-.6-.17-.892-.191-1.015-.375-2.017-.565-3.011-.068-.354-.129-.7-.2-1.049-.061-.327-.123-.647-.184-.974l-.2-1.063c-.068-.341-.129-.681-.2-1.015s-.116-.64-.177-.954c-.007-.014-.007-.027-.014-.041-.116-.606-.232-1.206-.341-1.8-.027-.143-.055-.279-.082-.416-.041-.218-.082-.429-.123-.64l-.02-.082c-.055-.293-.109-.579-.163-.865a.789.789,0,0,1-.027-.123c-.054-.272-.109-.538-.157-.811-.014-.075-.034-.15-.048-.232-.041-.2-.082-.416-.123-.627a1.751,1.751,0,0,1-.034-.184c-.184-.927-.361-1.839-.545-2.732l-.2-1.042c-.055-.279-.109-.559-.17-.831-.048-.252-.1-.5-.15-.749s-.1-.518-.157-.77c-.007-.027-.007-.055-.014-.075q-.143-.715-.286-1.41c0-.014-.007-.027-.007-.048-.014-.068-.034-.136-.048-.2-.041-.2-.082-.4-.116-.6-.02-.075-.034-.143-.048-.211-.109-.538-.225-1.063-.327-1.587l-.041-.184c-.15-.709-.3-1.4-.443-2.085q-.112-.542-.225-1.063c-.109-.511-.218-1.015-.327-1.506-.034-.164-.075-.334-.109-.5-.02-.1-.041-.2-.061-.293-.116-.491-.218-.974-.327-1.444-.048-.211-.1-.416-.143-.627-.027-.109-.048-.225-.075-.334-.02-.089-.041-.184-.061-.273-.075-.307-.143-.606-.211-.9-.02-.1-.041-.184-.068-.279s-.034-.17-.055-.252-.034-.15-.055-.225c-.007-.027-.014-.055-.02-.089-.055-.225-.109-.45-.164-.668-.007-.048-.02-.089-.027-.129-.027-.1-.048-.191-.068-.279q-.061-.255-.123-.491c0-.007-.007-.02-.007-.027q-.3-1.2-.572-2.207c-.055-.218-.116-.436-.177-.647-.259-.933-.5-1.724-.715-2.364-.061-.184-.123-.347-.177-.5-.123-.313-.232-.572-.327-.783-.034-.061-.068-.123-.1-.177a2.106,2.106,0,0,0-.191-.3.7.7,0,0,0-.129-.123c-.109-.075-.218-.143-.334-.211-.007,0-.007,0-.014-.007s-.014-.007-.027-.014l-.266-.143c-.034-.014-.068-.034-.1-.048-.082-.041-.163-.082-.252-.116-.007,0-.014-.007-.02-.007-.061-.027-.129-.055-.2-.089s-.123-.041-.184-.068-.136-.048-.2-.068a2.694,2.694,0,0,0-.307-.1c-.082-.027-.157-.048-.238-.075l-.082-.02c.7,23.723,3.039,102.487,3.086,105.308.027,1.533-6.745,27.688-14.021,55.335q-.818,3.1-1.641,6.225" transform="translate(-156.466 -81.293)" fill="#15ba9a"/>
            <g id="Grupo_1079587" data-name="Grupo 1079587" transform="translate(271.892 271.539)" style="mix-blend-mode: soft-light;isolation: isolate">
              <g id="Grupo_1079586" data-name="Grupo 1079586">
                <g id="Grupo_1079585" data-name="Grupo 1079585" clip-path="url(#clip-path-5)">
                  <path id="Trazado_846452" data-name="Trazado 846452" d="M466.29,467.671q-1.448-3.078-2.983-6.225c-3.4-6.963-7.065-14.1-10.73-21.025-4.115-7.774-8.237-15.281-11.984-21.979-4.565-8.169-8.577-15.125-11.35-19.88-10.179,20.358-22.081,45.983-30.16,69.108Z" transform="translate(-399.081 -398.563)" fill="#1e080b"/>
                </g>
              </g>
            </g>
            <path id="Trazado_846453" data-name="Trazado 846453" d="M520.264,425.73h24.585c-.05-.3-.1-.6-.15-.911-.007-.034-.014-.075-.021-.109q-.3-1.809-.606-3.652c-.048-.273-.089-.545-.136-.818-.232-1.39-.463-2.8-.7-4.217-.034-.218-.075-.436-.109-.661-.027-.15-.055-.3-.075-.456-.089-.5-.17-1.022-.259-1.533-.075-.463-.157-.927-.232-1.4-.02-.136-.048-.266-.068-.4s-.041-.252-.061-.375c-.1-.572-.191-1.151-.293-1.731v-.014c-.089-.518-.17-1.036-.259-1.553-.177-1.036-.347-2.078-.525-3.12-.027-.15-.048-.293-.075-.436-.1-.62-.2-1.233-.307-1.853-.041-.245-.082-.49-.123-.729-.082-.491-.17-.988-.245-1.478a.484.484,0,0,1-.02-.1c-.055-.341-.116-.681-.17-1.022l-.245-1.451c-.068-.388-.129-.77-.2-1.158-.184-1.111-.375-2.221-.559-3.332-.565-3.332-1.131-6.69-1.7-10.056q-.347-2.023-.688-4.06c-.061-.354-.123-.709-.184-1.07-.075-.429-.15-.858-.218-1.294q-.817-4.732-1.621-9.47c-.15-.852-.293-1.71-.443-2.562-.055-.334-.116-.668-.17-1l-.286-1.656c-.157-.886-.307-1.771-.456-2.65-.1-.525-.184-1.049-.273-1.567-.116-.661-.232-1.315-.341-1.969l-.45-2.6-.143-.818c-.1-.552-.191-1.1-.286-1.642-.109-.627-.218-1.254-.327-1.874-.041-.211-.075-.422-.109-.627-.123-.688-.238-1.369-.361-2.051a.34.34,0,0,0-.014-.082c-.293-1.7-.593-3.406-.892-5.089-.1-.6-.211-1.2-.313-1.792-.034-.177-.061-.347-.089-.518-.15-.845-.3-1.69-.45-2.528-.048-.279-.1-.559-.15-.838-.034-.211-.075-.422-.109-.634-.055-.3-.109-.606-.164-.906-.027-.136-.048-.279-.075-.422-.055-.3-.109-.606-.157-.906-.089-.477-.17-.954-.259-1.431-.007-.055-.02-.109-.027-.17-.695-3.9-1.383-7.733-2.057-11.459-.116-.64-.232-1.281-.347-1.914-.014-.061-.02-.129-.034-.191-.129-.7-.252-1.4-.382-2.085-.075-.416-.15-.824-.225-1.233-.17-.961-.347-1.914-.525-2.861-.1-.572-.211-1.145-.313-1.71-.02-.1-.034-.2-.055-.3-.122-.647-.238-1.294-.361-1.935l-.2-1.1c-.068-.368-.136-.736-.2-1.1-.089-.484-.177-.967-.266-1.444-.055-.3-.116-.6-.17-.892-.191-1.015-.375-2.017-.566-3.011-.068-.354-.129-.7-.2-1.049-.129-.688-.259-1.369-.388-2.037-.068-.341-.13-.681-.2-1.015s-.123-.668-.191-.995c-.116-.606-.232-1.206-.341-1.8-.027-.143-.055-.279-.082-.416-.048-.245-.1-.484-.143-.722-.055-.293-.109-.579-.164-.865a.8.8,0,0,1-.027-.123c-.054-.272-.1-.538-.157-.811-.014-.075-.034-.15-.048-.232-.041-.2-.082-.416-.123-.627a.188.188,0,0,1-.007-.061.79.79,0,0,1-.027-.123c-.184-.927-.361-1.839-.545-2.732l-.2-1.042c-.055-.279-.109-.559-.17-.831-.048-.252-.1-.5-.15-.749-.041-.218-.089-.443-.13-.661a.865.865,0,0,1-.027-.109c-.007-.027-.007-.055-.014-.075q-.143-.715-.286-1.41c-.021-.089-.034-.17-.055-.252-.055-.273-.109-.545-.163-.811-.109-.538-.225-1.063-.327-1.587l-.041-.184c-.15-.709-.3-1.4-.443-2.085q-.112-.542-.225-1.063c-.109-.511-.218-1.015-.327-1.506-.034-.164-.075-.334-.109-.5-.02-.1-.048-.2-.061-.293-.116-.491-.218-.974-.327-1.444-.048-.211-.1-.416-.143-.627-.027-.109-.048-.225-.075-.334s-.041-.184-.061-.273c-.075-.307-.143-.606-.211-.9-.02-.1-.041-.184-.068-.279s-.034-.17-.055-.252-.034-.15-.055-.225c-.007-.027-.014-.055-.02-.089-.048-.184-.089-.368-.129-.545-.014-.041-.02-.082-.034-.123s-.02-.089-.027-.129c-.027-.1-.048-.191-.068-.279q-.061-.256-.123-.491c3.686,31.019,12.917,108.237,13.742,114.226.433,3.082-4.131,22.6-9.657,44.541" transform="translate(-164.51 -85.083)" fill="#0075c2"/>
            <path id="Trazado_846454" data-name="Trazado 846454" d="M555.859,492.388c-.871-5.25-1.777-10.694-2.71-16.272-.678,4.423-1.513,10.045-2.425,16.272Z" transform="translate(-175.519 -151.741)" fill="#9664dd"/>
            <path id="Trazado_846455" data-name="Trazado 846455" d="M427.037,421.437c-16.2-45.339-47.651-100.47-51.249-106.655-4.7-8.073-6.315-60.1-6.315-60.1s-3.1-.561-7.059-.907c-5.228-.464-11.944-.582-14.953,1.4-3.5,2.3-20.67,100.026-31.947,166.255Z" transform="translate(-100.556 -80.79)" fill="#ec4d38"/>
            <path id="Trazado_846456" data-name="Trazado 846456" d="M403.095,421.44c-8.644-24.037-17.694-48.264-21.517-55.4-8.295-15.477-19.174-57.138-19.163-66.571V253.782a61.681,61.681,0,0,0-6.556-.27c-3.4.043-6.578.464-8.4,1.673-3.5,2.3-20.671,100.026-31.947,166.255Z" transform="translate(-100.557 -80.793)" fill="#ff933b"/>
            <path id="Trazado_846457" data-name="Trazado 846457" d="M382.088,421.444c-10.482-28.734-21.47-58.678-23.368-63.181-3.214-7.62-3-82.362-2.86-104.747a25.255,25.255,0,0,0-6.109.7,7.724,7.724,0,0,0-2.288.972c-3.5,2.3-20.671,100.026-31.947,166.255Z" transform="translate(-100.557 -80.797)" fill="#ffcb5d"/>
            <path id="Trazado_846458" data-name="Trazado 846458" d="M362.754,421.772c-8.109-29.933-16.206-60.262-16.173-61.918.046-2.817,2.448-81.585,3.169-105.308a7.732,7.732,0,0,0-2.288.972c-.527.345-1.362,2.86-2.449,7.1-6.093,23.929-19.921,102.9-29.5,159.153Z" transform="translate(-100.557 -81.125)" fill="#15ba9a"/>
            <path id="Trazado_846459" data-name="Trazado 846459" d="M340.908,425.549c-5.718-22.083-10.456-41.8-10.012-44.9.847-5.991,10.331-83.258,14.118-114.256-5.514,21.651-17.355,88.352-26.656,142.523-.98,5.705-1.931,11.27-2.843,16.63Z" transform="translate(-100.556 -84.902)" fill="#0075c2"/>
            <path id="Trazado_846460" data-name="Trazado 846460" d="M320.9,492.22c-.957-6.37-1.834-12.123-2.543-16.63-.98,5.705-1.93,11.27-2.843,16.63Z" transform="translate(-100.556 -151.573)" fill="#9664dd"/>
          </g>
        </g>
        <g id="Grupo_1079591" data-name="Grupo 1079591" transform="translate(275.246 193.304)">
          <g id="Grupo_1079590" data-name="Grupo 1079590" clip-path="url(#clip-path-6)">
            <rect id="Rectángulo_394251" data-name="Rectángulo 394251" width="59.356" height="7.245" transform="translate(-6.506 0.001)" fill="#ec4d38"/>
            <rect id="Rectángulo_394252" data-name="Rectángulo 394252" width="59.356" height="7.246" transform="translate(-6.506 7.245)" fill="#ff933b"/>
            <rect id="Rectángulo_394253" data-name="Rectángulo 394253" width="59.356" height="7.245" transform="translate(-6.506 14.491)" fill="#ffcb5d"/>
            <rect id="Rectángulo_394254" data-name="Rectángulo 394254" width="59.356" height="7.246" transform="translate(-6.506 21.735)" fill="#15ba9a"/>
            <rect id="Rectángulo_394255" data-name="Rectángulo 394255" width="59.356" height="7.246" transform="translate(-6.506 28.981)" fill="#0075c2"/>
            <rect id="Rectángulo_394256" data-name="Rectángulo 394256" width="59.356" height="7.245" transform="translate(-6.506 36.226)" fill="#9664dd"/>
          </g>
        </g>
        <g id="Grupo_1079593" data-name="Grupo 1079593" transform="translate(0 3)">
          <g id="Grupo_1079592" data-name="Grupo 1079592" transform="translate(0 2)" clip-path="url(#clip-path-2)">
            <path id="Trazado_846462" data-name="Trazado 846462" d="M383.621,411.667c-2.18,1.492-10.717-14.607-10.717-14.607l-5.014.64,2.936,7.065-1.145,11.085s-2.051.695-4.619,1.4c-.313.1-.647.177-.974.266a44.506,44.506,0,0,1-4.633.988c-.136.027-.279.041-.416.068a12.941,12.941,0,0,1-1.962.116,3.042,3.042,0,0,1-1.458-.32l-1-8.632-.007-.007c-.3-.191-9.79-6.241-10.908-7.937a.566.566,0,0,1-.055-.082,9.413,9.413,0,0,1-.129-3.148c.068-1.213.191-2.678.354-4.217.177-1.717.927-8.38,1.138-10.049l8,.027,8.557,1.036c1.1.422,2.555,1,4.149,1.7h.007c.784.347,1.6.722,2.425,1.117a36.912,36.912,0,0,1,8.223,5.11,8.971,8.971,0,0,1,2.017,2.446c2.95,5.7,7.406,14.45,5.232,15.935" transform="translate(-109.467 -122.476)" fill="#f3a080"/>
            <path id="Trazado_846463" data-name="Trazado 846463" d="M366.253,428.321c-.138.027-.283.043-.418.065,0-.361.018-.835.029-1.406.019-1.294.018-3.043-.021-4.936a28.963,28.963,0,0,0-.482-4.859c-.07-.317-.136-.606-.191-.863-.08-.249-.144-.467-.2-.645l-.167-.574s.15.159.41.463c.13.149.29.34.467.563.153.236.324.5.51.816a11.375,11.375,0,0,1,1.435,5.213,13.554,13.554,0,0,1-.882,5.055c-.173.447-.342.815-.488,1.107" transform="translate(-116.264 -132.296)" fill="#dd5b67"/>
            <path id="Trazado_846464" data-name="Trazado 846464" d="M374.21,427.132c-.319.091-.647.175-.978.263-.006-.074,0-.153,0-.227.02-1.294.018-3.044-.023-4.933a28.718,28.718,0,0,0-.479-4.862c-.071-.318-.131-.6-.19-.855-.077-.254-.148-.471-.2-.649l-.17-.57s.146.155.409.456c.127.153.29.34.464.567.157.232.328.508.514.812a11.358,11.358,0,0,1,1.431,5.217,13.406,13.406,0,0,1-.778,4.781" transform="translate(-118.612 -132.358)" fill="#dd5b67"/>
            <path id="Trazado_846465" data-name="Trazado 846465" d="M310.812,327.983l-1.029,14.559-.211,2.977s-.02-.014-.068-.041c-2.167-1.335-57.74-35.652-62.468-40.953-4.824-5.4-11.255-79-10.853-84.61a10.374,10.374,0,0,1,3.154-6.029h.007a26.067,26.067,0,0,1,5.307-4.2l8.332-2.071c1.819-.45,4.905,15.023,6.922,18.892s9.961,63.367,11.207,63.769,39.7,37.7,39.7,37.7" transform="translate(-75.267 -66.166)" fill="#f3a080"/>
            <path id="Trazado_846466" data-name="Trazado 846466" d="M320.411,356.352c-.3-.191-9.79-6.241-10.908-7.937-2.167-1.335-57.74-35.652-62.468-40.953-4.824-5.4-11.255-79-10.853-84.61a10.374,10.374,0,0,1,3.154-6.029h.007s6.534,85.271,10.839,89.141c4.067,3.665,53.795,35.768,59.136,39.222.3.191.463.293.463.293Z" transform="translate(-75.267 -69.103)" fill="#f8bf92"/>
            <path id="Trazado_846467" data-name="Trazado 846467" d="M437.37,340.148c-1.153,2.408,16.28,8.44,16.28,8.44l.14,5.123-7.521-1.838-10.91,2.872s-.379,2.161-.685,4.835c-.042.333-.075.674-.112,1.019a44.281,44.281,0,0,0-.266,4.787c0,.143,0,.29,0,.429a13.978,13.978,0,0,0,.185,1.978,3.055,3.055,0,0,0,.553,1.41l8.787-.341s8,9.105,9.74,9.721c.691.242,3.817-.451,7.335-1.374,1.686-.446,8.235-2.228,9.877-2.7l1.669-7.788-5.315-8.607c-.591-1.04-1.4-2.4-2.353-3.888l0,0c-.467-.732-.972-1.491-1.5-2.258a37.1,37.1,0,0,0-6.392-7.427,9.015,9.015,0,0,0-2.763-1.637c-6.166-2.062-15.606-5.155-16.755-2.75" transform="translate(-138.412 -108.128)" fill="#f3a080"/>
            <path id="Trazado_846468" data-name="Trazado 846468" d="M434.3,376.47c-.005.143,0,.29,0,.429.361-.061.833-.148,1.4-.248,1.292-.221,3.043-.493,4.941-.748a29.27,29.27,0,0,1,4.937-.275c.329.021.627.042.892.057.262.042.491.071.677.1l.6.078s-.182-.125-.528-.339c-.169-.107-.385-.237-.636-.379-.26-.116-.555-.246-.9-.384a11.514,11.514,0,0,0-5.438-.623,13.743,13.743,0,0,0-4.92,1.67c-.42.243-.762.469-1.031.661" transform="translate(-138.412 -119.212)" fill="#dd5b67"/>
            <path id="Trazado_846469" data-name="Trazado 846469" d="M434.8,368.325c-.042.333-.074.674-.111,1.019.075-.005.153-.021.228-.034,1.291-.221,3.042-.493,4.938-.745a29.007,29.007,0,0,1,4.939-.279c.329.02.624.037.885.056.266.038.495.075.681.1l.6.081s-.178-.121-.521-.339c-.172-.1-.385-.237-.639-.375-.257-.121-.559-.25-.892-.388a11.505,11.505,0,0,0-5.442-.619,13.566,13.566,0,0,0-4.662,1.523" transform="translate(-138.538 -116.873)" fill="#dd5b67"/>
            <path id="Trazado_846470" data-name="Trazado 846470" d="M584.432,321.476a7.9,7.9,0,0,1-.469,2.493c-3.058,9.009-20.43,24.219-33.022,28.421-12.04,4.037-58.371-5.7-70.274-8.321-1.791-.386-2.8-.62-2.8-.62l7.37-27.608h54.472l29.206-93.6s11.586,3.238,12.068,9.63,3.444,81.254,3.444,89.6" transform="translate(-152.3 -70.83)" fill="#2c2349"/>
            <path id="Trazado_846471" data-name="Trazado 846471" d="M496.982,324.387l48.257-.929,22.2-71.141L549.843,329.5H493.271l1.185-5.4Z" transform="translate(-157.208 -80.415)" fill="#1e1838"/>
            <path id="Trazado_846472" data-name="Trazado 846472" d="M585.272,371.556c-3.058,9.01-20.431,24.219-33.022,28.421-12.041,4.037-58.371-5.7-70.274-8.321l.8-2.742s59.542,9.787,65.108,8.8c4.078-.716,29.289-19.514,37.389-26.154" transform="translate(-153.609 -118.417)" fill="#1e1838"/>
            <path id="Trazado_846473" data-name="Trazado 846473" d="M483.623,356.737l-6.711,30.772,6.711,1.146,8.146-30.989Z" transform="translate(-151.995 -113.694)" fill="#fff"/>
            <path id="Trazado_846474" data-name="Trazado 846474" d="M223.31,183.935l-1.2-3.793-1.2,3.793a16.841,16.841,0,0,1-7.974,9.689,16.841,16.841,0,0,1,7.974,9.689l1.2,3.793,1.2-3.793a16.841,16.841,0,0,1,7.974-9.689,16.841,16.841,0,0,1-7.974-9.689" transform="translate(-67.863 -57.412)" fill="#fff"/>
            <path id="Trazado_846475" data-name="Trazado 846475" d="M491.407,186.978l-.6-1.889-.6,1.889a8.387,8.387,0,0,1-3.972,4.826,8.389,8.389,0,0,1,3.972,4.826l.6,1.89.6-1.89a8.391,8.391,0,0,1,3.972-4.826,8.389,8.389,0,0,1-3.972-4.826" transform="translate(-154.967 -58.989)" fill="#fff"/>
            <path id="Trazado_846476" data-name="Trazado 846476" d="M410.248,61.184l-.677-2.134-.676,2.134a9.479,9.479,0,0,1-4.488,5.452,9.477,9.477,0,0,1,4.488,5.452l.676,2.134.677-2.134a9.479,9.479,0,0,1,4.487-5.452,9.481,9.481,0,0,1-4.487-5.452" transform="translate(-128.887 -18.82)" fill="#fff"/>
            <path id="Trazado_846477" data-name="Trazado 846477" d="M604.167,96.362l-.958-3.023-.958,3.023a13.42,13.42,0,0,1-6.354,7.721h0a13.422,13.422,0,0,1,6.354,7.721l.958,3.023.958-3.023a13.42,13.42,0,0,1,6.354-7.721,13.42,13.42,0,0,1-6.354-7.721" transform="translate(-189.916 -29.748)" fill="#fff"/>
            <path id="Trazado_846478" data-name="Trazado 846478" d="M623.415,406.5l-1.115-3.517-1.115,3.517a15.621,15.621,0,0,1-7.4,8.988,15.62,15.62,0,0,1,7.4,8.987l1.115,3.518,1.115-3.518a15.619,15.619,0,0,1,7.4-8.987h0a15.619,15.619,0,0,1-7.4-8.988" transform="translate(-195.618 -128.433)" fill="#fff"/>
            <path id="Trazado_846479" data-name="Trazado 846479" d="M581.125,447.278l-.614-1.936-.613,1.936a8.6,8.6,0,0,1-4.071,4.946,8.6,8.6,0,0,1,4.071,4.946l.613,1.936.614-1.936a8.6,8.6,0,0,1,4.071-4.946,8.6,8.6,0,0,1-4.071-4.946" transform="translate(-183.52 -141.933)" fill="#fff"/>
            <path id="Trazado_846480" data-name="Trazado 846480" d="M221.862,379.137,221.186,377l-.677,2.134a9.476,9.476,0,0,1-4.487,5.452,9.474,9.474,0,0,1,4.487,5.452l.677,2.134.677-2.134a9.479,9.479,0,0,1,4.487-5.452,9.481,9.481,0,0,1-4.487-5.452" transform="translate(-68.848 -120.153)" fill="#fff"/>
            <path id="Trazado_846481" data-name="Trazado 846481" d="M266.469,436.864l-.546-1.725-.547,1.725a7.654,7.654,0,0,1-3.626,4.406h0a7.654,7.654,0,0,1,3.626,4.406l.547,1.725.546-1.725a7.661,7.661,0,0,1,3.627-4.407,7.658,7.658,0,0,1-3.627-4.406" transform="translate(-83.421 -138.681)" fill="#fff"/>
            <path id="Trazado_846482" data-name="Trazado 846482" d="M588.084,166.667l-.408-1.288-.408,1.288a5.716,5.716,0,0,1-2.707,3.289,5.718,5.718,0,0,1,2.707,3.289l.408,1.288.408-1.288a5.719,5.719,0,0,1,2.707-3.289,5.717,5.717,0,0,1-2.707-3.289" transform="translate(-186.303 -52.707)" fill="#fff"/>
            <path id="Trazado_846483" data-name="Trazado 846483" d="M386.322,84.407l-.978-3.085-.977,3.085a13.7,13.7,0,0,1-6.485,7.88,13.7,13.7,0,0,1,6.485,7.88l.977,3.085.978-3.085a13.7,13.7,0,0,1,6.485-7.88,13.7,13.7,0,0,1-6.485-7.88" transform="translate(-120.433 -25.918)" fill="#efcc51"/>
            <path id="Trazado_846484" data-name="Trazado 846484" d="M621.538,176a15.177,15.177,0,0,1-1.9,2.221,38.6,38.6,0,0,1-7.406,5.414q-1.447.847-3.043,1.674a50.15,50.15,0,0,1-3.386-5.293,26.423,26.423,0,0,1-3.055-7.814c-.447-2.628-.01-4.992,2.189-6.334a5.965,5.965,0,0,1,2.143-.843c3.966-.646,6.049,4.407,6.521,5.726.07.2.1.311.1.311a9.728,9.728,0,0,1,3.732-1.852h0a4.365,4.365,0,0,1,4.393,1.364c1.339,1.483,1.121,3.366-.29,5.427" transform="translate(-192.048 -52.575)" fill="#2c2349"/>
            <path id="Trazado_846485" data-name="Trazado 846485" d="M256.612,85.976a15.128,15.128,0,0,1,.662,2.849A38.572,38.572,0,0,1,257.25,98c-.116,1.111-.268,2.262-.454,3.443a50.085,50.085,0,0,1-6.27-.407,26.413,26.413,0,0,1-8.106-2.166c-2.382-1.2-4.028-2.95-3.807-5.516a5.969,5.969,0,0,1,.59-2.226c1.829-3.578,7.132-2.263,8.476-1.863.2.059.313.1.313.1a9.721,9.721,0,0,1,.718-4.1h0a4.365,4.365,0,0,1,3.7-2.731c1.988-.2,3.376,1.091,4.2,3.447" transform="translate(-76.041 -26.296)" fill="#d65e79"/>
            <path id="Trazado_846486" data-name="Trazado 846486" d="M250.718,125.114a8.034,8.034,0,0,1,.349,1.5,20.37,20.37,0,0,1-.013,4.841c-.061.587-.141,1.194-.239,1.817a26.574,26.574,0,0,1-3.308-.215,13.947,13.947,0,0,1-4.277-1.143c-1.257-.632-2.126-1.556-2.009-2.91a3.159,3.159,0,0,1,.311-1.174c.965-1.888,3.763-1.194,4.473-.983.106.031.165.052.165.052a5.124,5.124,0,0,1,.379-2.166h0a2.3,2.3,0,0,1,1.953-1.441c1.049-.106,1.782.576,2.217,1.819" transform="translate(-76.875 -39.291)" fill="#2c2349"/>
            <path id="Trazado_846487" data-name="Trazado 846487" d="M465.295,87.447a15.177,15.177,0,0,1-1.9,2.221,38.594,38.594,0,0,1-7.406,5.414q-1.447.848-3.043,1.674a50.147,50.147,0,0,1-3.386-5.293,26.424,26.424,0,0,1-3.055-7.814c-.447-2.628-.01-4.993,2.189-6.334a5.965,5.965,0,0,1,2.143-.843c3.966-.646,6.049,4.407,6.521,5.726.07.2.1.311.1.311a9.728,9.728,0,0,1,3.732-1.852h0a4.366,4.366,0,0,1,4.393,1.364c1.339,1.483,1.121,3.366-.289,5.427" transform="translate(-142.252 -24.354)" fill="#f2d9d6"/>
            <path id="Trazado_846488" data-name="Trazado 846488" d="M598.471,199.983a6.841,6.841,0,0,1-1.162.645,17.5,17.5,0,0,1-4.01,1.132q-.75.132-1.561.231a22.872,22.872,0,0,1-.6-2.79,11.982,11.982,0,0,1-.063-3.81,2.574,2.574,0,0,1,1.935-2.35,2.7,2.7,0,0,1,1.046-.019c1.79.353,1.877,2.833,1.869,3.471,0,.094,0,.149,0,.149a4.412,4.412,0,0,1,1.882-.2h0a1.982,1.982,0,0,1,1.654,1.276c.335.843-.056,1.611-.983,2.264" transform="translate(-188.338 -61.504)" fill="#d65e79"/>
          </g>
        </g>
      </g>
    </g>
  </g>
</svg>
