<svg xmlns="http://www.w3.org/2000/svg" xmlns:xlink="http://www.w3.org/1999/xlink" width="349" height="227.742" viewBox="0 0 349 227.742">
  <defs>
    <filter id="Rectángulo_397265" x="-53" y="-53" width="469" height="347.742" filterUnits="userSpaceOnUse">
      <feOffset dx="7" dy="7" input="SourceAlpha"/>
      <feGaussianBlur stdDeviation="20" result="blur"/>
      <feFlood flood-opacity="0.149"/>
      <feComposite operator="in" in2="blur"/>
      <feComposite in="SourceGraphic"/>
    </filter>
    <clipPath id="clip-path">
      <g transform="matrix(1, 0, 0, 1, 0, 0)" filter="url(#Rectángulo_397265)">
        <path id="Rectángulo_397265-2" data-name="Rectángulo 397265" d="M24,0H325a24,24,0,0,1,24,24V227.742a0,0,0,0,1,0,0H0a0,0,0,0,1,0,0V24A24,24,0,0,1,24,0Z" transform="translate(-3161 -8426)" fill="#12263f" opacity="0.48"/>
      </g>
    </clipPath>
    <clipPath id="clip-path-2">
      <rect id="Rectángulo_397324" data-name="Rectángulo 397324" width="364" height="296.119" fill="none"/>
    </clipPath>
    <clipPath id="clip-path-4">
      <rect id="Rectángulo_397266" data-name="Rectángulo 397266" width="95.898" height="155.224" fill="none"/>
    </clipPath>
    <clipPath id="clip-path-5">
      <rect id="Rectángulo_397267" data-name="Rectángulo 397267" width="59.476" height="142.279" fill="none"/>
    </clipPath>
    <clipPath id="clip-path-6">
      <rect id="Rectángulo_397268" data-name="Rectángulo 397268" width="364" height="32.053" fill="none"/>
    </clipPath>
    <clipPath id="clip-path-7">
      <rect id="Rectángulo_397269" data-name="Rectángulo 397269" width="152.702" height="106.217" fill="none"/>
    </clipPath>
    <clipPath id="clip-path-8">
      <rect id="Rectángulo_397270" data-name="Rectángulo 397270" width="304.582" height="89.605" fill="none"/>
    </clipPath>
    <clipPath id="clip-path-9">
      <rect id="Rectángulo_397271" data-name="Rectángulo 397271" width="12.062" height="11.585" fill="none"/>
    </clipPath>
    <clipPath id="clip-path-10">
      <rect id="Rectángulo_397272" data-name="Rectángulo 397272" width="12.184" height="11.585" fill="none"/>
    </clipPath>
    <clipPath id="clip-path-11">
      <rect id="Rectángulo_397273" data-name="Rectángulo 397273" width="229.472" height="27.462" fill="none"/>
    </clipPath>
    <clipPath id="clip-path-12">
      <rect id="Rectángulo_397275" data-name="Rectángulo 397275" width="61.709" height="40.708" fill="none"/>
    </clipPath>
    <clipPath id="clip-path-14">
      <rect id="Rectángulo_397276" data-name="Rectángulo 397276" width="58.51" height="37.118" fill="none"/>
    </clipPath>
    <clipPath id="clip-path-15">
      <rect id="Rectángulo_397277" data-name="Rectángulo 397277" width="18.256" height="21.757" fill="none"/>
    </clipPath>
    <clipPath id="clip-path-16">
      <rect id="Rectángulo_397278" data-name="Rectángulo 397278" width="11.408" height="5.988" fill="none"/>
    </clipPath>
    <clipPath id="clip-path-17">
      <rect id="Rectángulo_397279" data-name="Rectángulo 397279" width="9.928" height="0.697" fill="none"/>
    </clipPath>
    <clipPath id="clip-path-18">
      <rect id="Rectángulo_397280" data-name="Rectángulo 397280" width="6.173" height="0.921" fill="none"/>
    </clipPath>
    <clipPath id="clip-path-19">
      <rect id="Rectángulo_397281" data-name="Rectángulo 397281" width="2.755" height="2.29" fill="none"/>
    </clipPath>
    <clipPath id="clip-path-20">
      <rect id="Rectángulo_397282" data-name="Rectángulo 397282" width="2.783" height="2.43" fill="none"/>
    </clipPath>
    <clipPath id="clip-path-21">
      <rect id="Rectángulo_397283" data-name="Rectángulo 397283" width="2.921" height="2.397" fill="none"/>
    </clipPath>
    <clipPath id="clip-path-22">
      <rect id="Rectángulo_397284" data-name="Rectángulo 397284" width="2.674" height="2.818" fill="none"/>
    </clipPath>
    <clipPath id="clip-path-23">
      <rect id="Rectángulo_397285" data-name="Rectángulo 397285" width="86.789" height="90.521" fill="none"/>
    </clipPath>
    <clipPath id="clip-path-24">
      <rect id="Rectángulo_397286" data-name="Rectángulo 397286" width="24.348" height="27.181" fill="none"/>
    </clipPath>
    <clipPath id="clip-path-25">
      <rect id="Rectángulo_397287" data-name="Rectángulo 397287" width="29.458" height="25.364" fill="none"/>
    </clipPath>
    <clipPath id="clip-path-26">
      <rect id="Rectángulo_397288" data-name="Rectángulo 397288" width="8.199" height="22.831" fill="none"/>
    </clipPath>
    <clipPath id="clip-path-27">
      <rect id="Rectángulo_397289" data-name="Rectángulo 397289" width="28.416" height="7.928" fill="none"/>
    </clipPath>
    <clipPath id="clip-path-28">
      <rect id="Rectángulo_397290" data-name="Rectángulo 397290" width="5.529" height="10.139" fill="none"/>
    </clipPath>
    <clipPath id="clip-path-29">
      <rect id="Rectángulo_397291" data-name="Rectángulo 397291" width="5.636" height="4.411" fill="none"/>
    </clipPath>
    <clipPath id="clip-path-30">
      <rect id="Rectángulo_397292" data-name="Rectángulo 397292" width="5.047" height="4.822" fill="none"/>
    </clipPath>
    <clipPath id="clip-path-31">
      <rect id="Rectángulo_397293" data-name="Rectángulo 397293" width="57.799" height="40.708" fill="none"/>
    </clipPath>
    <clipPath id="clip-path-32">
      <rect id="Rectángulo_397294" data-name="Rectángulo 397294" width="25.086" height="37.468" fill="none"/>
    </clipPath>
    <clipPath id="clip-path-33">
      <rect id="Rectángulo_397295" data-name="Rectángulo 397295" width="70.881" height="76.824" fill="none"/>
    </clipPath>
    <clipPath id="clip-path-34">
      <rect id="Rectángulo_397296" data-name="Rectángulo 397296" width="17.662" height="21.049" fill="none"/>
    </clipPath>
    <clipPath id="clip-path-35">
      <rect id="Rectángulo_397297" data-name="Rectángulo 397297" width="11.037" height="5.793" fill="none"/>
    </clipPath>
    <clipPath id="clip-path-36">
      <rect id="Rectángulo_397298" data-name="Rectángulo 397298" width="9.605" height="0.674" fill="none"/>
    </clipPath>
    <clipPath id="clip-path-37">
      <rect id="Rectángulo_397299" data-name="Rectángulo 397299" width="5.973" height="0.892" fill="none"/>
    </clipPath>
    <clipPath id="clip-path-38">
      <rect id="Rectángulo_397300" data-name="Rectángulo 397300" width="2.665" height="2.216" fill="none"/>
    </clipPath>
    <clipPath id="clip-path-39">
      <rect id="Rectángulo_397301" data-name="Rectángulo 397301" width="2.692" height="2.352" fill="none"/>
    </clipPath>
    <clipPath id="clip-path-40">
      <rect id="Rectángulo_397302" data-name="Rectángulo 397302" width="2.826" height="2.319" fill="none"/>
    </clipPath>
    <clipPath id="clip-path-41">
      <rect id="Rectángulo_397303" data-name="Rectángulo 397303" width="2.588" height="2.727" fill="none"/>
    </clipPath>
    <clipPath id="clip-path-42">
      <rect id="Rectángulo_397304" data-name="Rectángulo 397304" width="17.889" height="17.96" fill="none"/>
    </clipPath>
    <clipPath id="clip-path-43">
      <rect id="Rectángulo_397305" data-name="Rectángulo 397305" width="22.746" height="17.484" fill="none"/>
    </clipPath>
    <clipPath id="clip-path-44">
      <rect id="Rectángulo_397306" data-name="Rectángulo 397306" width="5.377" height="4.862" fill="none"/>
    </clipPath>
    <clipPath id="clip-path-45">
      <rect id="Rectángulo_397307" data-name="Rectángulo 397307" width="6.153" height="4.379" fill="none"/>
    </clipPath>
    <clipPath id="clip-path-46">
      <rect id="Rectángulo_397308" data-name="Rectángulo 397308" width="27.422" height="6.39" fill="none"/>
    </clipPath>
    <clipPath id="clip-path-47">
      <rect id="Rectángulo_397309" data-name="Rectángulo 397309" width="4.586" height="9.713" fill="none"/>
    </clipPath>
    <clipPath id="clip-path-48">
      <rect id="Rectángulo_397310" data-name="Rectángulo 397310" width="13.609" height="4.792" fill="none"/>
    </clipPath>
    <clipPath id="clip-path-49">
      <rect id="Rectángulo_397311" data-name="Rectángulo 397311" width="8.137" height="2.42" fill="none"/>
    </clipPath>
    <clipPath id="clip-path-51">
      <rect id="Rectángulo_397313" data-name="Rectángulo 397313" width="5.79" height="6.208" fill="none"/>
    </clipPath>
    <clipPath id="clip-path-53">
      <rect id="Rectángulo_397315" data-name="Rectángulo 397315" width="25.976" height="14.053" fill="none"/>
    </clipPath>
    <clipPath id="clip-path-55">
      <rect id="Rectángulo_397317" data-name="Rectángulo 397317" width="24.979" height="11.78" fill="none"/>
    </clipPath>
    <clipPath id="clip-path-56">
      <rect id="Rectángulo_397318" data-name="Rectángulo 397318" width="29.175" height="30.216" fill="none"/>
    </clipPath>
    <clipPath id="clip-path-57">
      <rect id="Rectángulo_397319" data-name="Rectángulo 397319" width="33.422" height="14.658" fill="none"/>
    </clipPath>
    <clipPath id="clip-path-58">
      <rect id="Rectángulo_397320" data-name="Rectángulo 397320" width="25.283" height="13.395" fill="none"/>
    </clipPath>
    <clipPath id="clip-path-59">
      <rect id="Rectángulo_397321" data-name="Rectángulo 397321" width="17.299" height="30.842" fill="none"/>
    </clipPath>
    <clipPath id="clip-path-60">
      <rect id="Rectángulo_397322" data-name="Rectángulo 397322" width="32.706" height="11.151" fill="none"/>
    </clipPath>
  </defs>
  <g id="_17" data-name="17" transform="translate(3161 8426)" clip-path="url(#clip-path)">
    <rect id="Rectángulo_397261" data-name="Rectángulo 397261" width="612" height="408" transform="translate(-3285 -8467)" fill="#f7f1eb"/>
    <path id="Trazado_862974" data-name="Trazado 862974" d="M666.578,234.55c-6.94-3.137-11.776,2.837-11.776,2.837s.436-6.984-5.893-8.294-8.73,6.111-8.73,6.111-4.8-10.695-12.879-7.421-5.019,14.842-5.019,14.842-3.711-3.493-7.422-3.274-4.366,9.156-4.366,9.156h68.39s-3.129-9.811-12.305-13.958" transform="translate(-3397.33 -8508.798)" fill="#ebdacc"/>
    <path id="Trazado_863122" data-name="Trazado 863122" d="M666.578,234.55c-6.94-3.137-11.776,2.837-11.776,2.837s.436-6.984-5.893-8.294-8.73,6.111-8.73,6.111-4.8-10.695-12.879-7.421-5.019,14.842-5.019,14.842-3.711-3.493-7.422-3.274-4.366,9.156-4.366,9.156h68.39s-3.129-9.811-12.305-13.958" transform="translate(-3502.33 -8620.798)" fill="#ebdacc"/>
    <path id="Trazado_862975" data-name="Trazado 862975" d="M368.187,133.267S253.418,49.9,211.092,101.561c-23.53,28.722,37.447,70.7-17.882,109.983s-95.615,48.589-82.562,93.28c13.678,46.83,126.126,20.619,202.778-18.64s118.616,40.448,173.087,31.628S558.231,213.2,368.187,133.267" transform="translate(-3304.906 -8482.581)" fill="#ebdacc"/>
    <rect id="Rectángulo_397263" data-name="Rectángulo 397263" width="612" height="408" transform="translate(-3285 -8467)" fill="none"/>
    <rect id="Rectángulo_397264" data-name="Rectángulo 397264" width="612" height="408" transform="translate(-3285 -8467)" fill="none"/>
    <g id="Grupo_1088557" data-name="Grupo 1088557" transform="translate(-3161 -8411.06)">
      <g id="Grupo_1088556" data-name="Grupo 1088556" clip-path="url(#clip-path-2)">
        <g id="Grupo_1088555" data-name="Grupo 1088555">
          <g id="Grupo_1088554" data-name="Grupo 1088554" clip-path="url(#clip-path-2)">
            <path id="Trazado_862976" data-name="Trazado 862976" d="M334.8,132.409l-.032.015a.419.419,0,0,0-.086.032c-.252.094-.88.346-1.879.716-.2.071-.432.157-.676.244-.479.18-1.022.377-1.62.589-.267.087-.55.189-.856.3-.4.141-.833.291-1.29.448-2.656.911-6.107,2.051-10.3,3.332-.361.118-.724.227-1.092.338-1.179.353-2.406.723-3.695,1.092-.644.188-1.3.378-1.973.573s-1.352.386-2.044.582h-.007l-.055.015c-7.962,2.248-17.637,4.724-28.83,7.113a.382.382,0,0,0-.039.007c-1.635.346-3.3.7-5,1.038A543.668,543.668,0,0,1,167.342,159.66a458.616,458.616,0,0,1-57.659-3.639,434,434,0,0,1-62.455-12.5l-.015-.008c-1.352-.378-2.672-.755-3.946-1.131-.637-.189-1.274-.37-1.887-.559-2.106-.621-4.1-1.241-5.981-1.839-.44-.141-.88-.283-1.313-.417-.676-.22-1.336-.432-1.981-.644-.173-.063-.345-.119-.518-.173-.582-.189-1.156-.378-1.706-.566-.362-.126-.716-.244-1.062-.361q-.742-.26-1.438-.5c-.471-.165-.928-.322-1.367-.479l-.008-.008c-7.954-2.8-12.222-4.7-12.222-4.7s.786-8.033,2.712-18.447c.125-.668.251-1.36.385-2.052a168.348,168.348,0,0,1,5.69-22.008c.353-1.014.716-2.012,1.092-2.986,2.381-6.233,5.266-11.68,8.732-15.17a16.669,16.669,0,0,0,3.27-4.865c2.916-6.312,3.568-15.4,3.176-24.617a184.955,184.955,0,0,0-3.184-25.545c-.173-.943-.353-1.831-.518-2.664a10.611,10.611,0,0,1-.2-1.635,10.269,10.269,0,0,1,.644-4.126,10.58,10.58,0,0,1,5.73-6.044c.291-.126.582-.236.888-.338A29.909,29.909,0,0,1,45.27.8a32.99,32.99,0,0,1,10.4-.644C101.744,4.483,200.62,24.077,291.205,6.51a51.284,51.284,0,0,1,19.249.055c1.926.361,3.71.786,5.322,1.218a9.349,9.349,0,0,1,3.6,2.822,11.619,11.619,0,0,1,1.713,2.986,4.733,4.733,0,0,1,.22.59c-.031.236-.071.472-.118.716-.165.833-.346,1.721-.518,2.664-.04.189-.071.386-.11.582.479-.1.951-.2,1.43-.315.008.3.008.6-.007.889q-.284.86-.566,1.792c-.063.2-.134.417-.2.637-.889,2.892-1.832,6.28-2.7,9.967v.015q-.567,2.394-1.062,4.936c-.078.378-.149.755-.22,1.14-.094.511-.188,1.022-.283,1.54-.071.409-.141.825-.212,1.242-.2,1.2-.386,2.421-.551,3.648-.079.565-.149,1.123-.212,1.689-.094.81-.181,1.62-.252,2.437-.125,1.289-.22,2.586-.283,3.875-.039.755-.071,1.5-.086,2.255-.024,1.038-.032,2.067-.008,3.1l.015.755c.008.346.024.684.04,1.03s.031.684.054,1.022V59.8a.236.236,0,0,0,.008.079q.023.531.071,1.062a.11.11,0,0,0,.008.054c.023.386.055.763.1,1.132.047.519.1,1.022.172,1.525.024.2.048.393.079.582.212,1.509.487,2.987.833,4.418a32.1,32.1,0,0,0,3.741,9.306c.582.943,1.132,1.91,1.667,2.892a79.955,79.955,0,0,1,4.48,9.888l.613,1.659c.55,1.533,1.053,3.073,1.525,4.605.188.629.378,1.265.566,1.895s.361,1.265.526,1.886c.181.668.354,1.336.527,2,.6,2.351,1.108,4.645,1.563,6.87.2.983.378,1.949.551,2.892.1.573.2,1.148.3,1.706s.189,1.116.275,1.667l.118.77c.267,1.714.487,3.333.668,4.842.055.44.1.872.157,1.289.016.149.032.291.047.44.04.291.071.582.1.864.032.346.071.684.1,1.014.032.275.055.55.079.817.015.166.032.331.047.5.047.534.094,1.037.133,1.509.016.244.04.479.055.707.015.252.04.5.055.731.008.126.015.244.024.361.015.22.024.425.039.621.008.1.008.189.016.283.007.149.015.291.024.417a1.621,1.621,0,0,1,.007.188c.016.306.032.55.04.739.007.259.015.4.015.409" transform="translate(-2.589 0)" fill="#ed2939"/>
            <path id="Trazado_862977" data-name="Trazado 862977" d="M328.914,94.539l-8.268-.11-294.7-3.985c2.381-6.233,5.266-11.68,8.733-15.17a16.672,16.672,0,0,0,3.269-4.865c2.916-6.311,3.569-15.4,3.176-24.617a185.091,185.091,0,0,0-3.183-25.544c91.276,24.515,186.459,23.43,284.612,1.76.094-.015.2-.039.291-.063.479-.1.951-.2,1.43-.314.008.3.008.6-.007.888q-.283.861-.566,1.793c-.071.212-.134.417-.2.637-.888,2.892-1.832,6.28-2.7,9.966v.015q-.567,2.394-1.062,4.937c-.078.377-.149.755-.22,1.14-.1.511-.2,1.022-.283,1.541-.071.409-.141.825-.212,1.242-.2,1.2-.385,2.42-.551,3.647-.078.566-.149,1.124-.212,1.69-.094.809-.18,1.619-.252,2.436-.125,1.289-.22,2.586-.283,3.875-.039.755-.071,1.5-.086,2.256-.024,1.037-.032,2.067-.008,3.1,0,.252.008.5.015.755.008.346.024.684.04,1.03s.031.684.054,1.022V63.6a.238.238,0,0,0,.008.079q.023.53.071,1.061a.115.115,0,0,0,.008.055c.024.385.055.762.1,1.131.047.519.1,1.022.173,1.525.024.2.047.392.078.582.213,1.509.487,2.986.833,4.417a32.116,32.116,0,0,0,3.741,9.306c.582.943,1.132,1.91,1.667,2.892a79.954,79.954,0,0,1,4.48,9.888" transform="translate(-4.873 -3.802)" fill="#f7941d"/>
            <path id="Trazado_862978" data-name="Trazado 862978" d="M327.346,100.445a76.254,76.254,0,0,0-6.147-12.78,32.115,32.115,0,0,1-3.741-9.306c-1.871-7.7-1.666-16.576-.543-25.018C222.882,72.277,130.2,73.163,39.557,51.7c.393,9.22-.26,18.306-3.176,24.617a16.672,16.672,0,0,1-3.269,4.865c-3.467,3.49-6.351,8.937-8.733,15.17-.377.975-.738,1.973-1.092,2.986a168.327,168.327,0,0,0-5.69,22.008L333.79,125.62a132.586,132.586,0,0,0-5.832-23.517Z" transform="translate(-3.305 -9.708)" fill="#fef200"/>
            <path id="Trazado_862979" data-name="Trazado 862979" d="M333.074,131.312a132.606,132.606,0,0,0-5.832-23.517l-.613-1.659a76.254,76.254,0,0,0-6.147-12.78,32.092,32.092,0,0,1-3.741-9.306c-98.007,16.908-191.756,17.428-281.076-2.044a16.647,16.647,0,0,1-3.27,4.865c-3.466,3.49-6.351,8.937-8.732,15.17-.377.975-.739,1.973-1.092,2.987a168.315,168.315,0,0,0-5.69,22.008c-.134.691-.26,1.383-.385,2.051-1.926,10.415-2.712,18.448-2.712,18.448s4.268,1.9,12.222,4.7l.008.007,283.237,3.828h.007c16.349-4.6,25.466-8.229,25.545-8.261a142.593,142.593,0,0,0-1.611-15.728Z" transform="translate(-2.589 -15.4)" fill="#3ab54a"/>
            <path id="Trazado_862980" data-name="Trazado 862980" d="M280.366,168.522a.311.311,0,0,0-.039.008,543.431,543.431,0,0,1-112.986,11.853A449.107,449.107,0,0,1,47.227,164.239l-.016-.008c-8.661-2.429-15.782-4.755-21.2-6.665l-.008-.008c-7.954-2.8-12.221-4.7-12.221-4.7s.785-8.033,2.711-18.447c.126-.668.252-1.36.385-2.052a168.31,168.31,0,0,1,5.691-22.007c102.216,24.266,204.025,23.773,304.671,2.766a132.672,132.672,0,0,1,5.832,23.517l.118.77a142.592,142.592,0,0,1,1.611,15.728c-.079.032-9.2,3.663-25.545,8.261Z" transform="translate(-2.589 -20.723)" fill="#0196d8"/>
            <path id="Trazado_862981" data-name="Trazado 862981" d="M309.259,166.956c16.349-4.6,25.466-8.229,25.545-8.261a142.594,142.594,0,0,0-1.611-15.728c-104.576,21.583-210.424,22.652-316.7-2.995-1.926,10.415-2.711,18.448-2.711,18.448s4.267,1.9,12.221,4.7l.008.007c5.416,1.91,12.536,4.236,21.2,6.665l.016.008a449.107,449.107,0,0,0,120.114,16.144,543.432,543.432,0,0,0,112.986-11.853.31.31,0,0,1,.039-.008Z" transform="translate(-2.589 -26.286)" fill="#652d90"/>
            <g id="Grupo_1088385" data-name="Grupo 1088385" transform="translate(11.195 0.796)" opacity="0.3" style="mix-blend-mode: multiply;isolation: isolate">
              <g id="Grupo_1088384" data-name="Grupo 1088384">
                <g id="Grupo_1088383" data-name="Grupo 1088383" clip-path="url(#clip-path-4)">
                  <path id="Trazado_862982" data-name="Trazado 862982" d="M109.682,156.2a433.985,433.985,0,0,1-62.454-12.5l-.016-.008c-1.352-.378-2.672-.755-3.946-1.131-.637-.189-1.273-.37-1.886-.559-2.107-.621-4.1-1.242-5.982-1.839-.439-.141-.88-.283-1.313-.417-.676-.22-1.336-.432-1.98-.644-.173-.063-.346-.119-.519-.173-.582-.189-1.156-.378-1.706-.566-.361-.126-.716-.244-1.061-.361q-.743-.26-1.438-.5c-.472-.165-.928-.322-1.368-.479l-.008-.008c-7.954-2.8-12.222-4.7-12.222-4.7s.786-8.033,2.712-18.447c.126-.668.252-1.36.385-2.052a168.348,168.348,0,0,1,5.69-22.008c.354-1.014.716-2.012,1.092-2.986,2.382-6.233,5.266-11.68,8.733-15.17a16.667,16.667,0,0,0,3.269-4.865c2.917-6.312,3.569-15.4,3.176-24.617a184.963,184.963,0,0,0-3.183-25.545c-.173-.943-.354-1.831-.519-2.664a10.712,10.712,0,0,1-.2-1.635A10.276,10.276,0,0,1,35.588,8.2a10.575,10.575,0,0,1,5.729-6.044c.291-.126.582-.236.889-.339A29.707,29.707,0,0,1,45.271.98c-1,25.9.37,110.1,56.834,149.212a65.423,65.423,0,0,1,7.577,6.013" transform="translate(-13.784 -0.98)" fill="#999"/>
                </g>
              </g>
            </g>
            <g id="Grupo_1088388" data-name="Grupo 1088388" transform="translate(272.74 6.565)" opacity="0.3" style="mix-blend-mode: multiply;isolation: isolate">
              <g id="Grupo_1088387" data-name="Grupo 1088387">
                <g id="Grupo_1088386" data-name="Grupo 1088386" clip-path="url(#clip-path-5)">
                  <path id="Trazado_862983" data-name="Trazado 862983" d="M395.276,133.927l-.032.015a.422.422,0,0,0-.086.032c-.252.094-.88.346-1.879.716-.2.071-.432.157-.676.244-.479.18-1.022.377-1.62.589-.267.087-.55.189-.856.3-.4.141-.833.291-1.29.448-2.656.911-6.107,2.051-10.3,3.332-.361.118-.724.227-1.092.338-1.179.353-2.406.723-3.695,1.092-.644.188-1.3.378-1.973.573s-1.352.386-2.044.582h-.007l-.055.015c-7.962,2.248-17.637,4.724-28.83,7.113a.385.385,0,0,0-.039.007c-1.635.346-3.3.7-5,1.038a21.835,21.835,0,0,1,2.838-2.948C366.509,123.057,370.4,29.077,370.926,8.083c1.926.361,3.71.786,5.322,1.218a9.349,9.349,0,0,1,3.6,2.822,11.616,11.616,0,0,1,1.713,2.986,4.728,4.728,0,0,1,.22.59c-.031.236-.071.472-.118.716-.165.833-.346,1.721-.518,2.664-.04.189-.071.386-.111.582.479-.1.951-.2,1.43-.315.008.3.008.6-.007.889q-.284.86-.566,1.792c-.062.2-.134.417-.2.637-.889,2.892-1.832,6.28-2.7,9.967v.015q-.566,2.394-1.062,4.936c-.078.378-.15.755-.22,1.14-.094.511-.188,1.022-.283,1.54-.071.409-.141.825-.212,1.242-.2,1.2-.386,2.421-.551,3.648-.079.565-.149,1.123-.212,1.689-.094.81-.181,1.62-.252,2.437-.125,1.289-.22,2.586-.283,3.875-.039.755-.071,1.5-.086,2.255-.024,1.038-.032,2.067-.008,3.1l.015.755c.008.346.023.684.04,1.03s.031.684.054,1.022v.007a.235.235,0,0,0,.008.079q.023.531.071,1.062a.11.11,0,0,0,.008.054c.023.386.055.763.1,1.132.047.519.1,1.022.172,1.525.024.2.048.393.079.582.212,1.509.487,2.987.833,4.418a32.1,32.1,0,0,0,3.741,9.306c.582.943,1.132,1.91,1.667,2.892a79.959,79.959,0,0,1,4.48,9.888l.613,1.659c.55,1.533,1.053,3.073,1.525,4.605.188.629.378,1.265.566,1.895s.361,1.265.526,1.886c.181.668.354,1.336.527,2,.6,2.351,1.108,4.645,1.564,6.87.2.983.378,1.949.551,2.892.1.573.2,1.148.3,1.706s.189,1.116.275,1.667l.118.77c.267,1.714.487,3.332.668,4.842.055.44.1.872.157,1.289.016.149.032.291.047.44.04.291.071.582.1.864.032.346.071.684.1,1.014.032.275.055.55.079.817.015.166.032.331.047.5.047.534.094,1.037.133,1.509.016.244.04.479.055.707.015.252.04.5.055.731.008.126.015.244.024.361.015.22.023.425.039.621.008.1.008.189.016.283.007.149.015.291.024.417a1.628,1.628,0,0,1,.007.188c.016.306.032.55.04.739.007.259.015.4.015.409" transform="translate(-335.8 -8.083)" fill="#999"/>
                </g>
              </g>
            </g>
            <path id="Trazado_862984" data-name="Trazado 862984" d="M43.478,62.394a41.477,41.477,0,0,1-.456,6.4c-2.586,16.4-12.309,44.5-15.578,69.89A104.1,104.1,0,0,0,26.65,161s-12.866-11.39-12.866-27.526c0,0,.786-8.033,2.712-18.447.125-.668.251-1.36.385-2.052a168.219,168.219,0,0,1,5.69-22.008c.353-1.014.715-2.012,1.092-2.986,2.381-6.233,5.266-11.68,8.732-15.17a16.669,16.669,0,0,0,3.27-4.865,35.692,35.692,0,0,0,2.727-10.4v-.008c.063-.479.118-.958.165-1.446.047-.385.079-.771.11-1.156.039-.409.071-.825.094-1.242a94.948,94.948,0,0,0,.079-10.367c0-.086-.008-.173-.016-.267a186.149,186.149,0,0,0-3.168-25.278c-.173-.943-.353-1.831-.518-2.664a9.942,9.942,0,0,1-.181-1.423,1.862,1.862,0,0,1-.015-.212,10.276,10.276,0,0,1,.644-4.127c.008-.015.008-.024.016-.031,4.016-6.886.44,4.786.44,4.786,0,.015-.008.024-.008.039-.558,2.421.44,7.562,1.879,13.991.172.778.353,1.572.534,2.39s.385,1.681.582,2.546c.039.173.079.346.118.519.094.424.188.857.291,1.3.55,2.476,1.116,5.054,1.635,7.664.055.283.11.558.165.841.244,1.257.479,2.523.7,3.788.063.37.126.739.189,1.117.188,1.108.353,2.224.511,3.34l.141,1.038c.047.385.094.778.141,1.171.039.353.079.707.126,1.069.007.1.015.212.032.322.047.472.094.936.133,1.4.126,1.43.2,2.845.244,4.221.008.259.015.526.015.785s.008.5.008.739" transform="translate(-2.589 -1.344)" fill="#ed2939"/>
            <path id="Trazado_862985" data-name="Trazado 862985" d="M27.445,164.192a104.092,104.092,0,0,0-.794,22.322S13.784,175.126,13.784,158.99c0,0,.668-6.791,2.272-15.988a71.131,71.131,0,0,0,12.419,14.3c-.393,2.311-.739,4.614-1.03,6.893" transform="translate(-2.589 -26.855)" fill="#652d90"/>
            <path id="Trazado_862986" data-name="Trazado 862986" d="M34.163,127.973c-1.965,7.883-3.82,16.057-5.164,24.1a71.133,71.133,0,0,1-12.419-14.3c.141-.8.283-1.619.44-2.459.126-.668.252-1.36.385-2.052a182.162,182.162,0,0,1,4.426-18.1,73.615,73.615,0,0,0,12.332,12.812" transform="translate(-3.114 -21.626)" fill="#0196d8"/>
            <path id="Trazado_862987" data-name="Trazado 862987" d="M41.036,101.622v.008c-1.714,6.767-3.741,14.249-5.659,22.015a73.645,73.645,0,0,1-12.332-12.811c.4-1.321.825-2.625,1.265-3.907.353-1.014.716-2.012,1.092-2.986a54.936,54.936,0,0,1,5.974-11.822,72.573,72.573,0,0,0,9.66,9.5" transform="translate(-4.328 -17.299)" fill="#3ab54a"/>
            <path id="Trazado_862988" data-name="Trazado 862988" d="M47.144,74.046a41.477,41.477,0,0,1-.456,6.4c-.755,4.764-2.107,10.5-3.726,16.875a72.571,72.571,0,0,1-9.66-9.5,24.769,24.769,0,0,1,2.758-3.348,16.669,16.669,0,0,0,3.27-4.865,35.693,35.693,0,0,0,2.727-10.4,70.205,70.205,0,0,0,5.085,4.842" transform="translate(-6.254 -12.996)" fill="#fef200"/>
            <path id="Trazado_862989" data-name="Trazado 862989" d="M48.374,63.907a70.2,70.2,0,0,1-5.085-4.842v-.008c.063-.479.118-.958.165-1.446.04-.385.079-.771.11-1.156.039-.409.071-.825.094-1.242a94.948,94.948,0,0,0,.079-10.367c0-.086-.008-.173-.016-.267-.251-5.423-.857-10.886-1.58-15.845-.039-.3-.086-.59-.133-.88q-.118-.779-.236-1.533c-.133-.872-.275-1.729-.417-2.554-.267-1.58-.534-3.073-.8-4.465-.173-.943-.353-1.831-.518-2.664-.047-.244-.087-.48-.119-.716s-.054-.472-.063-.707c.425.173.794.331,1.077.456-.566,2.421.44,7.554,1.879,13.975v.016c.172.778.353,1.572.534,2.39s.385,1.681.582,2.546c.039.173.079.346.118.519.094.424.188.857.291,1.3.55,2.476,1.116,5.054,1.635,7.664.055.283.11.558.165.841.244,1.257.479,2.523.7,3.788.063.37.126.739.189,1.117.188,1.108.353,2.224.511,3.34l.141,1.038c.047.385.094.778.141,1.171.039.353.079.707.126,1.069.007.1.015.212.032.322.047.472.086.936.133,1.4.126,1.43.2,2.845.244,4.221.008.267.015.526.015.785s.008.5.008.739" transform="translate(-7.484 -2.857)" fill="#f7941d"/>
            <path id="Trazado_862990" data-name="Trazado 862990" d="M42.8,28.133c-.236-.314-.456-.613-.668-.912-.039-.3-.086-.589-.133-.88q-.118-.779-.236-1.533c-.134-.872-.275-1.729-.417-2.554-.267-1.58-.534-3.073-.8-4.464-.173-.943-.354-1.832-.519-2.665-.047-.244-.086-.479-.118-.715s-.055-.472-.063-.707a2.083,2.083,0,0,1-.015-.213,10.286,10.286,0,0,1,.644-4.126c.008-.015.008-.024.016-.032,4.016-6.885.44,4.787.44,4.787,0,.015-.008.024-.008.039-.566,2.421.44,7.554,1.879,13.975" transform="translate(-7.478 -1.344)" fill="#ed2939"/>
            <path id="Trazado_862991" data-name="Trazado 862991" d="M411.693,135.7c0,16.136-12.866,27.526-12.866,27.526a104.1,104.1,0,0,0-.794-22.323q-.235-1.838-.519-3.7c-.157-1.061-.33-2.121-.511-3.191q-.507-3.019-1.1-6.053c-.11-.565-.22-1.132-.338-1.689-.142-.738-.3-1.477-.456-2.217-.227-1.107-.471-2.215-.715-3.324-.181-.824-.37-1.65-.558-2.475-.307-1.36-.629-2.721-.951-4.063-.024-.087-.04-.173-.063-.252-.322-1.352-.652-2.688-.982-4.024-.26-1.038-.511-2.067-.771-3.09-.227-.9-.456-1.792-.684-2.672-.133-.527-.267-1.045-.4-1.564-.2-.762-.393-1.525-.59-2.279-.338-1.3-.668-2.579-1.006-3.844-.291-1.147-.589-2.272-.88-3.387-.456-1.77-.9-3.5-1.329-5.179v-.008c-.1-.4-.2-.794-.3-1.187-.2-.787-.393-1.564-.581-2.328-.007-.031-.015-.063-.024-.085-.165-.66-.322-1.305-.471-1.949-.786-3.278-1.462-6.336-1.966-9.1-.039-.2-.079-.4-.11-.6-.055-.291-.1-.573-.149-.848-.008-.039-.015-.087-.024-.126-.032-.22-.071-.441-.1-.652a41.49,41.49,0,0,1-.456-6.4c0-.244,0-.487.008-.739s.007-.518.016-.787c.039-1.374.118-2.789.244-4.219.047-.464.086-.928.133-1.4.016-.109.023-.22.032-.322.047-.361.086-.715.126-1.068.047-.393.094-.786.141-1.171l.141-1.038c.158-1.117.322-2.232.511-3.341.063-.377.126-.746.189-1.116.18-1.029.369-2.067.565-3.089.047-.236.087-.465.134-.7.055-.283.11-.558.165-.841.519-2.61,1.084-5.187,1.635-7.663.1-.44.2-.872.291-1.3.039-.171.079-.344.118-.518.2-.864.393-1.713.581-2.546.181-.818.361-1.611.534-2.39v-.015l.008-.009c.071-.314.141-.628.2-.935.746-3.387,1.36-6.382,1.642-8.756a13.318,13.318,0,0,0,.024-4.275c0-.015-.008-.024-.008-.039s-.495-1.612-.911-3.286a11.62,11.62,0,0,1,1.713,2.986,4.618,4.618,0,0,1,.22.59c-.031.235-.071.472-.118.715-.165.833-.346,1.722-.518,2.664-.04.189-.071.385-.111.582-.047.236-.086.472-.133.716-.189,1.006-.37,2.066-.558,3.167-.142.825-.284,1.683-.417,2.554q-.118.755-.236,1.533c-.047.291-.094.582-.133.88-.2,1.337-.385,2.72-.558,4.119v.015c-.055.48-.118.975-.173,1.463-.047.361-.087.731-.126,1.1-.079.746-.158,1.509-.228,2.272-.047.472-.086.944-.125,1.415-.048.487-.087.983-.126,1.477-.032.417-.063.833-.087,1.25-.024.338-.047.676-.063,1.014-.04.574-.071,1.147-.094,1.721-.008.094-.016.181-.016.268a94.557,94.557,0,0,0,.079,10.367c.024.417.055.833.094,1.242.032.385.063.77.111,1.156.047.487.1.967.165,1.446v.007a35.7,35.7,0,0,0,2.727,10.4,16.652,16.652,0,0,0,3.27,4.864c.244.244.479.495.715.763.236.251.464.518.692.794a1.512,1.512,0,0,1,.094.126c.2.243.4.495.6.754.22.3.44.6.66.911.141.205.283.409.425.622.118.172.244.361.361.542.236.378.472.754.7,1.148.165.267.322.543.48.818.125.227.251.448.377.675.252.456.5.92.731,1.4.141.275.283.558.417.841.071.133.133.259.188.392.141.291.275.582.409.872.66,1.438,1.289,2.956,1.887,4.512q.565,1.463,1.092,2.986c.44,1.282.865,2.587,1.265,3.907,1.274,4.165,2.366,8.481,3.285,12.639.11.487.212.967.314,1.446.291,1.36.566,2.7.825,4.017.134.692.26,1.383.385,2.052.063.321.119.644.173.967s.119.644.173.959c.032.18.063.353.094.534.1.59.2,1.164.3,1.737.039.261.087.527.126.786.094.543.18,1.078.259,1.6.079.5.158.982.228,1.455.086.573.165,1.131.252,1.665q.141.98.259,1.864c.118.849.22,1.635.314,2.342.032.259.063.511.094.755.055.44.111.84.15,1.209.032.244.055.471.086.685.016.2.04.376.063.542.024.228.039.417.063.589.008.094.016.173.024.252a1.11,1.11,0,0,1,.016.142c.023.243.039.369.039.369" transform="translate(-71.736 -2.452)" fill="#ed2939"/>
            <path id="Trazado_862992" data-name="Trazado 862992" d="M401.5,165.563a104.1,104.1,0,0,1,.794,22.322s12.867-11.388,12.867-27.524c0,0-.668-6.792-2.272-15.988a71.084,71.084,0,0,1-12.419,14.3c.393,2.311.739,4.614,1.03,6.893" transform="translate(-75.206 -27.112)" fill="#652d90"/>
            <path id="Trazado_862993" data-name="Trazado 862993" d="M394.117,129.343c1.965,7.884,3.82,16.058,5.164,24.1a71.115,71.115,0,0,0,12.419-14.3c-.141-.8-.284-1.618-.44-2.459-.126-.668-.252-1.36-.385-2.052a182.39,182.39,0,0,0-4.425-18.1,73.624,73.624,0,0,1-12.333,12.811" transform="translate(-74.012 -21.884)" fill="#0196d8"/>
            <path id="Trazado_862994" data-name="Trazado 862994" d="M387.149,102.993V103c1.714,6.767,3.741,14.249,5.659,22.015A73.62,73.62,0,0,0,405.14,112.2c-.4-1.321-.825-2.626-1.265-3.907-.353-1.014-.716-2.012-1.092-2.986a54.91,54.91,0,0,0-5.974-11.822,72.567,72.567,0,0,1-9.659,9.5" transform="translate(-72.703 -17.557)" fill="#3ab54a"/>
            <path id="Trazado_862995" data-name="Trazado 862995" d="M382,75.417a41.479,41.479,0,0,0,.456,6.4c.755,4.763,2.107,10.5,3.726,16.875a72.632,72.632,0,0,0,9.66-9.5,24.825,24.825,0,0,0-2.759-3.348,16.669,16.669,0,0,1-3.27-4.865,35.692,35.692,0,0,1-2.727-10.4c-1.533,1.611-3.23,3.246-5.085,4.842" transform="translate(-71.737 -13.253)" fill="#fef200"/>
            <path id="Trazado_862996" data-name="Trazado 862996" d="M390.455,17.324c-.032.236-.071.472-.118.716-.165.833-.346,1.721-.519,2.664-.039.188-.071.385-.11.582-.047.236-.087.472-.134.716-.188,1.006-.369,2.067-.558,3.168-.141.825-.283,1.682-.417,2.554q-.118.754-.236,1.533c-.047.291-.094.582-.134.88-.2,1.336-.385,2.719-.558,4.119v.015c-.054.479-.118.975-.173,1.462-.047.361-.086.731-.125,1.1-.079.746-.158,1.509-.228,2.271-.047.472-.086.944-.126,1.415-.047.487-.086.983-.126,1.478-.031.416-.062.833-.086,1.249-.024.338-.047.676-.063,1.014q-.058.86-.094,1.721c-.007.094-.016.18-.016.267a94.572,94.572,0,0,0,.079,10.367c.024.417.055.833.094,1.242.031.385.071.77.11,1.156.047.487.1.967.166,1.446v.008c-.393.409-.786.817-1.2,1.234-.4.4-.8.794-1.218,1.195l-.047.047c-.833.786-1.706,1.58-2.618,2.366,0-.244,0-.487.008-.739s.008-.518.015-.785c.04-1.376.119-2.791.244-4.221.048-.464.087-.928.134-1.4.015-.11.024-.22.032-.322.047-.361.086-.716.126-1.069.047-.393.094-.786.141-1.171l.141-1.038c.157-1.116.322-2.232.511-3.34.063-.378.126-.747.188-1.117.181-1.029.37-2.067.566-3.089.047-.236.086-.464.133-.7.055-.283.11-.558.166-.841.518-2.61,1.084-5.188,1.634-7.664.1-.44.2-.872.291-1.3.04-.173.079-.346.119-.519.2-.865.392-1.714.582-2.546s.361-1.611.534-2.39v-.016q.106-.482.212-.943c.746-3.388,1.36-6.382,1.643-8.756a13.347,13.347,0,0,0,.023-4.276c.22-.094.487-.212.794-.338a4.812,4.812,0,0,1,.22.59" transform="translate(-71.736 -3.143)" fill="#f7941d"/>
            <path id="Trazado_862997" data-name="Trazado 862997" d="M391.742,16.633c-.032.236-.071.472-.118.716-.165.833-.346,1.721-.519,2.664-.039.188-.071.385-.11.582-.047.236-.087.472-.134.716-.189,1.006-.37,2.067-.558,3.168-.141.825-.283,1.682-.417,2.554q-.118.754-.236,1.533c-.047.291-.094.582-.134.88-.212.3-.432.59-.66.9l-.007.007q.106-.482.212-.943c.746-3.388,1.36-6.382,1.643-8.756a13.341,13.341,0,0,0,.024-4.276c0-.015-.008-.024-.008-.039,0,0-.5-1.611-.912-3.285a11.6,11.6,0,0,1,1.714,2.986,4.792,4.792,0,0,1,.22.59" transform="translate(-73.023 -2.452)" fill="#ed2939"/>
            <g id="Grupo_1088391" data-name="Grupo 1088391" transform="translate(0 264.066)" opacity="0.2" style="mix-blend-mode: multiply;isolation: isolate">
              <g id="Grupo_1088390" data-name="Grupo 1088390">
                <g id="Grupo_1088389" data-name="Grupo 1088389" clip-path="url(#clip-path-6)">
                  <path id="Trazado_862998" data-name="Trazado 862998" d="M364,341.148s-81.484,16.026-182,16.026S0,341.148,0,341.148s81.484-16.027,182-16.027,182,16.027,182,16.027" transform="translate(0 -325.121)" fill="#652d90"/>
                </g>
              </g>
            </g>
            <path id="Trazado_862999" data-name="Trazado 862999" d="M363.654,329.1h-7.378l-20.357-60.461h16.83Z" transform="translate(-63.083 -50.449)" fill="#2e3442"/>
            <path id="Trazado_863000" data-name="Trazado 863000" d="M80.285,329.1h7.378l20.357-60.461H91.19Z" transform="translate(-15.077 -50.449)" fill="#2e3442"/>
            <path id="Trazado_863001" data-name="Trazado 863001" d="M309.084,216.184q-32.339,3.042-64.813,4.378Q188.153,222.85,131.978,220q-27.423-1.379-54.752-4c-11.137-1.061-18.9-9.8-17.284-19.209q5.719-34.226,11.444-68.444c1.611-9.409,10.823-16.2,20.475-15.279q13.889,1.332,27.808,2.294a1072.609,1072.609,0,0,0,142.342.433q16.364-1.026,32.674-2.571c9.66-.9,18.855,5.895,20.443,15.311q5.647,34.226,11.286,68.468c1.6,9.4-6.193,18.133-17.331,19.178" transform="translate(-11.217 -21.218)" fill="#f7941d"/>
            <g id="Grupo_1088394" data-name="Grupo 1088394" transform="translate(103.726 94.148)" opacity="0.3" style="mix-blend-mode: multiply;isolation: isolate">
              <g id="Grupo_1088393" data-name="Grupo 1088393">
                <g id="Grupo_1088392" data-name="Grupo 1088392" clip-path="url(#clip-path-7)">
                  <path id="Trazado_863002" data-name="Trazado 863002" d="M273.464,211.719c-1.91,2.908-7.915,6.248-16.427,9.392q-56.119,2.287-112.293-.558a29.743,29.743,0,0,1-9.991-13.708c-11.79-33.672-6.044-72.995-2.318-90.931a1072.6,1072.6,0,0,0,142.341.433c8.323,30.291,7.035,82.646-1.313,95.371" transform="translate(-127.709 -115.916)" fill="#999"/>
                </g>
              </g>
            </g>
            <path id="Trazado_863003" data-name="Trazado 863003" d="M342.04,199.734q-4.36,24.374-9.781,48.739c-1.632,7.411-9.428,13.106-18.882,14.582a28.438,28.438,0,0,1-3.53.569,1283.74,1283.74,0,0,1-241.733-.186,25.65,25.65,0,0,1-10.023-3.043c-5.387-2.677-9.309-6.9-10.423-11.922q-5.419-24.361-9.781-48.739c-1.7-9.632,6.823-18.474,18.591-19.908s22.98,5,25.208,14.536q2.328,10.189,4.843,20.372,1.16,4.7,2.359,9.389.532,2.063,1.072,4.124a1228.867,1228.867,0,0,0,200.007,0q1.807-6.962,3.527-13.927,2.463-9.976,4.747-19.958c2.229-9.541,13.432-15.962,25.208-14.536s20.287,10.276,18.591,19.908" transform="translate(-7.075 -33.733)" fill="#f7941d"/>
            <g id="Grupo_1088397" data-name="Grupo 1088397" transform="translate(30.598 145.895)" opacity="0.3" style="mix-blend-mode: multiply;isolation: isolate">
              <g id="Grupo_1088396" data-name="Grupo 1088396">
                <g id="Grupo_1088395" data-name="Grupo 1088395" clip-path="url(#clip-path-8)">
                  <path id="Trazado_863004" data-name="Trazado 863004" d="M342.04,199.734q-4.36,24.374-9.781,48.739c-1.632,7.411-9.428,13.106-18.882,14.582a28.438,28.438,0,0,1-3.53.569,1283.74,1283.74,0,0,1-241.733-.186,25.65,25.65,0,0,1-10.023-3.043c-5.387-2.677-9.309-6.9-10.423-11.922q-5.419-24.361-9.781-48.739c-1.7-9.632,6.823-18.474,18.591-19.908s22.98,5,25.208,14.536q2.328,10.189,4.843,20.372,1.16,4.7,2.359,9.389.532,2.063,1.072,4.124a1228.867,1228.867,0,0,0,200.007,0q1.807-6.962,3.527-13.927,2.463-9.976,4.747-19.958c2.229-9.541,13.432-15.962,25.208-14.536s20.287,10.276,18.591,19.908" transform="translate(-37.672 -179.628)" fill="#999"/>
                </g>
              </g>
            </g>
            <g id="Grupo_1088400" data-name="Grupo 1088400" transform="translate(44.815 157.202)" opacity="0.3" style="mix-blend-mode: multiply;isolation: isolate">
              <g id="Grupo_1088399" data-name="Grupo 1088399">
                <g id="Grupo_1088398" data-name="Grupo 1088398" clip-path="url(#clip-path-9)">
                  <path id="Trazado_863005" data-name="Trazado 863005" d="M67.191,200.129a6.038,6.038,0,1,1-5.184-6.522,5.917,5.917,0,0,1,5.184,6.522" transform="translate(-55.177 -193.549)" fill="#999"/>
                </g>
              </g>
            </g>
            <g id="Grupo_1088403" data-name="Grupo 1088403" transform="translate(307.016 157.405)" opacity="0.3" style="mix-blend-mode: multiply;isolation: isolate">
              <g id="Grupo_1088402" data-name="Grupo 1088402">
                <g id="Grupo_1088401" data-name="Grupo 1088401" clip-path="url(#clip-path-10)">
                  <path id="Trazado_863006" data-name="Trazado 863006" d="M390.126,198.77a5.889,5.889,0,0,1-5.244,6.558,5.8,5.8,0,1,1,5.244-6.558" transform="translate(-378.001 -193.799)" fill="#999"/>
                </g>
              </g>
            </g>
            <path id="Trazado_863007" data-name="Trazado 863007" d="M313.712,229.921l.526,3.72c.8,5.443-7.73,10.8-18.963,11.67a1242.186,1242.186,0,0,1-191.444.114c-11.234-.859-19.749-6.2-18.964-11.645q.262-1.862.521-3.722a6.354,6.354,0,0,1,2.424-3.958,17.9,17.9,0,0,1,7.572-3.485,36.555,36.555,0,0,1,11.155-.783,1206.834,1206.834,0,0,0,185.988-.11,37.439,37.439,0,0,1,9.816.479c6.256,1.187,10.842,4.035,11.368,7.72" transform="translate(-15.928 -41.614)" fill="#f7941d"/>
            <g id="Grupo_1088406" data-name="Grupo 1088406" transform="translate(68.89 179.984)" opacity="0.3">
              <g id="Grupo_1088405" data-name="Grupo 1088405">
                <g id="Grupo_1088404" data-name="Grupo 1088404" clip-path="url(#clip-path-11)">
                  <path id="Trazado_863008" data-name="Trazado 863008" d="M313.712,229.921l.526,3.72c.8,5.443-7.73,10.8-18.963,11.67a1242.186,1242.186,0,0,1-191.444.114c-11.234-.859-19.749-6.2-18.964-11.645q.262-1.862.521-3.722a6.354,6.354,0,0,1,2.424-3.958,17.9,17.9,0,0,1,7.572-3.485,36.555,36.555,0,0,1,11.155-.783,1206.834,1206.834,0,0,0,185.988-.11,37.439,37.439,0,0,1,9.816.479c6.256,1.187,10.842,4.035,11.368,7.72" transform="translate(-84.818 -221.598)" fill="#fff"/>
                </g>
              </g>
            </g>
            <path id="Trazado_863009" data-name="Trazado 863009" d="M144.85,195.482s-4.87,15.132,1.784,22.674c3.65,4.137,11.423,2.6,23.838,2.939,35.887.984,35.456-15.663,33.8-25.612s-44.471-28.212-59.418,0" transform="translate(-26.879 -33.883)" fill="#0196d8"/>
            <g id="Grupo_1088412" data-name="Grupo 1088412" transform="translate(116.252 146.545)" opacity="0.3" style="mix-blend-mode: multiply;isolation: isolate">
              <g id="Grupo_1088411" data-name="Grupo 1088411">
                <g id="Grupo_1088410" data-name="Grupo 1088410" clip-path="url(#clip-path-12)">
                  <g id="Grupo_1088409" data-name="Grupo 1088409" opacity="0.3" style="mix-blend-mode: multiply;isolation: isolate">
                    <g id="Grupo_1088408" data-name="Grupo 1088408">
                      <g id="Grupo_1088407" data-name="Grupo 1088407" clip-path="url(#clip-path-12)">
                        <path id="Trazado_863010" data-name="Trazado 863010" d="M144.85,195.482s-4.87,15.132,1.784,22.674c3.65,4.137,11.423,2.6,23.838,2.939,35.887.984,35.456-15.663,33.8-25.612s-44.471-28.212-59.418,0" transform="translate(-143.131 -180.428)" fill="#999"/>
                      </g>
                    </g>
                  </g>
                </g>
              </g>
            </g>
            <path id="Trazado_863011" data-name="Trazado 863011" d="M204.828,125.171c-1.918,12.481-1.525,41.021-1.328,50.782.047,2.114.078,3.348.078,3.348-22.848-12.725-61.15,5.384-61.15,5.384a8.734,8.734,0,0,1-1.973-7.915c3.89-16.049-3.7-54.814-4.055-64.686a5.624,5.624,0,0,1,.165-2.13,44.179,44.179,0,0,1,2.853-4.292c4.653-6.484,13.126-17.432,13.126-17.432l11.68,1.257,30.622,3.3s12.308,17.205,9.982,32.383" transform="translate(-25.612 -16.569)" fill="#ed2939"/>
            <path id="Trazado_863012" data-name="Trazado 863012" d="M265.993,88.635s-18.926,9.4-33.388,18.557c-7.278,4.605-13.425,9.149-15.445,12.4-4.127,6.633-28.452-19.43-17.166-30.332,0,0,6.154-3.293,12.7-3.049,1.753.063,5.054-.637,9.15-1.722,11.176-2.978,28.271-8.882,35.974-10.194,12.261-2.1,8.174,14.344,8.174,14.344" transform="translate(-37.001 -13.916)" fill="#ed2939"/>
            <g id="Grupo_1088415" data-name="Grupo 1088415" transform="translate(171.136 60.189)" opacity="0.3" style="mix-blend-mode: multiply;isolation: isolate">
              <g id="Grupo_1088414" data-name="Grupo 1088414">
                <g id="Grupo_1088413" data-name="Grupo 1088413" clip-path="url(#clip-path-14)">
                  <path id="Trazado_863013" data-name="Trazado 863013" d="M268.56,88.635s-18.926,9.4-33.388,18.557c-16.011,4.346-28.037,6.209-23.5.259a82.566,82.566,0,0,0,12.741-22.967c11.176-2.978,28.271-8.882,35.974-10.194,12.261-2.1,8.174,14.344,8.174,14.344" transform="translate(-210.704 -74.105)" fill="#999"/>
                </g>
              </g>
            </g>
            <path id="Trazado_863014" data-name="Trazado 863014" d="M69.666,25.372c.646,0,34.077,34.8,34.077,34.8l32.677,17.744-8.4,22.825s-26.917-23.1-31.439-25.3S64.9,35.207,64.9,35.207Z" transform="translate(-12.188 -4.765)" fill="#e5b7ac"/>
            <path id="Trazado_863015" data-name="Trazado 863015" d="M48.986,8.716c1.768,1.079,4.9,2.786,7.077,2.85,3.827.111,7.284,4.65,9.852,9.172a14.4,14.4,0,0,1,.826,2.831,9.079,9.079,0,0,1-.2,4.634,5.713,5.713,0,0,1-.987,1.76,1.028,1.028,0,0,1-.081.094l-.008.011a5.965,5.965,0,0,1-1.027.941l0,0q-.2.147-.422.286s-8.3,2.558-14.051-2.216a.367.367,0,0,1-.1-.037l0,0-.024-.015c-.106-.078-.168-.2-.281-.249-.192-.086-.189-.271-.35-.354-1.352-1.74-1.1-2.383-.556-2.8l.006,0a2.131,2.131,0,0,1,.548-.287l.011,0c-.166-.015-2.976-.435-3.769-1.966-.024-.046-.045-.092-.065-.141-.017-.071-.033-.145-.047-.224-.043-.293-.067-.556-.078-.794a3.528,3.528,0,0,1,1.228-1.448s-.241-.05-.488-.109a.15.15,0,0,0,.024-.012,2.4,2.4,0,0,1-.33-.058c-.045-.011-.083-.025-.114-.032a.549.549,0,0,1,.195-.187,2.359,2.359,0,0,1-1.6-.672v0a2.237,2.237,0,0,1-.569-1.525c0-.034,0-.069,0-.106s0-.092,0-.138h0a3.775,3.775,0,0,1,.028-.4v0c0-.019.008-.042.012-.063a1.655,1.655,0,0,1,.055-.292,1.231,1.231,0,0,1,.229-.521s-2.05.071-2.6-1.193c-.008-.019-.015-.037-.023-.057a.267.267,0,0,1-.025-.078.74.74,0,0,1-.025-.078,1.165,1.165,0,0,1-.032-.152,2.325,2.325,0,0,1,1.793-2.918.772.772,0,0,1,.1-.008.643.643,0,0,1,.076,0,.326.326,0,0,1,.054,0c.766.078,2.617,2.233,4.424,3.572a3.448,3.448,0,0,1-.677.461s.61.021,1.506.088c.067.038.136.076.2.11.048.027.1.052.149.075s.128.062.189.085a2.482,2.482,0,0,0,.236.089c.06.019.12.041.184.055s.1.03.154.041c.023,0,.047.011.072.013.054.011.1.018.156.028a2.686,2.686,0,0,0,.369.037c.054,0,.107,0,.162,0a3.517,3.517,0,0,0,.826-.1c.063-.015.127-.034.184-.053a1.127,1.127,0,0,0,.172-.056c.054-.018.1-.039.154-.059a.1.1,0,0,0,.021-.01c.024-.01.053-.021.076-.032a2.713,2.713,0,0,0,.455-.244l.453-.121.339-.094v0l.024,0,0-.006a14.183,14.183,0,0,0-2.943-2.126s0,0-.02-.011l-.035-.015-.007,0,0,0a2.813,2.813,0,0,1-.474-.291,6.956,6.956,0,0,1-1.559-1.687l-.007,0c-.93-1.377-1.463-3.1-.384-4.056,0,0,.528.365,1.349.863" transform="translate(-7.732 -1.475)" fill="#e5b7ac"/>
            <g id="Grupo_1088418" data-name="Grupo 1088418" transform="translate(39.306 6.378)" opacity="0.5" style="mix-blend-mode: multiply;isolation: isolate">
              <g id="Grupo_1088417" data-name="Grupo 1088417">
                <g id="Grupo_1088416" data-name="Grupo 1088416" clip-path="url(#clip-path-15)">
                  <path id="Trazado_863016" data-name="Trazado 863016" d="M52.743,13.814c1.457,1.118,2.614,1.9,2.614,1.9a2.958,2.958,0,0,0,1.581-1.352s1.84,11.131,9.712,9.421a5.417,5.417,0,0,1-5.86-.054s.956,7.795-8.381,5.435c-.048-.006,2.694-3.829,2.228-4.191-1.8-1.386-3.005-4.613-4.581-8.572.048.028.1.052.149.076s.128.061.189.085c.08.034.158.064.236.089.06.019.12.04.184.054s.1.03.154.041c.023,0,.047.011.072.013a1.47,1.47,0,0,0,.156.028,2.453,2.453,0,0,0,.368.037c.055,0,.108,0,.162,0a3.568,3.568,0,0,0,.826-.1c.063-.015.127-.035.184-.053a1.341,1.341,0,0,0,.172-.056c.054-.019.1-.039.154-.06a.082.082,0,0,0,.021-.01.693.693,0,0,0,.076-.032,2.713,2.713,0,0,0,.455-.244l.453-.121.339-.094v0l.023,0,0,0a14.143,14.143,0,0,0-2.943-2.126s0,0-.02-.011c-.057-.034-.244-.147-.521-.311a6.941,6.941,0,0,1-1.559-1.687l-.007,0c-.93-1.378-1.463-3.1-.384-4.057,0,0,.528.365,1.349.863.687,1.507,1.17,4.154,2.4,5.1" transform="translate(-48.394 -7.853)" fill="#e5b7ac"/>
                </g>
              </g>
            </g>
            <path id="Trazado_863017" data-name="Trazado 863017" d="M65.305,28.943c-2.79.141-5.077,3.309-7.043,5.667S52.2,35.884,52.2,35.884s1.383-8.229,1.611-8.764.991-8.952-5.274-10.493a37.06,37.06,0,0,1-8.7-4.024,10.562,10.562,0,0,1,6.375-10.17c.306,5.47,1.839,9.721,10.11,13.756,3.735,1.823,8.99,12.755,8.99,12.755" transform="translate(-7.478 -0.457)" fill="#ed2939"/>
            <path id="Trazado_863018" data-name="Trazado 863018" d="M43.47,13.206s0,0,0,0c.579.119,1.561.5,2.768.843.058.015.121.031.181.05,2.1.73,1.612,2.745.569,3.1,0,0,.611.021,1.506.088.365.025.775.058,1.213.1.587.058,1.218.132,1.841.223,2.123.314,4.155.847,4.167,1.78a1.915,1.915,0,0,1-.977,1.6,4.736,4.736,0,0,1-1.653.647s0,0-.009,0a.012.012,0,0,0-.01,0c.147.019,4.979.719,4.941,2.012a1.506,1.506,0,0,1-.38.964,2.4,2.4,0,0,1-.364.329,3.4,3.4,0,0,1-.907.46c.054-.007.14-.023.249-.033l.019,0a.047.047,0,0,0,.019-.007c.758-.083,2.446-.094,2.28,1.678-.127,1.354-4.1,2.553-7.082,3.01-.274.042-.541.079-.794.107-.032.007-.067.008-.1.014a2.864,2.864,0,0,1-1.092-.132l0,0A2.551,2.551,0,0,1,48.2,28.436c-.387-1.167.324-1.238-.084-1.851a.338.338,0,0,0-.028-.04c-.313-.438-1.407-.857-1.928-1.269-.017-.013-.032-.028-.05-.041a3.956,3.956,0,0,1-.929-1.04l-.007-.007a1.7,1.7,0,0,1-.184-.528,1.984,1.984,0,0,1,.693-2.077c-.045-.011-.08-.025-.114-.033a3.293,3.293,0,0,1-.756-.325,2.524,2.524,0,0,1-.643-.534l0,0a2.593,2.593,0,0,1-.54-2.164l0,0a.327.327,0,0,0,.008-.063c.006-.119-.049-.316-.1-.337h0a5.667,5.667,0,0,1-.649-.236,2.883,2.883,0,0,1-1.556-1.432c-.007-.019-.017-.038-.023-.057a.313.313,0,0,1-.025-.078.807.807,0,0,1-.025-.078.652.652,0,0,1-.032-.152,2.327,2.327,0,0,1,1.794-2.919.349.349,0,0,1,.1-.007.328.328,0,0,1,.073,0,.206.206,0,0,1,.054,0,1.7,1.7,0,0,1,.227.036" transform="translate(-7.732 -2.472)" fill="#e5b7ac"/>
            <g id="Grupo_1088421" data-name="Grupo 1088421" transform="translate(37.452 21.723)" style="mix-blend-mode: multiply;isolation: isolate">
              <g id="Grupo_1088420" data-name="Grupo 1088420">
                <g id="Grupo_1088419" data-name="Grupo 1088419" clip-path="url(#clip-path-16)">
                  <path id="Trazado_863019" data-name="Trazado 863019" d="M49.159,28.535c1.037.443,6.743-.365,8.1-.567l.256-.037-7.3,1.366s-1.243.187-.509,1.961a2.9,2.9,0,0,0,2.275,1.455s-.067.007-.1.014a2.864,2.864,0,0,1-1.092-.132l0,0a2.552,2.552,0,0,1-1.655-1.6c-.387-1.167.324-1.238-.084-1.852a.269.269,0,0,0-.028-.039c-.313-.438-1.407-.857-1.928-1.269l-.05-.041a3.964,3.964,0,0,1-.93-1.04,7.9,7.9,0,0,0,3.048,1.789" transform="translate(-46.111 -26.746)" fill="#e5b7ac"/>
                </g>
              </g>
            </g>
            <g id="Grupo_1088424" data-name="Grupo 1088424" transform="translate(37.084 18.522)" style="mix-blend-mode: multiply;isolation: isolate">
              <g id="Grupo_1088423" data-name="Grupo 1088423">
                <g id="Grupo_1088422" data-name="Grupo 1088422" clip-path="url(#clip-path-17)">
                  <path id="Trazado_863020" data-name="Trazado 863020" d="M55.586,22.8a4.7,4.7,0,0,1-1.652.647l-.012,0-.012,0c-1.892.133-7.381-.063-7.381-.063l-.114-.032a3.227,3.227,0,0,1-.758-.325,34.067,34.067,0,0,0,9.928-.232" transform="translate(-45.658 -22.804)" fill="#e5b7ac"/>
                </g>
              </g>
            </g>
            <g id="Grupo_1088427" data-name="Grupo 1088427" transform="translate(35.807 14.73)" style="mix-blend-mode: multiply;isolation: isolate">
              <g id="Grupo_1088426" data-name="Grupo 1088426">
                <g id="Grupo_1088425" data-name="Grupo 1088425" clip-path="url(#clip-path-18)">
                  <path id="Trazado_863021" data-name="Trazado 863021" d="M50.259,18.325a29.148,29.148,0,0,1-6.173.732,14.3,14.3,0,0,0,3.454-.922s.609.022,1.506.087c.365.028.776.06,1.213.1" transform="translate(-44.086 -18.136)" fill="#e5b7ac"/>
                </g>
              </g>
            </g>
            <g id="Grupo_1088430" data-name="Grupo 1088430" transform="translate(48.203 23.341)" opacity="0.4">
              <g id="Grupo_1088429" data-name="Grupo 1088429">
                <g id="Grupo_1088428" data-name="Grupo 1088428" clip-path="url(#clip-path-19)">
                  <path id="Trazado_863022" data-name="Trazado 863022" d="M59.414,28.86a3.558,3.558,0,0,0,.253,2.168s2.281,0,2.429-1.377-2.683-.791-2.683-.791" transform="translate(-59.348 -28.738)" fill="#f8f0ff"/>
                </g>
              </g>
            </g>
            <g id="Grupo_1088433" data-name="Grupo 1088433" transform="translate(47.209 19.929)" opacity="0.4">
              <g id="Grupo_1088432" data-name="Grupo 1088432">
                <g id="Grupo_1088431" data-name="Grupo 1088431" clip-path="url(#clip-path-20)">
                  <path id="Trazado_863023" data-name="Trazado 863023" d="M58.454,24.536a3.744,3.744,0,0,0-.228,2.233s2.2.727,2.638-.6-2.41-1.634-2.41-1.634" transform="translate(-58.125 -24.537)" fill="#f8f0ff"/>
                </g>
              </g>
            </g>
            <g id="Grupo_1088436" data-name="Grupo 1088436" transform="translate(44.72 15.732)" opacity="0.4">
              <g id="Grupo_1088435" data-name="Grupo 1088435">
                <g id="Grupo_1088434" data-name="Grupo 1088434" clip-path="url(#clip-path-21)">
                  <path id="Trazado_863024" data-name="Trazado 863024" d="M55.28,19.369a3.667,3.667,0,0,0-.044,2.279s2.373.571,2.717-.8-2.673-1.477-2.673-1.477" transform="translate(-55.06 -19.369)" fill="#f8f0ff"/>
                </g>
              </g>
            </g>
            <g id="Grupo_1088439" data-name="Grupo 1088439" transform="translate(36.09 11.696)" opacity="0.4">
              <g id="Grupo_1088438" data-name="Grupo 1088438">
                <g id="Grupo_1088437" data-name="Grupo 1088437" clip-path="url(#clip-path-22)">
                  <path id="Trazado_863025" data-name="Trazado 863025" d="M44.767,17.173s-1.045-1.811.571-2.761c0,0,1.446-.119,1.771.378a1.481,1.481,0,0,0-.363,2.07,3.025,3.025,0,0,1-1.979.314" transform="translate(-44.435 -14.4)" fill="#f8f0ff"/>
                </g>
              </g>
            </g>
            <path id="Trazado_863026" data-name="Trazado 863026" d="M151.669,79.013a.3.3,0,0,0-.032.071c-.7,1.329-11.594,21.9-19.572,26.394-2.177,1.234-4.134,1.265-5.612-.613q-1.262-1.6-2.641-3.183A137.623,137.623,0,0,0,104.2,83.76c-.008,0-.008-.008-.015-.008-3-2.279-5.855-4.291-8.378-5.926C92.46,75.648,76.7,53.6,69.816,43.942c-.2-.275-.723-1.69-.283-2.178-.37-1.03,4.212-7.428,7.388-8.937a1.928,1.928,0,0,1,1.053.621c9.936,10.1,26.606,28.123,26.606,28.123s19.359,8.535,28.264,9.51c10.265,1.124,18.825,7.93,18.825,7.93" transform="translate(-13.026 -6.165)" fill="#ed2939"/>
            <g id="Grupo_1088442" data-name="Grupo 1088442" transform="translate(91.177 77.595)" opacity="0.3" style="mix-blend-mode: multiply;isolation: isolate">
              <g id="Grupo_1088441" data-name="Grupo 1088441">
                <g id="Grupo_1088440" data-name="Grupo 1088440" clip-path="url(#clip-path-23)">
                  <path id="Trazado_863027" data-name="Trazado 863027" d="M199.046,180.673c-22.848-12.725-61.15,5.384-61.15,5.384a8.734,8.734,0,0,1-1.973-7.915c3.89-16.05-3.7-54.814-4.055-64.687a137.629,137.629,0,0,0-19.611-17.921c.755.385,16.254,8.355,22.629,11.5,1.17.573,2.035.99,2.444,1.163,0,0,1.321,3.757,2.791,9.054,1.815,6.571,3.859,15.539,3.859,22.668a92.5,92.5,0,0,1-3.341,23.918s26.213,9.054,46.2,5.7c-.889.26-22.456,6.375-42.467-.007,0,0-5.109,2.617-5.109,8.072,0,0,43.017-7.766,59.7-.275.047,2.114.079,3.348.079,3.348" transform="translate(-112.258 -95.536)" fill="#999"/>
                </g>
              </g>
            </g>
            <path id="Trazado_863028" data-name="Trazado 863028" d="M173.58,75.459s-.616,8.492-2.881,11.561c4,20,17.566,20.756,22.981,2.476l1.367-12.307Z" transform="translate(-32.056 -14.171)" fill="#e5b7ac"/>
            <g id="Grupo_1088445" data-name="Grupo 1088445" transform="translate(138.643 61.288)" opacity="0.5" style="mix-blend-mode: multiply;isolation: isolate">
              <g id="Grupo_1088444" data-name="Grupo 1088444">
                <g id="Grupo_1088443" data-name="Grupo 1088443" clip-path="url(#clip-path-24)">
                  <path id="Trazado_863029" data-name="Trazado 863029" d="M173.58,75.459s-.616,8.492-2.881,11.561c4,20,17.566,20.756,22.981,2.476l1.367-12.307Z" transform="translate(-170.699 -75.459)" fill="#e5b7ac"/>
                </g>
              </g>
            </g>
            <path id="Trazado_863030" data-name="Trazado 863030" d="M166.271,88.453a12.789,12.789,0,0,0,2.471-7.4s2.995-1.862,3.535-.843c.1.193-.547,2.085-.426,2.3,1.861,3.346,5.819,9.187,10.881,9.417,4.881.222,10.568-5.652,10.568-5.652l.332-2.988a2.22,2.22,0,0,1,1.894,1.076c.874,1.282-1.4,6.6-.643,9.395,0,0-1.015,14.1-14.872,11.09s-13.739-16.39-13.739-16.39" transform="translate(-31.224 -15.005)" fill="#ed2939"/>
            <g id="Grupo_1088448" data-name="Grupo 1088448" transform="translate(135.047 64.895)" opacity="0.3" style="mix-blend-mode: multiply;isolation: isolate">
              <g id="Grupo_1088447" data-name="Grupo 1088447">
                <g id="Grupo_1088446" data-name="Grupo 1088446" clip-path="url(#clip-path-25)">
                  <path id="Trazado_863031" data-name="Trazado 863031" d="M166.271,88.453a12.789,12.789,0,0,0,2.471-7.4s2.995-1.862,3.535-.843c.1.193-.547,2.085-.426,2.3,1.861,3.346,5.819,9.187,10.881,9.417,4.881.222,10.568-5.652,10.568-5.652l.332-2.988a2.22,2.22,0,0,1,1.894,1.076c.874,1.282-1.4,6.6-.643,9.395,0,0-1.015,14.1-14.872,11.09s-13.739-16.39-13.739-16.39" transform="translate(-166.271 -79.9)" fill="#999"/>
                </g>
              </g>
            </g>
            <path id="Trazado_863032" data-name="Trazado 863032" d="M204.248,56.3C201.9,70.335,192.48,80.515,183.01,79.415a4.181,4.181,0,0,1-.6-.074C174.4,78.005,168.978,68.9,168.728,57.67a37.281,37.281,0,0,1,.508-7.206c2.393-14.327,11.172-19.58,20.834-17.977,9.672,1.62,16.571,9.489,14.179,23.816" transform="translate(-31.683 -6.049)" fill="#e5b7ac"/>
            <path id="Trazado_863033" data-name="Trazado 863033" d="M203.693,56.721a1.5,1.5,0,0,1-.081.146l-2.493,2.623c.365-1.933.747-3.874,1.072-5.759.7-4.215,1.064-8.179.114-11.184a7.476,7.476,0,0,0-1.535-2.8c-13.929,5.117-27.842-.146-27.842-.146l-3.021,14.514-1.34-3.168s-4.28-19.664,1.235-25.219l2.542,4.695s.2-7.131,4.134-8.683a16.809,16.809,0,0,0,.52,5.044A20.186,20.186,0,0,1,188.2,24.094c9.357.861,15.14,8.2,15.14,8.2a6.7,6.7,0,0,1,4.37,1.592c5.588,5.182-3.078,21.134-4.02,22.831" transform="translate(-31.358 -4.082)" fill="#2e3442"/>
            <g id="Grupo_1088451" data-name="Grupo 1088451" transform="translate(170.02 29.807)" opacity="0.3" style="mix-blend-mode: multiply;isolation: isolate">
              <g id="Grupo_1088450" data-name="Grupo 1088450">
                <g id="Grupo_1088449" data-name="Grupo 1088449" clip-path="url(#clip-path-26)">
                  <path id="Trazado_863034" data-name="Trazado 863034" d="M211.646,59.53a22.865,22.865,0,0,1-1.5-2.989c.7-4.215,1.064-8.179.114-11.184a9.185,9.185,0,0,1,2.656-2.94l-3.582.487a26.35,26.35,0,0,1,6.335-6.205c5.588,5.182-3.078,21.134-4.02,22.831" transform="translate(-209.331 -36.699)" fill="#999"/>
                </g>
              </g>
            </g>
            <g id="Grupo_1088454" data-name="Grupo 1088454" transform="translate(140.011 50.597)" style="mix-blend-mode: multiply;isolation: isolate">
              <g id="Grupo_1088453" data-name="Grupo 1088453">
                <g id="Grupo_1088452" data-name="Grupo 1088452" clip-path="url(#clip-path-27)">
                  <path id="Trazado_863035" data-name="Trazado 863035" d="M175.865,63.506c-.09.284-.863.293-1.726.019s-1.49-.725-1.4-1.01.863-.292,1.726-.02,1.49.726,1.4,1.01" transform="translate(-172.448 -62.296)" fill="#e5b7ac"/>
                  <path id="Trazado_863036" data-name="Trazado 863036" d="M175.661,65.834c.007-.3-.721-.557-1.626-.579s-1.645.2-1.652.5.72.558,1.626.579,1.645-.2,1.652-.5" transform="translate(-172.383 -62.851)" fill="#e5b7ac"/>
                  <path id="Trazado_863037" data-name="Trazado 863037" d="M203.159,70.517c.09-.284.863-.293,1.726-.02s1.49.725,1.4,1.01-.863.293-1.727.02-1.49-.726-1.4-1.01" transform="translate(-178.161 -63.799)" fill="#e5b7ac"/>
                  <path id="Trazado_863038" data-name="Trazado 863038" d="M203.333,68.269c-.007.3.72.557,1.626.579s1.646-.2,1.652-.5-.72-.558-1.626-.579-1.645.2-1.652.5" transform="translate(-178.195 -63.323)" fill="#e5b7ac"/>
                </g>
              </g>
            </g>
            <g id="Grupo_1088457" data-name="Grupo 1088457" transform="translate(151.733 48.663)" style="mix-blend-mode: multiply;isolation: isolate">
              <g id="Grupo_1088456" data-name="Grupo 1088456">
                <g id="Grupo_1088455" data-name="Grupo 1088455" clip-path="url(#clip-path-28)">
                  <path id="Trazado_863039" data-name="Trazado 863039" d="M188.6,70.015c.036.009.073.016.11.023.46.076,1.615-.039,2.416-2.713a23.743,23.743,0,0,0,1.212-7.115.308.308,0,1,0-.616.025,23.693,23.693,0,0,1-1.187,6.913c-.539,1.8-1.244,2.359-1.725,2.281-.706-.106-1.445-1.55-1.374-3.66a.308.308,0,1,0-.616-.021c-.075,2.221.669,3.984,1.781,4.267" transform="translate(-186.815 -59.914)" fill="#e5b7ac"/>
                </g>
              </g>
            </g>
            <path id="Trazado_863040" data-name="Trazado 863040" d="M193.338,76.343a8.453,8.453,0,0,1-3.48,2.3,6.2,6.2,0,0,1-.65.192,7.439,7.439,0,0,1-6.528-1.551c-.169-.147-.326-.292-.47-.44a8.311,8.311,0,0,1-1.951-3.129,19.682,19.682,0,0,0,13.08,2.627" transform="translate(-33.851 -13.843)" fill="#fff"/>
            <path id="Trazado_863041" data-name="Trazado 863041" d="M184.262,60.827s-2.221-5.833-6.759-1.33c2.47-1.039,4.244-.784,6.759,1.33" transform="translate(-33.334 -10.853)" fill="#2e3442"/>
            <path id="Trazado_863042" data-name="Trazado 863042" d="M202.556,64.837S200.334,59,195.8,63.507c2.47-1.038,4.244-.783,6.759,1.33" transform="translate(-36.769 -11.606)" fill="#2e3442"/>
            <path id="Trazado_863043" data-name="Trazado 863043" d="M202.227,56.861a4.346,4.346,0,0,0-3.368-.55.877.877,0,1,1-.309-1.728,6.025,6.025,0,0,1,4.705.855c1.992,1.416,2.166,4.862,1.688,4.938-.1.016-1.339-2.546-2.716-3.516" transform="translate(-37.15 -10.225)" fill="#2e3442"/>
            <path id="Trazado_863044" data-name="Trazado 863044" d="M176.022,55.058c-.428-.227.856-3.431,3.2-4.123a6.022,6.022,0,0,1,4.727.719.878.878,0,1,1-.853,1.534,4.338,4.338,0,0,0-3.377-.569c-1.62.478-3.611,2.485-3.7,2.439" transform="translate(-33.04 -9.525)" fill="#2e3442"/>
            <path id="Trazado_863045" data-name="Trazado 863045" d="M207.8,67.542s4.511-6.849,8.057-4.006-4.06,14.184-9.537,9.918Z" transform="translate(-38.746 -11.802)" fill="#e5b7ac"/>
            <g id="Grupo_1088460" data-name="Grupo 1088460" transform="translate(169.533 54.731)" style="mix-blend-mode: multiply;isolation: isolate">
              <g id="Grupo_1088459" data-name="Grupo 1088459">
                <g id="Grupo_1088458" data-name="Grupo 1088458" clip-path="url(#clip-path-29)">
                  <path id="Trazado_863046" data-name="Trazado 863046" d="M214.195,67.524c-2.849-.775-5.275,1.949-5.378,2.067a.343.343,0,0,0-.024.422.218.218,0,0,0,.115.076.239.239,0,0,0,.237-.086,7.319,7.319,0,0,1,2.226-1.618c.789,1.038-.227,2.947-.239,2.967a.32.32,0,0,0,.063.406.206.206,0,0,0,.069.032.254.254,0,0,0,.278-.145c.052-.093,1.121-2.1.357-3.461a3.7,3.7,0,0,1,2.067-.1l.074.02c.111.055.272-.064.315-.224a.283.283,0,0,0-.161-.357" transform="translate(-208.731 -67.385)" fill="#e5b7ac"/>
                </g>
              </g>
            </g>
            <path id="Trazado_863047" data-name="Trazado 863047" d="M168.619,59.569s-2.843-7.692-6.941-5.727.742,14.734,7.043,11.82Z" transform="translate(-30.077 -10.051)" fill="#e5b7ac"/>
            <g id="Grupo_1088463" data-name="Grupo 1088463" transform="translate(132.716 47.321)" style="mix-blend-mode: multiply;isolation: isolate">
              <g id="Grupo_1088462" data-name="Grupo 1088462">
                <g id="Grupo_1088461" data-name="Grupo 1088461" clip-path="url(#clip-path-30)">
                  <path id="Trazado_863048" data-name="Trazado 863048" d="M163.638,58.265c2.951-.11,4.7,3.095,4.769,3.232a.341.341,0,0,1-.071.416.213.213,0,0,1-.13.048.239.239,0,0,1-.211-.137,7.337,7.337,0,0,0-1.8-2.08c-1,.833-.445,2.922-.439,2.943a.32.32,0,0,1-.153.382.206.206,0,0,1-.075.016.256.256,0,0,1-.238-.2c-.029-.1-.615-2.3.438-3.451a3.713,3.713,0,0,0-1.992-.566l-.076,0c-.121.028-.25-.124-.256-.291a.282.282,0,0,1,.237-.311" transform="translate(-163.401 -58.262)" fill="#e5b7ac"/>
                </g>
              </g>
            </g>
            <path id="Trazado_863049" data-name="Trazado 863049" d="M294.554,199.746s8.912,24.651-24.22,25.612c-33.924.984-33.517-15.663-31.947-25.612s42.038-28.213,56.167,0" transform="translate(-44.665 -34.684)" fill="#fff"/>
            <g id="Grupo_1088466" data-name="Grupo 1088466" transform="translate(193.18 150.008)" opacity="0.3" style="mix-blend-mode: multiply;isolation: isolate">
              <g id="Grupo_1088465" data-name="Grupo 1088465">
                <g id="Grupo_1088464" data-name="Grupo 1088464" clip-path="url(#clip-path-31)">
                  <path id="Trazado_863050" data-name="Trazado 863050" d="M294.554,199.746s8.912,24.651-24.22,25.612c-33.924.984-33.517-15.663-31.947-25.612s42.038-28.213,56.167,0" transform="translate(-237.845 -184.692)" fill="#999"/>
                </g>
              </g>
            </g>
            <path id="Trazado_863051" data-name="Trazado 863051" d="M195.441,176.148l9.4-33.592L220.527,146l-8.592,34.025Z" transform="translate(-36.702 -26.771)" fill="#e5b7ac"/>
            <g id="Grupo_1088469" data-name="Grupo 1088469" transform="translate(158.739 115.785)" opacity="0.5" style="mix-blend-mode: multiply;isolation: isolate">
              <g id="Grupo_1088468" data-name="Grupo 1088468">
                <g id="Grupo_1088467" data-name="Grupo 1088467" clip-path="url(#clip-path-32)">
                  <path id="Trazado_863052" data-name="Trazado 863052" d="M195.441,176.148l9.4-33.592L220.527,146l-8.592,34.025Z" transform="translate(-195.441 -142.556)" fill="#e5b7ac"/>
                </g>
              </g>
            </g>
            <path id="Trazado_863053" data-name="Trazado 863053" d="M287.914,184.05c-11.421,13.134-58.39,5.352-58.39,5.352,2.153-17.465-9.173-49.077-9.173-49.077l-2.805,7.412c-2.162-2.154-20.515-6.438-20.515-6.438s7.978-25.733,12.867-32.194,27.337-13.464,27.337-13.464l24.122-2.884s13.063,14.3,12.552,23.328c-.967,17.119,14.007,67.964,14.007,67.964" transform="translate(-37.001 -17.419)" fill="#652d90"/>
            <g id="Grupo_1088472" data-name="Grupo 1088472" transform="translate(180.032 97.449)" opacity="0.3" style="mix-blend-mode: multiply;isolation: isolate">
              <g id="Grupo_1088471" data-name="Grupo 1088471">
                <g id="Grupo_1088470" data-name="Grupo 1088470" clip-path="url(#clip-path-33)">
                  <path id="Trazado_863054" data-name="Trazado 863054" d="M292.539,189.162c-11.421,13.134-58.391,5.352-58.391,5.352,2.153-17.465-9.173-49.077-9.173-49.077l-3.316-25.458s15.609,34.654,14.807,56.661c0,0,24.279,7.585,42.711,5.329-8.528,1.438-25.451,3.757-34.465,1.336,0,0,7.2,5.668,15.876,5.691s23-4.418,31.951.165" transform="translate(-221.658 -119.98)" fill="#999"/>
                </g>
              </g>
            </g>
            <path id="Trazado_863055" data-name="Trazado 863055" d="M348.586,32.423c-.646,0-34.077,34.8-34.077,34.8L281.832,84.965l8.4,22.825s26.917-23.1,31.439-25.3,30.773-41.445,30.773-41.445Z" transform="translate(-52.926 -6.089)" fill="#e5b7ac"/>
            <path id="Trazado_863056" data-name="Trazado 863056" d="M379.258,15.739c-1.71,1.044-4.742,2.695-6.847,2.757-3.7.108-7.047,4.5-9.531,8.874a13.918,13.918,0,0,0-.8,2.739,8.79,8.79,0,0,0,.192,4.483,5.539,5.539,0,0,0,.954,1.7c.025.031.052.064.079.091l.007.01a5.708,5.708,0,0,0,.994.91l0,0c.128.1.265.188.408.277,0,0,8.027,2.475,13.595-2.143a.4.4,0,0,0,.1-.035l0,0,.023-.015c.1-.076.163-.194.272-.241.186-.083.183-.262.338-.343,1.308-1.683,1.066-2.306.538-2.705l-.007,0a2.062,2.062,0,0,0-.53-.278.034.034,0,0,1-.011,0c.161-.014,2.879-.42,3.646-1.9.023-.044.043-.089.063-.136.016-.068.033-.141.045-.217a7.544,7.544,0,0,0,.075-.768,3.411,3.411,0,0,0-1.187-1.4s.233-.05.473-.106l-.024-.011a2.371,2.371,0,0,0,.319-.057c.043-.011.08-.024.11-.032a.544.544,0,0,0-.189-.181,2.28,2.28,0,0,0,1.546-.65v0a2.165,2.165,0,0,0,.55-1.474c0-.033,0-.067,0-.1s0-.089,0-.133h0a3.436,3.436,0,0,0-.027-.383v0l-.012-.061a1.539,1.539,0,0,0-.054-.282,1.2,1.2,0,0,0-.221-.5s1.983.069,2.513-1.153l.022-.055a.266.266,0,0,0,.024-.076c.009-.021.015-.048.024-.076a1.228,1.228,0,0,0,.032-.147,2.251,2.251,0,0,0-1.736-2.824.717.717,0,0,0-.094-.007.584.584,0,0,0-.073,0,.419.419,0,0,0-.053,0c-.741.076-2.532,2.161-4.28,3.457a3.326,3.326,0,0,0,.656.446s-.591.021-1.457.085c-.066.037-.132.074-.195.106-.046.027-.1.05-.145.073s-.123.059-.184.082c-.077.033-.152.063-.228.087-.058.018-.116.039-.177.053s-.1.029-.149.04c-.022,0-.046.011-.07.013-.053.011-.1.018-.151.026a2.387,2.387,0,0,1-.357.036c-.053,0-.1,0-.157,0a3.423,3.423,0,0,1-.8-.1c-.062-.015-.123-.034-.178-.051a1.177,1.177,0,0,1-.166-.054c-.053-.018-.1-.037-.149-.058a.081.081,0,0,1-.021-.01c-.023-.009-.05-.019-.074-.031a2.67,2.67,0,0,1-.439-.236l-.439-.118-.327-.091v0l-.023,0,0,0a13.691,13.691,0,0,1,2.847-2.057.088.088,0,0,1,.02-.011l.034-.014.007,0,0,0a2.627,2.627,0,0,0,.459-.282,6.714,6.714,0,0,0,1.508-1.632l.006,0c.9-1.333,1.416-3,.372-3.925,0,0-.511.352-1.305.835" transform="translate(-67.958 -2.799)" fill="#e5b7ac"/>
            <g id="Grupo_1088475" data-name="Grupo 1088475" transform="translate(295.522 12.105)" opacity="0.5" style="mix-blend-mode: multiply;isolation: isolate">
              <g id="Grupo_1088474" data-name="Grupo 1088474">
                <g id="Grupo_1088473" data-name="Grupo 1088473" clip-path="url(#clip-path-34)">
                  <path id="Trazado_863057" data-name="Trazado 863057" d="M377.305,20.671c-1.41,1.082-2.53,1.839-2.53,1.839a2.864,2.864,0,0,1-1.529-1.308s-1.781,10.768-9.4,9.115a5.241,5.241,0,0,0,5.669-.052s-.924,7.541,8.109,5.258c.046-.006-2.607-3.7-2.156-4.054,1.738-1.342,2.908-4.464,4.433-8.293-.047.026-.1.05-.145.072s-.123.059-.184.083c-.077.033-.153.062-.228.086-.058.019-.116.039-.177.054s-.1.028-.149.04a.6.6,0,0,1-.07.012,1.207,1.207,0,0,1-.151.027,2.513,2.513,0,0,1-.357.036c-.053,0-.1,0-.157,0a3.422,3.422,0,0,1-.8-.1c-.062-.015-.123-.033-.178-.051a1.246,1.246,0,0,1-.166-.054c-.053-.018-.1-.038-.15-.058a.119.119,0,0,1-.021-.009c-.023-.009-.05-.02-.074-.032a2.675,2.675,0,0,1-.439-.236l-.439-.117-.328-.092v0l-.023,0,0,0a13.663,13.663,0,0,1,2.847-2.057s0,0,.019-.011c.055-.034.236-.143.5-.3a6.715,6.715,0,0,0,1.508-1.632l.006,0c.9-1.332,1.416-3,.372-3.925,0,0-.511.353-1.305.835-.664,1.459-1.131,4.019-2.323,4.933" transform="translate(-363.85 -14.904)" fill="#e5b7ac"/>
                </g>
              </g>
            </g>
            <path id="Trazado_863058" data-name="Trazado 863058" d="M387.353,20.516a37.078,37.078,0,0,1-8.7,4.024c-6.264,1.54-5.5,9.966-5.274,10.493S374.99,43.8,374.99,43.8s-4.1,1.084-6.068-1.274S364.67,37,361.88,36.857c0,0,5.257-10.933,8.992-12.757,8.267-4.033,9.966-9.047,10.272-14.517,4.048,1.745,6.414,6.579,6.209,10.933" transform="translate(-67.958 -1.8)" fill="#ed2939"/>
            <path id="Trazado_863059" data-name="Trazado 863059" d="M386.386,20.083s0,0,0,0c-.56.115-1.511.484-2.679.815-.056.014-.117.031-.175.049-2.022.473-1.89,2.793-.55,3,0,0-.59.02-1.457.085-.353.024-.75.056-1.174.1-.568.057-1.178.128-1.781.216-2.055.3-4.02.819-4.033,1.721a1.854,1.854,0,0,0,.945,1.548,4.593,4.593,0,0,0,1.6.626l.009,0a.011.011,0,0,1,.009,0c-.142.019-4.816.7-4.781,1.947a1.464,1.464,0,0,0,.368.933,2.323,2.323,0,0,0,.352.318,3.259,3.259,0,0,0,.878.444c-.052-.007-.135-.021-.24-.032l-.018,0a.047.047,0,0,1-.019-.007c-.733-.08-2.367-.09-2.206,1.624.123,1.31,3.968,2.47,6.852,2.913.266.041.524.076.768.1.032.006.065.008.1.014a2.762,2.762,0,0,0,1.057-.128l0,0a2.467,2.467,0,0,0,1.6-1.553c.375-1.129-.313-1.2.081-1.792a.243.243,0,0,1,.028-.038c.3-.423,1.361-.828,1.866-1.227.016-.013.031-.028.047-.04a3.833,3.833,0,0,0,.9-1.006l.006-.007a1.634,1.634,0,0,0,.178-.51,1.917,1.917,0,0,0-.671-2.009c.044-.011.078-.024.111-.032a3.276,3.276,0,0,0,.732-.315,2.457,2.457,0,0,0,.623-.516l0,0a2.514,2.514,0,0,0,.523-2.094l0,0a.256.256,0,0,1-.008-.061c-.006-.115.047-.306.1-.327h0a5.23,5.23,0,0,0,.629-.227,2.79,2.79,0,0,0,1.505-1.386.552.552,0,0,0,.022-.055.256.256,0,0,0,.024-.076.569.569,0,0,0,.024-.075.65.65,0,0,0,.032-.147,2.251,2.251,0,0,0-1.736-2.824.327.327,0,0,0-.093-.007.353.353,0,0,0-.071,0,.306.306,0,0,0-.054,0,1.743,1.743,0,0,0-.219.035" transform="translate(-69.749 -3.764)" fill="#e5b7ac"/>
            <g id="Grupo_1088478" data-name="Grupo 1088478" transform="translate(303.941 26.951)" style="mix-blend-mode: multiply;isolation: isolate">
              <g id="Grupo_1088477" data-name="Grupo 1088477">
                <g id="Grupo_1088476" data-name="Grupo 1088476" clip-path="url(#clip-path-35)">
                  <path id="Trazado_863060" data-name="Trazado 863060" d="M382.3,34.914c-1,.43-6.524-.353-7.841-.549-.119-.016-.2-.028-.247-.036l7.067,1.322s1.2.18.493,1.9a2.806,2.806,0,0,1-2.2,1.407s.065.008.1.014a2.774,2.774,0,0,0,1.056-.128l0,0a2.468,2.468,0,0,0,1.6-1.554c.374-1.129-.314-1.2.08-1.791a.314.314,0,0,1,.028-.038c.3-.423,1.361-.828,1.865-1.228.017-.012.031-.027.048-.04a3.824,3.824,0,0,0,.9-1.006,7.641,7.641,0,0,1-2.948,1.731" transform="translate(-374.216 -33.183)" fill="#e5b7ac"/>
                </g>
              </g>
            </g>
            <g id="Grupo_1088481" data-name="Grupo 1088481" transform="translate(305.729 23.854)" style="mix-blend-mode: multiply;isolation: isolate">
              <g id="Grupo_1088480" data-name="Grupo 1088480">
                <g id="Grupo_1088479" data-name="Grupo 1088479" clip-path="url(#clip-path-36)">
                  <path id="Trazado_863061" data-name="Trazado 863061" d="M376.417,29.368a4.511,4.511,0,0,0,1.6.626l.011,0,.012,0c1.831.129,7.14-.06,7.14-.06l.11-.031a3.14,3.14,0,0,0,.733-.314,32.968,32.968,0,0,1-9.605-.225" transform="translate(-376.417 -29.369)" fill="#e5b7ac"/>
                </g>
              </g>
            </g>
            <g id="Grupo_1088484" data-name="Grupo 1088484" transform="translate(310.597 20.185)" style="mix-blend-mode: multiply;isolation: isolate">
              <g id="Grupo_1088483" data-name="Grupo 1088483">
                <g id="Grupo_1088482" data-name="Grupo 1088482" clip-path="url(#clip-path-37)">
                  <path id="Trazado_863062" data-name="Trazado 863062" d="M382.411,25.036a28.2,28.2,0,0,0,5.972.708,13.834,13.834,0,0,1-3.341-.892s-.59.02-1.457.084c-.353.027-.75.058-1.174.1" transform="translate(-382.411 -24.852)" fill="#e5b7ac"/>
                </g>
              </g>
            </g>
            <g id="Grupo_1088487" data-name="Grupo 1088487" transform="translate(301.844 28.517)" opacity="0.4">
              <g id="Grupo_1088486" data-name="Grupo 1088486">
                <g id="Grupo_1088485" data-name="Grupo 1088485" clip-path="url(#clip-path-38)">
                  <path id="Trazado_863063" data-name="Trazado 863063" d="M374.235,35.228a3.451,3.451,0,0,1-.245,2.1s-2.208,0-2.351-1.333,2.6-.765,2.6-.765" transform="translate(-371.634 -35.11)" fill="#f8f0ff"/>
                </g>
              </g>
            </g>
            <g id="Grupo_1088490" data-name="Grupo 1088490" transform="translate(302.73 25.158)" opacity="0.4">
              <g id="Grupo_1088489" data-name="Grupo 1088489">
                <g id="Grupo_1088488" data-name="Grupo 1088488" clip-path="url(#clip-path-39)">
                  <path id="Trazado_863064" data-name="Trazado 863064" d="M375.1,30.975a3.621,3.621,0,0,1,.221,2.16s-2.13.7-2.552-.58,2.331-1.58,2.331-1.58" transform="translate(-372.725 -30.975)" fill="#f8f0ff"/>
                </g>
              </g>
            </g>
            <g id="Grupo_1088493" data-name="Grupo 1088493" transform="translate(305.121 21.155)" opacity="0.4">
              <g id="Grupo_1088492" data-name="Grupo 1088492">
                <g id="Grupo_1088491" data-name="Grupo 1088491" clip-path="url(#clip-path-40)">
                  <path id="Trazado_863065" data-name="Trazado 863065" d="M378.281,26.046a3.543,3.543,0,0,1,.042,2.205s-2.3.552-2.629-.776,2.587-1.429,2.587-1.429" transform="translate(-375.668 -26.046)" fill="#f8f0ff"/>
                </g>
              </g>
            </g>
            <g id="Grupo_1088496" data-name="Grupo 1088496" transform="translate(313.708 17.25)" opacity="0.4">
              <g id="Grupo_1088495" data-name="Grupo 1088495">
                <g id="Grupo_1088494" data-name="Grupo 1088494" clip-path="url(#clip-path-41)">
                  <path id="Trazado_863066" data-name="Trazado 863066" d="M388.507,23.922s1.011-1.752-.553-2.671c0,0-1.4-.114-1.712.366a1.433,1.433,0,0,1,.351,2,2.933,2.933,0,0,0,1.914.3" transform="translate(-386.241 -21.238)" fill="#f8f0ff"/>
                </g>
              </g>
            </g>
            <path id="Trazado_863067" data-name="Trazado 863067" d="M303.748,112.2a37.587,37.587,0,0,0-16.844,9.149c-.353.331-.7.676-1.045,1.03C277.913,130.62,262.351,91.6,262.351,91.6s9.966-4.912,20.239-6.036c8.9-.975,21.159-6.115,21.159-6.115,1.894,8.78,1.4,20.876,0,32.752" transform="translate(-49.267 -14.92)" fill="#652d90"/>
            <g id="Grupo_1088499" data-name="Grupo 1088499" transform="translate(236.592 88.473)" opacity="0.3" style="mix-blend-mode: multiply;isolation: isolate">
              <g id="Grupo_1088498" data-name="Grupo 1088498">
                <g id="Grupo_1088497" data-name="Grupo 1088497" clip-path="url(#clip-path-42)">
                  <path id="Trazado_863068" data-name="Trazado 863068" d="M309.184,117.74a37.587,37.587,0,0,0-16.844,9.149l-1.045-17.96,2.79,11.452a25.383,25.383,0,0,1,15.1-2.641" transform="translate(-291.295 -108.929)" fill="#999"/>
                </g>
              </g>
            </g>
            <path id="Trazado_863069" data-name="Trazado 863069" d="M257.546,91.923c-1.183,20.369-13.857,25.169-21.764,7.817l-.291-1.131L232.72,87.743l21.021-4.7a28.785,28.785,0,0,0,1.725,5.581,11.117,11.117,0,0,0,2.08,3.294" transform="translate(-43.703 -15.596)" fill="#e5b7ac"/>
            <g id="Grupo_1088502" data-name="Grupo 1088502" transform="translate(189.017 67.451)" opacity="0.5" style="mix-blend-mode: multiply;isolation: isolate">
              <g id="Grupo_1088501" data-name="Grupo 1088501">
                <g id="Grupo_1088500" data-name="Grupo 1088500" clip-path="url(#clip-path-43)">
                  <path id="Trazado_863070" data-name="Trazado 863070" d="M255.466,88.628c-2.106,6.273-6.208,10.783-11.415,11.713a3.972,3.972,0,0,1-.549.1,12.371,12.371,0,0,1-8.011-1.827L232.72,87.742l21.021-4.7a28.769,28.769,0,0,0,1.725,5.581" transform="translate(-232.72 -83.046)" fill="#e5b7ac"/>
                </g>
              </g>
            </g>
            <path id="Trazado_863071" data-name="Trazado 863071" d="M261.043,68.672s2.185-7.727,7.177-6.562,1.226,14.008-6.436,12.321Z" transform="translate(-49.022 -11.641)" fill="#e5b7ac"/>
            <g id="Grupo_1088505" data-name="Grupo 1088505" transform="translate(213.084 54.023)" style="mix-blend-mode: multiply;isolation: isolate">
              <g id="Grupo_1088504" data-name="Grupo 1088504">
                <g id="Grupo_1088503" data-name="Grupo 1088503" clip-path="url(#clip-path-44)">
                  <path id="Trazado_863072" data-name="Trazado 863072" d="M267.409,66.516c-3.411.392-4.967,3.7-5.033,3.847a.287.287,0,0,0,.3.4.289.289,0,0,0,.224-.165,7.454,7.454,0,0,1,1.78-2.264c1.273.616.926,2.679.921,2.7a.288.288,0,0,0,.231.333.272.272,0,0,0,.089,0,.285.285,0,0,0,.245-.232c.019-.1.383-2.271-.99-3.178a5.01,5.01,0,0,1,2.212-.867l.088-.011a.283.283,0,0,0,.253-.317.287.287,0,0,0-.317-.253" transform="translate(-262.351 -66.514)" fill="#e5b7ac"/>
                </g>
              </g>
            </g>
            <path id="Trazado_863073" data-name="Trazado 863073" d="M221.954,72.218l.742,5.756c-4.643,2.379-9.254-1.907-10.488-5.737-.619-1.933-.378-3.745,1.137-4.553,3.206-1.685,6.165,1.265,7.632,3.146a13.814,13.814,0,0,1,.977,1.389" transform="translate(-39.791 -12.616)" fill="#e5b7ac"/>
            <g id="Grupo_1088508" data-name="Grupo 1088508" transform="translate(175.231 58.19)" style="mix-blend-mode: multiply;isolation: isolate">
              <g id="Grupo_1088507" data-name="Grupo 1088507">
                <g id="Grupo_1088506" data-name="Grupo 1088506" clip-path="url(#clip-path-45)">
                  <path id="Trazado_863074" data-name="Trazado 863074" d="M215.992,71.7c3.4-.484,5.744,2.325,5.843,2.445a.287.287,0,1,1-.443.364,7.473,7.473,0,0,0-2.3-1.738c-1.075.918-.217,2.825-.207,2.845a.287.287,0,0,1-.139.381.3.3,0,0,1-.084.025.285.285,0,0,1-.3-.162c-.044-.093-.947-2.1.152-3.326a5.018,5.018,0,0,0-2.359-.278l-.088.012a.283.283,0,0,1-.326-.242.287.287,0,0,1,.242-.326" transform="translate(-215.747 -71.644)" fill="#e5b7ac"/>
                </g>
              </g>
            </g>
            <path id="Trazado_863075" data-name="Trazado 863075" d="M254.647,61.04c1.681,13.111-3.959,24.7-12.677,26.263a3.864,3.864,0,0,1-.549.094c-7.488.967-14.755-5.672-18-15.6a34.727,34.727,0,0,1-1.485-6.545c-1.722-13.386,4.674-20.417,13.7-21.588s17.289,3.986,19.011,17.372" transform="translate(-41.626 -8.171)" fill="#e5b7ac"/>
            <path id="Trazado_863076" data-name="Trazado 863076" d="M216.32,40.675l-3.58.489c3.328-5.036,10.506-8.889,10.506-8.889s14.419-6.97,23.143-4.186S255,42.8,255,42.8c6.382,1.3,1.131,13.28,1.131,13.28s-2.551,2.054-3.181,3.762a29.845,29.845,0,0,1-.387,9.1s-1.481-7.528-.876-11.828c.016-.128.033-.256.041-.374a12.43,12.43,0,0,0-.295-4.237,11.577,11.577,0,0,1-4.761-7s-10.979,7.028-17.139,6.914c1.137-2.931,1.88-5.067,1.88-5.067s-6.987,5.716-10.667,6.279a13.2,13.2,0,0,0,.266,6.039c.075.254.159.508.253.771,1.522,4.071,1.694,11.739,1.694,11.739a30.953,30.953,0,0,1-2.364-8.974c-.675-1.882-4.3-3.445-4.3-3.445-9.124-13.261.022-19.089.022-19.089" transform="translate(-39.859 -5.152)" fill="#2e3442"/>
            <path id="Trazado_863077" data-name="Trazado 863077" d="M232.535,70.911c.157,1.589.789,2.829,1.412,2.767s1-1.4.842-2.99-.789-2.829-1.412-2.767-1,1.4-.842,2.99" transform="translate(-43.661 -12.755)" fill="#2e3442"/>
            <path id="Trazado_863078" data-name="Trazado 863078" d="M248.643,69.319c.157,1.589.789,2.829,1.412,2.767s1-1.4.842-2.99-.789-2.829-1.412-2.767-1,1.4-.842,2.99" transform="translate(-46.686 -12.456)" fill="#2e3442"/>
            <g id="Grupo_1088511" data-name="Grupo 1088511" transform="translate(183.825 58.529)" style="mix-blend-mode: multiply;isolation: isolate">
              <g id="Grupo_1088510" data-name="Grupo 1088510">
                <g id="Grupo_1088509" data-name="Grupo 1088509" clip-path="url(#clip-path-46)">
                  <path id="Trazado_863079" data-name="Trazado 863079" d="M229.375,76.543c0,.277-.689.494-1.529.482s-1.521-.245-1.517-.522.689-.493,1.53-.482,1.52.245,1.516.521" transform="translate(-226.327 -72.805)" fill="#e5b7ac"/>
                  <path id="Trazado_863080" data-name="Trazado 863080" d="M229.833,78.6c-.074-.267-.791-.3-1.6-.078s-1.408.622-1.335.889.791.3,1.6.078,1.408-.622,1.334-.889" transform="translate(-226.433 -73.247)" fill="#e5b7ac"/>
                  <path id="Trazado_863081" data-name="Trazado 863081" d="M256.338,75.214c0-.277.689-.492,1.53-.481s1.52.244,1.516.521-.689.493-1.53.482-1.52-.244-1.516-.522" transform="translate(-231.963 -72.563)" fill="#e5b7ac"/>
                  <path id="Trazado_863082" data-name="Trazado 863082" d="M255.9,73.1c.074.267.791.3,1.6.078s1.409-.622,1.335-.889-.791-.3-1.6-.078-1.408.622-1.334.889" transform="translate(-231.88 -72.061)" fill="#e5b7ac"/>
                </g>
              </g>
            </g>
            <g id="Grupo_1088514" data-name="Grupo 1088514" transform="translate(195.611 54.989)" style="mix-blend-mode: multiply;isolation: isolate">
              <g id="Grupo_1088513" data-name="Grupo 1088513">
                <g id="Grupo_1088512" data-name="Grupo 1088512" clip-path="url(#clip-path-47)">
                  <path id="Trazado_863083" data-name="Trazado 863083" d="M243.3,77.406c-.034,0-.069.006-.1.008-.432.019-1.485-.217-1.922-2.774a22.072,22.072,0,0,1-.317-6.7.285.285,0,0,1,.329-.236.288.288,0,0,1,.237.329,21.964,21.964,0,0,0,.317,6.509c.294,1.722.882,2.315,1.334,2.3.663-.019,1.507-1.266,1.68-3.22a.287.287,0,1,1,.571.05c-.181,2.057-1.066,3.6-2.123,3.735" transform="translate(-240.839 -67.703)" fill="#e5b7ac"/>
                </g>
              </g>
            </g>
            <g id="Grupo_1088517" data-name="Grupo 1088517" transform="translate(191.243 64.561)" style="mix-blend-mode: multiply;isolation: isolate">
              <g id="Grupo_1088516" data-name="Grupo 1088516">
                <g id="Grupo_1088515" data-name="Grupo 1088515" clip-path="url(#clip-path-48)">
                  <path id="Trazado_863084" data-name="Trazado 863084" d="M243.024,84.211a9.555,9.555,0,0,1-7.481-2.555.287.287,0,0,1,.406-.4,9.14,9.14,0,0,0,7,2.39,7.318,7.318,0,0,0,5.567-3.981.287.287,0,0,1,.526.228,7.789,7.789,0,0,1-6.02,4.323" transform="translate(-235.46 -79.488)" fill="#e5b7ac"/>
                </g>
              </g>
            </g>
            <path id="Trazado_863085" data-name="Trazado 863085" d="M251.073,63.423a4.039,4.039,0,0,0-3.144.416.815.815,0,1,1-.738-1.453,5.6,5.6,0,0,1,4.414-.5c2.152.724,3.233,3.742,2.829,3.939-.082.04-1.876-1.905-3.361-2.4" transform="translate(-46.337 -11.574)" fill="#2e3442"/>
            <path id="Trazado_863086" data-name="Trazado 863086" d="M227.472,68.708c-.442-.088-.161-3.281,1.738-4.526a5.592,5.592,0,0,1,4.4-.632.815.815,0,0,1-.346,1.594,4.04,4.04,0,0,0-3.157.4c-1.312.861-2.543,3.181-2.632,3.164" transform="translate(-42.683 -11.901)" fill="#2e3442"/>
            <path id="Trazado_863087" data-name="Trazado 863087" d="M225.93,134.349c-2.067,6.118-.852,10.746,5.346,9.518,4.979-.931,7-9.756,7-9.756s6.193,1.781,6.562.593c.24-.742-.777-1.367-1.532-1.716,5.018,1.9,4.964-.3,4.646-.849-.4-.794-2.658-1.889-2.658-1.889,2.033.555,2.835-.417,2.58-1.194s-5.162-3.874-6.383-4.08-5.825-.6-5.825-.6,4.712-3.2,4.961-3.263,3.268,1.626,5.567,1.378c.887-.084,1.619-.5,1.022-1.715s-5.627-3.564-6.931-3.113-7.957,2.383-9.793,5.278a107.949,107.949,0,0,0-4.565,11.41" transform="translate(-42.253 -22.085)" fill="#e5b7ac"/>
            <g id="Grupo_1088520" data-name="Grupo 1088520" transform="translate(194.093 105.222)" style="mix-blend-mode: multiply;isolation: isolate">
              <g id="Grupo_1088519" data-name="Grupo 1088519">
                <g id="Grupo_1088518" data-name="Grupo 1088518" clip-path="url(#clip-path-49)">
                  <path id="Trazado_863088" data-name="Trazado 863088" d="M247.107,131.97a20.607,20.607,0,0,0-3.787-2.137,36.4,36.4,0,0,0-4.35-.283,26.625,26.625,0,0,1,8.137,2.42" transform="translate(-238.97 -129.55)" fill="#e5b7ac"/>
                </g>
              </g>
            </g>
            <g id="Grupo_1088523" data-name="Grupo 1088523" transform="translate(192.275 108.214)" style="mix-blend-mode: multiply;isolation: isolate">
              <g id="Grupo_1088522" data-name="Grupo 1088522">
                <g id="Grupo_1088521" data-name="Grupo 1088521" clip-path="url(#clip-path-49)">
                  <path id="Trazado_863089" data-name="Trazado 863089" d="M244.868,135.654a20.606,20.606,0,0,0-3.786-2.137,36.4,36.4,0,0,0-4.35-.283,26.624,26.624,0,0,1,8.137,2.42" transform="translate(-236.731 -133.234)" fill="#e5b7ac"/>
                </g>
              </g>
            </g>
            <path id="Trazado_863090" data-name="Trazado 863090" d="M219.45,142.556s-24.009,26.935-24.009,35.472,9.387,11.628,14.3,6.33,18.2-37.271,18.2-37.271Z" transform="translate(-36.702 -26.771)" fill="#e5b7ac"/>
            <path id="Trazado_863091" data-name="Trazado 863091" d="M263.644,105.065l1.638-23.344s9.285-9.347,13.785,2.524-8.1,27.459-8.1,27.459Z" transform="translate(-49.51 -14.69)" fill="#e5b7ac"/>
            <path id="Trazado_863092" data-name="Trazado 863092" d="M263.495,102.616s-.662-.208-.646-1.52c.06-5.062.043-19.037,2.284-22.025,2.531-3.375,10.443-9.548,14.942,2.322,3.8,10.036-4.228,23.554-6.891,27.357a1.268,1.268,0,0,1-1.07.64c-.312-3.862-3.363-9.386-8.62-6.773" transform="translate(-49.361 -13.977)" fill="#ed2939"/>
            <path id="Trazado_863093" data-name="Trazado 863093" d="M257.41,113.308c4.557-4.576,9.242-5.549,10.9.547,1.384,4.872-5.616,10.616-5.616,10.616s4.353,4.751,3.453,5.61c-.558.546-1.57-.087-2.22-.607,3.936,3.647,1.947,4.576,1.309,4.538-.889-.008-2.874-1.538-2.874-1.538,1.4,1.573.889,2.724.08,2.842s-5.767-2.9-6.5-3.9-3.133-4.948-3.133-4.948-.767,5.645-.712,5.9,2.912,2.2,3.714,4.37c.318.832.275,1.672-1.082,1.679s-5.7-3.45-5.875-4.819-1.41-8.186.365-11.118a107.755,107.755,0,0,1,8.182-9.17" transform="translate(-46.625 -20.578)" fill="#e5b7ac"/>
            <g id="Grupo_1088526" data-name="Grupo 1088526" transform="translate(209.118 105.193)" style="mix-blend-mode: multiply;isolation: isolate">
              <g id="Grupo_1088525" data-name="Grupo 1088525">
                <g id="Grupo_1088524" data-name="Grupo 1088524" clip-path="url(#clip-path-51)">
                  <path id="Trazado_863094" data-name="Trazado 863094" d="M263.259,135.723a20.594,20.594,0,0,1-3.6-2.438,36.376,36.376,0,0,1-2.19-3.769,26.608,26.608,0,0,0,5.79,6.208" transform="translate(-257.469 -129.515)" fill="#e5b7ac"/>
                </g>
              </g>
            </g>
            <g id="Grupo_1088529" data-name="Grupo 1088529" transform="translate(210.987 102.232)" style="mix-blend-mode: multiply;isolation: isolate">
              <g id="Grupo_1088528" data-name="Grupo 1088528">
                <g id="Grupo_1088527" data-name="Grupo 1088527" clip-path="url(#clip-path-51)">
                  <path id="Trazado_863095" data-name="Trazado 863095" d="M265.56,132.077a20.561,20.561,0,0,1-3.6-2.439,36.286,36.286,0,0,1-2.191-3.769,26.609,26.609,0,0,0,5.79,6.208" transform="translate(-259.77 -125.869)" fill="#e5b7ac"/>
                </g>
              </g>
            </g>
            <path id="Trazado_863096" data-name="Trazado 863096" d="M153.688,342.816l4.422,1.257-.72,4.417s-7.781,6.826-17.218,6.752c-9.975-.516-8.936-8.2-8.936-8.2l.96-4.487Z" transform="translate(-24.639 -64.329)" fill="#fff"/>
            <path id="Trazado_863097" data-name="Trazado 863097" d="M141.18,346.974c9.608-.059,17.144-7.436,17.144-7.436,1.514-5.011,0-14.8,0-15.9,0-1.111-13.8-11.092-18.385-.193-.741,1.76-7.4,13.709-7.528,14.566s-.823,9.033,8.769,8.96" transform="translate(-24.854 -59.793)" fill="#2e3442"/>
            <g id="Grupo_1088532" data-name="Grupo 1088532" transform="translate(107.494 273.128)" opacity="0.3" style="mix-blend-mode: multiply;isolation: isolate">
              <g id="Grupo_1088531" data-name="Grupo 1088531">
                <g id="Grupo_1088530" data-name="Grupo 1088530" clip-path="url(#clip-path-53)">
                  <path id="Trazado_863098" data-name="Trazado 863098" d="M141.18,350.331c9.608-.059,17.144-7.436,17.144-7.436s-15.351-13.812-25.914-1.524c-.132.858-.823,9.033,8.769,8.96" transform="translate(-132.348 -336.279)" fill="#999"/>
                </g>
              </g>
            </g>
            <path id="Trazado_863099" data-name="Trazado 863099" d="M139.965,294.549s7.5-80.644,10.987-89.118C156,193.138,180.99,189.159,181.4,208.7c.387,18.551-20.352,90.76-20.352,90.76s-15.5,3.932-21.082-4.907" transform="translate(-26.284 -36.643)" fill="#0196d8"/>
            <path id="Trazado_863100" data-name="Trazado 863100" d="M191.993,342.816l-4.422,1.257.72,4.417s7.781,6.826,17.218,6.752c9.975-.516,8.936-8.2,8.936-8.2l-.96-4.487Z" transform="translate(-35.224 -64.329)" fill="#fff"/>
            <path id="Trazado_863101" data-name="Trazado 863101" d="M204.459,346.678c-9.608-.059-17.144-7.436-17.144-7.436-2.5-9.583,0-18.525,0-19.621,0-1.112,13.8-7.369,18.386,3.53.74,1.76,7.4,13.709,7.528,14.566s.823,9.033-8.769,8.96" transform="translate(-34.968 -59.498)" fill="#2e3442"/>
            <g id="Grupo_1088535" data-name="Grupo 1088535" transform="translate(152.347 273.128)" opacity="0.3" style="mix-blend-mode: multiply;isolation: isolate">
              <g id="Grupo_1088534" data-name="Grupo 1088534">
                <g id="Grupo_1088533" data-name="Grupo 1088533" clip-path="url(#clip-path-53)">
                  <path id="Trazado_863102" data-name="Trazado 863102" d="M204.715,350.331c-9.608-.059-17.144-7.436-17.144-7.436s15.351-13.812,25.913-1.524c.132.858.823,9.033-8.769,8.96" transform="translate(-187.571 -336.279)" fill="#999"/>
                </g>
              </g>
            </g>
            <path id="Trazado_863103" data-name="Trazado 863103" d="M185.754,295.246s7.5-80.644,10.987-89.118c5.051-12.294,28.989-14.251,29.4,5.285.387,18.551-19.3,88.739-19.3,88.739s-15.5,3.932-21.082-4.907" transform="translate(-34.883 -36.958)" fill="#0196d8"/>
            <g id="Grupo_1088538" data-name="Grupo 1088538" transform="translate(196.254 277.989)" opacity="0.3" style="mix-blend-mode: multiply;isolation: isolate">
              <g id="Grupo_1088537" data-name="Grupo 1088537">
                <g id="Grupo_1088536" data-name="Grupo 1088536" clip-path="url(#clip-path-55)">
                  <path id="Trazado_863104" data-name="Trazado 863104" d="M262.5,342.506l4.106,1.167-.668,4.1s-7.225,6.338-15.987,6.269c-9.261-.479-8.3-7.614-8.3-7.614l.891-4.165Z" transform="translate(-241.63 -342.263)" fill="#999"/>
                </g>
              </g>
            </g>
            <path id="Trazado_863105" data-name="Trazado 863105" d="M250.891,346.019c8.921-.055,15.918-6.9,15.918-6.9,2.316-8.9-.779-17.907-.779-18.924,0-1.032-12.035-6.135-16.291,3.984-.687,1.634-6.867,12.729-6.99,13.524s-.763,8.386,8.142,8.319" transform="translate(-45.575 -59.716)" fill="#ed2939"/>
            <path id="Trazado_863106" data-name="Trazado 863106" d="M250.891,349.482c8.921-.055,15.918-6.9,15.918-6.9s-14.253-12.825-24.06-1.416c-.122.8-.763,8.386,8.142,8.319" transform="translate(-45.575 -63.18)" fill="#fff"/>
            <path id="Trazado_863107" data-name="Trazado 863107" d="M256.488,238.7a53.488,53.488,0,0,1-22.761,4.893c.874,4.533,1.905,9.384,3.021,14.322,5.318,23.59,12.445,48.968,12.445,48.968s.062,5.18,3.873,5.779c3.111.491,8.326-1.955,9.683-6.853,0,0-2.056-26.49-4.407-49.986-.606-6.08-1.234-11.952-1.853-17.122" transform="translate(-43.892 -44.827)" fill="#e5b7ac"/>
            <path id="Trazado_863108" data-name="Trazado 863108" d="M243.283,205.67s26.021-1.546,27.521,14.566S251.687,238.8,251.687,238.8s-14.728-23.925-8.4-33.135" transform="translate(-45.39 -38.616)" fill="#fff"/>
            <g id="Grupo_1088541" data-name="Grupo 1088541" transform="translate(196.316 169.973)" opacity="0.3" style="mix-blend-mode: multiply;isolation: isolate">
              <g id="Grupo_1088540" data-name="Grupo 1088540">
                <g id="Grupo_1088539" data-name="Grupo 1088539" clip-path="url(#clip-path-56)">
                  <path id="Trazado_863109" data-name="Trazado 863109" d="M270.5,219.105c-2.658,11.632-8.361,12.817-8.361,12.817s-3.536-17.291-20.1-22.651c-2.467,10.533,9.649,30.216,9.649,30.216s20.616-2.456,19.117-18.569a13.92,13.92,0,0,0-.3-1.814" transform="translate(-241.707 -209.273)" fill="#999"/>
                </g>
              </g>
            </g>
            <path id="Trazado_863110" data-name="Trazado 863110" d="M259.346,248.658l-27.639,3.671-3.159-29.521c-.084-5.586,1.767-15.677,11.371-17.055s12.816,9,12.816,9Z" transform="translate(-42.919 -38.615)" fill="#fff"/>
            <path id="Trazado_863111" data-name="Trazado 863111" d="M261.858,258.4a102.606,102.606,0,0,1-32,5.538l-1.425-9.119a108.269,108.269,0,0,0,32-5.538Z" transform="translate(-42.898 -46.813)" fill="#fff"/>
            <g id="Grupo_1088544" data-name="Grupo 1088544" transform="translate(185.538 202.47)" opacity="0.3" style="mix-blend-mode: multiply;isolation: isolate">
              <g id="Grupo_1088543" data-name="Grupo 1088543">
                <g id="Grupo_1088542" data-name="Grupo 1088542" clip-path="url(#clip-path-57)">
                  <path id="Trazado_863112" data-name="Trazado 863112" d="M261.858,258.4a102.606,102.606,0,0,1-32,5.538l-1.425-9.119a108.269,108.269,0,0,0,32-5.538Z" transform="translate(-228.436 -249.283)" fill="#999"/>
                </g>
              </g>
            </g>
            <g id="Grupo_1088547" data-name="Grupo 1088547" transform="translate(233.76 275.784)" opacity="0.3" style="mix-blend-mode: multiply;isolation: isolate">
              <g id="Grupo_1088546" data-name="Grupo 1088546">
                <g id="Grupo_1088545" data-name="Grupo 1088545" clip-path="url(#clip-path-58)">
                  <path id="Trazado_863113" data-name="Trazado 863113" d="M291.606,343.685l-3.8,1.947,1.456,3.891s8.323,4.8,16.9,3.024c8.989-2.279,6.649-9.088,6.649-9.088l-1.689-3.912Z" transform="translate(-287.808 -339.548)" fill="#999"/>
                </g>
              </g>
            </g>
            <path id="Trazado_863114" data-name="Trazado 863114" d="M304.08,345.5c-8.761,1.689-16.961-3.661-16.961-3.661-4.01-8.272-2.736-17.713-2.934-18.711s10.6-8.369,16.756.724c.993,1.468,9.223,11.142,9.5,11.9s2.388,8.075-6.36,9.75" transform="translate(-53.36 -59.974)" fill="#ed2939"/>
            <path id="Trazado_863115" data-name="Trazado 863115" d="M304.769,348.6c-8.761,1.689-16.961-3.661-16.961-3.661s11.472-15.362,23.32-6.089c.275.757,2.388,8.075-6.36,9.75" transform="translate(-54.048 -63.075)" fill="#fff"/>
            <path id="Trazado_863116" data-name="Trazado 863116" d="M278.56,241.76a53.159,53.159,0,0,0,23.231.116c-.015,4.625-.127,9.595-.3,14.667-.836,24.229-3.114,50.584-3.114,50.584s.9,5.093-2.725,6.464c-2.96,1.121-8.529-.2-10.769-4.729,0,0-2.9-26.4-4.958-49.928-.534-6.087-1.008-11.975-1.361-17.173" transform="translate(-52.311 -45.401)" fill="#e5b7ac"/>
            <path id="Trazado_863117" data-name="Trazado 863117" d="M308.359,221.743c.353,10.5-11.153,14.706-17.292,16.2a36.739,36.739,0,0,1-3.741.731s-7.695-23.36-.613-32.619c0,0,18.023-6.853,21.45,13.661a14.255,14.255,0,0,1,.2,2.028" transform="translate(-53.28 -38.489)" fill="#fff"/>
            <g id="Grupo_1088550" data-name="Grupo 1088550" transform="translate(237.787 168.612)" opacity="0.3" style="mix-blend-mode: multiply;isolation: isolate">
              <g id="Grupo_1088549" data-name="Grupo 1088549">
                <g id="Grupo_1088548" data-name="Grupo 1088548" clip-path="url(#clip-path-59)">
                  <path id="Trazado_863118" data-name="Trazado 863118" d="M310.058,222.24c.353,10.5-11.153,14.706-17.292,16.2,1.265-7.011,5.785-30.842,5.785-30.842s8.724,2.247,9.305,16.466a14.209,14.209,0,0,0,2.2-1.823" transform="translate(-292.766 -207.597)" fill="#999"/>
                </g>
              </g>
            </g>
            <path id="Trazado_863119" data-name="Trazado 863119" d="M277.628,251.591l27.788-2.086-2.382-29.6c-.955-5.5-4.643-15.011-14.318-14.387s-10.9,11.459-10.9,11.459Z" transform="translate(-52.136 -38.589)" fill="#fff"/>
            <path id="Trazado_863120" data-name="Trazado 863120" d="M274.855,262.357a102.233,102.233,0,0,0,32.409-1.152l-.3-9.236a107.853,107.853,0,0,1-32.41,1.152Z" transform="translate(-51.56 -47.318)" fill="#fff"/>
            <g id="Grupo_1088553" data-name="Grupo 1088553" transform="translate(222.999 204.651)" opacity="0.3" style="mix-blend-mode: multiply;isolation: isolate">
              <g id="Grupo_1088552" data-name="Grupo 1088552">
                <g id="Grupo_1088551" data-name="Grupo 1088551" clip-path="url(#clip-path-60)">
                  <path id="Trazado_863121" data-name="Trazado 863121" d="M274.855,262.357a102.233,102.233,0,0,0,32.409-1.152l-.3-9.236a107.853,107.853,0,0,1-32.41,1.152Z" transform="translate(-274.559 -251.969)" fill="#999"/>
                </g>
              </g>
            </g>
          </g>
        </g>
      </g>
    </g>
  </g>
</svg>
