<svg xmlns="http://www.w3.org/2000/svg" xmlns:xlink="http://www.w3.org/1999/xlink" width="349" height="227.742" viewBox="0 0 349 227.742">
  <defs>
    <filter id="Rectángulo_397252" x="-53" y="-53" width="469" height="347.742" filterUnits="userSpaceOnUse">
      <feOffset dx="7" dy="7" input="SourceAlpha"/>
      <feGaussianBlur stdDeviation="20" result="blur"/>
      <feFlood flood-opacity="0.149"/>
      <feComposite operator="in" in2="blur"/>
      <feComposite in="SourceGraphic"/>
    </filter>
    <clipPath id="clip-path">
      <g transform="matrix(1, 0, 0, 1, 0, 0)" filter="url(#Rectángulo_397252)">
        <path id="Rectángulo_397252-2" data-name="Rectángulo 397252" d="M24,0H325a24,24,0,0,1,24,24V227.742a0,0,0,0,1,0,0H0a0,0,0,0,1,0,0V24A24,24,0,0,1,24,0Z" transform="translate(-2711 -8426)" fill="#12263f" opacity="0.48"/>
      </g>
    </clipPath>
    <clipPath id="clip-path-2">
      <rect id="Rectángulo_397254" data-name="Rectángulo 397254" width="350" height="332.034" fill="none"/>
    </clipPath>
    <clipPath id="clip-path-3">
      <rect id="Rectángulo_397260" data-name="Rectángulo 397260" width="379.379" height="362.488" fill="none"/>
    </clipPath>
    <clipPath id="clip-path-4">
      <rect id="Rectángulo_397255" data-name="Rectángulo 397255" width="27.161" height="32.796" fill="none"/>
    </clipPath>
    <clipPath id="clip-path-5">
      <rect id="Rectángulo_397256" data-name="Rectángulo 397256" width="76.985" height="105.065" fill="none"/>
    </clipPath>
    <clipPath id="clip-path-6">
      <rect id="Rectángulo_397257" data-name="Rectángulo 397257" width="30.403" height="75.984" fill="none"/>
    </clipPath>
    <clipPath id="clip-path-7">
      <rect id="Rectángulo_397258" data-name="Rectángulo 397258" width="37.049" height="49.964" fill="none"/>
    </clipPath>
  </defs>
  <g id="_18" data-name="18" transform="translate(2711 8426)" clip-path="url(#clip-path)">
    <g id="Grupo_1088366" data-name="Grupo 1088366" transform="translate(-2712 -8447)">
      <rect id="Rectángulo_397253" data-name="Rectángulo 397253" width="350" height="332.034" fill="#fff8e6"/>
      <g id="Grupo_1088365" data-name="Grupo 1088365">
        <g id="Grupo_1088364" data-name="Grupo 1088364" clip-path="url(#clip-path-2)">
          <path id="Trazado_862797" data-name="Trazado 862797" d="M285.406,223.852c19.985-5.146,36.672-20.753,42.079-40.7s-1.157-43.588-17.066-58.191c-13.164-12.085-31.986-18.289-41.2-33.541-5.147-8.519-6.441-18.649-10.687-27.615C248.5,42.617,222.993,31.561,200.268,33s-43,12.983-60.918,26.177-34.5,28.386-54.232,38.835c-11.65,6.168-24.8,11.028-32.544,21.656-10.787,14.808-7.523,36.728,1.9,53.605a92.268,92.268,0,0,0,41.6,38.478c22.145,10.152,47.237,10.77,69.367,20.96,13.6,6.262,25.916,16.063,40.339,19.508,23.77,5.678,46.561-7.071,79.632-28.369" transform="translate(-13.75 -11.046)" fill="#f2e6c7"/>
          <path id="Trazado_862798" data-name="Trazado 862798" d="M302.883,145.685c-13.782-10.834-23.59-25.471-32.452-40.223s-17.105-30-28.6-43.015-26.863-23.819-44.552-26.4-37.611,4.715-45.6,19.908c-5.883,11.186-5.721,26.172-16.5,33.361-9.776,6.519-23.437,2.934-34.8,6.448-10.252,3.171-17.567,11.823-22.608,20.867-9.2,16.5-12.748,36.122-7.961,54.226s18.382,34.315,36.67,41.2c18.052,6.8,39.372,4.559,56.072,13.964,14.085,7.932,22.513,22.925,36.6,30.852,12.192,6.859,27.458,7.561,41.2,4.253s26.181-10.3,37.739-18.083c14.491-9.761,28.347-21.424,35.651-36.795S327.493,165.031,302.883,145.685Z" transform="translate(-20.306 -11.937)" fill="none" stroke="#e8d9b3" stroke-miterlimit="10" stroke-width="1"/>
          <path id="Trazado_862799" data-name="Trazado 862799" d="M80.809,219.228c-1.277,1.741-2.62,4.015-1.707,6,.542,1.179,1.724,1.825,2.673,2.661a8.64,8.64,0,0,1,2.719,7.422l4.135-1.282a10.419,10.419,0,0,0-2.768-7.187,14.344,14.344,0,0,1-2.5-2.753,4.573,4.573,0,0,1,.514-5c-1.039.072-2.078.145-3.07.138" transform="translate(-23.644 -73.609)" fill="#ff956b"/>
          <path id="Trazado_862800" data-name="Trazado 862800" d="M370.233,107.884a8.813,8.813,0,0,1,2.926,1.446,3.384,3.384,0,0,1,1.26,3.011,6.156,6.156,0,0,1-1.321,2.4,12.916,12.916,0,0,0-2.329,7.137,2.8,2.8,0,0,1-2.407-2.717,6.062,6.062,0,0,1,1.247-3.792c.708-1.037,1.62-2.261,1.168-3.449-.279-.731-1-1.149-1.432-1.786a1.5,1.5,0,0,1,.888-2.253" transform="translate(-110.522 -36.247)" fill="#ff956b"/>
          <path id="Trazado_862801" data-name="Trazado 862801" d="M475.481,424.479a3.354,3.354,0,0,1,.507,3.593,27.825,27.825,0,0,1-1.886,3.316,4.317,4.317,0,0,0-.461,3.7l-3.259-.179c-1-1.609-.367-3.774.449-5.5s1.824-3.559,1.475-5.454c1.216-.093,2.413-.163,3.174.52" transform="translate(-140.983 -142.421)" fill="#ff956b"/>
          <path id="Trazado_862802" data-name="Trazado 862802" d="M16.57,324.034c-1.079.947-1.244,2.66-1,4.129a36.412,36.412,0,0,1,.863,4.372c.062,1.49-.573,3.183-1.908,3.62a6.711,6.711,0,0,0,2.656,1.085,2.623,2.623,0,0,0,2.529-1.086,3.94,3.94,0,0,0-.165-3.59,10.33,10.33,0,0,1-1.279-3.479c-.076-1.252.841-2.687,2-2.479-1.393-1.027-2.786-2.052-3.693-2.571" transform="translate(-4.358 -108.868)" fill="#ff956b"/>
          <path id="Trazado_862803" data-name="Trazado 862803" d="M19.965,196.027,24.79,197.8c-1.7,1.493-1.952,4.155-1.769,6.494s.668,4.756-.018,6.987l-3.421-.922a7.2,7.2,0,0,0,.323-5.276,32.434,32.434,0,0,1-1.267-5.258,4.781,4.781,0,0,1,1.327-3.794" transform="translate(-5.588 -65.861)" fill="#c3e6e8"/>
          <path id="Trazado_862804" data-name="Trazado 862804" d="M48.637,364.187a4.762,4.762,0,0,0-1.931,4.1c.074,1.309.672,2.535.755,3.843s-.7,2.881-1.926,2.793l3.715,2.166a3.684,3.684,0,0,0,1.669-4.756,9.444,9.444,0,0,1-1.272-2.444c-.248-1.6,1.3-2.8,2.645-3.563-1.614-.915-3.229-1.83-3.655-2.138" transform="translate(-13.663 -122.359)" fill="#c3e6e8"/>
          <path id="Trazado_862805" data-name="Trazado 862805" d="M321.1,14.4c-1.455.392-1.9,2.5-1.34,3.991s1.758,2.571,2.675,3.84,1.565,3.042.844,4.447l3.142-.618a6.048,6.048,0,0,0-1.34-3.449,10.6,10.6,0,0,1-1.819-3.244,3.77,3.77,0,0,1,.983-3.623A17.4,17.4,0,0,1,321.1,14.4" transform="translate(-95.873 -4.838)" fill="#c3e6e8"/>
          <path id="Trazado_862806" data-name="Trazado 862806" d="M188.745,19.617a1.341,1.341,0,1,1,1.333,1.2,1.271,1.271,0,0,1-1.333-1.2" transform="translate(-56.632 -6.188)" fill="#6c88c8"/>
          <path id="Trazado_862807" data-name="Trazado 862807" d="M475.208,320.959a1.341,1.341,0,1,1,1.333,1.2,1.271,1.271,0,0,1-1.333-1.2" transform="translate(-142.585 -107.432)" fill="#6c88c8"/>
          <path id="Trazado_862808" data-name="Trazado 862808" d="M115.252,208.179a1.341,1.341,0,1,1,1.333,1.2,1.271,1.271,0,0,1-1.333-1.2" transform="translate(-34.581 -69.541)" fill="#6c88c8"/>
          <path id="Trazado_862809" data-name="Trazado 862809" d="M428.252,137.754a1.341,1.341,0,1,1,1.333,1.2,1.271,1.271,0,0,1-1.333-1.2" transform="translate(-128.496 -45.879)" fill="#6c88c8"/>
          <path id="Trazado_862810" data-name="Trazado 862810" d="M27.434,19.617a1.341,1.341,0,1,1,1.333,1.2,1.271,1.271,0,0,1-1.333-1.2" transform="translate(-8.232 -6.188)" fill="#08d6ba"/>
          <path id="Trazado_862811" data-name="Trazado 862811" d="M27.434,434.222a1.341,1.341,0,1,1,1.333,1.2,1.271,1.271,0,0,1-1.333-1.2" transform="translate(-8.232 -145.486)" fill="#08d6ba"/>
          <path id="Trazado_862812" data-name="Trazado 862812" d="M102.348,127.809a1.341,1.341,0,1,1,1.333,1.2,1.271,1.271,0,0,1-1.333-1.2" transform="translate(-30.709 -42.538)" fill="#08d6ba"/>
          <path id="Trazado_862813" data-name="Trazado 862813" d="M436.147,459.028a1.341,1.341,0,1,1,1.333,1.2,1.271,1.271,0,0,1-1.333-1.2" transform="translate(-130.865 -153.82)" fill="#08d6ba"/>
          <path id="Trazado_862814" data-name="Trazado 862814" d="M36.53,230.7a1.341,1.341,0,1,1,1.333,1.2,1.271,1.271,0,0,1-1.333-1.2" transform="translate(-10.961 -77.107)" fill="#08d6ba"/>
          <path id="Trazado_862815" data-name="Trazado 862815" d="M447.157,257.22a1.341,1.341,0,1,1,1.333,1.2,1.271,1.271,0,0,1-1.333-1.2" transform="translate(-134.168 -86.017)" fill="#08d6ba"/>
          <path id="Trazado_862816" data-name="Trazado 862816" d="M132.232,146.384c-1.919-.272-3.764,1.894-3.331,3.91a3.189,3.189,0,0,0,3.769,2.343.7.7,0,0,0,.246-1.165,2.88,2.88,0,0,0-3.29-.528,3.324,3.324,0,0,0-1.3,4.11,2.923,2.923,0,0,0,3.823,1.46" transform="translate(-38.426 -49.174)" fill="none" stroke="#ffc75e" stroke-linecap="round" stroke-linejoin="round" stroke-width="2"/>
          <path id="Trazado_862817" data-name="Trazado 862817" d="M64.9,439.9a4.731,4.731,0,0,0-4.394,3.019,6.616,6.616,0,0,0,.54,6.225,3.152,3.152,0,0,0,4.775.572,2.738,2.738,0,0,0,.661-3.04,1.671,1.671,0,0,0-2.042-.6c-1.949.6-3.5,2.915-3.666,5.471s1.055,5.165,2.9,6.179a4.237,4.237,0,0,0,5.5-1.554,2.906,2.906,0,0,0,.5-2.667,1.344,1.344,0,0,0-1.689-.731,3.516,3.516,0,0,0-1.541,1.407,14.122,14.122,0,0,0-2.355,7.209" transform="translate(-17.994 -147.794)" fill="none" stroke="#ffc75e" stroke-linecap="round" stroke-linejoin="round" stroke-width="2"/>
          <path id="Trazado_862818" data-name="Trazado 862818" d="M39.863,286.6a3.524,3.524,0,0,0-1.327,2.811,2.3,2.3,0,0,0,1.887,1.75,5.265,5.265,0,0,0,2.638-.358c.5-.169,1.088-.515,1.027-1.058a.762.762,0,0,0-.573-.617,1.3,1.3,0,0,0-.852.117,2.668,2.668,0,0,0-1.45,2.555,2.979,2.979,0,0,0,1.676,2.452,3.146,3.146,0,0,0,2.913-.188,2.09,2.09,0,0,0,.87-.909,1.222,1.222,0,0,0-.1-1.232,1.109,1.109,0,0,0-1.254-.279,2.184,2.184,0,0,0-1.007.928,4.354,4.354,0,0,0,.115,4.634,3.925,3.925,0,0,0,4.182,1.547" transform="translate(-11.555 -96.289)" fill="none" stroke="#ffc75e" stroke-linecap="round" stroke-linejoin="round" stroke-width="2"/>
          <path id="Trazado_862819" data-name="Trazado 862819" d="M422.138,363.544a8.731,8.731,0,0,1,4.005,2.207c.982,1.157,1.086,3.122-.2,3.965-1.064.7-2.518.351-3.7-.136a2.8,2.8,0,0,1-1.326-.9.982.982,0,0,1,.226-1.391,1.549,1.549,0,0,1,1.017-.056,5.6,5.6,0,0,1,3.521,1.859,3.441,3.441,0,0,1-.83,4.77,3.873,3.873,0,0,1-5.02-.778c-.278-.367-.469-.9-.169-1.248s.9-.279,1.366-.132a6.035,6.035,0,0,1,2.532,1.432,3.035,3.035,0,0,1,.914,2.59,2.246,2.246,0,0,1-1.991,1.818" transform="translate(-125.871 -122.142)" fill="none" stroke="#f04b6c" stroke-linecap="round" stroke-linejoin="round" stroke-width="2"/>
          <path id="Trazado_862820" data-name="Trazado 862820" d="M448.385,200.221c1.919.272,3.764-1.894,3.331-3.91a3.189,3.189,0,0,0-3.769-2.343.7.7,0,0,0-.246,1.165,2.879,2.879,0,0,0,3.29.528,3.324,3.324,0,0,0,1.3-4.11,2.923,2.923,0,0,0-3.823-1.46" transform="translate(-134.267 -63.779)" fill="none" stroke="#f04b6c" stroke-linecap="round" stroke-linejoin="round" stroke-width="2"/>
          <path id="Trazado_862821" data-name="Trazado 862821" d="M63.808,179.067a5.1,5.1,0,0,0,4.786-2.676,6.458,6.458,0,0,0,.244-6.191,3.141,3.141,0,0,0-4.716-.9,2.8,2.8,0,0,0-1.046,2.958,1.623,1.623,0,0,0,1.972.736c2.031-.461,3.874-2.636,4.366-5.15s-.405-5.179-2.124-6.312a4.439,4.439,0,0,0-5.712,1.151,2.964,2.964,0,0,0-.841,2.6,1.29,1.29,0,0,0,1.6.841,3.831,3.831,0,0,0,1.723-1.283,14.721,14.721,0,0,0,3.272-6.962" transform="translate(-18.202 -53.044)" fill="none" stroke="#f04b6c" stroke-linecap="round" stroke-linejoin="round" stroke-width="2"/>
        </g>
      </g>
    </g>
    <g id="Grupo_1088382" data-name="Grupo 1088382" transform="translate(-2737 -8416.174)">
      <g id="Grupo_1088381" data-name="Grupo 1088381" clip-path="url(#clip-path-3)">
        <g id="Grupo_1088380" data-name="Grupo 1088380">
          <g id="Grupo_1088558" data-name="Grupo 1088558">
            <path id="Trazado_862822" data-name="Trazado 862822" d="M368.42,254.544l1.439,8.634s21.539,23.192,27.388,51.375c5.564,26.808-3.035,89.778-3.035,89.778H336.29l.952-58.172-13.555,58.172h-63.01s9.172-110.695,50.184-150.986l4.317-9.354Z" transform="translate(-52.433 -49.077)" fill="#ac8e4a"/>
            <path id="Trazado_862823" data-name="Trazado 862823" d="M307.777,269.5c3.591-5.955,2.532-18.622,7.348-23.353l9.527-2.155,53.242,10.552,1.439,8.634s.241.2.677.574c-22.862,8.845-47.855,7.344-72.233,5.747" transform="translate(-61.907 -49.077)" fill="#997d44"/>
            <path id="Trazado_862824" data-name="Trazado 862824" d="M355.945,388.434l.415-17.763c12.131-2.87,23.7-7.989,34.682-14.271a97.066,97.066,0,0,1-35.1,32.034" transform="translate(-71.595 -71.687)" fill="#997d44"/>
            <path id="Trazado_862825" data-name="Trazado 862825" d="M379.08,36.692S401.8,32.5,412.287,48.227s-8.389,28.664-3.495,39.5,9.438,20.274.7,31.809,20.274,12.934,14.681,41.946-47.888,34.256-56.976,7.34S379.08,36.692,379.08,36.692" transform="translate(-73.399 -7.278)" fill="#1c0a17"/>
            <path id="Trazado_862826" data-name="Trazado 862826" d="M384.656,34.982c11.242-1.494,23.973.528,31.9,9.258A20.184,20.184,0,0,1,420.774,65.8c-1.225,3.588-2.969,6.9-4.391,10.263-1.9,4.326-2.864,8.485-.436,12.8,1.08,2.492,2.266,5.206,3.11,7.782,2.923,8.171,2.008,15.77-3.366,22.68-2.271,2.882-2.2,5.521.249,8.344,2.377,2.8,5.33,5.138,7.754,7.929a27.926,27.926,0,0,1,5.733,9.516c3.348,10.543.587,23.111-7.138,31.075a31.6,31.6,0,0,0,6.833-30.968c-1.818-5.282-5.646-9.5-9.7-13.21-4.947-4.6-8.751-7.906-3.547-14.264,6.739-9.59,3.58-18.752-1.026-28.389-4.772-8.051,2.088-16.447,4.347-24.081a18.33,18.33,0,0,0-4.164-19.634c-4.888-5.3-12.081-7.778-19.16-8.322a44.158,44.158,0,0,0-10.777.431,1.4,1.4,0,0,1-.435-2.769" transform="translate(-77.132 -6.946)" fill="#1c0a17"/>
            <path id="Trazado_862827" data-name="Trazado 862827" d="M421.719,202.156s12.746,51.223,3.607,58.437-16.593-6.974-22.846-42.566,19.239-15.872,19.239-15.872" transform="translate(-80.757 -39.566)" fill="#c96e59"/>
            <path id="Trazado_862828" data-name="Trazado 862828" d="M394.065,151.662s19.8-3.466,28.717,26.736l4.951,15.348s-14.853,11.883-33.173,10.4c0,0,.99-37.629-.5-52.482" transform="translate(-79.263 -30.481)" fill="#ff5856"/>
            <path id="Trazado_862829" data-name="Trazado 862829" d="M401.118,191.331c7.159-3.5,14.371-7.269,19.848-13.1.673,1.687,1.312,3.5,1.9,5.465l5.042,15.32s-14.783,11.97-33.11,10.593c0,0,.135-6.634.176-15.428q3.11-1.371,6.142-2.85" transform="translate(-79.411 -35.85)" fill="#ce4646"/>
            <path id="Trazado_862830" data-name="Trazado 862830" d="M358.653,122.082s-4.228,19.786,3.69,22.132,28.236-4.407,27.491,17.155S353.4,195.127,353.4,195.127s-50.616-12.62-51.688-31.056,20.214-16.932,28.177-20.414,5.184-39.552,5.184-39.552Z" transform="translate(-60.678 -20.94)" fill="#e5906e"/>
            <path id="Trazado_862831" data-name="Trazado 862831" d="M367.146,137.322c-.653-.244-1.3-.5-1.928-.795a27.092,27.092,0,0,1-10.733-9.183c-4.024-5.852-5.234-12.626-6.083-19.487l19.651,14.979s-1.716,8.046-.907,14.486" transform="translate(-70.078 -21.695)" fill="#c96e59"/>
            <path id="Trazado_862832" data-name="Trazado 862832" d="M370.382,43.186s35.2,4.168,23.571,48.669C382,137.6,344.975,114.764,340.8,87.909c-4.611-29.642,7.761-45.3,29.586-44.722" transform="translate(-68.355 -8.683)" fill="#e5906e"/>
            <path id="Trazado_862833" data-name="Trazado 862833" d="M334.84,130.971l25.965,4.383s-2.7,10.117,4.72,11.465,29.337-2.7,28.326,21.244,13.825,38.442-4.047,53.616l-2.7,12.139s-42.489,11.8-78.907-6.744c0,0-11.128-54.29-2.36-65.081s27.651-7.418,29-31.023" transform="translate(-60.84 -26.344)" fill="#ff5856"/>
            <path id="Trazado_862834" data-name="Trazado 862834" d="M392.644,219.013c-12.764-.8-26.021-6.7-37.553-11.818-13.708-6.079-26.74-13.28-37.508-23.873-4.076-4.01-8.656-8.43-11.814-13.4-8.632,11,2.432,64.985,2.432,64.985,36.418,18.546,78.907,6.744,78.907,6.744l2.7-12.139c4.42-3.753,6.834-7.465,7.988-11.289a10.974,10.974,0,0,1-5.149.787" transform="translate(-60.84 -34.179)" fill="#ce4646"/>
            <path id="Trazado_862835" data-name="Trazado 862835" d="M324.343,189.75s-44.531,161.035-48.09,157.378c-1.788-1.837,2.324-16.086,2.324-16.086s-3.545,8.3-4.453-1.03c0,0-2,4.927-4.006-1.193,0,0-2,3.535-2.409-4.448s30.544-148.1,30.544-148.1Z" transform="translate(-53.847 -35.455)" fill="#e5906e"/>
            <path id="Trazado_862836" data-name="Trazado 862836" d="M288.608,341.183s12.814,16.861-4.721,21.244,4.721-21.244,4.721-21.244" transform="translate(-55.747 -68.626)" fill="#e5906e"/>
            <path id="Trazado_862837" data-name="Trazado 862837" d="M325.836,207.516c3.017-10.843,4.915-17.766,4.915-17.766l-26.09-13.483s-2.08,9.691-5.1,23.967c7.246,5.012,16.675,6.89,26.278,7.282" transform="translate(-60.254 -35.455)" fill="#c96e59"/>
            <path id="Trazado_862838" data-name="Trazado 862838" d="M295.23,189.646s7.756-33.721,20.57-37.093,24.279,7.081,15.174,45.523c0,0-16.524.337-35.744-8.43" transform="translate(-59.383 -30.566)" fill="#ff5856"/>
            <path id="Trazado_862839" data-name="Trazado 862839" d="M406.962,263.224s13.8-1.618,9.756-14.32-89.006-75.849-52.791-42.31c0,0-29.877-24.908-3.326,3.125,0,0-26.392-24.57-3.4,1.641,0,0-22.559-22.019,4.171,9.97s29.737,42.119,45.585,41.894" transform="translate(-69.956 -39.503)" fill="#e5906e"/>
            <path id="Trazado_862840" data-name="Trazado 862840" d="M378.52,210.435s-8.439-24.248-4.909-4.232,4.909,4.232,4.909,4.232" transform="translate(-74.975 -39.884)" fill="#e5906e"/>
            <path id="Trazado_862841" data-name="Trazado 862841" d="M370.292,45.016s.35,14.681-20.274,21.322-11.535,12.584-9.787,21.323S328.7,99.9,331.492,112.13s2.446,26.915-13.283,26.915-20.623,2.447-24.468,21.322c0,0-30.761-27.614-11.186-43.694s10.137-13.982,7.341-31.459,20.273-13.982,22.021-33.557S340.93,20.9,356.66,27.189s13.633,17.827,13.633,17.827" transform="translate(-55.523 -5.116)" fill="#331128"/>
            <path id="Trazado_862842" data-name="Trazado 862842" d="M366.489,30.806a28.985,28.985,0,0,1,9.448,5.5c3.558,3.338,5.957,8.1,5.469,13.1A19.51,19.51,0,0,1,379.5,57.18c-3.422,7.413-10.778,12.244-18.2,14.84-3.542,1.305-7.115,2.575-10.081,4.857-8.4,6.505,7.112,13.791-1.446,24.416-3.809,4.95-7.564,9.329-5.848,15.94,2.981,11.858,2.791,27.422-13.176,27.414,9.13-.343,13.69-5.97,13.707-14.847a43.819,43.819,0,0,0-1.547-11.317,14.445,14.445,0,0,1,1.042-11.734c2.424-4.762,8.287-8.981,6.251-14.718-.919-3.151-2.786-5.8-3.528-9.089-1.5-7.77,8.266-10.813,13.854-13.053a34.418,34.418,0,0,0,12.639-7.735c3.348-3.477,5.849-8.1,5.9-12.982a13.875,13.875,0,0,0-3.679-10.223,23.025,23.025,0,0,0-6.931-5.045l-2.691-1.149-.083-.035a1.038,1.038,0,0,1,.8-1.914" transform="translate(-66.528 -6.18)" fill="#331128"/>
            <path id="Trazado_862843" data-name="Trazado 862843" d="M404.842,87.875c-4.243-3.076-7.8-3.234-12.51-1.249a17.049,17.049,0,0,1-2,.77c3.275-5.933,12.222-6.495,14.514.479" transform="translate(-78.511 -16.654)" fill="#1c0a17"/>
            <path id="Trazado_862844" data-name="Trazado 862844" d="M374.351,84.388c-4.243-3.076-7.8-3.233-12.51-1.249a17.092,17.092,0,0,1-2,.77c3.274-5.933,12.221-6.495,14.513.479" transform="translate(-72.378 -15.952)" fill="#1c0a17"/>
            <path id="Trazado_862845" data-name="Trazado 862845" d="M386.979,94.773c.38,5.042-.623,10.519,2.516,14.74a34.517,34.517,0,0,1-6.2,1.035,31.4,31.4,0,0,1,4.586-2.373l-.379,1.341a7.954,7.954,0,0,1-1.882-3.6,17.159,17.159,0,0,1,1.357-11.139" transform="translate(-77.097 -19.063)" fill="#933d37"/>
            <path id="Trazado_862846" data-name="Trazado 862846" d="M382.371,119.661c-4.016,3.5-10.872,2.05-13.835-2.149,4.529,1.528,8.994,2.679,13.835,2.149" transform="translate(-74.128 -23.637)" fill="#933d37"/>
            <path id="Trazado_862847" data-name="Trazado 862847" d="M364.31,94.135c0,1.931-.548,3.5-1.223,3.5s-1.224-1.565-1.224-3.5.548-3.5,1.224-3.5,1.223,1.565,1.223,3.5" transform="translate(-72.786 -18.231)" fill="#1c0a17"/>
            <path id="Trazado_862848" data-name="Trazado 862848" d="M394.064,95.885c0,1.931-.548,3.5-1.223,3.5s-1.224-1.565-1.224-3.5.548-3.5,1.224-3.5,1.223,1.565,1.223,3.5" transform="translate(-78.77 -18.583)" fill="#1c0a17"/>
            <path id="Trazado_862849" data-name="Trazado 862849" d="M183.166,327.07s5.4,64.9-4.046,101.206H143.375l-2.024-49.613-7.419.637-15.511,48.339H75.259l18.883-96.747Z" transform="translate(-15.138 -65.787)" fill="#331128"/>
            <path id="Trazado_862850" data-name="Trazado 862850" d="M117.876,348.492a162.776,162.776,0,0,1-21.834-5.916l2.281-11.685,89.023-3.822s.649,7.8,1.1,19.512c-23.176,5.122-47.14,6.49-70.572,1.91" transform="translate(-19.318 -65.787)" fill="#1c0a17"/>
            <path id="Trazado_862851" data-name="Trazado 862851" d="M158.861,408.649l-.745-18.263c10.057-1.343,20.055-3.077,29.971-5.272-8.127,9.73-18.412,16.989-29.226,23.535" transform="translate(-31.804 -77.462)" fill="#1c0a17"/>
            <path id="Trazado_862876" data-name="Trazado 862876" d="M66.153,341.977s14.048,18.484-5.176,23.29,5.176-23.29,5.176-23.29" transform="translate(-10.78 -68.786)" fill="#ff9695"/>
            <path id="Trazado_862877" data-name="Trazado 862877" d="M274.325,383c-.888-.776-1.815-1.515-2.759-2.222a13.913,13.913,0,0,0-4.62-2.651c-1.7-.421-3.652.708-2.861,2.64.729,1.778,3.009,2.532,4.7,2.988a25.342,25.342,0,0,0,4.644.806,1.538,1.538,0,0,0,1.485-.682c.23-.5-.2-.866-.68-.9a26.964,26.964,0,0,0-4.08,0c-2,.145-4.541.473-5.994,2.019-1.208,1.285-1.028,3.617.978,3.875,1.978.255,4.041-1.014,5.658-1.991a36.4,36.4,0,0,0,3.78-2.624l-1.148.308,4.58.262a1.543,1.543,0,0,0,1.484-.683c.227-.491-.2-.876-.679-.9l-2.564-.147c-.888-.05-2.228-.344-3.037.119a12.95,12.95,0,0,0-1.154.85c-.824.6-1.666,1.179-2.536,1.714-.435.268-.79.474-1.292.733-.234.121-.471.236-.71.345-.124.056-.248.108-.373.161-.052.022-.1.042-.157.063-.181.07.165-.055-.013.006-.208.072-.419.131-.633.185-.232.058.173-.022-.052.011-.1.015-.382.037-.122.026a2.154,2.154,0,0,1-.226-.019c.218.014-.009-.026.037.01-.043-.034-.077-.008-.158-.153a.748.748,0,0,1-.108-.31,1.482,1.482,0,0,1-.01-.557.845.845,0,0,1,.154-.429c-.006.01.287-.32.2-.246a4.836,4.836,0,0,1,2.244-.844,20.991,20.991,0,0,1,3.588-.252h-.041l.236,0,.306.007q.271.008.541.022c.165.008.332.017.5.03l.805-1.587a24.324,24.324,0,0,1-2.973-.425c-1.488-.305-3.41-.729-4.5-1.847a1.709,1.709,0,0,1-.5-1.456c0,.2-.056.04.01.012.117-.049-.219.218-.186.192.127-.1-.115.064-.12.066-.378.183.058.014-.336.094.053-.011.246-.045-.1,0a.6.6,0,0,1,.207.024c-.244-.089.116.037.2.066a15.259,15.259,0,0,1,3.916,2.393c.927.7,1.837,1.422,2.711,2.185.719.629,2.729-.431,1.764-1.274" transform="translate(-52.982 -76.04)" fill="#ce4646"/>
            <path id="Trazado_862878" data-name="Trazado 862878" d="M422.281,139.707c-.26.558-.544,1.118-.864,1.683.438.177.88.345,1.313.533l.018-.029c.3-.55.621-1.1.918-1.654-.458-.188-.922-.359-1.384-.534" transform="translate(-84.764 -28.101)" fill="#ce4646"/>
            <path id="Trazado_862879" data-name="Trazado 862879" d="M428.684,175.357c-5.361-12.876-14.129-24.229-26.2-31.406a52.648,52.648,0,0,0-6.3-3.173c-.311.57-.645,1.127-.966,1.689a57.069,57.069,0,0,1,19.276,14.125c10.817,12.138,16.866,28.914,18.724,44.888a61.448,61.448,0,0,1-16.513,49.506c-11.812,12.478-28.572,19.76-45.537,21.38-12.737,1.216-23.229,5.026-32.176,14.484-16.474,17.415-23.267,45.661-50.889,48.44a46.451,46.451,0,0,1-6.482.148q-.273.762-.532,1.464c11.445.272,22.107-2.891,30.827-10.711,8.617-7.727,14.114-18.344,20.463-27.85,7.079-10.6,15.751-19.87,28.491-23.156,7.452-1.922,15.277-1.669,22.788-3.581a77.815,77.815,0,0,0,21.107-9,65.19,65.19,0,0,0,28.461-35.813c5.351-16.921,2.141-35.374-4.544-51.43" transform="translate(-56.539 -28.316)" fill="#ce4646"/>
            <path id="Trazado_862880" data-name="Trazado 862880" d="M190.107,318.02c-19.689-8.586-38.54-12.978-59.956-14.73-10.308-.844-20.668-.871-31-.686-10.631.189-21.289,1.118-31.9.185-15.956-1.4-31.12-7.487-42.393-19.05C13.375,271.968,7.31,255.909,3.911,240.1c-3.455-16.073-1.768-32.961,7.639-46.739,9.112-13.344,24.228-21.342,39.321-25.965,17.75-5.437,36.623-5.558,54.735-9.391a208.4,208.4,0,0,0,53.063-18.9,192.879,192.879,0,0,0,34.988-23.6c7.447,6.9,15.967,12.549,25.76,15.706.459.148.922.27,1.383.405a16.132,16.132,0,0,1,1.024-1.649,59.476,59.476,0,0,1-15.982-7.356,75.03,75.03,0,0,1-10.574-8.5,207.44,207.44,0,0,0,15.467-14.856c5.464-5.794,11.084-11.867,15.2-18.722,4.363-7.275,8.115-20.587-.26-26.7-9.292-6.788-21.836.743-29.613,6.882-3.532-5.256-8.492-9.284-15.162-8.907-5.643.32-10.261,4.538-12.826,9.279-8.666,16.013,6.76,33.277,16.409,44.739a110.111,110.111,0,0,0,8,8.565q-3.311,2.823-6.736,5.51c-31.479,24.626-69.888,37.244-109.333,41.163-28.4,2.822-62.341,14.308-73.033,43.7-5.761,15.838-3.41,32.691,1.56,48.408C9.416,267.353,17,280.571,28.621,290.044c7.969,6.5,17.648,10.521,27.633,12.691,13.184,2.867,26.587,1.717,39.948,1.389,15.182-.372,30.393-.1,45.454,1.992A184.82,184.82,0,0,1,190,320.194c.782.341,1.153-1.718.105-2.174m-2.18-211.566c-6.314-7.164-12.918-15.273-17.192-23.843-3.854-7.724-3.956-17.6,1.559-24.55,5.995-7.556,14.944-4.979,20.327,1.673a28.466,28.466,0,0,1,1.933,2.842c.318.508,1.419.251,1.779-.044,6.706-5.5,17.525-13.218,26.479-8.224,6.471,3.608,6.066,12.513,4.315,18.587-2.916,10.12-11.263,18.346-18.253,25.845A197.129,197.129,0,0,1,194.1,113c-2.141-2.1-4.191-4.3-6.169-6.547" transform="translate(0 -10.291)" fill="#ce4646"/>
            <path id="Trazado_862881" data-name="Trazado 862881" d="M237.67,382.745a32.968,32.968,0,0,1,1.665-3.513,23.871,23.871,0,0,1,1.82-2.9,8.341,8.341,0,0,1,1.924-1.937c.053-.034.111-.065.167-.093-.012.006-.161.08-.047.026.087-.042.214-.145.145-.062,0,0-.143.025-.034.014.164-.017-.137-.048.093,0,.109.024-.029,0-.042,0a1.557,1.557,0,0,1,.168.033c-.1-.034.1.039.126.051a1.064,1.064,0,0,1,.364.222c.4.379.323.884.051,1.431-.77,1.547-2.5,2.868-3.873,3.951a40.051,40.051,0,0,1-3.446,2.48l1.607.483a30.847,30.847,0,0,1,2.774-2.1c.4-.271.812-.533,1.229-.781s.907-.518,1.233-.669c.208-.1.417-.188.629-.272.1-.04.2-.079.308-.114-.256.087.072-.019.1-.028.1-.025.195-.052.293-.075-.286.067.02,0,.069-.01s.349-.044.073-.016c.041,0,.4.006.166-.008a.785.785,0,0,1,.6.268,1.468,1.468,0,0,1,.419.84,1.142,1.142,0,0,1-.618,1.127c.153-.113-.241.143-.314.185-.027.016-.306.157-.082.048-.089.044-.181.085-.272.125-.192.084-.387.159-.583.233-.025.01-.363.125-.115.043-.142.047-.285.091-.428.134a21.009,21.009,0,0,1-2.627.6,37.855,37.855,0,0,1-3.864.479c-.248.017-1.794.572-1.221,1.043a15.193,15.193,0,0,0,12.017,3.306c.4-.075,1.208-.257,1.3-.753s-.679-.51-.973-.455a13.082,13.082,0,0,1-10.225-2.974l-1.22,1.042a37.862,37.862,0,0,0,3.864-.479,15.957,15.957,0,0,0,6.285-2.048,2.653,2.653,0,0,0,1.368-1.909,1.985,1.985,0,0,0-1.245-1.885c-2.079-.834-4.706.607-6.442,1.652a32.206,32.206,0,0,0-4.314,3.112c-.312.268-.3.6.1.737a1.957,1.957,0,0,0,1.505-.254c1.233-.794,2.429-1.658,3.587-2.557,1.66-1.292,3.633-2.791,4.568-4.731a1.74,1.74,0,0,0-.079-1.986,3.119,3.119,0,0,0-2.914-.67c-2.477.51-4.132,2.79-5.368,4.823a34.374,34.374,0,0,0-2.545,5.088c-.189.475.741.484.974.455a1.592,1.592,0,0,0,1.3-.754" transform="translate(-47.343 -75.034)" fill="#ce4646"/>
            <g id="Grupo_1088559" data-name="Grupo 1088559" transform="translate(0 14)">
              <path id="Trazado_862852" data-name="Trazado 862852" d="M118.224,89.3s4.155,41.764.2,42.185-27.512,2.395-25.007,16.568,81.168,10.379,84.409.846-30.487-16.02-30.487-16.02l2.193-21.761Z" transform="translate(-18.752 -17.962)" fill="#ff9695"/>
              <g id="Grupo_1088369" data-name="Grupo 1088369" transform="translate(103.616 78.351)" opacity="0.5">
                <g id="Grupo_1088368" data-name="Grupo 1088368">
                  <g id="Grupo_1088367" data-name="Grupo 1088367" clip-path="url(#clip-path-4)">
                    <path id="Trazado_862853" data-name="Trazado 862853" d="M129.705,98.078l27.162,14.806-1.813,17.989c-24.074-1.242-25.349-32.795-25.349-32.795" transform="translate(-129.705 -98.078)" fill="#ba5858"/>
                  </g>
                </g>
              </g>
              <path id="Trazado_862854" data-name="Trazado 862854" d="M153.722,39.678s-31.5-7.083-29.1,29.374,19.014,50.693,47.312,40.341c18.471-6.758.038-70.99-4.186-71.633-9.233-1.406-14.028,1.918-14.028,1.918" transform="translate(-25.041 -7.525)" fill="#ff9695"/>
              <path id="Trazado_862855" data-name="Trazado 862855" d="M121.261,74.248s-3.731-10.689-8.95-4.264c-6.025,7.417,1.077,25.347,10.23,21.6,1.872-1.281-1.281-17.338-1.281-17.338" transform="translate(-22.141 -13.663)" fill="#ff9695"/>
              <path id="Trazado_862856" data-name="Trazado 862856" d="M106.421,19.537C107.352,3.256,124.562,0,143.168,5.582s29.3-4.187,29.3-4.187c-1.861,7.443-10.233,10.7-10.233,10.7C171.077,12.094,176.193,0,176.193,0c6.977,13.954-1.861,21.4-1.861,21.4l6.512-1.861c-6.976,22.326-50.7,14.419-50.7,14.419.833,7.5-7.289,14.625-8.99,16.027.269,2.027,3.873,22.115,3.873,22.115l-.094.022c2.128,9.637,4.951,18.227,8.239,18.109,5.323-.19-1.331-12.516,7.723-10.918s14.379.8,14.379.8,10.918-5.059,11.717-.532,1.864,12.249,7.19,7.19c0,0,6.124,15.178-7.989,19.7S129.977,111,122.787,86.5a204.2,204.2,0,0,1-6.051-28.53c-7.8-9.815-9.927,7.494-9.927,7.494S94.327,55.818,94.793,36.747s11.628-17.21,11.628-17.21m37.669,78.68c7.989.533,6.391-5.858,6.391-5.858l3.728.266s1.341,4.27,5.059,3.994c7.19-.533,4.793-13.581,4.793-13.581s-9.053,6.125-23.433,2.663c0,0-4.527,11.983,3.461,12.516" transform="translate(-19.064)" fill="#993d3d"/>
              <g id="Grupo_1088372" data-name="Grupo 1088372" transform="translate(75.716 3.72)" opacity="0.5">
                <g id="Grupo_1088371" data-name="Grupo 1088371">
                  <g id="Grupo_1088370" data-name="Grupo 1088370" clip-path="url(#clip-path-5)">
                    <path id="Trazado_862857" data-name="Trazado 862857" d="M94.793,37.683c.464-19.071,11.629-17.211,11.629-17.211.518-9.094,6.122-14.121,14.208-15.817a19.73,19.73,0,0,0,1.67,13.075,30.188,30.188,0,0,0,21.411,15.388,77.2,77.2,0,0,0,22.153.632c-15.172,4.857-35.72,1.142-35.72,1.142.832,7.5-7.29,14.625-8.99,16.027.269,2.026,3.873,22.115,3.873,22.115l-.1.021c2.128,9.637,4.951,18.228,8.24,18.11,4.628-.165.208-9.5,4.921-10.884-1.356,5.566-.742,12.229.78,17.4,1.634,5.563,5.751,8.088,11.358,8.569,6.916.593,14.816.3,21.533-1.965a14.541,14.541,0,0,1-5.572,3.121c-14.114,4.527-36.215,4.527-43.405-19.971a204.24,204.24,0,0,1-6.051-28.53c-7.8-9.815-9.925,7.494-9.925,7.494S94.328,56.754,94.793,37.683" transform="translate(-94.78 -4.656)" fill="#843535"/>
                  </g>
                </g>
              </g>
              <path id="Trazado_862858" data-name="Trazado 862858" d="M167.506,68.456c3.251,7.288,5.979,14.653,9.54,21.769l.228.464c-1.547,1.007-3.116,1.977-4.748,2.866,1.2-1.218,2.46-2.368,3.743-3.481l-.137.7a56.268,56.268,0,0,1-8.626-22.317" transform="translate(-33.692 -13.77)" fill="#dd7272"/>
              <path id="Trazado_862859" data-name="Trazado 862859" d="M174.6,106.755c-5.432,5.874-15.116,5.621-21.756,2.017.973.074,1.9.238,2.836.365,6.384.84,13.085.7,18.92-2.382" transform="translate(-30.742 -21.473)" fill="#dd7272"/>
              <path id="Trazado_862860" data-name="Trazado 862860" d="M118.714,90.551c-3-1.75-.841-4.079,1.446-5.1l-.374.576a59.63,59.63,0,0,0-1.64-9.577c-.415-1.285-.827-2.865-1.98-3.449-3.013-.47-2.5,6.889-2.472,8.942-.821-2.842-2.042-7.893.685-10.111a2.867,2.867,0,0,1,3.978.846c2.5,3.981,2.529,8.783,2.631,13.308l-.006.442-.367.135c-2.052.649-4.031,1.945-1.9,3.986" transform="translate(-22.668 -14.352)" fill="#dd7272"/>
              <path id="Trazado_862861" data-name="Trazado 862861" d="M156.289,63.621c-3.8-.475-6.888-.761-10.351.179-2.845.668-5.22,2.024-8.055,2.929,1.824-8.631,14.272-11.306,18.406-3.108" transform="translate(-27.734 -11.803)" fill="#993d3d"/>
              <path id="Trazado_862862" data-name="Trazado 862862" d="M184.72,59.132c-2.888-.472-4.987-.726-7.47-.058-2.413.679-4.816,2.261-7.35,3.166.069-5.622,6.512-10.03,11.635-7.143a6.268,6.268,0,0,1,3.185,4.036" transform="translate(-34.174 -10.898)" fill="#993d3d"/>
              <path id="Trazado_862863" data-name="Trazado 862863" d="M153.69,79.656c-4.851-4.228-7.151-5.3-11.184.533a8.113,8.113,0,0,1,1.471-3.666c3.129-4.34,8.38-.8,9.713,3.133" transform="translate(-28.664 -14.991)" fill="#1c0a17"/>
              <path id="Trazado_862864" data-name="Trazado 862864" d="M182.358,75.335c-4.531-4.42-6.169-5.265-9.852.533a8.342,8.342,0,0,1,1.15-3.5c2.84-4.569,7.654-.872,8.7,2.962" transform="translate(-34.698 -14.132)" fill="#1c0a17"/>
              <path id="Trazado_862865" data-name="Trazado 862865" d="M200.6,195.5s4.71,84,22.766,75.362S221.8,201.78,221.8,201.78Z" transform="translate(-40.349 -39.323)" fill="#ff9695"/>
              <g id="Grupo_1088375" data-name="Grupo 1088375" transform="translate(160.251 156.177)" opacity="0.5">
                <g id="Grupo_1088374" data-name="Grupo 1088374">
                  <g id="Grupo_1088373" data-name="Grupo 1088373" clip-path="url(#clip-path-6)">
                    <path id="Trazado_862866" data-name="Trazado 862866" d="M200.6,195.5s4.71,84,22.766,75.362S221.8,201.78,221.8,201.78Z" transform="translate(-200.6 -195.5)" fill="#ba5858"/>
                  </g>
                </g>
              </g>
              <path id="Trazado_862867" data-name="Trazado 862867" d="M175.721,143.873s30.135,3.643,35.183,12.589c8.636,15.309,14.13,45.139,14.13,45.139s-17.615,9.039-37.173,9.039Z" transform="translate(-35.345 -28.938)" fill="#86caf3"/>
              <path id="Trazado_862868" data-name="Trazado 862868" d="M222.165,197.455c2.762,7.815,4.883,13.941,4.883,13.941s-21.581,7.419-41.14,7.419l-6.236-34.3a430.76,430.76,0,0,1,42.493,12.941" transform="translate(-36.139 -37.113)" fill="#78b9dd"/>
              <path id="Trazado_862869" data-name="Trazado 862869" d="M90.446,168.147S72.962,144.4,117.422,140.5c0,0,6.744,16.186,22.93,17.535,20.932,1.744,17.534-14.837,17.534-14.837l29,8.767s4.721,68.116,6.07,151.744c0,0-47.884,14.837-101.837,2.7Z" transform="translate(-17.511 -28.26)" fill="#86caf3"/>
              <path id="Trazado_862870" data-name="Trazado 862870" d="M107.191,200.261c9.422,15.072,40.821,81.642,79.834,105.409a44.644,44.644,0,0,0,6.719,2.976q.041,2.295.078,4.6s-47.884,14.837-101.837,2.7l-.624-128c5.435,13.561,8.112-.035,15.829,12.31" transform="translate(-18.377 -37.805)" fill="#78b9dd"/>
              <path id="Trazado_862871" data-name="Trazado 862871" d="M232.766,262.8s-15.252,5.7-17.832-9.7,51.815-139.023,36.242-83.227c0,0,17.808-41.949,5.14,1.476,0,0,14.357-39.733,4.416-.106,0,0,13.7-37.765,2.964,9.879S249.4,254.552,232.766,262.8" transform="translate(-43.214 -30.504)" fill="#ff9695"/>
              <path id="Trazado_862872" data-name="Trazado 862872" d="M248.081,185.921s-5.18-36.906,3.533-8.719-3.533,8.719-3.533,8.719" transform="translate(-49.592 -33.509)" fill="#ff9695"/>
              <path id="Trazado_862873" data-name="Trazado 862873" d="M102.425,187.305S56.511,354.786,52.609,350.776c-1.96-2.015,2.548-17.636,2.548-17.636s-3.887,9.1-4.882-1.127c0,0-2.188,5.4-4.392-1.309,0,0-2.19,3.876-2.64-4.876s30.58-153.3,30.58-153.3Z" transform="translate(-8.697 -34.702)" fill="#ff9695"/>
              <g id="Grupo_1088378" data-name="Grupo 1088378" transform="translate(56.679 137.821)" opacity="0.5">
                <g id="Grupo_1088377" data-name="Grupo 1088377">
                  <g id="Grupo_1088376" data-name="Grupo 1088376" clip-path="url(#clip-path-7)">
                    <path id="Trazado_862874" data-name="Trazado 862874" d="M70.95,212.31c4.787-22.736,8.446-39.786,8.446-39.786L108,187.305s-4.017,14.654-9.775,35.183c-9.466-2.356-18.681-5.426-27.275-10.177" transform="translate(-70.95 -172.523)" fill="#ba5858"/>
                  </g>
                </g>
              </g>
              <path id="Trazado_862875" data-name="Trazado 862875" d="M66.816,201.518s6.07-53.279,29.674-55.977c14.432-1.649,19.494,23.075,9.512,65.219,0,0-18.115.37-39.186-9.242" transform="translate(-13.439 -29.259)" fill="#86caf3"/>
              <rect id="Rectángulo_397259" data-name="Rectángulo 397259" width="379.379" height="362.488" fill="none"/>
            </g>
          </g>
        </g>
      </g>
    </g>
  </g>
</svg>
