<svg xmlns="http://www.w3.org/2000/svg" xmlns:xlink="http://www.w3.org/1999/xlink" width="349" height="227.742" viewBox="0 0 349 227.742">
  <defs>
    <filter id="Rectángulo_397343" x="-53" y="-53" width="469" height="347.742" filterUnits="userSpaceOnUse">
      <feOffset dx="7" dy="7" input="SourceAlpha"/>
      <feGaussianBlur stdDeviation="20" result="blur"/>
      <feFlood flood-opacity="0.149"/>
      <feComposite operator="in" in2="blur"/>
      <feComposite in="SourceGraphic"/>
    </filter>
    <clipPath id="clip-path">
      <g transform="matrix(1, 0, 0, 1, 0, 0)" filter="url(#Rectángulo_397343)">
        <path id="Rectángulo_397343-2" data-name="Rectángulo 397343" d="M24,0H325a24,24,0,0,1,24,24V227.742a0,0,0,0,1,0,0H0a0,0,0,0,1,0,0V24A24,24,0,0,1,24,0Z" transform="translate(-3614 -7857)" fill="#12263f" opacity="0.48"/>
      </g>
    </clipPath>
    <clipPath id="clip-path-2">
      <rect id="Rectángulo_397326" data-name="Rectángulo 397326" width="350" height="332.034" fill="none"/>
    </clipPath>
    <clipPath id="clip-path-3">
      <rect id="Rectángulo_397355" data-name="Rectángulo 397355" width="123.995" height="228.289" fill="none"/>
    </clipPath>
    <clipPath id="clip-path-5">
      <rect id="Rectángulo_397344" data-name="Rectángulo 397344" width="70.008" height="19.793" fill="none"/>
    </clipPath>
    <clipPath id="clip-path-6">
      <rect id="Rectángulo_397346" data-name="Rectángulo 397346" width="15.779" height="69.888" fill="none"/>
    </clipPath>
    <clipPath id="clip-path-7">
      <rect id="Rectángulo_397370" data-name="Rectángulo 397370" width="120.58" height="230.408" fill="none"/>
    </clipPath>
    <clipPath id="clip-path-9">
      <rect id="Rectángulo_397356" data-name="Rectángulo 397356" width="65.538" height="30.648" fill="none"/>
    </clipPath>
    <clipPath id="clip-path-10">
      <rect id="Rectángulo_397357" data-name="Rectángulo 397357" width="36.546" height="17.285" fill="none"/>
    </clipPath>
    <clipPath id="clip-path-11">
      <rect id="Rectángulo_397358" data-name="Rectángulo 397358" width="70.256" height="23.607" fill="none"/>
    </clipPath>
    <clipPath id="clip-path-12">
      <path id="Trazado_863249" data-name="Trazado 863249" d="M74.744,179.994c.207,14.056,16.348,20.789,16.348,20.789s18.84-4.6,20.629-19.7c1.379-11.639-10.287-17.138-17.467-9.031a9.9,9.9,0,0,0-8.711-5.391c-5.449,0-10.928,4.633-10.8,13.334" transform="translate(-74.742 -166.66)" fill="none"/>
    </clipPath>
    <clipPath id="clip-path-14">
      <rect id="Rectángulo_397368" data-name="Rectángulo 397368" width="11.964" height="51.814" fill="none"/>
    </clipPath>
    <clipPath id="clip-path-15">
      <rect id="Rectángulo_397342" data-name="Rectángulo 397342" width="152.677" height="302.155" fill="none"/>
    </clipPath>
    <clipPath id="clip-path-17">
      <rect id="Rectángulo_397328" data-name="Rectángulo 397328" width="63.611" height="24.421" fill="none"/>
    </clipPath>
    <clipPath id="clip-path-18">
      <path id="Trazado_863199" data-name="Trazado 863199" d="M39.17,182.141c-9.575,8.53-12.335,23.431-12.335,23.431l19.658,3.071,1.866,67.139s11.853,6.154,29.181,6.154,41.738-7.993,41.738-7.993l-3.038-64.1,17.937-5.65s-5.519-14.9-11.037-19.868-28.7-14.045-28.7-14.045l-21.691-1.132s-24,4.464-33.581,12.993" transform="translate(-26.835 -169.148)" fill="none"/>
    </clipPath>
    <clipPath id="clip-path-19">
      <rect id="Rectángulo_397332" data-name="Rectángulo 397332" width="117.001" height="134.219" fill="none"/>
    </clipPath>
    <clipPath id="clip-path-20">
      <rect id="Rectángulo_397331" data-name="Rectángulo 397331" width="72.784" height="82.325" fill="none"/>
    </clipPath>
  </defs>
  <g id="_19" data-name="19" transform="translate(3614 7857)" clip-path="url(#clip-path)">
    <g id="Grupo_1088563" data-name="Grupo 1088563" transform="translate(-3615 -7878)">
      <rect id="Rectángulo_397325" data-name="Rectángulo 397325" width="350" height="332.034" fill="#fff8e6"/>
      <g id="Grupo_1088562" data-name="Grupo 1088562">
        <g id="Grupo_1088561" data-name="Grupo 1088561" clip-path="url(#clip-path-2)">
          <g id="Grupo_1088610" data-name="Grupo 1088610" transform="translate(0 -20)">
            <path id="Trazado_863123" data-name="Trazado 863123" d="M252.834,197.888c17.268-4.447,31.686-17.932,36.358-35.166s-1-37.662-14.745-50.28c-11.374-10.442-27.637-15.8-35.6-28.981C234.4,76.1,233.282,67.348,229.613,59.6c-8.668-18.308-30.706-27.861-50.342-26.617S142.121,44.2,126.635,55.6,96.826,80.129,79.777,89.157c-10.066,5.33-21.43,9.529-28.119,18.712-9.32,12.8-6.5,31.735,1.64,46.317a79.724,79.724,0,0,0,35.94,33.247c19.134,8.772,40.815,9.306,59.936,18.11,11.751,5.41,22.393,13.88,34.855,16.856,20.539,4.906,40.231-6.11,68.806-24.512" transform="translate(5.523 26.111)" fill="#f2e6c7"/>
            <path id="Trazado_863124" data-name="Trazado 863124" d="M270.906,130.709C259,121.349,250.523,108.7,242.866,95.954s-14.78-25.925-24.715-37.167-23.211-20.581-38.5-22.814-32.5,4.074-39.4,17.2C135.17,62.84,135.311,75.788,126,82c-8.447,5.633-20.251,2.535-30.067,5.571-8.858,2.74-15.179,10.216-19.534,18.03-7.946,14.257-11.014,31.211-6.878,46.854S85.4,182.1,101.2,188.053c15.6,5.872,34.02,3.939,48.449,12.066,12.17,6.854,19.452,19.809,31.625,26.657,10.535,5.927,23.725,6.533,35.6,3.675s22.622-8.9,32.609-15.624c12.521-8.434,24.493-18.511,30.8-31.793S292.17,147.425,270.906,130.709Z" transform="translate(-3.113 24.979)" fill="none" stroke="#e8d9b3" stroke-miterlimit="10" stroke-width="1"/>
          </g>
          <path id="Trazado_863125" data-name="Trazado 863125" d="M80.809,219.228c-1.277,1.741-2.62,4.015-1.707,6,.542,1.179,1.724,1.825,2.673,2.661a8.64,8.64,0,0,1,2.719,7.422l4.135-1.282a10.419,10.419,0,0,0-2.768-7.187,14.344,14.344,0,0,1-2.5-2.753,4.573,4.573,0,0,1,.514-5c-1.039.072-2.078.145-3.07.138" transform="translate(-23.644 -73.609)" fill="#ff956b"/>
          <path id="Trazado_863126" data-name="Trazado 863126" d="M370.233,107.884a8.813,8.813,0,0,1,2.926,1.446,3.384,3.384,0,0,1,1.26,3.011,6.156,6.156,0,0,1-1.321,2.4,12.916,12.916,0,0,0-2.329,7.137,2.8,2.8,0,0,1-2.407-2.717,6.062,6.062,0,0,1,1.247-3.792c.708-1.037,1.62-2.261,1.168-3.449-.279-.731-1-1.149-1.432-1.786a1.5,1.5,0,0,1,.888-2.253" transform="translate(-110.522 -36.247)" fill="#ff956b"/>
          <path id="Trazado_863127" data-name="Trazado 863127" d="M475.481,424.479a3.354,3.354,0,0,1,.507,3.593,27.825,27.825,0,0,1-1.886,3.316,4.317,4.317,0,0,0-.461,3.7l-3.259-.179c-1-1.609-.367-3.774.449-5.5s1.824-3.559,1.475-5.454c1.216-.093,2.413-.163,3.174.52" transform="translate(-140.983 -142.421)" fill="#ff956b"/>
          <path id="Trazado_863154" data-name="Trazado 863154" d="M470.661,424.479a3.354,3.354,0,0,0-.507,3.593,27.826,27.826,0,0,0,1.886,3.316,4.317,4.317,0,0,1,.461,3.7l3.259-.179c1-1.609.367-3.774-.449-5.5s-1.824-3.559-1.475-5.454c-1.216-.093-2.413-.163-3.173.52" transform="translate(-350.091 -297.299)" fill="#ff956b"/>
          <path id="Trazado_863153" data-name="Trazado 863153" d="M475.481,424.479a3.354,3.354,0,0,1,.507,3.593,27.825,27.825,0,0,1-1.886,3.316,4.317,4.317,0,0,0-.461,3.7l-3.259-.179c-1-1.609-.367-3.774.449-5.5s1.824-3.559,1.475-5.454c1.216-.093,2.413-.163,3.174.52" transform="translate(-252.983 -333.226)" fill="#ff956b"/>
          <path id="Trazado_863151" data-name="Trazado 863151" d="M475.481,424.479a3.354,3.354,0,0,1,.507,3.593,27.825,27.825,0,0,1-1.886,3.316,4.317,4.317,0,0,0-.461,3.7l-3.259-.179c-1-1.609-.367-3.774.449-5.5s1.824-3.559,1.475-5.454c1.216-.093,2.413-.163,3.174.52" transform="translate(-193.64 -247.421)" fill="#08d6ba"/>
          <path id="Trazado_863150" data-name="Trazado 863150" d="M475.481,424.479a3.354,3.354,0,0,1,.507,3.593,27.825,27.825,0,0,1-1.886,3.316,4.317,4.317,0,0,0-.461,3.7l-3.259-.179c-1-1.609-.367-3.774.449-5.5s1.824-3.559,1.475-5.454c1.216-.093,2.413-.163,3.174.52" transform="translate(-361.983 -220.363)" fill="#ff956b"/>
          <path id="Trazado_863128" data-name="Trazado 863128" d="M16.57,324.034c-1.079.947-1.244,2.66-1,4.129a36.412,36.412,0,0,1,.863,4.372c.062,1.49-.573,3.183-1.908,3.62a6.711,6.711,0,0,0,2.656,1.085,2.623,2.623,0,0,0,2.529-1.086,3.94,3.94,0,0,0-.165-3.59,10.33,10.33,0,0,1-1.279-3.479c-.076-1.252.841-2.687,2-2.479-1.393-1.027-2.786-2.052-3.693-2.571" transform="translate(-4.358 -108.868)" fill="#ff956b"/>
          <path id="Trazado_863129" data-name="Trazado 863129" d="M19.965,196.027,24.79,197.8c-1.7,1.493-1.952,4.155-1.769,6.494s.668,4.756-.018,6.987l-3.421-.922a7.2,7.2,0,0,0,.323-5.276,32.434,32.434,0,0,1-1.267-5.258,4.781,4.781,0,0,1,1.327-3.794" transform="translate(-5.588 -65.861)" fill="#c3e6e8"/>
          <path id="Trazado_863130" data-name="Trazado 863130" d="M48.637,364.187a4.762,4.762,0,0,0-1.931,4.1c.074,1.309.672,2.535.755,3.843s-.7,2.881-1.926,2.793l3.715,2.166a3.684,3.684,0,0,0,1.669-4.756,9.444,9.444,0,0,1-1.272-2.444c-.248-1.6,1.3-2.8,2.645-3.563-1.614-.915-3.229-1.83-3.655-2.138" transform="translate(-13.663 -122.359)" fill="#c3e6e8"/>
          <path id="Trazado_863152" data-name="Trazado 863152" d="M48.637,364.187a4.762,4.762,0,0,0-1.931,4.1c.074,1.309.672,2.535.755,3.843s-.7,2.881-1.926,2.793l3.715,2.166a3.684,3.684,0,0,0,1.669-4.756,9.444,9.444,0,0,1-1.272-2.444c-.248-1.6,1.3-2.8,2.645-3.563-1.614-.915-3.229-1.83-3.655-2.138" transform="translate(158.337 -160.649)" fill="#c3e6e8"/>
          <path id="Trazado_863131" data-name="Trazado 863131" d="M321.1,14.4c-1.455.392-1.9,2.5-1.34,3.991s1.758,2.571,2.675,3.84,1.565,3.042.844,4.447l3.142-.618a6.048,6.048,0,0,0-1.34-3.449,10.6,10.6,0,0,1-1.819-3.244,3.77,3.77,0,0,1,.983-3.623A17.4,17.4,0,0,1,321.1,14.4" transform="translate(-95.873 -4.838)" fill="#c3e6e8"/>
          <path id="Trazado_863132" data-name="Trazado 863132" d="M188.745,19.617a1.341,1.341,0,1,1,1.333,1.2,1.271,1.271,0,0,1-1.333-1.2" transform="translate(-56.632 -6.188)" fill="#6c88c8"/>
          <path id="Trazado_863133" data-name="Trazado 863133" d="M475.208,320.959a1.341,1.341,0,1,1,1.333,1.2,1.271,1.271,0,0,1-1.333-1.2" transform="translate(-142.585 -107.432)" fill="#6c88c8"/>
          <path id="Trazado_863134" data-name="Trazado 863134" d="M115.252,208.179a1.341,1.341,0,1,1,1.333,1.2,1.271,1.271,0,0,1-1.333-1.2" transform="translate(-34.581 -69.541)" fill="#6c88c8"/>
          <path id="Trazado_863135" data-name="Trazado 863135" d="M428.252,137.754a1.341,1.341,0,1,1,1.333,1.2,1.271,1.271,0,0,1-1.333-1.2" transform="translate(-128.496 -45.879)" fill="#6c88c8"/>
          <path id="Trazado_863136" data-name="Trazado 863136" d="M27.434,19.617a1.341,1.341,0,1,1,1.333,1.2,1.271,1.271,0,0,1-1.333-1.2" transform="translate(-8.232 -6.188)" fill="#08d6ba"/>
          <path id="Trazado_863137" data-name="Trazado 863137" d="M27.434,434.222a1.341,1.341,0,1,1,1.333,1.2,1.271,1.271,0,0,1-1.333-1.2" transform="translate(-8.232 -145.486)" fill="#08d6ba"/>
          <path id="Trazado_863138" data-name="Trazado 863138" d="M102.348,127.809a1.341,1.341,0,1,1,1.333,1.2,1.271,1.271,0,0,1-1.333-1.2" transform="translate(-30.709 -42.538)" fill="#08d6ba"/>
          <path id="Trazado_863139" data-name="Trazado 863139" d="M436.147,459.028a1.341,1.341,0,1,1,1.333,1.2,1.271,1.271,0,0,1-1.333-1.2" transform="translate(-130.865 -153.82)" fill="#08d6ba"/>
          <path id="Trazado_863140" data-name="Trazado 863140" d="M36.53,230.7a1.341,1.341,0,1,1,1.333,1.2,1.271,1.271,0,0,1-1.333-1.2" transform="translate(-10.961 -77.107)" fill="#08d6ba"/>
          <path id="Trazado_863141" data-name="Trazado 863141" d="M447.157,257.22a1.341,1.341,0,1,1,1.333,1.2,1.271,1.271,0,0,1-1.333-1.2" transform="translate(-134.168 -86.017)" fill="#08d6ba"/>
          <path id="Trazado_863142" data-name="Trazado 863142" d="M132.232,146.384c-1.919-.272-3.764,1.894-3.331,3.91a3.189,3.189,0,0,0,3.769,2.343.7.7,0,0,0,.246-1.165,2.88,2.88,0,0,0-3.29-.528,3.324,3.324,0,0,0-1.3,4.11,2.923,2.923,0,0,0,3.823,1.46" transform="translate(-38.426 -49.174)" fill="none" stroke="#ffc75e" stroke-linecap="round" stroke-linejoin="round" stroke-width="2"/>
          <path id="Trazado_863143" data-name="Trazado 863143" d="M64.9,439.9a4.731,4.731,0,0,0-4.394,3.019,6.616,6.616,0,0,0,.54,6.225,3.152,3.152,0,0,0,4.775.572,2.738,2.738,0,0,0,.661-3.04,1.671,1.671,0,0,0-2.042-.6c-1.949.6-3.5,2.915-3.666,5.471s1.055,5.165,2.9,6.179a4.237,4.237,0,0,0,5.5-1.554,2.906,2.906,0,0,0,.5-2.667,1.344,1.344,0,0,0-1.689-.731,3.516,3.516,0,0,0-1.541,1.407,14.122,14.122,0,0,0-2.355,7.209" transform="translate(-17.994 -147.794)" fill="none" stroke="#ffc75e" stroke-linecap="round" stroke-linejoin="round" stroke-width="2"/>
          <path id="Trazado_863149" data-name="Trazado 863149" d="M64.9,439.9a4.731,4.731,0,0,0-4.394,3.019,6.616,6.616,0,0,0,.54,6.225,3.152,3.152,0,0,0,4.775.572,2.738,2.738,0,0,0,.661-3.04,1.671,1.671,0,0,0-2.042-.6c-1.949.6-3.5,2.915-3.666,5.471s1.055,5.165,2.9,6.179a4.237,4.237,0,0,0,5.5-1.554,2.906,2.906,0,0,0,.5-2.667,1.344,1.344,0,0,0-1.689-.731,3.516,3.516,0,0,0-1.541,1.407,14.122,14.122,0,0,0-2.355,7.209" transform="translate(-4.814 -396.491)" fill="none" stroke="#ffc75e" stroke-linecap="round" stroke-linejoin="round" stroke-width="2"/>
          <path id="Trazado_863144" data-name="Trazado 863144" d="M39.863,286.6a3.524,3.524,0,0,0-1.327,2.811,2.3,2.3,0,0,0,1.887,1.75,5.265,5.265,0,0,0,2.638-.358c.5-.169,1.088-.515,1.027-1.058a.762.762,0,0,0-.573-.617,1.3,1.3,0,0,0-.852.117,2.668,2.668,0,0,0-1.45,2.555,2.979,2.979,0,0,0,1.676,2.452,3.146,3.146,0,0,0,2.913-.188,2.09,2.09,0,0,0,.87-.909,1.222,1.222,0,0,0-.1-1.232,1.109,1.109,0,0,0-1.254-.279,2.184,2.184,0,0,0-1.007.928,4.354,4.354,0,0,0,.115,4.634,3.925,3.925,0,0,0,4.182,1.547" transform="translate(-11.555 -96.289)" fill="none" stroke="#ffc75e" stroke-linecap="round" stroke-linejoin="round" stroke-width="2"/>
          <path id="Trazado_863145" data-name="Trazado 863145" d="M422.138,363.544a8.731,8.731,0,0,1,4.005,2.207c.982,1.157,1.086,3.122-.2,3.965-1.064.7-2.518.351-3.7-.136a2.8,2.8,0,0,1-1.326-.9.982.982,0,0,1,.226-1.391,1.549,1.549,0,0,1,1.017-.056,5.6,5.6,0,0,1,3.521,1.859,3.441,3.441,0,0,1-.83,4.77,3.873,3.873,0,0,1-5.02-.778c-.278-.367-.469-.9-.169-1.248s.9-.279,1.366-.132a6.035,6.035,0,0,1,2.532,1.432,3.035,3.035,0,0,1,.914,2.59,2.246,2.246,0,0,1-1.991,1.818" transform="translate(-125.871 -122.142)" fill="none" stroke="#f04b6c" stroke-linecap="round" stroke-linejoin="round" stroke-width="2"/>
          <path id="Trazado_863148" data-name="Trazado 863148" d="M422.138,363.544a8.731,8.731,0,0,1,4.005,2.207c.982,1.157,1.086,3.122-.2,3.965-1.064.7-2.518.351-3.7-.136a2.8,2.8,0,0,1-1.326-.9.982.982,0,0,1,.226-1.391,1.549,1.549,0,0,1,1.017-.056,5.6,5.6,0,0,1,3.521,1.859,3.441,3.441,0,0,1-.83,4.77,3.873,3.873,0,0,1-5.02-.778c-.278-.367-.469-.9-.169-1.248s.9-.279,1.366-.132a6.035,6.035,0,0,1,2.532,1.432,3.035,3.035,0,0,1,.914,2.59,2.246,2.246,0,0,1-1.991,1.818" transform="translate(-136.871 -320.142)" fill="none" stroke="#f04b6c" stroke-linecap="round" stroke-linejoin="round" stroke-width="2"/>
          <path id="Trazado_863146" data-name="Trazado 863146" d="M448.385,200.221c1.919.272,3.764-1.894,3.331-3.91a3.189,3.189,0,0,0-3.769-2.343.7.7,0,0,0-.246,1.165,2.879,2.879,0,0,0,3.29.528,3.324,3.324,0,0,0,1.3-4.11,2.923,2.923,0,0,0-3.823-1.46" transform="translate(-134.267 -63.779)" fill="none" stroke="#f04b6c" stroke-linecap="round" stroke-linejoin="round" stroke-width="2"/>
          <path id="Trazado_863147" data-name="Trazado 863147" d="M63.808,179.067a5.1,5.1,0,0,0,4.786-2.676,6.458,6.458,0,0,0,.244-6.191,3.141,3.141,0,0,0-4.716-.9,2.8,2.8,0,0,0-1.046,2.958,1.623,1.623,0,0,0,1.972.736c2.031-.461,3.874-2.636,4.366-5.15s-.405-5.179-2.124-6.312a4.439,4.439,0,0,0-5.712,1.151,2.964,2.964,0,0,0-.841,2.6,1.29,1.29,0,0,0,1.6.841,3.831,3.831,0,0,0,1.723-1.283,14.721,14.721,0,0,0,3.272-6.962" transform="translate(-18.202 -53.044)" fill="none" stroke="#f04b6c" stroke-linecap="round" stroke-linejoin="round" stroke-width="2"/>
        </g>
      </g>
    </g>
    <g id="Grupo_1088589" data-name="Grupo 1088589" transform="translate(-3611.116 -7787.394)">
      <g id="Grupo_1088588" data-name="Grupo 1088588" clip-path="url(#clip-path-3)">
        <g id="Grupo_1088587" data-name="Grupo 1088587">
          <g id="Grupo_1088586" data-name="Grupo 1088586" clip-path="url(#clip-path-3)">
            <path id="Trazado_863216" data-name="Trazado 863216" d="M119.985,262.422c-1.093,22.036-9.11,59.822-9.11,59.822H85.194L83.014,286.65l-3.4,35.593H51.1s-8.985-41.532-8.416-58.66c.256-7.772,2.016-17.4,3.855-25.595,1.48-6.588,3.018-12.259,3.872-15.3.433-1.515.689-2.38.689-2.38l24.114-.82,37.888-1.293a124.155,124.155,0,0,1,3.445,12.094c2,8.461,4.02,20.316,3.434,32.132" transform="translate(-18.37 -93.954)" fill="#513c6b"/>
            <g id="Grupo_1088582" data-name="Grupo 1088582" transform="translate(28.173 124.242)" opacity="0.2" style="mix-blend-mode: multiply;isolation: isolate">
              <g id="Grupo_1088581" data-name="Grupo 1088581">
                <g id="Grupo_1088580" data-name="Grupo 1088580" clip-path="url(#clip-path-5)">
                  <path id="Trazado_863217" data-name="Trazado 863217" d="M119.486,230.29c-20.857,2.221-52.636,5.643-70.008,7.7,1.48-6.588,3.018-12.259,3.872-15.3l24.8-3.2,37.888-1.293a124.155,124.155,0,0,1,3.445,12.094" transform="translate(-49.478 -218.196)" fill="#513c6b"/>
                </g>
              </g>
            </g>
            <path id="Trazado_863218" data-name="Trazado 863218" d="M88.076,5.207A17.214,17.214,0,0,0,76.047.636c-7.14,0-11.823,4.826-17.778,6.476C53.4,8.461,48.994,12.524,50.31,25.463c.872,8.573-6.36,9.084-3.289,23.246C49.58,60.516,40,61.428,42.949,67.13c3.243,6.275,23.446-4.084,31.581.192s15.263-2.03,20.949-.161,17,5.249,20.267.281-1.8-13.339-1.712-18.471,8.283-14.954,1.954-20.033c-4.056-3.255-8.442-8.021-8.442-16.413,0-15-11.307-15.318-19.471-7.317" transform="translate(-18.249 0)" fill="#422b53"/>
            <path id="Trazado_863219" data-name="Trazado 863219" d="M49.631,101.5s-13.361,1.167-16.624,2.162c-1.844.562-27.542,20.881-32.724,31.905C-.8,137.871,1.421,149.02,3.5,150.345s32.2,12.879,32.2,12.879l.442,6.817,54.827.569v-7.826s29.931-13.445,31.194-14.961,2.156-9.611,1.708-12.629C122.22,124.03,95.919,104.343,89.209,103.2c-3.168-.539-16.627-1.745-16.627-1.745Z" transform="translate(0 -43.686)" fill="#38bbff"/>
            <path id="Trazado_863220" data-name="Trazado 863220" d="M114.825,30.349S124.863,62.9,102.168,66.868c0,7.662.13,12.718-3.517,14.99-7.5,4.67-16.012,1.816-16.473-12.386L80.728,52.75s-3.6,1.692-6.226-.5c-2.3-1.921-2.132-10.039,1.488-10.873,3.115-.718,5.672,5.457,5.672,5.457s8.869-1.332,6.167-12.481c4.7-.014,12.19-2.512,14.6-7.591,3.174,3.3,9.838,4.621,12.393,3.585" transform="translate(-31.426 -11.524)" fill="#ffc297"/>
            <path id="Trazado_863221" data-name="Trazado 863221" d="M111.521,47.841c-.463,2.122,5.758,3.542,6.285,1.576s-5.822-3.7-6.285-1.576" transform="translate(-48.01 -20.181)" fill="#422b53"/>
            <path id="Trazado_863222" data-name="Trazado 863222" d="M139.594,47.15c.806,2.017-5.1,4.442-5.939,2.59s5.133-4.606,5.939-2.59" transform="translate(-57.516 -19.998)" fill="#422b53"/>
            <path id="Trazado_863223" data-name="Trazado 863223" d="M116.957,58.286a1.7,1.7,0,1,1-1.7-1.7,1.7,1.7,0,0,1,1.7,1.7" transform="translate(-48.898 -24.366)" fill="#422b53"/>
            <path id="Trazado_863224" data-name="Trazado 863224" d="M139.341,58.286a1.7,1.7,0,1,1-1.7-1.7,1.7,1.7,0,0,1,1.7,1.7" transform="translate(-58.537 -24.366)" fill="#422b53"/>
            <path id="Trazado_863225" data-name="Trazado 863225" d="M127.006,65.079a.285.285,0,0,1-.014-.569c1.219-.061,3.065-.333,3.349-.746a.057.057,0,0,0,.012-.062c-.315-.964-2.408-6.133-2.429-6.185a.285.285,0,1,1,.528-.214c.087.214,2.121,5.239,2.442,6.222a.619.619,0,0,1-.084.561c-.544.791-3.252.966-3.79.993h-.014" transform="translate(-54.566 -24.598)" fill="#422b53"/>
            <path id="Trazado_863226" data-name="Trazado 863226" d="M124.678,75.375a.284.284,0,0,1-.2-.084c-1.761-1.761-5.124-1.693-5.157-1.689a.291.291,0,0,1-.292-.277.284.284,0,0,1,.276-.293c.147,0,3.641-.079,5.576,1.856a.285.285,0,0,1-.2.486" transform="translate(-51.252 -31.447)" fill="#422b53"/>
            <rect id="Rectángulo_397345" data-name="Rectángulo 397345" width="93.938" height="62.611" transform="matrix(0.992, -0.123, 0.123, 0.992, 11.667, 74.71)" fill="#ebebf1"/>
            <path id="Trazado_863227" data-name="Trazado 863227" d="M24.086,177.9s-2.609.922-2.882,2.965,1.678,10.077,2.882,11.439,7.876,1.362,8.285.408-3.268-1.906-3.268-1.906,5.583-.681,5.719-2.179-5.311-1.635-5.311-1.635,5.992-2.315,5.856-3.812-7.093-.136-7.093-.136,5.362-2.116,4.866-4.19-7.8,1.841-7.8,1.841Z" transform="translate(-9.119 -76.603)" fill="#ffc297"/>
            <path id="Trazado_863228" data-name="Trazado 863228" d="M184.511,168.607s2.764.125,3.619,2,1.321,10.13.565,11.783-7.141,3.591-7.809,2.8,2.574-2.773,2.574-2.773-5.54.97-6.106-.424,4.607-3.106,4.607-3.106-6.406-.475-6.71-1.947,6.747-2.19,6.747-2.19-5.745-.468-5.872-2.6,8-.5,8-.5Z" transform="translate(-75.458 -72.601)" fill="#ffc297"/>
            <g id="Grupo_1088585" data-name="Grupo 1088585" transform="translate(64.643 158.402)" opacity="0.2" style="mix-blend-mode: multiply;isolation: isolate">
              <g id="Grupo_1088584" data-name="Grupo 1088584">
                <g id="Grupo_1088583" data-name="Grupo 1088583" clip-path="url(#clip-path-6)">
                  <path id="Trazado_863229" data-name="Trazado 863229" d="M113.528,312.482V284.959l6.1-6.771,9.682,69.888h-13.6Z" transform="translate(-113.528 -278.188)" fill="#513c6b"/>
                </g>
              </g>
            </g>
            <rect id="Rectángulo_397347" data-name="Rectángulo 397347" width="60.364" height="5.73" transform="matrix(0.993, -0.115, 0.115, 0.993, 32.139, 86.137)" fill="#d34659"/>
            <rect id="Rectángulo_397348" data-name="Rectángulo 397348" width="60.364" height="5.73" transform="matrix(0.993, -0.115, 0.115, 0.993, 32.796, 91.828)" fill="#ffb959"/>
            <rect id="Rectángulo_397349" data-name="Rectángulo 397349" width="60.364" height="5.73" transform="matrix(0.993, -0.115, 0.115, 0.993, 33.452, 97.52)" fill="#ffff54"/>
            <rect id="Rectángulo_397350" data-name="Rectángulo 397350" width="60.364" height="5.73" transform="matrix(0.993, -0.115, 0.115, 0.993, 34.109, 103.213)" fill="#6bd359"/>
            <rect id="Rectángulo_397351" data-name="Rectángulo 397351" width="60.364" height="5.73" transform="matrix(0.993, -0.115, 0.115, 0.993, 34.765, 108.905)" fill="#64d3e9"/>
            <rect id="Rectángulo_397352" data-name="Rectángulo 397352" width="60.364" height="5.73" transform="matrix(0.993, -0.115, 0.115, 0.993, 35.422, 114.597)" fill="#7f50e9"/>
            <path id="Trazado_863230" data-name="Trazado 863230" d="M91.493,181.858a27.158,27.158,0,1,1,4.879-.44,27.452,27.452,0,0,1-4.879.44m.067-49.619a22.528,22.528,0,1,0,22.157,18.519,22.577,22.577,0,0,0-22.157-18.519" transform="translate(-27.756 -54.979)" fill="#ff4659"/>
            <rect id="Rectángulo_397353" data-name="Rectángulo 397353" width="4.555" height="50.074" transform="translate(42.727 86.664) rotate(-54.979)" fill="#ff4659"/>
          </g>
        </g>
      </g>
    </g>
    <g id="Grupo_1088609" data-name="Grupo 1088609" transform="translate(-3390.459 -7797.462)">
      <g id="Grupo_1088608" data-name="Grupo 1088608" clip-path="url(#clip-path-7)">
        <g id="Grupo_1088600" data-name="Grupo 1088600">
          <g id="Grupo_1088599" data-name="Grupo 1088599" clip-path="url(#clip-path-7)">
            <path id="Trazado_863231" data-name="Trazado 863231" d="M139.849,9.146a11.778,11.778,0,0,0,.5,7.91,12.556,12.556,0,0,0,2.73,3.571,15.653,15.653,0,0,0,10.373,4.667c3.883.041,7.886-2.1,9.4-5.675a11.421,11.421,0,0,0,.8-4.326,15.959,15.959,0,0,0-5.206-12.166c-7.022-6.1-16.365-2.848-18.6,6.02" transform="translate(-63.102 0)" fill="#422b53"/>
            <path id="Trazado_863232" data-name="Trazado 863232" d="M140.207,24.5a5.75,5.75,0,0,0,.242,3.863,6.14,6.14,0,0,0,1.333,1.744,7.646,7.646,0,0,0,5.065,2.279,4.943,4.943,0,0,0,4.592-2.771,5.578,5.578,0,0,0,.392-2.112,7.792,7.792,0,0,0-2.542-5.941c-3.43-2.978-7.991-1.391-9.082,2.939" transform="translate(-63.367 -9.07)" fill="#ffff54"/>
            <path id="Trazado_863233" data-name="Trazado 863233" d="M79.495,40.275s-6.133-8.162-2.578-17.5S98.358,5.583,115.051,18s14.227,44.842-10.474,44.727c-13.97-5.778-25.082-22.453-25.082-22.453" transform="translate(-34.316 -5.246)" fill="#422b53"/>
            <path id="Trazado_863234" data-name="Trazado 863234" d="M133.717,108.646a.273.273,0,0,1-.269-.223c-.873-4.654-5.566-5.779-5.613-5.79l-1.7-.389,1.738-.151c.077-.006,7.706-.6,9.206,4.791a.274.274,0,1,1-.528.147c-.986-3.548-4.95-4.27-7.147-4.392a7.888,7.888,0,0,1,4.582,5.683.275.275,0,0,1-.269.324" transform="translate(-57.096 -46.204)" fill="#422b53"/>
            <path id="Trazado_863235" data-name="Trazado 863235" d="M107.077,339.275h-25.6l-.443-49.643-1.79.514-2.78,49.129H53.411s-7.2-36.321-8.183-57.5a83.647,83.647,0,0,1,1.79-20.043c.684-3.492,1.45-6.754,2.1-9.726.268-1.2.575-2.321.909-3.344a28.792,28.792,0,0,1,3.684-7.778l31.713-.378,21.653.788s.23.832.618,2.288c.547,2.08,1.4,5.446,2.332,9.5.378,1.637.761,3.388,1.144,5.211.482,2.288.952,4.691,1.385,7.132a126.047,126.047,0,0,1,2.074,17.471c.514,16.464-7.553,56.387-7.553,56.387" transform="translate(-20.442 -108.867)" fill="#357cd5"/>
            <g id="Grupo_1088592" data-name="Grupo 1088592" transform="translate(26.576 132.582)" opacity="0.2" style="mix-blend-mode: multiply;isolation: isolate">
              <g id="Grupo_1088591" data-name="Grupo 1088591">
                <g id="Grupo_1088590" data-name="Grupo 1088590" clip-path="url(#clip-path-9)">
                  <path id="Trazado_863236" data-name="Trazado 863236" d="M114.093,266.2c-5.227,3.273-13.963,6.5-28.166,6.672-20.043.246-31.9-6.262-37.372-10.361.684-3.492,1.45-6.754,2.1-9.726.268-1.2.575-2.321.909-3.344,15.78-14.909,44.9-3.284,60,4.417.378,1.637.761,3.388,1.144,5.211.482,2.288.952,4.691,1.385,7.132" transform="translate(-48.555 -242.231)" fill="#513c6b"/>
                </g>
              </g>
            </g>
            <path id="Trazado_863237" data-name="Trazado 863237" d="M121.269,150.324c-.077,2.441-3.47,25.358-5.473,26.633-.3.192-.733.476-1.253.826-2.9,1.927-8.462,5.731-8.462,5.731l4.526,15.063,1.571,5.222s-16.048,8.933-38.554,6.355c-21.165-2.419-31.439-10.18-31.439-10.18l2.83-12.195,1.872-8.057s-1.2-2.244-2.6-4.751a73.278,73.278,0,0,0-3.913-6.574c-1.215-1.456,1.429-9.206,1.861-12.107,1.593-10.733-.126-22.911,4.931-27.06,4.4-3.607,11.242-6.037,16.387-7.471,4.012-1.111,6.995-1.626,6.995-1.626l20.459.914a78.935,78.935,0,0,1,9.091,2.321c3.525,1.144,7.236,2.7,9.436,4.647,3.547,3.147,12.03,12.742,11.735,22.309" transform="translate(-18.132 -54.38)" fill="#f8947b"/>
            <g id="Grupo_1088595" data-name="Grupo 1088595" transform="translate(45.421 65.753)" opacity="0.2" style="mix-blend-mode: multiply;isolation: isolate">
              <g id="Grupo_1088594" data-name="Grupo 1088594">
                <g id="Grupo_1088593" data-name="Grupo 1088593" clip-path="url(#clip-path-10)">
                  <path id="Trazado_863238" data-name="Trazado 863238" d="M119.531,123.368a18.689,18.689,0,0,1-36.546-1.609c4.012-1.111,6.995-1.626,6.995-1.626l20.459.914a78.935,78.935,0,0,1,9.091,2.321" transform="translate(-82.985 -120.133)" fill="#513c6b"/>
                </g>
              </g>
            </g>
            <g id="Grupo_1088598" data-name="Grupo 1088598" transform="translate(26.154 120.591)" opacity="0.2" style="mix-blend-mode: multiply;isolation: isolate">
              <g id="Grupo_1088597" data-name="Grupo 1088597">
                <g id="Grupo_1088596" data-name="Grupo 1088596" clip-path="url(#clip-path-11)">
                  <path id="Trazado_863239" data-name="Trazado 863239" d="M109.579,228.867l4.526,15.063-65.593-10.8,1.872-8.057s-1.2-2.244-2.6-4.751l70.256,2.813c-2.9,1.927-8.462,5.731-8.462,5.731" transform="translate(-47.785 -220.323)" fill="#513c6b"/>
                </g>
              </g>
            </g>
            <path id="Trazado_863240" data-name="Trazado 863240" d="M78.792,37.546S66,67.684,87.311,73.708c-.188,1.831-.888,4.315-.955,6.221-1.31,10.866,20.017,14.568,20.46.916L109.2,62.313s3.278,1.971,6,.134c2.387-1.611,3.023-9.39-.356-10.543-2.908-.992-5.959,4.662-5.959,4.662s-6.332-3.079.317-12.254c-5.779-1.648-13.965-6.816-18-12.992-2.652,3.018-8.7,5.482-12.407,6.225" transform="translate(-33.942 -14.178)" fill="#9b5d5a"/>
            <path id="Trazado_863241" data-name="Trazado 863241" d="M112.466,55.675c.58,2.005-5.3,3.766-5.927,1.914s5.347-3.919,5.927-1.914" transform="translate(-48.205 -24.83)" fill="#422b53"/>
            <path id="Trazado_863242" data-name="Trazado 863242" d="M81.2,53.025c-.4,2.05,5.615,3.272,6.076,1.37s-5.68-3.42-6.076-1.37" transform="translate(-36.748 -23.559)" fill="#422b53"/>
            <path id="Trazado_863243" data-name="Trazado 863243" d="M106.028,70.6a1.632,1.632,0,1,0,1.79-1.458,1.632,1.632,0,0,0-1.79,1.458" transform="translate(-47.991 -31.296)" fill="#422b53"/>
            <path id="Trazado_863244" data-name="Trazado 863244" d="M82.76,67.319a1.633,1.633,0,1,0,1.791-1.458,1.633,1.633,0,0,0-1.791,1.458" transform="translate(-37.458 -29.809)" fill="#422b53"/>
            <path id="Trazado_863245" data-name="Trazado 863245" d="M93.65,73.409a.273.273,0,0,1-.13-.033c-1.442-.781-3.149-1.842-3.1-2.461a.449.449,0,0,1,.337-.389c3.217-1.092,2.348-4.728,2.309-4.883a.274.274,0,0,1,.531-.133c.011.043,1.011,4.224-2.589,5.508a12.3,12.3,0,0,0,2.77,1.877.274.274,0,0,1-.131.514" transform="translate(-40.931 -29.56)" fill="#422b53"/>
            <path id="Trazado_863246" data-name="Trazado 863246" d="M94.69,85.876a.274.274,0,0,1-.173-.486c2.041-1.661,5.373-1.246,5.514-1.227a.274.274,0,0,1-.071.542c-.032,0-3.241-.4-5.1,1.109a.274.274,0,0,1-.172.061" transform="translate(-42.739 -38.071)" fill="#422b53"/>
            <rect id="Rectángulo_397359" data-name="Rectángulo 397359" width="51.731" height="115.086" transform="matrix(0.123, -0.992, 0.992, 0.123, 0, 125.667)" fill="#ebebf1"/>
            <path id="Trazado_863247" data-name="Trazado 863247" d="M173.726,242.32s-.858,3.106-3.209,3.589-11.842-1.128-13.521-2.414-2.224-9.038-1.151-9.59,2.481,3.641,2.481,3.641.336-6.541,2.065-6.821,2.331,6.036,2.331,6.036,2.2-7.149,3.952-7.113.736,8.228.736,8.228,2.022-6.4,4.471-5.993-1.5,9.209-1.5,9.209Z" transform="translate(-70.295 -103.953)" fill="#9b5d5a"/>
            <path id="Trazado_863248" data-name="Trazado 863248" d="M32.522,136.307s-.01-2.787-1.861-3.725-10.138-1.752-11.832-1.06-3.911,7.036-3.141,7.741,2.9-2.474,2.9-2.474-1.207,5.534.172,6.161,3.317-4.506,3.317-4.506.211,6.465,1.68,6.833,2.485-6.7,2.485-6.7.232,5.8,2.368,6.018.841-8.026.841-8.026Z" transform="translate(-7.03 -59.418)" fill="#9b5d5a"/>
          </g>
        </g>
        <g id="Grupo_1088602" data-name="Grupo 1088602" transform="translate(40.909 91.219)">
          <g id="Grupo_1088601" data-name="Grupo 1088601" clip-path="url(#clip-path-12)">
            <rect id="Rectángulo_397361" data-name="Rectángulo 397361" width="6.198" height="56.611" transform="translate(-9.036 1.141) rotate(-83.04)" fill="#d34659"/>
            <rect id="Rectángulo_397362" data-name="Rectángulo 397362" width="6.198" height="56.611" transform="matrix(0.121, -0.993, 0.993, 0.121, -9.787, 7.294)" fill="#ffb959"/>
            <rect id="Rectángulo_397363" data-name="Rectángulo 397363" width="6.198" height="56.611" transform="translate(-10.538 13.447) rotate(-83.04)" fill="#ffff54"/>
            <rect id="Rectángulo_397364" data-name="Rectángulo 397364" width="6.198" height="56.611" transform="matrix(0.121, -0.993, 0.993, 0.121, -11.289, 19.599)" fill="#6bd359"/>
            <rect id="Rectángulo_397365" data-name="Rectángulo 397365" width="6.198" height="56.611" transform="translate(-12.04 25.752) rotate(-83.04)" fill="#64d3e9"/>
            <rect id="Rectángulo_397366" data-name="Rectángulo 397366" width="6.198" height="56.611" transform="matrix(0.121, -0.993, 0.993, 0.121, -12.792, 31.905)" fill="#7f50e9"/>
          </g>
        </g>
        <g id="Grupo_1088607" data-name="Grupo 1088607">
          <g id="Grupo_1088606" data-name="Grupo 1088606" clip-path="url(#clip-path-7)">
            <rect id="Rectángulo_397367" data-name="Rectángulo 397367" width="4.379" height="50.899" transform="matrix(0.799, -0.601, 0.601, 0.799, 38.435, 86.682)" fill="#ff4659"/>
            <path id="Trazado_863250" data-name="Trazado 863250" d="M53.767,302.013l-5.212,5.527,1.086,1.7,6.553-5.824Z" transform="translate(-21.979 -136.71)" fill="#fff"/>
            <path id="Trazado_863251" data-name="Trazado 863251" d="M154.294,302.013l7.117,5.527-.868,2.246-7.455-5.255Z" transform="translate(-69.297 -136.71)" fill="#fff"/>
            <g id="Grupo_1088605" data-name="Grupo 1088605" transform="translate(60.593 178.595)" opacity="0.2" style="mix-blend-mode: multiply;isolation: isolate">
              <g id="Grupo_1088604" data-name="Grupo 1088604">
                <g id="Grupo_1088603" data-name="Grupo 1088603" clip-path="url(#clip-path-14)">
                  <path id="Trazado_863252" data-name="Trazado 863252" d="M110.7,328.468,116,326.3l6.67,51.814H111.148Z" transform="translate(-110.705 -326.298)" fill="#513c6b"/>
                </g>
              </g>
            </g>
          </g>
        </g>
      </g>
    </g>
    <g id="Grupo_1088564" data-name="Grupo 1088564" transform="translate(-3510 -7833.335)">
      <g id="Grupo_1088579" data-name="Grupo 1088579" clip-path="url(#clip-path-15)">
        <path id="Trazado_863155" data-name="Trazado 863155" d="M69.142,329.947l.573,16.517,2.763,79.3H96.55l2.39-74.072.1-3.031,3.23-.367.561,3.442,12.086,74.029h23.792L132.752,346.1l-1.406-18.783Z" transform="translate(-26.111 -123.61)" fill="#422b53"/>
        <g id="Grupo_1088568" data-name="Grupo 1088568">
          <g id="Grupo_1088567" data-name="Grupo 1088567" clip-path="url(#clip-path-15)">
            <g id="Grupo_1088566" data-name="Grupo 1088566" transform="translate(43.03 203.705)" opacity="0.2" style="mix-blend-mode: multiply;isolation: isolate">
              <g id="Grupo_1088565" data-name="Grupo 1088565">
                <g id="Grupo_1088564-2" data-name="Grupo 1088564" clip-path="url(#clip-path-17)">
                  <path id="Trazado_863156" data-name="Trazado 863156" d="M132.752,346.1a83.759,83.759,0,0,1-29.923,5.638l-.56-3.442-3.23.367-.1,3.031a105.98,105.98,0,0,1-29.226-5.228l-.573-16.517,62.2-2.633Z" transform="translate(-69.142 -327.315)" fill="#513c6b"/>
                </g>
              </g>
            </g>
          </g>
        </g>
        <g id="Grupo_1088576" data-name="Grupo 1088576" transform="translate(16.701 105.269)">
          <g id="Grupo_1088575" data-name="Grupo 1088575" clip-path="url(#clip-path-18)">
            <rect id="Rectángulo_397330" data-name="Rectángulo 397330" width="116.591" height="125.012" transform="translate(-2.658 -5.23)" fill="#ff4856"/>
            <g id="Grupo_1088574" data-name="Grupo 1088574" transform="translate(-4.401 -19.026)" opacity="0.2" style="mix-blend-mode: multiply;isolation: isolate">
              <g id="Grupo_1088573" data-name="Grupo 1088573">
                <g id="Grupo_1088572" data-name="Grupo 1088572" clip-path="url(#clip-path-19)">
                  <path id="Trazado_863157" data-name="Trazado 863157" d="M52.932,340.945a6.007,6.007,0,1,1-6.006-6.006,6.006,6.006,0,0,1,6.006,6.006" transform="translate(-27.753 -212.733)" fill="#513c6b"/>
                  <path id="Trazado_863158" data-name="Trazado 863158" d="M85.831,340.945a6.007,6.007,0,1,1-6.006-6.006,6.006,6.006,0,0,1,6.006,6.006" transform="translate(-40.177 -212.733)" fill="#513c6b"/>
                  <path id="Trazado_863159" data-name="Trazado 863159" d="M118.731,340.945a6.007,6.007,0,1,1-6.006-6.006,6.006,6.006,0,0,1,6.006,6.006" transform="translate(-52.602 -212.733)" fill="#513c6b"/>
                  <path id="Trazado_863160" data-name="Trazado 863160" d="M151.631,340.945a6.007,6.007,0,1,1-6.006-6.006,6.006,6.006,0,0,1,6.006,6.006" transform="translate(-65.027 -212.733)" fill="#513c6b"/>
                  <path id="Trazado_863161" data-name="Trazado 863161" d="M184.531,340.945a6.007,6.007,0,1,1-6.006-6.006,6.006,6.006,0,0,1,6.006,6.006" transform="translate(-77.451 -212.733)" fill="#513c6b"/>
                  <path id="Trazado_863162" data-name="Trazado 863162" d="M68.873,313.491a6.007,6.007,0,1,1-6.006-6.006,6.006,6.006,0,0,1,6.006,6.006" transform="translate(-33.773 -202.365)" fill="#513c6b"/>
                  <path id="Trazado_863163" data-name="Trazado 863163" d="M101.772,313.491a6.007,6.007,0,1,1-6.006-6.006,6.006,6.006,0,0,1,6.006,6.006" transform="translate(-46.197 -202.365)" fill="#513c6b"/>
                  <path id="Trazado_863164" data-name="Trazado 863164" d="M134.672,313.491a6.007,6.007,0,1,1-6.006-6.006,6.006,6.006,0,0,1,6.006,6.006" transform="translate(-58.622 -202.365)" fill="#513c6b"/>
                  <path id="Trazado_863165" data-name="Trazado 863165" d="M167.573,313.491a6.006,6.006,0,1,1-6.006-6.006,6.006,6.006,0,0,1,6.006,6.006" transform="translate(-71.047 -202.365)" fill="#513c6b"/>
                  <path id="Trazado_863166" data-name="Trazado 863166" d="M200.472,313.491a6.007,6.007,0,1,1-6.006-6.006,6.006,6.006,0,0,1,6.006,6.006" transform="translate(-83.471 -202.365)" fill="#513c6b"/>
                  <path id="Trazado_863167" data-name="Trazado 863167" d="M52.932,284.642a6.007,6.007,0,1,1-6.006-6.006,6.006,6.006,0,0,1,6.006,6.006" transform="translate(-27.753 -191.47)" fill="#513c6b"/>
                  <path id="Trazado_863168" data-name="Trazado 863168" d="M85.831,284.642a6.007,6.007,0,1,1-6.006-6.006,6.006,6.006,0,0,1,6.006,6.006" transform="translate(-40.177 -191.47)" fill="#513c6b"/>
                  <path id="Trazado_863169" data-name="Trazado 863169" d="M118.731,284.642a6.007,6.007,0,1,1-6.006-6.006,6.006,6.006,0,0,1,6.006,6.006" transform="translate(-52.602 -191.47)" fill="#513c6b"/>
                  <path id="Trazado_863170" data-name="Trazado 863170" d="M151.631,284.642a6.007,6.007,0,1,1-6.006-6.006,6.006,6.006,0,0,1,6.006,6.006" transform="translate(-65.027 -191.47)" fill="#513c6b"/>
                  <path id="Trazado_863171" data-name="Trazado 863171" d="M184.531,284.642a6.007,6.007,0,1,1-6.006-6.006,6.006,6.006,0,0,1,6.006,6.006" transform="translate(-77.451 -191.47)" fill="#513c6b"/>
                  <path id="Trazado_863172" data-name="Trazado 863172" d="M68.873,257.188a6.007,6.007,0,1,1-6.006-6.006,6.006,6.006,0,0,1,6.006,6.006" transform="translate(-33.773 -181.102)" fill="#513c6b"/>
                  <path id="Trazado_863173" data-name="Trazado 863173" d="M101.772,257.188a6.007,6.007,0,1,1-6.006-6.006,6.006,6.006,0,0,1,6.006,6.006" transform="translate(-46.197 -181.102)" fill="#513c6b"/>
                  <path id="Trazado_863174" data-name="Trazado 863174" d="M134.672,257.188a6.007,6.007,0,1,1-6.006-6.006,6.006,6.006,0,0,1,6.006,6.006" transform="translate(-58.622 -181.102)" fill="#513c6b"/>
                  <path id="Trazado_863175" data-name="Trazado 863175" d="M167.573,257.188a6.006,6.006,0,1,1-6.006-6.006,6.006,6.006,0,0,1,6.006,6.006" transform="translate(-71.047 -181.102)" fill="#513c6b"/>
                  <path id="Trazado_863176" data-name="Trazado 863176" d="M200.472,257.188a6.007,6.007,0,1,1-6.006-6.006,6.006,6.006,0,0,1,6.006,6.006" transform="translate(-83.471 -181.102)" fill="#513c6b"/>
                  <path id="Trazado_863177" data-name="Trazado 863177" d="M52.932,228.339a6.007,6.007,0,1,1-6.006-6.006,6.006,6.006,0,0,1,6.006,6.006" transform="translate(-27.753 -170.207)" fill="#513c6b"/>
                  <path id="Trazado_863178" data-name="Trazado 863178" d="M85.831,228.339a6.007,6.007,0,1,1-6.006-6.006,6.006,6.006,0,0,1,6.006,6.006" transform="translate(-40.177 -170.207)" fill="#513c6b"/>
                  <path id="Trazado_863179" data-name="Trazado 863179" d="M118.731,228.339a6.007,6.007,0,1,1-6.006-6.006,6.006,6.006,0,0,1,6.006,6.006" transform="translate(-52.602 -170.207)" fill="#513c6b"/>
                  <path id="Trazado_863180" data-name="Trazado 863180" d="M151.631,228.339a6.007,6.007,0,1,1-6.006-6.006,6.006,6.006,0,0,1,6.006,6.006" transform="translate(-65.027 -170.207)" fill="#513c6b"/>
                  <path id="Trazado_863181" data-name="Trazado 863181" d="M184.531,228.339a6.007,6.007,0,1,1-6.006-6.006,6.006,6.006,0,0,1,6.006,6.006" transform="translate(-77.451 -170.207)" fill="#513c6b"/>
                  <path id="Trazado_863182" data-name="Trazado 863182" d="M68.873,200.886a6.007,6.007,0,1,1-6.006-6.006,6.006,6.006,0,0,1,6.006,6.006" transform="translate(-33.773 -159.84)" fill="#513c6b"/>
                  <path id="Trazado_863183" data-name="Trazado 863183" d="M101.772,200.886a6.007,6.007,0,1,1-6.006-6.006,6.006,6.006,0,0,1,6.006,6.006" transform="translate(-46.197 -159.84)" fill="#513c6b"/>
                  <path id="Trazado_863184" data-name="Trazado 863184" d="M134.672,200.886a6.007,6.007,0,1,1-6.006-6.006,6.006,6.006,0,0,1,6.006,6.006" transform="translate(-58.622 -159.84)" fill="#513c6b"/>
                  <path id="Trazado_863185" data-name="Trazado 863185" d="M167.573,200.886a6.006,6.006,0,1,1-6.006-6.006,6.006,6.006,0,0,1,6.006,6.006" transform="translate(-71.047 -159.84)" fill="#513c6b"/>
                  <path id="Trazado_863186" data-name="Trazado 863186" d="M31.776,200.886a6.007,6.007,0,1,1-6.006-6.006,6.006,6.006,0,0,1,6.006,6.006" transform="translate(-19.763 -159.84)" fill="#513c6b"/>
                  <path id="Trazado_863187" data-name="Trazado 863187" d="M200.472,200.886a6.007,6.007,0,1,1-6.006-6.006,6.006,6.006,0,0,1,6.006,6.006" transform="translate(-83.471 -159.84)" fill="#513c6b"/>
                  <path id="Trazado_863188" data-name="Trazado 863188" d="M52.932,172.037a6.007,6.007,0,1,1-6.006-6.006,6.006,6.006,0,0,1,6.006,6.006" transform="translate(-27.753 -148.945)" fill="#513c6b"/>
                  <path id="Trazado_863189" data-name="Trazado 863189" d="M85.831,172.037a6.007,6.007,0,1,1-6.006-6.006,6.006,6.006,0,0,1,6.006,6.006" transform="translate(-40.177 -148.945)" fill="#513c6b"/>
                  <path id="Trazado_863190" data-name="Trazado 863190" d="M118.731,172.037a6.007,6.007,0,1,1-6.006-6.006,6.006,6.006,0,0,1,6.006,6.006" transform="translate(-52.602 -148.945)" fill="#513c6b"/>
                  <path id="Trazado_863191" data-name="Trazado 863191" d="M151.631,172.037a6.007,6.007,0,1,1-6.006-6.006,6.006,6.006,0,0,1,6.006,6.006" transform="translate(-65.027 -148.945)" fill="#513c6b"/>
                  <path id="Trazado_863192" data-name="Trazado 863192" d="M184.531,172.037a6.007,6.007,0,1,1-6.006-6.006,6.006,6.006,0,0,1,6.006,6.006" transform="translate(-77.451 -148.945)" fill="#513c6b"/>
                  <path id="Trazado_863193" data-name="Trazado 863193" d="M68.873,144.583a6.007,6.007,0,1,1-6.006-6.006,6.006,6.006,0,0,1,6.006,6.006" transform="translate(-33.773 -138.577)" fill="#513c6b"/>
                  <path id="Trazado_863194" data-name="Trazado 863194" d="M101.772,144.583a6.007,6.007,0,1,1-6.006-6.006,6.006,6.006,0,0,1,6.006,6.006" transform="translate(-46.197 -138.577)" fill="#513c6b"/>
                  <path id="Trazado_863195" data-name="Trazado 863195" d="M134.672,144.583a6.007,6.007,0,1,1-6.006-6.006,6.006,6.006,0,0,1,6.006,6.006" transform="translate(-58.622 -138.577)" fill="#513c6b"/>
                  <path id="Trazado_863196" data-name="Trazado 863196" d="M167.573,144.583a6.006,6.006,0,1,1-6.006-6.006,6.006,6.006,0,0,1,6.006,6.006" transform="translate(-71.047 -138.577)" fill="#513c6b"/>
                  <path id="Trazado_863197" data-name="Trazado 863197" d="M200.472,144.583a6.007,6.007,0,1,1-6.006-6.006,6.006,6.006,0,0,1,6.006,6.006" transform="translate(-83.471 -138.577)" fill="#513c6b"/>
                  <g id="Grupo_1088571" data-name="Grupo 1088571" transform="translate(24.059 49.487)" opacity="0.4" style="mix-blend-mode: multiply;isolation: isolate">
                    <g id="Grupo_1088570" data-name="Grupo 1088570">
                      <g id="Grupo_1088569" data-name="Grupo 1088569" clip-path="url(#clip-path-20)">
                        <path id="Trazado_863198" data-name="Trazado 863198" d="M131.206,292.428s-24.409,7.991-41.735,7.991-29.182-6.155-29.182-6.155l-1.867-67.133,3.15-9.037S67.486,262.919,95,270.8c27.115,7.76,29.78-30.24,29.78-30.24l4.1,2.695Z" transform="translate(-58.422 -218.094)" fill="#513c6b"/>
                      </g>
                    </g>
                  </g>
                </g>
              </g>
            </g>
          </g>
        </g>
        <g id="Grupo_1088578" data-name="Grupo 1088578">
          <g id="Grupo_1088577" data-name="Grupo 1088577" clip-path="url(#clip-path-15)">
            <path id="Trazado_863200" data-name="Trazado 863200" d="M73.419,89.305s-3.888-.619-2.562-3.888c-4.948-1.237-4.881-9.19-.276-9.984-2.538-4.579-.748-11.663,6.39-11.045C77.926,59.97,83.4,61.56,83.4,61.56s1.891-6.45,8.5-6.273S99.839,60.5,99.839,60.5s5.832-3.181,8.571,1.856c6.715-4.595,13.519,3.358,12.017,7.069,9.984-.088,9.277,9.19,6.98,12.194,8.394,3.534.8,11.007.8,11.007s2.562,2.607-.619,5.21a7.394,7.394,0,0,1-3.092,11.881c.177,3.888-4.622,3.888-4.622,3.888s-3.684,10.956-16.232,5.655" transform="translate(-25.354 -20.878)" fill="#ee7762"/>
            <path id="Trazado_863201" data-name="Trazado 863201" d="M186.271,226.239s10.1,25.464,10.51,29.011-2.69,9.342-6,9.756-21.917-11.678-21.917-11.678l2.349-22.344Z" transform="translate(-63.771 -85.439)" fill="#ffae8d"/>
            <path id="Trazado_863202" data-name="Trazado 863202" d="M23.139,228.078s-8.721,21.513-10.125,29.871C11.2,268.732,21.121,274.058,27,266.41c5.189-6.753,7.783-10.975,7.783-10.975l1.616-9.113L41.191,230.9Z" transform="translate(-4.832 -86.133)" fill="#ffae8d"/>
            <path id="Trazado_863203" data-name="Trazado 863203" d="M120.99,119.988c-2.869,2.39-6.809.541-6.809.541s-1.575,19.915-1.736,20.662a30.39,30.39,0,0,1-2.128,6.242,52.28,52.28,0,0,1-10.586,14.644s-6.037-4.724-8.2-14.694a34.119,34.119,0,0,1-.765-7.325c0-1.276-.012-2.645-.012-4.1-24.807-4.344-13.835-39.918-13.835-39.918,2.794,1.133,10.076-.311,13.549-3.921,2.633,5.558,10.816,8.283,15.957,8.3-2.95,12.186,6.74,13.642,6.74,13.642s2.794-6.753,6.2-5.968c3.958.915,4.145,9.783,1.631,11.887" transform="translate(-28.134 -34.791)" fill="#ffc297"/>
            <path id="Trazado_863204" data-name="Trazado 863204" d="M120.651,180.961A52.28,52.28,0,0,1,110.065,195.6s-6.037-4.724-8.2-14.694c5.078-.025,14.071.025,18.789.05" transform="translate(-38.468 -68.318)" fill="#fff"/>
            <path id="Trazado_863205" data-name="Trazado 863205" d="M109.643,110.237c.506,2.319-6.293,3.872-6.869,1.723s6.363-4.042,6.869-1.723" transform="translate(-38.8 -41.23)" fill="#ee7762"/>
            <path id="Trazado_863206" data-name="Trazado 863206" d="M78.8,108.64c-.881,2.2,5.569,4.856,6.492,2.83s-5.61-5.035-6.492-2.83" transform="translate(-29.729 -40.736)" fill="#ee7762"/>
            <path id="Trazado_863207" data-name="Trazado 863207" d="M104.057,120.826a1.856,1.856,0,1,0,1.856-1.856,1.857,1.857,0,0,0-1.856,1.856" transform="translate(-39.297 -44.929)" fill="#422b53"/>
            <path id="Trazado_863208" data-name="Trazado 863208" d="M81.09,120.826a1.856,1.856,0,1,0,1.856-1.856,1.857,1.857,0,0,0-1.856,1.856" transform="translate(-30.624 -44.929)" fill="#422b53"/>
            <path id="Trazado_863209" data-name="Trazado 863209" d="M95.012,127.511H94.99c-.879-.061-3.783-.325-4.222-1.155a.6.6,0,0,1,.021-.6c2.791-4.775,1.935-12.563,1.926-12.641a.311.311,0,0,1,.618-.071c.038.327.889,8.07-2.006,13.026.119.309,1.856.7,3.706.824a.311.311,0,0,1-.021.622" transform="translate(-34.252 -42.585)" fill="#422b53"/>
            <path id="Trazado_863210" data-name="Trazado 863210" d="M95.711,140.958a.311.311,0,0,1-.22-.531c2.115-2.115,5.933-2.033,6.095-2.029a.311.311,0,0,1,.3.32.3.3,0,0,1-.319.3c-.04,0-3.714-.078-5.637,1.847a.313.313,0,0,1-.22.091" transform="translate(-36.028 -52.265)" fill="#422b53"/>
            <path id="Trazado_863211" data-name="Trazado 863211" d="M41.531,200.673h0a2.8,2.8,0,0,1-2.591-3L48.207,71.994l5.593.413L44.534,198.082a2.8,2.8,0,0,1-3,2.59" transform="translate(-14.703 -27.188)" fill="#422b53"/>
            <path id="Trazado_863212" data-name="Trazado 863212" d="M166.187,200.673h0a2.8,2.8,0,0,1-2.59-3l9.266-125.676,5.593.413-9.266,125.676a2.8,2.8,0,0,1-3,2.59" transform="translate(-61.779 -27.188)" fill="#422b53"/>
            <path id="Trazado_863213" data-name="Trazado 863213" d="M31.433,243.042c-1.335,2.656-3.646,11.734-.261,15.19s10.843,2.028,11.577.681,1.347-12.364.734-14.567-6.78-1.073-6.78-1.073l.207-3.437s-3.939.145-5.477,3.205" transform="translate(-11.108 -90.574)" fill="#ffc297"/>
            <path id="Trazado_863214" data-name="Trazado 863214" d="M174.964,240.933c.81,2.86,1.367,12.211-2.609,14.967s-11.031-.054-11.5-1.515,1.009-12.4,2.026-14.444,6.684-.929,6.684-.929l.35-3.508s4.113,2.133,5.046,5.428" transform="translate(-60.714 -88.938)" fill="#ffc297"/>
            <path id="Trazado_863215" data-name="Trazado 863215" d="M3.8,0,152.677,12.886l-3.8,46.208L0,46.208Z" transform="translate(0 0)" fill="#ebebf1"/>
            <rect id="Rectángulo_397333" data-name="Rectángulo 397333" width="5.56" height="111.909" transform="translate(21.295 13.752) rotate(-84.991)" fill="#d34659"/>
            <rect id="Rectángulo_397334" data-name="Rectángulo 397334" width="5.56" height="111.909" transform="translate(20.81 19.291) rotate(-84.991)" fill="#ffb959"/>
            <rect id="Rectángulo_397335" data-name="Rectángulo 397335" width="5.56" height="111.909" transform="translate(20.324 24.831) rotate(-84.991)" fill="#ffff54"/>
            <rect id="Rectángulo_397336" data-name="Rectángulo 397336" width="5.56" height="111.909" transform="translate(19.839 30.37) rotate(-84.991)" fill="#6bd359"/>
            <rect id="Rectángulo_397337" data-name="Rectángulo 397337" width="5.56" height="111.909" transform="translate(19.353 35.909) rotate(-84.991)" fill="#64d3e9"/>
            <rect id="Rectángulo_397338" data-name="Rectángulo 397338" width="5.56" height="111.909" transform="translate(18.868 41.448) rotate(-84.991)" fill="#7f50e9"/>
            <rect id="Rectángulo_397339" data-name="Rectángulo 397339" width="36.143" height="4.979" transform="translate(60.645 38.991) rotate(-36.993)" fill="#ff4659"/>
            <rect id="Rectángulo_397340" data-name="Rectángulo 397340" width="4.979" height="36.143" transform="matrix(0.799, -0.602, 0.602, 0.799, 63.713, 17.171)" fill="#ff4659"/>
          </g>
        </g>
      </g>
    </g>
  </g>
</svg>
