<svg xmlns="http://www.w3.org/2000/svg" xmlns:xlink="http://www.w3.org/1999/xlink" width="349" height="227.742" viewBox="0 0 349 227.742">
  <defs>
    <filter id="Rectángulo_397415" x="-53" y="-53" width="469" height="347.742" filterUnits="userSpaceOnUse">
      <feOffset dx="7" dy="7" input="SourceAlpha"/>
      <feGaussianBlur stdDeviation="20" result="blur"/>
      <feFlood flood-opacity="0.149"/>
      <feComposite operator="in" in2="blur"/>
      <feComposite in="SourceGraphic"/>
    </filter>
    <clipPath id="clip-path">
      <g transform="matrix(1, 0, 0, 1, 0, 0)" filter="url(#Rectángulo_397415)">
        <path id="Rectángulo_397415-2" data-name="Rectángulo 397415" d="M24,0H325a24,24,0,0,1,24,24V227.742a0,0,0,0,1,0,0H0a0,0,0,0,1,0,0V24A24,24,0,0,1,24,0Z" transform="translate(-3161 -7857)" fill="#12263f" opacity="0.48"/>
      </g>
    </clipPath>
    <clipPath id="clip-path-2">
      <rect id="Rectángulo_397423" data-name="Rectángulo 397423" width="352.608" height="352.608" fill="none"/>
    </clipPath>
    <clipPath id="clip-path-3">
      <rect id="Rectángulo_397425" data-name="Rectángulo 397425" width="385.617" height="354.953" fill="none"/>
    </clipPath>
    <clipPath id="clip-path-4">
      <path id="Trazado_863357" data-name="Trazado 863357" d="M257.461,244.766c-1.243-3.735-8.14-21.01-29.008-19.006-23.786,2.285-29.366,56.706,29.008,83.725,60.52-27.019,52.792-81.44,29.006-83.725q-1.706-.164-3.291-.161c-18.313,0-24.543,15.636-25.716,19.167" transform="translate(-211.504 -225.599)" fill="none"/>
    </clipPath>
  </defs>
  <g id="_20" data-name="20" transform="translate(3161 7857)" clip-path="url(#clip-path)">
    <g id="Grupo_1088620" data-name="Grupo 1088620" transform="translate(-3179.807 -7916.162)">
      <rect id="Rectángulo_397416" data-name="Rectángulo 397416" width="358.608" height="352.608" transform="translate(13.145)" fill="#c0c3cc"/>
      <rect id="Rectángulo_397417" data-name="Rectángulo 397417" width="16.025" height="179.783" transform="translate(211.475)" fill="#0e6bff"/>
      <rect id="Rectángulo_397418" data-name="Rectángulo 397418" width="16.025" height="179.783" transform="translate(227.501)" fill="#8622ad"/>
      <rect id="Rectángulo_397419" data-name="Rectángulo 397419" width="16.025" height="179.783" transform="translate(179.425)" fill="#ffcd58"/>
      <rect id="Rectángulo_397420" data-name="Rectángulo 397420" width="16.025" height="179.783" transform="translate(195.45)" fill="#56c7ab"/>
      <rect id="Rectángulo_397421" data-name="Rectángulo 397421" width="16.025" height="179.783" transform="translate(147.373)" fill="#ff3f32"/>
      <rect id="Rectángulo_397422" data-name="Rectángulo 397422" width="16.025" height="179.783" transform="translate(163.399)" fill="#faa149"/>
      <path id="Trazado_863253" data-name="Trazado 863253" d="M339.963,0,300.376,179.783h16.381L395.93,0Z" transform="translate(-88.546 0)" fill="#0e6bff"/>
      <path id="Trazado_863254" data-name="Trazado 863254" d="M402.778,0,323.6,179.783h16.381L458.745,0Z" transform="translate(-95.393 0)" fill="#8622ad"/>
      <path id="Trazado_863255" data-name="Trazado 863255" d="M197.787,0l39.587,179.783h16.381V0Z" transform="translate(-58.304 0)" fill="#ffcd58"/>
      <path id="Trazado_863256" data-name="Trazado 863256" d="M277.149,0V179.783h16.38L333.116,0Z" transform="translate(-81.699 0)" fill="#56c7ab"/>
      <path id="Trazado_863257" data-name="Trazado 863257" d="M39.063,0l118.76,179.783H174.2L95.03,0Z" transform="translate(-11.515 0)" fill="#ff3f32"/>
      <path id="Trazado_863258" data-name="Trazado 863258" d="M118.425,0,197.6,179.783h16.38L174.392,0Z" transform="translate(-34.91 0)" fill="#faa149"/>
      <g id="Grupo_1088613" data-name="Grupo 1088613" transform="translate(19.145)">
        <g id="Grupo_1088612" data-name="Grupo 1088612" clip-path="url(#clip-path-2)">
          <path id="Trazado_863259" data-name="Trazado 863259" d="M404.84,426.213s7.094,28.638,5.13,54.381h-19.4l-4.525-23.149-1.035,23.149H365.6s.56-38.671,1.967-54.381a98.577,98.577,0,0,0,37.273,0" transform="translate(-126.918 -125.641)" fill="#aaabb6"/>
          <path id="Trazado_863260" data-name="Trazado 863260" d="M405.012,420.955s.906-15.217-2.047-28.844c.454-15.9,4.542-32.251-11.356-31.8s-22.711-.454-25.891,5,2.044,25.319,2.044,25.319-.594,17.153-.7,30.326Z" transform="translate(-126.65 -106.212)" fill="#aaabb6"/>
          <path id="Trazado_863261" data-name="Trazado 863261" d="M390.786,315.828s7.607.784,9.965,8.1-.929,8.533,1.653,16.029,1.526,13.041-1.056,16.085-9.92,2.652-15.837.692-11.037.915-15.613-4.575c-3.854-4.622-2.881-12.488.675-18.369a17.351,17.351,0,0,0,2.157-6.9c.956-7.831,8.6-15.881,18.056-11.063" transform="translate(-127.455 -92.673)" fill="#aaabb6"/>
          <path id="Trazado_863262" data-name="Trazado 863262" d="M402.947,360.561s9.034-2.685,14.3,4.224S432.58,389.819,428.8,393.56c-2.61,2.584-5.143,1.953-12.117-5.313-9.106-9.487-13.738-27.685-13.738-27.685" transform="translate(-137.928 -106.136)" fill="#aaabb6"/>
          <path id="Trazado_863263" data-name="Trazado 863263" d="M370.995,360.916s-9.423-.191-12.67,7.87-8.719,27.714-4.083,30.317c3.2,1.8,7.449,1.63,10.857-7.847s5.9-30.339,5.9-30.339" transform="translate(-123.043 -106.392)" fill="#aaabb6"/>
          <path id="Trazado_863264" data-name="Trazado 863264" d="M396.574,359.79a67.854,67.854,0,0,0,4.859,22.033c4.65,11.233,6.845,38.981,6.845,38.981-12.978,4.013-27.987,4.233-40.294,0,0,0-.348-30.771.025-33.133l2.76-5.606,3.716-21.432,6.694-.48s-.067,6,5.515,6,4.605-6.367,4.605-6.367Z" transform="translate(-127.578 -106.06)" fill="#aaabb6"/>
          <path id="Trazado_863265" data-name="Trazado 863265" d="M397.484,385.868l3.958-3.226a31.85,31.85,0,0,0,15.083,6.583c9.3,1.446,12.754,4.639,11.1,9.633s-7.97,4.4-10.254,3.425c-7.233-3.074-11.253-7.435-19.883-16.415" transform="translate(-136.317 -112.797)" fill="#aaabb6"/>
          <path id="Trazado_863266" data-name="Trazado 863266" d="M344.976,372.332l5.085.465a31.857,31.857,0,0,0,6.165,15.259c5.63,7.542,5.861,12.24,1.182,14.647s-8.769-2.439-9.721-4.731c-3.013-7.257-2.833-13.186-2.71-25.64" transform="translate(-120.823 -109.758)" fill="#aaabb6"/>
          <path id="Trazado_863267" data-name="Trazado 863267" d="M391.371,363.021h0a6,6,0,0,0,6-6v-9.379h-12.01v9.379a6,6,0,0,0,6,6" transform="translate(-132.745 -102.478)" fill="#aaabb6"/>
          <path id="Trazado_863268" data-name="Trazado 863268" d="M377.615,332.6s-2,5.245.862,5.986,4.1-7.3,1.367-8.011c-1.716-.446-2.229,2.025-2.229,2.025" transform="translate(-130.26 -97.433)" fill="#aaabb6"/>
          <path id="Trazado_863269" data-name="Trazado 863269" d="M396.4,351.346a14.7,14.7,0,0,1-11.03,2.582V357.3a13.342,13.342,0,0,0,11.03-5.953" transform="translate(-132.745 -103.571)" fill="#aaabb6"/>
          <path id="Trazado_863270" data-name="Trazado 863270" d="M407.252,340.394s-.8,5.554-3.661,4.812-.035-8.374,2.7-7.666c1.716.445.965,2.854.965,2.854" transform="translate(-137.765 -99.488)" fill="#aaabb6"/>
          <path id="Trazado_863271" data-name="Trazado 863271" d="M385.859,345.785h0a9.436,9.436,0,0,0,11.468-6.747l1.366-5.269a9.409,9.409,0,1,0-18.215-4.722l-1.366,5.27a9.436,9.436,0,0,0,6.747,11.468" transform="translate(-130.813 -94.92)" fill="#aaabb6"/>
          <path id="Trazado_863272" data-name="Trazado 863272" d="M400.244,332.323s-1.659,1.384-5.115,0-4.93-8.389-4.93-8.389-7.811,6.13-9.228,3.525,4.435-8.686,12.453-7.3,7,8.206,6.82,12.167" transform="translate(-131.387 -94.317)" fill="#aaabb6"/>
          <path id="Trazado_863273" data-name="Trazado 863273" d="M401.776,381.885s1.414-.687,1.747-5.417.6-6.905-.891-7.118c-.033-2.377-.81-2.2-1.4-2.43-.594-1.648-1.36-.677-1.428.518s-.37,4.96-.37,4.96l-.269-3.149s.006-1.927-.669-1.869-1.207,8.429-1.207,8.429-.7-3.509-2.379-3.989c-.867-.209.258,2.357.475,5.567a6.671,6.671,0,0,0,2.564,4.823Z" transform="translate(-135.464 -107.904)" fill="#aaabb6"/>
          <path id="Trazado_863274" data-name="Trazado 863274" d="M345.584,371.12s-1.2-1.013-.367-5.68,1.108-6.842,2.606-6.683c.614-2.3,1.324-1.931,1.949-2.013.98-1.453,1.484-.324,1.258.852s-.855,4.9-.855,4.9l1.031-2.987s.466-1.869,1.106-1.648-.894,8.468-.894,8.468,1.534-3.232,3.284-3.284c.892.009-.827,2.222-1.824,5.281a6.669,6.669,0,0,1-3.666,4.048Z" transform="translate(-120.823 -104.96)" fill="#aaabb6"/>
          <path id="Trazado_863275" data-name="Trazado 863275" d="M178.143,447.941s.75,17.795,3.254,39.058H160.33l-1.547-10.233L157.236,487H137.385s-1.94-23.664,1.951-39.058c28.295,3.795,38.808,0,38.808,0" transform="translate(-59.501 -132.046)" fill="#aaabb6"/>
          <path id="Trazado_863276" data-name="Trazado 863276" d="M146.483,362.561a32.069,32.069,0,0,1,24.46.58,25.922,25.922,0,0,1,4.563,2.48c5.851,4.139,0,29.829,0,29.829s3.631,13.987,2.6,26.689H140.253s1.142-16.984,4.853-26.689c-3-18.7-4.139-27.4-2.569-30.4.458-.874,2-1.724,3.946-2.489" transform="translate(-60.49 -106.245)" fill="#aaabb6"/>
          <path id="Trazado_863277" data-name="Trazado 863277" d="M145.567,362.7s-8.694.81-10.841,8.568-4.539,26.814,0,28.725c3.137,1.321,6.439.331,8.585-8.749s2.256-28.544,2.256-28.544" transform="translate(-58.099 -106.918)" fill="#aaabb6"/>
          <path id="Trazado_863278" data-name="Trazado 863278" d="M180.684,363.943s8.73-.177,11.738,7.291,7.535,26.13,3.241,28.541c-2.967,1.666-6.36,1.054-9.517-7.725s-5.463-28.107-5.463-28.107" transform="translate(-72.408 -107.284)" fill="#aaabb6"/>
          <path id="Trazado_863279" data-name="Trazado 863279" d="M162.193,360.986s7.412,1.73,11.518,3.193,5.781,6.343,7.652,13.113a29.582,29.582,0,0,1-8.077,3.5s1.547,14.988,2.743,24.838,1.606,20.093,1.606,20.093c-13.336,6.02-28.23,4.992-42.007-.835l7.614-44.573a35.545,35.545,0,0,1-10.659-3.94c1.5-6.205,2.832-10.835,6.4-13s11.023-2.961,11.023-2.961,6.314,5.766,12.186.571" transform="translate(-58.229 -106.245)" fill="#aaabb6"/>
          <path id="Trazado_863280" data-name="Trazado 863280" d="M158.809,388.631l-4.127-2.311a29.51,29.51,0,0,1-12.712,8.419c-8.254,2.807-10.9,6.274-8.584,10.566s7.976,2.738,9.9,1.486c6.109-3.962,9.08-8.585,15.518-18.159" transform="translate(-58.229 -113.881)" fill="#aaabb6"/>
          <path id="Trazado_863281" data-name="Trazado 863281" d="M201.547,373.071l-4.592,1.137a29.509,29.509,0,0,1-3.515,14.836c-4.1,7.693-1.374,12.233.964,13.58,4.225,2.432,7.691-3.459,8.243-5.691,1.746-7.068.752-12.473-1.1-23.862" transform="translate(-75.545 -109.975)" fill="#aaabb6"/>
          <path id="Trazado_863282" data-name="Trazado 863282" d="M163.384,363.433h0a6.093,6.093,0,0,1-6.093-6.093v-9.517h12.186v9.517a6.093,6.093,0,0,1-6.093,6.093" transform="translate(-65.512 -102.533)" fill="#aaabb6"/>
          <path id="Trazado_863283" data-name="Trazado 863283" d="M169.781,352.741v4.934a12.822,12.822,0,0,1-11.457-6.556Z" transform="translate(-65.817 -103.504)" fill="#aaabb6"/>
          <path id="Trazado_863284" data-name="Trazado 863284" d="M151.645,340.473s.816,5.635,3.715,4.884.036-8.5-2.736-7.779c-1.741.451-.979,2.9-.979,2.9" transform="translate(-63.799 -99.499)" fill="#aaabb6"/>
          <path id="Trazado_863285" data-name="Trazado 863285" d="M168.386,346.456h0c-5.082,1.317-11.786-2.276-13.1-7.359L153.9,333.75a9.547,9.547,0,0,1,18.483-4.791l1.386,5.347c1.317,5.083,1.771,10.4-5.379,12.15" transform="translate(-64.422 -94.864)" fill="#aaabb6"/>
          <path id="Trazado_863286" data-name="Trazado 863286" d="M153.9,327.44s2.891,7.391.453,10.851c-.236-3.538-2.556-4.442-2.556-4.442s-2.675-4.64,2.1-6.409" transform="translate(-63.672 -96.524)" fill="#aaabb6"/>
          <path id="Trazado_863287" data-name="Trazado 863287" d="M201.709,369.317s1.171-.941.475-5.418-.91-6.561-2.343-6.442c-.537-2.207-1.223-1.874-1.819-1.967-.9-1.41-1.411-.341-1.221.787s.711,4.7.711,4.7l-.92-2.877s-.4-1.8-1.021-1.6.669,8.111.669,8.111-1.394-3.121-3.065-3.21c-.853-.011.741,2.141,1.627,5.086a6.375,6.375,0,0,0,3.415,3.948Z" transform="translate(-76.018 -104.594)" fill="#aaabb6"/>
          <path id="Trazado_863288" data-name="Trazado 863288" d="M161.026,385.953s-1.248-.837-.937-5.358.344-6.615,1.783-6.619c.345-2.245,1.057-1.972,1.643-2.116.78-1.482,1.377-.461,1.283.68s-.305,4.743-.305,4.743l.67-2.945s.25-1.824.881-1.68.028,8.137.028,8.137,1.122-3.229,2.779-3.46c.848-.083-.556,2.2-1.185,5.207a6.375,6.375,0,0,1-3.064,4.226Z" transform="translate(-66.322 -109.401)" fill="#aaabb6"/>
          <path id="Trazado_863289" data-name="Trazado 863289" d="M147.921,321.228c-5.016,10.474,6.975,20.948,6.975,20.948l15.451-15.316c4.87-13.84-17.41-16.106-22.425-5.632" transform="translate(-62.389 -92.764)" fill="#aaabb6"/>
          <path id="Trazado_863290" data-name="Trazado 863290" d="M419.9,394.515,413.5,471.25h44.191l3.04-20.1.236,20.1h39l-.554-73.737c-55.589,7.456-79.522-3-79.522-3" transform="translate(-141.039 -116.297)" fill="#4d4f5d"/>
          <path id="Trazado_863291" data-name="Trazado 863291" d="M487.4,226.776a63,63,0,0,0-48.056,1.141,50.775,50.775,0,0,0-8.963,4.872c-11.5,8.131,0,58.6,0,58.6s-7.135,27.479-5.11,52.435h74.368s-2.243-33.367-9.533-52.435c5.888-36.732,8.131-53.836,5.047-59.725-.9-1.717-3.922-3.387-7.752-4.891" transform="translate(-144.401 -65.607)" fill="#5a5e69"/>
          <path id="Trazado_863292" data-name="Trazado 863292" d="M509.413,227.046s17.081,1.59,21.3,16.834,8.917,52.678,0,56.434c-6.161,2.594-12.649.649-16.865-17.19s-4.432-56.078-4.432-56.078" transform="translate(-169.312 -66.93)" fill="#5a5e69"/>
          <path id="Trazado_863293" data-name="Trazado 863293" d="M480.258,136.121s-3.374-7.235-12.641-5.594-10.676,8.028-19.452,8.177a10.556,10.556,0,0,0,5.89,5.054,25.454,25.454,0,0,0-5.637,9.592c-3.244,9.97-6.41,30.057,17.611,33.413s28.388-17.6,28.388-17.6-2.069,1.831,0,5.445c4.79-2.76,11.834-34.458-14.159-38.485" transform="translate(-150.678 -38.406)" fill="#222221"/>
          <path id="Trazado_863294" data-name="Trazado 863294" d="M437.7,229.491s-17.151-.347-23.061,14.323-14.805,51.336-6.369,56.073c5.829,3.274,12.495,2.072,18.7-15.176s10.732-55.22,10.732-55.22" transform="translate(-138.475 -67.65)" fill="#5a5e69"/>
          <path id="Trazado_863295" data-name="Trazado 863295" d="M447.712,223.682s-14.561,3.4-22.628,6.273-11.357,12.462-15.033,25.762c6.773,4.592,15.868,6.882,15.868,6.882s-3.04,29.446-5.391,48.8-4.94,48.495-4.94,48.495c26.2,11.829,61.483,7.252,88.55-4.2l-19.2-94.033a69.83,69.83,0,0,0,20.94-7.741c-2.943-12.192-5.564-21.287-12.575-25.544s-21.655-5.817-21.655-5.817-12.4,11.328-23.941,1.122" transform="translate(-140.022 -65.607)" fill="#33343d"/>
          <path id="Trazado_863296" data-name="Trazado 863296" d="M472.885,277.993l8.109-4.541a57.972,57.972,0,0,0,24.973,16.541c16.217,5.514,21.406,12.325,16.865,20.758s-15.67,5.377-19.46,2.919c-12-7.784-17.838-16.865-30.487-35.677" transform="translate(-158.544 -80.609)" fill="#5a5e69"/>
          <path id="Trazado_863297" data-name="Trazado 863297" d="M386.053,253.321l9.291.17a57.979,57.979,0,0,0,13.219,26.88c11.221,12.941,7.982,22.828,4.091,26.43-7.027,6.507-16.242-3.262-18.275-7.3-6.434-12.774-6.894-23.561-8.326-46.184" transform="translate(-132.947 -74.675)" fill="#5a5e69"/>
          <path id="Trazado_863298" data-name="Trazado 863298" d="M475.425,228.489h0a11.97,11.97,0,0,0,11.97-11.97v-18.7H463.455v18.7a11.97,11.97,0,0,0,11.97,11.97" transform="translate(-155.764 -58.314)" fill="#5a5e69"/>
          <path id="Trazado_863299" data-name="Trazado 863299" d="M463.455,207.482v9.693a25.19,25.19,0,0,0,22.508-12.881Z" transform="translate(-155.764 -60.223)" fill="#33343d"/>
          <path id="Trazado_863300" data-name="Trazado 863300" d="M504.313,183.38s-1.6,11.07-7.3,9.594-.07-16.7,5.377-15.283c3.421.886,1.923,5.689,1.923,5.689" transform="translate(-164.955 -52.353)" fill="#5a5e69"/>
          <path id="Trazado_863301" data-name="Trazado 863301" d="M458.4,195.135h0c9.986,2.589,23.154-4.472,25.742-14.458l2.724-10.5a18.756,18.756,0,0,0-36.312-9.413l-2.723,10.5c-2.589,9.986-3.48,20.438,10.568,23.87" transform="translate(-150.706 -43.248)" fill="#5a5e69"/>
          <path id="Trazado_863302" data-name="Trazado 863302" d="M457.622,146.093s15.544,9.888,28.054,1.932-19.171-12.536-28.054-1.932" transform="translate(-154.045 -41.238)" fill="#222221"/>
          <path id="Trazado_863303" data-name="Trazado 863303" d="M500.554,157.777s-5.678,14.522-.89,21.319c.464-6.952,5.021-8.728,5.021-8.728s5.255-9.115-4.131-12.591" transform="translate(-165.872 -46.51)" fill="#222221"/>
          <path id="Trazado_863304" data-name="Trazado 863304" d="M386.331,245.116s-2.655-1.29-3.28-10.171-1.127-12.964,1.673-13.363c.061-4.462,1.522-4.124,2.623-4.562,1.115-3.1,2.554-1.271,2.682.973s.694,9.312.694,9.312l.5-5.913s-.011-3.616,1.257-3.508,2.264,15.826,2.264,15.826,1.307-6.588,4.468-7.489c1.628-.393-.484,4.425-.892,10.453a12.524,12.524,0,0,1-4.814,9.054Z" transform="translate(-131.919 -63.49)" fill="#5a5e69"/>
          <path id="Trazado_863305" data-name="Trazado 863305" d="M482.609,272.731s2.451-1.645,1.842-10.526-.677-13-3.5-13c-.678-4.41-2.077-3.874-3.228-4.155-1.532-2.912-2.706-.905-2.522,1.334s.6,9.319.6,9.319l-1.317-5.786s-.491-3.583-1.731-3.3-.055,15.988-.055,15.988-2.205-6.345-5.461-6.8c-1.666-.164,1.092,4.316,2.329,10.228a12.522,12.522,0,0,0,6.02,8.3Z" transform="translate(-156.725 -71.808)" fill="#5a5e69"/>
          <path id="Trazado_863306" data-name="Trazado 863306" d="M453.012,175.364a1.855,1.855,0,1,0,2.225-1.39,1.855,1.855,0,0,0-2.225,1.39" transform="translate(-152.672 -51.271)" fill="#222221"/>
          <path id="Trazado_863307" data-name="Trazado 863307" d="M478.8,181.289a1.855,1.855,0,1,0,2.225-1.39,1.855,1.855,0,0,0-2.225,1.39" transform="translate(-160.275 -53.017)" fill="#222221"/>
          <path id="Trazado_863308" data-name="Trazado 863308" d="M452.692,174.318a8.766,8.766,0,0,1,8.684,1.411" transform="translate(-152.592 -51.218)" fill="none" stroke="#222221" stroke-linecap="round" stroke-linejoin="round" stroke-width="1.3"/>
          <path id="Trazado_863309" data-name="Trazado 863309" d="M478.35,180.243a8.766,8.766,0,0,1,8.684,1.411" transform="translate(-160.155 -52.964)" fill="none" stroke="#222221" stroke-linecap="round" stroke-linejoin="round" stroke-width="1.3"/>
          <path id="Trazado_863310" data-name="Trazado 863310" d="M470.492,174.093a44.931,44.931,0,0,0-5.351,7.808c-1.62,3.438,2.3,3.724,2.3,3.724" transform="translate(-156.146 -51.32)" fill="none" stroke="#222221" stroke-linecap="round" stroke-linejoin="round" stroke-width="1.3"/>
          <path id="Trazado_863311" data-name="Trazado 863311" d="M475.97,176.732s4.234-2.288,7.631-2.353a10.131,10.131,0,0,1,5.76,1.687s-.889-3.333-5.494-4.474a11.323,11.323,0,0,0-8.4,1.445Z" transform="translate(-159.306 -50.497)" fill="#222221"/>
          <path id="Trazado_863312" data-name="Trazado 863312" d="M462.862,173.378s-2.331-3.361-4.883-4.716a8.613,8.613,0,0,0-5.015-.934s1.953-2.185,5.884-1.281a9.625,9.625,0,0,1,5.813,4.322Z" transform="translate(-152.672 -49.001)" fill="#222221"/>
          <path id="Trazado_863313" data-name="Trazado 863313" d="M464.748,195.817s5.525-4.346,8.347,0" transform="translate(-156.145 -57.154)" fill="none" stroke="#222221" stroke-linecap="round" stroke-linejoin="round" stroke-width="1.3"/>
          <path id="Trazado_863314" data-name="Trazado 863314" d="M33.031,356.934s-5.277,48.857-9.74,103.238H60.122l8.592-43.946,1.964,43.946h36.846s-1.063-73.414-3.734-103.238c-38.709,7.5-70.759,0-70.759,0" transform="translate(-26.011 -105.218)" fill="#4d4f5d"/>
          <path id="Trazado_863315" data-name="Trazado 863315" d="M35.812,346.952s-1.719-28.888,3.886-54.759c-.862-30.182-8.623-61.225,21.558-60.363s43.117-.862,49.154,9.485-3.881,48.065-3.881,48.065,1.13,32.563,1.337,57.571Z" transform="translate(-29.629 -68.335)" fill="#5a5e69"/>
          <path id="Trazado_863316" data-name="Trazado 863316" d="M69.4,146.745s-12.4,1.148-16.24,11.86,1.513,12.486-2.7,23.458S47.982,201.147,52.19,205.6,68.357,209.482,78,206.612s17.989,1.339,25.448-6.694c6.281-6.765,4.7-18.276-1.1-26.883a23.569,23.569,0,0,1-3.517-10.1c-1.559-11.46-14.018-23.239-29.429-16.19" transform="translate(-33.308 -42.631)" fill="#222221"/>
          <path id="Trazado_863317" data-name="Trazado 863317" d="M50.658,232.3s-17.151-5.1-27.156,8.019S-5.6,287.843,1.574,294.943c4.956,4.905,9.765,3.707,23-10.085,17.288-18.011,26.08-52.559,26.08-52.559" transform="translate(-19.145 -68.19)" fill="#33343d"/>
          <path id="Trazado_863318" data-name="Trazado 863318" d="M117.779,232.973s17.889-.363,24.052,14.939,16.551,52.613,7.752,57.554c-6.08,3.414-14.142,3.093-20.611-14.9s-11.193-57.6-11.193-57.6" transform="translate(-53.865 -68.676)" fill="#33343d"/>
          <path id="Trazado_863319" data-name="Trazado 863319" d="M48.759,230.834a128.809,128.809,0,0,1-9.224,41.827c-8.828,21.325-20.36,118.92-20.36,118.92C43.814,399.2,86.733,402.039,110.1,394c0,0-6.4-105.756-7.109-110.239l-5.24-10.642-7.053-40.687-12.708-.91s.127,11.4-10.47,11.4-8.743-12.087-8.743-12.087Z" transform="translate(-24.798 -68.046)" fill="#33343d"/>
          <path id="Trazado_863320" data-name="Trazado 863320" d="M57.972,280.342l-7.513-6.125a60.472,60.472,0,0,1-28.635,12.5C4.171,289.459-2.387,295.522.76,305s15.13,8.346,19.467,6.5c13.73-5.836,21.363-14.115,37.745-31.163" transform="translate(-19.145 -80.835)" fill="#5a5e69"/>
          <path id="Trazado_863321" data-name="Trazado 863321" d="M103.7,271.1l9.4-2.348a60.475,60.475,0,0,0,20.6,23.489c14.81,9.992,18.166,18.269,11.286,25.511s-17.244,1.118-20.384-2.394c-9.944-11.122-13.331-21.86-20.907-44.258" transform="translate(-49.715 -79.223)" fill="#5a5e69"/>
          <path id="Trazado_863322" data-name="Trazado 863322" d="M84.279,236.97h0a11.4,11.4,0,0,1-11.4-11.4V207.764h22.8V225.57a11.4,11.4,0,0,1-11.4,11.4" transform="translate(-40.629 -61.246)" fill="#5a5e69"/>
          <path id="Trazado_863323" data-name="Trazado 863323" d="M116.408,179.219s3.787,9.957-1.638,11.363-7.783-13.865-2.6-15.209c3.258-.844,4.233,3.846,4.233,3.846" transform="translate(-51.36 -51.667)" fill="#5a5e69"/>
          <path id="Trazado_863324" data-name="Trazado 863324" d="M75.517,214.8s7.944,4.976,21.034,3.2c0,4.949-.1,8.1-.1,8.1s-13.3.525-20.939-11.3" transform="translate(-41.406 -63.321)" fill="#33343d"/>
          <path id="Trazado_863325" data-name="Trazado 863325" d="M59.677,194.011s1.527,10.543,6.951,9.137.067-15.9-5.12-14.556c-3.258.845-1.831,5.418-1.831,5.418" transform="translate(-36.645 -55.568)" fill="#5a5e69"/>
          <path id="Trazado_863326" data-name="Trazado 863326" d="M88.257,204.246h0a17.915,17.915,0,0,1-21.772-12.808l-2.593-10a17.862,17.862,0,1,1,34.58-8.964l2.593,10a17.914,17.914,0,0,1-12.808,21.772" transform="translate(-37.812 -46.898)" fill="#5a5e69"/>
          <path id="Trazado_863327" data-name="Trazado 863327" d="M61.391,178.691s3.15,2.628,9.71,0,9.36-15.924,9.36-15.924S95.289,174.4,97.979,169.46s-8.42-16.491-23.641-13.867-13.3,15.578-12.947,23.1" transform="translate(-37.164 -45.753)" fill="#222221"/>
          <path id="Trazado_863328" data-name="Trazado 863328" d="M66.761,272.779s-2.685-1.3-3.317-10.283-1.14-13.109,1.691-13.513c.062-4.511,1.538-4.17,2.652-4.613,1.127-3.13,2.583-1.285,2.712.984s.7,9.415.7,9.415l.51-5.979s-.011-3.657,1.271-3.547,2.291,16,2.291,16,1.32-6.662,4.516-7.572c1.647-.4-.489,4.475-.9,10.569A12.658,12.658,0,0,1,74.02,273.4Z" transform="translate(-37.702 -71.546)" fill="#5a5e69"/>
          <path id="Trazado_863329" data-name="Trazado 863329" d="M114.166,268.247s2.685-1.3,3.316-10.283,1.14-13.109-1.69-13.513c-.063-4.511-1.539-4.17-2.652-4.613-1.127-3.13-2.583-1.285-2.712.984s-.7,9.415-.7,9.415l-.51-5.979s.011-3.657-1.271-3.547-2.291,16-2.291,16-1.321-6.662-4.517-7.572c-1.647-.4.489,4.475.9,10.569a12.661,12.661,0,0,0,4.867,9.154Z" transform="translate(-48.777 -70.21)" fill="#5a5e69"/>
          <path id="Trazado_863330" data-name="Trazado 863330" d="M110.672,184.789a1.876,1.876,0,1,1-2.346-1.238,1.876,1.876,0,0,1,2.346,1.238" transform="translate(-50.688 -54.083)" fill="#222221"/>
          <path id="Trazado_863331" data-name="Trazado 863331" d="M84.371,192.65a1.876,1.876,0,1,1-2.346-1.238,1.876,1.876,0,0,1,2.346,1.238" transform="translate(-42.935 -56.4)" fill="#222221"/>
          <path id="Trazado_863332" data-name="Trazado 863332" d="M109.371,183.843a8.864,8.864,0,0,0-8.654,2.061" transform="translate(-48.835 -54.083)" fill="none" stroke="#222221" stroke-linecap="round" stroke-linejoin="round" stroke-width="1.3"/>
          <path id="Trazado_863333" data-name="Trazado 863333" d="M83.931,191.705a8.865,8.865,0,0,0-8.654,2.061" transform="translate(-41.336 -56.4)" fill="none" stroke="#222221" stroke-linecap="round" stroke-linejoin="round" stroke-width="1.3"/>
          <path id="Trazado_863334" data-name="Trazado 863334" d="M92.582,185.02a45.452,45.452,0,0,1,5.971,7.481c1.886,3.348-2.042,3.924-2.042,3.924" transform="translate(-46.437 -54.541)" fill="none" stroke="#222221" stroke-linecap="round" stroke-linejoin="round" stroke-width="1.3"/>
          <path id="Trazado_863335" data-name="Trazado 863335" d="M83.962,188.08s-3.685-3.269-7.116-3.085-6.438,3.4-6.438,3.4.651-3.427,5.212-4.915a11.448,11.448,0,0,1,8.576.84Z" transform="translate(-39.9 -53.94)" fill="#222221"/>
          <path id="Trazado_863336" data-name="Trazado 863336" d="M97.855,183.677s1.706-4.769,4.179-6.322,5.387-.1,5.387-.1-2.131-2.061-6.027-.86a9.732,9.732,0,0,0-5.544,4.786Z" transform="translate(-47.4 -51.887)" fill="#222221"/>
          <path id="Trazado_863337" data-name="Trazado 863337" d="M94.3,207.223a4.627,4.627,0,0,1,4.525-2.147" transform="translate(-46.943 -60.442)" fill="none" stroke="#222221" stroke-linecap="round" stroke-linejoin="round" stroke-width="1.3"/>
        </g>
      </g>
      <g id="Grupo_1088615" data-name="Grupo 1088615">
        <g id="Grupo_1088614" data-name="Grupo 1088614" clip-path="url(#clip-path-3)">
          <path id="Trazado_863338" data-name="Trazado 863338" d="M285.465,220.744c-2.182-.473-4.374-.879-6.57-1.241-.018.113-2.3,14.535-21.8,14.535s-21.783-14.414-21.8-14.535c-2.2.363-4.386.768-6.567,1.24-17.882,3.875-20.987,8.437-19.153,25.479,2.552,23.709,9.763,108.705,9.763,108.705h75.518s7.212-85,9.763-108.705c1.834-17.042-1.271-21.6-19.153-25.479" transform="translate(-61.643 -64.706)" fill="#fff"/>
          <path id="Trazado_863339" data-name="Trazado 863339" d="M268.039,233.291c19.5,0,21.781-14.422,21.8-14.536a133.869,133.869,0,0,0-43.6,0c.019.121,2.306,14.535,21.8,14.535" transform="translate(-72.587 -63.959)" fill="#e46341"/>
          <path id="Trazado_863340" data-name="Trazado 863340" d="M288.353,126.069C278.01,110.258,265.4,110.621,265.4,110.621s-3.88-5.069-10.767-2.052l2.718,2.776s-8.9-2.24-15.875,4.465a16.312,16.312,0,0,0-4.893,15.449,25.563,25.563,0,0,1,5.864-5.19c-4.015,5.553-14.014,40.313,22.954,40.313s26.969-34.76,22.953-40.313" transform="translate(-69.63 -31.722)" fill="#222221"/>
          <rect id="Rectángulo_397424" data-name="Rectángulo 397424" width="30.31" height="35.793" transform="translate(180.721 127.385)" fill="#e46341"/>
          <path id="Trazado_863341" data-name="Trazado 863341" d="M241.565,150.187c-7.879,0-4.413,19.855,9.14,19.855V158.066s-1.261-7.879-9.14-7.879" transform="translate(-69.984 -44.273)" fill="#ff512c"/>
          <path id="Trazado_863342" data-name="Trazado 863342" d="M308.383,150.187c-7.879,0-9.14,7.879-9.14,7.879v11.976c13.552,0,17.018-19.855,9.14-19.855" transform="translate(-88.212 -44.273)" fill="#ff512c"/>
          <path id="Trazado_863343" data-name="Trazado 863343" d="M287.633,199.372l-27.774,2.152s8.643,12.3,27.774,5.532" transform="translate(-76.602 -58.772)" fill="#222221"/>
          <path id="Trazado_863344" data-name="Trazado 863344" d="M268.639,125.448a21.868,21.868,0,0,0-21.8,21.8v8.285c0,11.992,0,28.85,21.8,28.85s21.8-16.857,21.8-28.85v-8.285a21.868,21.868,0,0,0-21.8-21.8" transform="translate(-72.763 -36.98)" fill="#e46341"/>
          <path id="Trazado_863345" data-name="Trazado 863345" d="M246.79,142.939a36.259,36.259,0,0,0,21.8-17.75c-16.418-3.776-22.845,10.67-21.8,17.75" transform="translate(-72.718 -36.721)" fill="#222221"/>
          <path id="Trazado_863346" data-name="Trazado 863346" d="M271.406,179.541s2.882,1.762,8.145.511" transform="translate(-80.006 -52.926)" fill="none" stroke="#222221" stroke-linecap="round" stroke-linejoin="round" stroke-width="1.3"/>
          <path id="Trazado_863347" data-name="Trazado 863347" d="M254.175,154.42s5.455-4.091,11.154-1.477l.568-2.971s-8.106-3.355-11.722,4.448" transform="translate(-74.927 -43.998)" fill="#28201e"/>
          <path id="Trazado_863348" data-name="Trazado 863348" d="M296.6,154.42s-5.455-4.091-11.154-1.477l-.568-2.971s8.105-3.355,11.722,4.448" transform="translate(-83.977 -43.998)" fill="#28201e"/>
          <path id="Trazado_863349" data-name="Trazado 863349" d="M254.419,159.736s4.2-3.353,10.341-.682" transform="translate(-74.999 -46.582)" fill="none" stroke="#222221" stroke-linecap="round" stroke-linejoin="round" stroke-width="1.3"/>
          <path id="Trazado_863350" data-name="Trazado 863350" d="M295.781,159.736s-4.2-3.353-10.341-.682" transform="translate(-84.143 -46.582)" fill="none" stroke="#222221" stroke-linecap="round" stroke-linejoin="round" stroke-width="1.3"/>
          <path id="Trazado_863351" data-name="Trazado 863351" d="M275.727,153.368s-3.125,6.006-4.073,10.381,3.622,3.666,3.622,3.666" transform="translate(-80.041 -45.21)" fill="none" stroke="#222221" stroke-linecap="round" stroke-linejoin="round" stroke-width="1.3"/>
          <path id="Trazado_863352" data-name="Trazado 863352" d="M272.649,174.995s-7.882-2.336-10.6,5.235c4.337,0,10.6-3.283,10.6-3.283s6.267,3.283,10.6,3.283c-2.722-7.571-10.6-5.235-10.6-5.235" transform="translate(-77.247 -51.485)" fill="#28201e"/>
          <path id="Trazado_863353" data-name="Trazado 863353" d="M252.15,165.36a2.646,2.646,0,1,0,2.566-2,2.337,2.337,0,0,0-2.566,2" transform="translate(-74.33 -48.155)" fill="#ff512c"/>
          <path id="Trazado_863354" data-name="Trazado 863354" d="M295.539,165.36a2.646,2.646,0,1,0,2.566-2,2.337,2.337,0,0,0-2.566,2" transform="translate(-87.12 -48.155)" fill="#ff512c"/>
          <path id="Trazado_863355" data-name="Trazado 863355" d="M211.587,225.41c-17,4.027-32.071,13.606-23.451,59.755,4.2,22.458,10.52,34.569,21.355,37.51l16.236-27.131Z" transform="translate(-54.722 -66.447)" fill="#fff"/>
          <path id="Trazado_863356" data-name="Trazado 863356" d="M324.959,224.913,311.818,295.4l16.238,27.13c10.834-2.943,17.157-15.054,21.353-37.51,8.621-46.148-7.451-56.08-24.45-60.106" transform="translate(-91.919 -66.301)" fill="#fff"/>
        </g>
      </g>
      <g id="Grupo_1088617" data-name="Grupo 1088617" transform="translate(149.156 159.096)">
        <g id="Grupo_1088616" data-name="Grupo 1088616" clip-path="url(#clip-path-4)">
          <rect id="Rectángulo_397426" data-name="Rectángulo 397426" width="106.114" height="14.188" transform="translate(-6.761 55.51)" fill="#0e6bff"/>
          <rect id="Rectángulo_397427" data-name="Rectángulo 397427" width="106.114" height="14.188" transform="translate(-6.761 69.698)" fill="#8622ad"/>
          <rect id="Rectángulo_397428" data-name="Rectángulo 397428" width="106.114" height="14.188" transform="translate(-6.761 27.134)" fill="#ffcd58"/>
          <rect id="Rectángulo_397429" data-name="Rectángulo 397429" width="106.114" height="14.188" transform="translate(-6.761 41.321)" fill="#56c7ab"/>
          <rect id="Rectángulo_397430" data-name="Rectángulo 397430" width="106.114" height="14.188" transform="translate(-6.761 -1.243)" fill="#ff3f32"/>
          <rect id="Rectángulo_397431" data-name="Rectángulo 397431" width="106.114" height="14.188" transform="translate(-6.761 12.946)" fill="#faa149"/>
        </g>
      </g>
      <g id="Grupo_1088619" data-name="Grupo 1088619">
        <g id="Grupo_1088618" data-name="Grupo 1088618" clip-path="url(#clip-path-3)">
          <path id="Trazado_863358" data-name="Trazado 863358" d="M260.488,376.7H220.622l2.164,86.954h35.574l.543-32.907,1.857,32.907H298.19l2.164-86.954Z" transform="translate(-65.036 -111.045)" fill="#0e6bff"/>
          <path id="Trazado_863359" data-name="Trazado 863359" d="M307.889,279.944c2.011-4.447-1.407-3.992-3.86-1.734s-10.358,9.2-10.358,9.2l5.571-6.816s3.747-3.84,2.286-5.033-18.761,14.509-18.761,14.509,5.415-8.364,2.98-12.587c-1.328-2.1-4.056,5.212-9.848,12.049a18.523,18.523,0,0,0-4.336,10.4L235.7,310.309c-10.549,5.548-16.17,14.449-16.236,27.131,12.893,3.5,32.2-6.014,61.884-26.506,1.941-.229,5.98-1.544,12.6-7.47,9.838-8.809,14.592-12.637,12.025-15.954,4.543-4.814,2.64-5.963,1.92-7.566" transform="translate(-64.694 -81.211)" fill="#e46341"/>
          <path id="Trazado_863360" data-name="Trazado 863360" d="M297.455,337.438c.378-11.948-5.209-20.9-16.239-27.13l-35.862-10.375a18.525,18.525,0,0,0-4.335-10.405c-5.792-6.838-8.52-14.149-9.848-12.049-2.435,4.224,2.98,12.588,2.98,12.588s-17.3-15.7-18.761-14.51,2.287,5.033,2.287,5.033l5.571,6.817s-7.9-6.939-10.358-9.2-5.871-2.713-3.861,1.734c-.719,1.6-2.623,2.752,1.92,7.566-2.567,3.317,2.186,7.145,12.025,15.955,6.616,5.922,10.653,7.239,12.6,7.469,29.685,20.493,48.993,30.007,61.887,26.5" transform="translate(-61.32 -81.21)" fill="#e46341"/>
          <line id="Línea_643" data-name="Línea 643" x2="77.968" transform="translate(156.468 271.492)" fill="none" stroke="#222221" stroke-linecap="round" stroke-linejoin="round" stroke-width="1.3"/>
          <path id="Trazado_863361" data-name="Trazado 863361" d="M277.539,384.977V428.8H269.4V384.977" transform="translate(-79.415 -113.485)" fill="none" stroke="#222221" stroke-linecap="round" stroke-linejoin="round" stroke-width="1.3"/>
          <line id="Línea_644" data-name="Línea 644" x1="1.252" y2="36.209" transform="translate(188.733 315.318)" fill="none" stroke="#222221" stroke-linecap="round" stroke-linejoin="round" stroke-width="1.3"/>
          <line id="Línea_645" data-name="Línea 645" x2="1.252" y2="36.209" transform="translate(198.124 315.318)" fill="none" stroke="#222221" stroke-linecap="round" stroke-linejoin="round" stroke-width="1.3"/>
          <path id="Trazado_863362" data-name="Trazado 863362" d="M222.939,419.1s13.786-6.678,13.786-34.122" transform="translate(-65.719 -113.485)" fill="none" stroke="#222221" stroke-linecap="round" stroke-linejoin="round" stroke-width="1.3"/>
          <path id="Trazado_863363" data-name="Trazado 863363" d="M325.6,419.1s-13.786-6.678-13.786-34.122" transform="translate(-91.919 -113.485)" fill="none" stroke="#222221" stroke-linecap="round" stroke-linejoin="round" stroke-width="1.3"/>
          <line id="Línea_646" data-name="Línea 646" y1="5.217" transform="translate(171.006 266.275)" fill="none" stroke="#222221" stroke-linecap="round" stroke-linejoin="round" stroke-width="1.3"/>
          <line id="Línea_647" data-name="Línea 647" y1="5.217" transform="translate(174.333 266.275)" fill="none" stroke="#222221" stroke-linecap="round" stroke-linejoin="round" stroke-width="1.3"/>
          <line id="Línea_648" data-name="Línea 648" y1="5.217" transform="translate(216.571 266.275)" fill="none" stroke="#222221" stroke-linecap="round" stroke-linejoin="round" stroke-width="1.3"/>
          <line id="Línea_649" data-name="Línea 649" y1="5.217" transform="translate(219.898 266.275)" fill="none" stroke="#222221" stroke-linecap="round" stroke-linejoin="round" stroke-width="1.3"/>
          <path id="Trazado_863364" data-name="Trazado 863364" d="M278.663,338.727,298.8,325.61l2-.332" transform="translate(-82.145 -95.887)" fill="none" stroke="#222221" stroke-linecap="round" stroke-linejoin="round" stroke-width="1.3"/>
          <line id="Línea_650" data-name="Línea 650" y1="6.444" x2="22.135" transform="translate(172.701 222.247)" fill="none" stroke="#222221" stroke-linecap="round" stroke-linejoin="round" stroke-width="1.3"/>
          <path id="Trazado_863365" data-name="Trazado 863365" d="M213.315,294.123s3.445,4,7.677,8.14" transform="translate(-62.882 -86.703)" fill="none" stroke="#222221" stroke-linecap="round" stroke-linejoin="round" stroke-width="1.3"/>
          <path id="Trazado_863366" data-name="Trazado 863366" d="M210.6,283.529s6.528,6.865,13.044,12.884" transform="translate(-62.081 -83.58)" fill="none" stroke="#222221" stroke-linecap="round" stroke-linejoin="round" stroke-width="1.3"/>
          <path id="Trazado_863367" data-name="Trazado 863367" d="M336.694,294.123s-3.445,4-7.677,8.14" transform="translate(-96.989 -86.703)" fill="none" stroke="#222221" stroke-linecap="round" stroke-linejoin="round" stroke-width="1.3"/>
          <path id="Trazado_863368" data-name="Trazado 863368" d="M337.167,283.529s-6.528,6.865-13.044,12.884" transform="translate(-95.546 -83.58)" fill="none" stroke="#222221" stroke-linecap="round" stroke-linejoin="round" stroke-width="1.3"/>
        </g>
      </g>
    </g>
  </g>
</svg>
