<svg xmlns="http://www.w3.org/2000/svg" xmlns:xlink="http://www.w3.org/1999/xlink" width="349" height="227.742" viewBox="0 0 349 227.742">
  <defs>
    <filter id="Rectángulo_397450" x="-53" y="-53" width="469" height="347.742" filterUnits="userSpaceOnUse">
      <feOffset dx="7" dy="7" input="SourceAlpha"/>
      <feGaussianBlur stdDeviation="20" result="blur"/>
      <feFlood flood-opacity="0.149"/>
      <feComposite operator="in" in2="blur"/>
      <feComposite in="SourceGraphic"/>
    </filter>
    <clipPath id="clip-path">
      <g transform="matrix(1, 0, 0, 1, 0, 0)" filter="url(#Rectángulo_397450)">
        <path id="Rectángulo_397450-2" data-name="Rectángulo 397450" d="M24,0H325a24,24,0,0,1,24,24V227.742a0,0,0,0,1,0,0H0a0,0,0,0,1,0,0V24A24,24,0,0,1,24,0Z" transform="translate(-2711 -7857)" fill="#12263f" opacity="0.48"/>
      </g>
    </clipPath>
    <clipPath id="clip-path-2">
      <rect id="Rectángulo_397452" data-name="Rectángulo 397452" width="425.824" height="302.683" fill="none"/>
    </clipPath>
    <clipPath id="clip-path-3">
      <rect id="Rectángulo_397470" data-name="Rectángulo 397470" width="302.683" height="303.52" fill="none"/>
    </clipPath>
    <clipPath id="clip-path-4">
      <rect id="Rectángulo_397454" data-name="Rectángulo 397454" width="18.667" height="24.776" fill="none"/>
    </clipPath>
    <clipPath id="clip-path-5">
      <rect id="Rectángulo_397455" data-name="Rectángulo 397455" width="60.267" height="72.204" fill="none"/>
    </clipPath>
    <clipPath id="clip-path-6">
      <rect id="Rectángulo_397456" data-name="Rectángulo 397456" width="24.019" height="20.434" fill="none"/>
    </clipPath>
    <clipPath id="clip-path-7">
      <rect id="Rectángulo_397457" data-name="Rectángulo 397457" width="104.323" height="119.769" fill="none"/>
    </clipPath>
    <clipPath id="clip-path-8">
      <rect id="Rectángulo_397458" data-name="Rectángulo 397458" width="28.939" height="32.311" fill="none"/>
    </clipPath>
    <clipPath id="clip-path-9">
      <rect id="Rectángulo_397459" data-name="Rectángulo 397459" width="78.867" height="82.161" fill="none"/>
    </clipPath>
    <clipPath id="clip-path-10">
      <rect id="Rectángulo_397460" data-name="Rectángulo 397460" width="27.556" height="24.969" fill="none"/>
    </clipPath>
    <clipPath id="clip-path-11">
      <rect id="Rectángulo_397461" data-name="Rectángulo 397461" width="54.198" height="13.809" fill="none"/>
    </clipPath>
    <clipPath id="clip-path-12">
      <rect id="Rectángulo_397462" data-name="Rectángulo 397462" width="25.051" height="31.634" fill="none"/>
    </clipPath>
    <clipPath id="clip-path-13">
      <rect id="Rectángulo_397469" data-name="Rectángulo 397469" width="70.052" height="36.859" fill="none"/>
    </clipPath>
    <clipPath id="clip-path-14">
      <rect id="Rectángulo_397471" data-name="Rectángulo 397471" width="36.534" height="36.827" fill="none"/>
    </clipPath>
    <clipPath id="clip-path-15">
      <rect id="Rectángulo_397472" data-name="Rectángulo 397472" width="31.331" height="35.642" fill="none"/>
    </clipPath>
    <clipPath id="clip-path-16">
      <rect id="Rectángulo_397473" data-name="Rectángulo 397473" width="25.151" height="30.451" fill="none"/>
    </clipPath>
    <clipPath id="clip-path-17">
      <rect id="Rectángulo_397474" data-name="Rectángulo 397474" width="25.681" height="32.595" fill="none"/>
    </clipPath>
  </defs>
  <g id="_21" data-name="21" transform="translate(2711 7857)" clip-path="url(#clip-path)">
    <g id="Grupo_1088660" data-name="Grupo 1088660" transform="translate(-2687.842 -7850.124)">
      <g id="Grupo_1088662" data-name="Grupo 1088662">
        <g id="Grupo_1088626" data-name="Grupo 1088626" transform="translate(-61.571 -29)">
          <g id="Grupo_1088661" data-name="Grupo 1088661">
            <g id="Grupo_1088624" data-name="Grupo 1088624" opacity="0.7">
              <g id="Grupo_1088623" data-name="Grupo 1088623">
                <g id="Grupo_1088622" data-name="Grupo 1088622" clip-path="url(#clip-path-2)">
                  <rect id="Rectángulo_397451" data-name="Rectángulo 397451" width="425.824" height="302.683" fill="#6b7e96"/>
                </g>
              </g>
            </g>
          </g>
        </g>
        <g id="Grupo_1088658" data-name="Grupo 1088658">
          <g id="Grupo_1088657" data-name="Grupo 1088657" clip-path="url(#clip-path-3)">
            <path id="Trazado_863369" data-name="Trazado 863369" d="M384.042,63.479s19.616-9.808,31.556,2.985,2.772,23.667,13.219,35.394,8.1,28.571-6.823,36.673-38.165-10.447-38.165-10.447Z" transform="translate(-151.472 -23.633)" fill="#2a2e39"/>
            <path id="Trazado_863370" data-name="Trazado 863370" d="M372.768,146.812s-.853,8.742,3.411,12.366,14.925-2.132,20.042,13.432c6,18.258,2.559,62.686,2.559,62.686s-27.719,7.889-47.121,6.823c0,0-22.6-63.325-17.91-77.4s22.388-9.382,22.388-20.682v-11.3Z" transform="translate(-131.456 -52.384)" fill="#6b7e96"/>
            <g id="Grupo_1088629" data-name="Grupo 1088629" transform="translate(224.63 80.356)" opacity="0.3">
              <g id="Grupo_1088628" data-name="Grupo 1088628">
                <g id="Grupo_1088627" data-name="Grupo 1088627" clip-path="url(#clip-path-4)">
                  <path id="Trazado_863371" data-name="Trazado 863371" d="M389.732,157.516a28.549,28.549,0,0,1-10.071-4.441c-2.682-1.972-6.283-4.765-8.6-8.018a9.761,9.761,0,0,0,.051-1.017v-11.3l16.631,14.072s-.642,6.6,1.985,10.7" transform="translate(-371.065 -132.74)" fill="#3f4c5b"/>
                </g>
              </g>
            </g>
            <path id="Trazado_863372" data-name="Trazado 863372" d="M339.2,173.089c.171.116.34.235.516.346a43.434,43.434,0,0,0,15,6.336,57.351,57.351,0,0,0,29.727-2.729c4.265.725,8.9,2.73,11.784,11.493,6,18.258,2.559,62.686,2.559,62.686s-27.718,7.889-47.12,6.823c0,0-22.6-63.325-17.91-77.4a15,15,0,0,1,5.448-7.557" transform="translate(-131.456 -68.307)" fill="#484d5d"/>
            <g id="Grupo_1088632" data-name="Grupo 1088632" transform="translate(208.041 117.631)" opacity="0.4">
              <g id="Grupo_1088631" data-name="Grupo 1088631">
                <g id="Grupo_1088630" data-name="Grupo 1088630" clip-path="url(#clip-path-5)">
                  <path id="Trazado_863373" data-name="Trazado 863373" d="M360.158,224.165c9.714-2.877,19.218-6.967,26.863-13.764,5-4.445,9.732-9.851,12.376-16.087.348.793.679,1.654.989,2.6,6,18.258,2.559,62.686,2.559,62.686s-27.719,7.889-47.121,6.823c0,0-6.8-19.045-12.162-38.567a142.707,142.707,0,0,0,16.5-3.687" transform="translate(-343.662 -194.314)" fill="#2a2e39"/>
                </g>
              </g>
            </g>
            <path id="Trazado_863374" data-name="Trazado 863374" d="M446.959,208.7l-16.418-45.628c-9.275-14.072,1.279-2.878,1.279-2.878-12.473-18.55,2.559-1.279,2.559-1.279-15.352-23.667,2.878-.32,2.878-.32-7.675-12.153-8.635-16.311,3.518.96s32.8,63.753,18.55,73.559c-18.123,12.473-45.735-34.541-45.735-34.541l18.926-12.21.9-.584s9.488,14.179,13.539,22.921" transform="translate(-163.217 -58.409)" fill="#6b7e96"/>
            <g id="Grupo_1088635" data-name="Grupo 1088635" transform="translate(250.374 127.371)" opacity="0.3">
              <g id="Grupo_1088634" data-name="Grupo 1088634">
                <g id="Grupo_1088633" data-name="Grupo 1088633" clip-path="url(#clip-path-6)">
                  <path id="Trazado_863375" data-name="Trazado 863375" d="M433.42,210.4s1.811,2.707,4.189,6.485A36.584,36.584,0,0,1,419.576,230.5c-.349.119-.7.227-1.052.338-3.071-4.471-4.934-7.64-4.934-7.64l18.926-12.21Z" transform="translate(-413.591 -210.403)" fill="#3f4c5b"/>
                </g>
              </g>
            </g>
            <path id="Trazado_863376" data-name="Trazado 863376" d="M434.42,202.2s-6.61,11.087-23.88,15.778c0,0-13.761-31.728,2.288-38.358,0,0,10.719.619,21.593,22.58" transform="translate(-159.846 -70.884)" fill="#484d5d"/>
            <path id="Trazado_863377" data-name="Trazado 863377" d="M438.448,275.978s-24.042-17.512-2.968,1.484c0,0-26.119-13.653-1.484,3.265,0,0-24.338-9.795-.593,2.968,0,0-21.37-6.233-.594,2.078l1.484,3.265s8.014-4.749,4.155-13.06" transform="translate(-166.93 -106.005)" fill="#6b7e96"/>
            <g id="Grupo_1088638" data-name="Grupo 1088638" transform="translate(191.802 182.914)" opacity="0.96">
              <g id="Grupo_1088637" data-name="Grupo 1088637">
                <g id="Grupo_1088636" data-name="Grupo 1088636" clip-path="url(#clip-path-7)">
                  <path id="Trazado_863378" data-name="Trazado 863378" d="M345.132,307.484l47.228-5.33s20.256,13.006,27.292,40.191-12.823,79.578-12.823,79.578h-41.6l1.647-47.741-10.01,47.741H317.844s-9.08-65.9,27.287-114.439" transform="translate(-316.837 -302.154)" fill="#2a2e39"/>
                </g>
              </g>
            </g>
            <path id="Trazado_863379" data-name="Trazado 863379" d="M405.043,414.164l-.7.123c-.457.068-1.129.18-1.99.26a54.4,54.4,0,0,1-7.168.234c-1.487-.03-3.1-.142-4.793-.307-1.694-.19-3.485-.392-5.314-.745-1.832-.329-3.719-.723-5.611-1.223s-3.8-1.062-5.677-1.719-3.725-1.393-5.521-2.168-3.518-1.64-5.165-2.507-3.2-1.776-4.636-2.7c-1.46-.88-2.762-1.834-3.98-2.68-1.182-.9-2.29-1.689-3.2-2.478-.925-.773-1.744-1.426-2.372-2.023-1.274-1.168-1.988-1.846-1.988-1.846s.814.562,2.213,1.562c.686.517,1.58,1.064,2.559,1.747.49.341,1.022.689,1.6,1.038l1.776,1.133,1.969,1.166c.674.412,1.387.811,2.122,1.214s1.483.832,2.273,1.221,1.568.84,2.4,1.219c1.637.811,3.366,1.566,5.128,2.319s3.581,1.446,5.426,2.066c1.829.663,3.695,1.222,5.538,1.743l2.753.726c.915.211,1.814.447,2.71.623,1.785.389,3.524.7,5.178.971,1.659.238,3.23.469,4.689.611,2.916.306,5.366.414,7.083.443s2.7-.024,2.7-.024" transform="translate(-136.91 -155.639)" fill="#2a2e39"/>
            <path id="Trazado_863380" data-name="Trazado 863380" d="M397.334,77.587s15.081,1.774,17.743,21-5.618,35.781-16.56,33.712-18.926-9.463-19.518-20.4-5.618-35.486,18.335-34.3" transform="translate(-149.236 -30.602)" fill="#6b7e96"/>
            <path id="Trazado_863381" data-name="Trazado 863381" d="M350.111,60.788s29-2.345,29.851,11.087c.731,11.522-11.3,7.889-15.139,11.087s4.478,14.925-4.477,24.094,5.757,20.469-4.477,32.2-36.673,4.691-37.953-10.021,13.646-20.9,13.219-35.181,1.493-30.277,18.976-33.262" transform="translate(-125.429 -23.927)" fill="#2a2e39"/>
            <path id="Trazado_863382" data-name="Trazado 863382" d="M405.759,118.308c0,1.634-.573,2.958-1.279,2.958s-1.28-1.325-1.28-2.958.573-2.958,1.28-2.958,1.279,1.325,1.279,2.958" transform="translate(-159.116 -45.521)" fill="#2a2e39"/>
            <path id="Trazado_863383" data-name="Trazado 863383" d="M432.7,118.044c0,1.634-.573,2.958-1.279,2.958s-1.28-1.325-1.28-2.958.573-2.958,1.28-2.958,1.279,1.325,1.279,2.958" transform="translate(-169.749 -45.417)" fill="#2a2e39"/>
            <path id="Trazado_863384" data-name="Trazado 863384" d="M424.675,114.426c.211.714.4,1.433.584,2.151s.356,1.438.525,2.157l.479,2.162.462,2.164c.153.722.28,1.447.421,2.17l.424,2.166c.144.721.295,1.44.418,2.165s.27,1.447.379,2.176l.131.872-.771-.266c-.973-.335-1.94-.692-2.9-1.059s-1.923-.754-2.867-1.188c1.029.152,2.038.364,3.05.571s2.013.45,3.012.7l-.64.606c-.2-.716-.358-1.439-.538-2.159s-.336-1.446-.5-2.17l-.241-1.087c-.078-.363-.128-.729-.194-1.094-.121-.73-.256-1.458-.365-2.19l-.325-2.2q-.139-1.1-.25-2.208c-.07-.738-.142-1.475-.192-2.216s-.083-1.482-.1-2.227" transform="translate(-166.518 -45.156)" fill="#2a2e39"/>
            <path id="Trazado_863385" data-name="Trazado 863385" d="M410.329,107.551a1.3,1.3,0,0,1-.034.24,2.733,2.733,0,0,1-.226.66,3.05,3.05,0,0,1-.663.924,3.419,3.419,0,0,1-1.357.786,4.754,4.754,0,0,1-1.856.132,3.794,3.794,0,0,1-.48-.083l-.243-.051-.123-.027-.188-.07-.41-.147a2.561,2.561,0,0,1-.473-.23c-.171-.1-.347-.195-.518-.3l-.419-.308a8.505,8.505,0,0,1-.782-.645c-.5-.44-.94-.89-1.383-1.317l-.642-.617c-.219-.176-.421-.386-.633-.554-.217-.149-.418-.343-.631-.473a6.576,6.576,0,0,0-.636-.382,5.766,5.766,0,0,0-1.306-.486c-.225-.035-.448-.067-.67-.108s-.444-.007-.661-.019a7.1,7.1,0,0,0-1.219.072,6.626,6.626,0,0,0-.983.145c-.551.1-.895.142-.895.142s.231-.232.683-.605a4.667,4.667,0,0,1,.869-.615,5.735,5.735,0,0,1,1.286-.6,7.454,7.454,0,0,1,.808-.232c.292-.039.6-.07.921-.1a6.137,6.137,0,0,1,2.02.305,7.365,7.365,0,0,1,1.9.973c.291.2.556.42.828.642l.746.685c.461.466.9.929,1.308,1.356.206.206.4.425.6.6l.287.272c.08.061.154.13.229.2a3.48,3.48,0,0,0,.665.441l.046.028.023.014.012.007c.021.009-.156-.064-.079-.031l0,0,.081.036.161.072c.107.044.215.107.318.14a4.219,4.219,0,0,0,1.2.282,2.944,2.944,0,0,0,1.859-.571,3.566,3.566,0,0,0,.654-.582" transform="translate(-155.051 -40.521)" fill="#2a2e39"/>
            <path id="Trazado_863386" data-name="Trazado 863386" d="M426.417,107.582a2.057,2.057,0,0,0,.417.367.985.985,0,0,0,.468.162.953.953,0,0,0,.462-.134,3.9,3.9,0,0,0,.551-.387c.2-.159.424-.37.654-.581.113-.119.232-.229.354-.34s.271-.263.415-.389c.287-.263.588-.515.918-.771a7.973,7.973,0,0,1,1.106-.717,3.48,3.48,0,0,1,.344-.165,2.843,2.843,0,0,1,.395-.14,3.976,3.976,0,0,1,.473-.1,3.09,3.09,0,0,1,.58.009,3.02,3.02,0,0,1,.6.194,3.183,3.183,0,0,1,.457.335,2.425,2.425,0,0,1,.459.684l.129.313c.025.1.052.188.071.281a3.223,3.223,0,0,1,.091.522,5.8,5.8,0,0,1-.034,1.55,5.022,5.022,0,0,1-.113.585,5.767,5.767,0,0,1-.38-.456l-.393-.518c-.142-.2-.3-.42-.469-.639a2.858,2.858,0,0,0-.258-.322c-.046-.05-.086-.1-.129-.156l-.131-.11a.39.39,0,0,0-.194-.11c-.012.027-.007.046.005.049a.09.09,0,0,0,.074.058c.01.019.017.042.027.037a.312.312,0,0,1-.067.052,1.422,1.422,0,0,0-.125.087,1.5,1.5,0,0,0-.162.106c-.235.173-.52.377-.81.61-.3.212-.6.455-.917.67-.157.114-.311.217-.479.323s-.361.225-.542.325a5.449,5.449,0,0,1-1.169.478,3.278,3.278,0,0,1-1.263.108,1.847,1.847,0,0,1-1.065-.515,1.482,1.482,0,0,1-.368-.729,1.464,1.464,0,0,1-.014-.469.731.731,0,0,1,.033-.157" transform="translate(-168.261 -41.191)" fill="#2a2e39"/>
            <path id="Trazado_863387" data-name="Trazado 863387" d="M419.018,148.655s-.64-9.115-14.232-1.759Z" transform="translate(-159.742 -56.838)" fill="#fff"/>
            <path id="Trazado_863388" data-name="Trazado 863388" d="M417.884,153.375a3.749,3.749,0,0,1-.463.258,7.531,7.531,0,0,1-1.3.49,8.076,8.076,0,0,1-.907.214c-.326.056-.673.114-1.033.143a10.119,10.119,0,0,1-1.117.035,9.168,9.168,0,0,1-1.153-.078,9.893,9.893,0,0,1-1.14-.2,9.212,9.212,0,0,1-1.077-.307,8.109,8.109,0,0,1-.968-.4,5.441,5.441,0,0,1-.825-.438,6.7,6.7,0,0,1-1.133-.809c-.257-.217-.392-.351-.392-.351s.193.039.513.127c.159.045.353.1.566.166s.47.111.732.19.549.15.855.213.617.154.952.2.667.143,1.017.184.7.12,1.054.147c.354.051.708.084,1.06.11s.7.045,1.035.072c.674.035,1.309.048,1.86.05s1.016-.006,1.347-.011l.524-.013" transform="translate(-160.368 -59.959)" fill="#2a2e39"/>
            <path id="Trazado_863389" data-name="Trazado 863389" d="M62.227,150.9c15.31-.817,13.677-28.58,13.677-28.58l24.7-9.8s-6.124,34.908-2.041,36.949c1.742.871,7.609,2.226,13.24,4.412-2.278,6.865-4.55,13.735-6.915,20.569-24,3.419-63.319,1.262-63.892-5.178-.816-9.186-.819-17.2,21.231-18.373" transform="translate(-16.083 -44.407)" fill="#6b7e96"/>
            <g id="Grupo_1088641" data-name="Grupo 1088641" transform="translate(55.583 68.119)" opacity="0.3">
              <g id="Grupo_1088640" data-name="Grupo 1088640">
                <g id="Grupo_1088639" data-name="Grupo 1088639" clip-path="url(#clip-path-8)">
                  <path id="Trazado_863390" data-name="Trazado 863390" d="M91.817,144.824c5.066-8.4,4.238-22.5,4.238-22.5l24.7-9.8s-2.142,12.213-3.048,22.613c-3.441,3.687-13.636,10.038-25.891,9.684" transform="translate(-91.817 -112.526)" fill="#3f4c5b"/>
                </g>
              </g>
            </g>
            <path id="Trazado_863391" data-name="Trazado 863391" d="M101.906,105.464s12.248-41.339,5.512-48.075-32.765.306-34.6,2.45c-.577.674-2.643,10.71-2.643,10.71l1,2.79s-.926,26.073-1.113,32.432c-.306,10.411,9.493,10.717,31.846-.306" transform="translate(-27.645 -21.523)" fill="#6b7e96"/>
            <path id="Trazado_863392" data-name="Trazado 863392" d="M68.942,85.63c-8.437,14.342-4.785,21.794-4.785,21.794l11.024-2.654S76,99.667,71.3,101.3" transform="translate(-25.008 -33.792)" fill="#6b7e96"/>
            <path id="Trazado_863393" data-name="Trazado 863393" d="M68.549,85.63l-1.228,2.6-.571,1.313-.541,1.322q-.522,1.328-.971,2.676-.23.672-.423,1.354c-.142.45-.243.912-.372,1.365-.229.913-.422,1.834-.565,2.759a25.582,25.582,0,0,0-.28,2.784,17.885,17.885,0,0,0,.1,2.77,12.658,12.658,0,0,0,.22,1.352,7.445,7.445,0,0,0,.38,1.241l-.671-.315c.919-.22,1.842-.423,2.765-.627s1.843-.417,2.77-.605c1.849-.392,3.7-.771,5.562-1.121l-.214.231a5.554,5.554,0,0,0,.083-.8,5.21,5.21,0,0,0-.031-.808,2.626,2.626,0,0,0-.574-1.446,1.632,1.632,0,0,0-.29-.258,1.546,1.546,0,0,0-.346-.186,2.309,2.309,0,0,0-.788-.162,4.987,4.987,0,0,0-1.651.232,5.075,5.075,0,0,1,1.652-.406,2.169,2.169,0,0,1,1.644.566,2.99,2.99,0,0,1,.785,1.59,5.713,5.713,0,0,1,.1.876,6.022,6.022,0,0,1-.025.889l-.018.173-.2.058c-1.815.536-3.637,1.041-5.462,1.533-.91.254-1.828.48-2.742.721s-1.829.478-2.747.7l-.478.116-.194-.432a8.269,8.269,0,0,1-.487-1.492,13.88,13.88,0,0,1-.26-1.479,17.25,17.25,0,0,1-.083-2.966c.025-.492.069-.981.124-1.469s.132-.972.222-1.453c.184-.961.418-1.909.688-2.845.146-.464.288-.93.457-1.384s.331-.913.514-1.361c.35-.9.77-1.777,1.19-2.645s.91-1.7,1.4-2.533l.753-1.231Z" transform="translate(-24.615 -33.792)" fill="#2a2e39"/>
            <path id="Trazado_863394" data-name="Trazado 863394" d="M61.242,105.524c2.041-7.145,3.471-17.76,5.308-18.78s19.189-5.308,20.21,1.837.409,10,6.124,6.532,7.961-27.15,7.961-27.15S89.006,59.8,91.864,50c0,0-25.109,4.491-24.7,1.429s-.2-15.719,27.559-16.128,21.23,21.639,16.331,34.908l-2.858,2.246a111.447,111.447,0,0,1-1.774,13.568c-1.083,5.414-2.776,11.012-5.371,13.787-5.92,6.328-41.849,12.86-39.808,5.715" transform="translate(-24.135 -13.928)" fill="#2a2e39"/>
            <path id="Trazado_863395" data-name="Trazado 863395" d="M87.95,127.317s-1.429-12.452-16.536,1.021Z" transform="translate(-28.182 -48.174)" fill="#fff"/>
            <path id="Trazado_863396" data-name="Trazado 863396" d="M93.983,74.181A5.757,5.757,0,0,0,91.713,71.6c-3.063-2.45-12.019,7.68-14.673,6.864a4.09,4.09,0,0,1-2.552-3.955c3.291,1.071,14.545-7.425,14.545-7.425a7.716,7.716,0,0,1,4.95,7.094" transform="translate(-29.394 -26.475)" fill="#2a2e39"/>
            <path id="Trazado_863397" data-name="Trazado 863397" d="M98.019,86.16c0,1.518.532,2.748,1.189,2.748s1.188-1.23,1.188-2.748-.532-2.748-1.188-2.748-1.189,1.23-1.189,2.748" transform="translate(-38.682 -32.917)" fill="#2a2e39"/>
            <path id="Trazado_863398" data-name="Trazado 863398" d="M135.823,100.674s.817-14.494,6.124-15.923,6.7,5.417,2.653,12.248c-3.266,5.512-7.961,8.982-8.778,3.675" transform="translate(-53.6 -33.37)" fill="#6b7e96"/>
            <path id="Trazado_863399" data-name="Trazado 863399" d="M139.439,101.654c.327-.216.64-.451.94-.691a3.4,3.4,0,0,0,.751-.788.5.5,0,0,0,.066-.183c0-.046-.01-.062-.028-.081a.735.735,0,0,0-.327-.161,5.311,5.311,0,0,0-1.064-.133l-.384-.024.021-.412c.038-.717.081-1.421.167-2.127s.166-1.412.3-2.112a19.109,19.109,0,0,1,1.162-4.162,7.187,7.187,0,0,1,.527-1,3.722,3.722,0,0,1,.8-.92,1.684,1.684,0,0,1,1.348-.37l.258.056a1.113,1.113,0,0,1,.288.088,1.813,1.813,0,0,1,.584.329,2.1,2.1,0,0,1,.683,1.022,3.411,3.411,0,0,1,.157,1.127,6.215,6.215,0,0,1-.435,2.1,8.452,8.452,0,0,0-.015-2.075,3.461,3.461,0,0,0-.281-.927,1.4,1.4,0,0,0-.559-.638,1.106,1.106,0,0,0-.344-.155.729.729,0,0,0-.088-.032l-.131-.015-.262-.03a.853.853,0,0,0-.593.26,4.343,4.343,0,0,0-.938,1.592,15.383,15.383,0,0,0-.618,1.935c-.176.663-.336,1.335-.472,2.015s-.277,1.36-.393,2.046-.244,1.376-.341,2.059l-.363-.436a4.858,4.858,0,0,1,1.221.315,1.181,1.181,0,0,1,.606.5.671.671,0,0,1,.041.485,1.023,1.023,0,0,1-.189.338,2.4,2.4,0,0,1-.482.427,4.524,4.524,0,0,1-.52.309,7.76,7.76,0,0,1-1.09.463" transform="translate(-55.009 -34.912)" fill="#2a2e39"/>
            <path id="Trazado_863400" data-name="Trazado 863400" d="M95.539,325.565s6.5,36.54,4.5,37.872c-11.249,7.5-36,10.5-36,10.5L48.418,428.58H19.36s10.934-82.391,18.433-100.764,57.745-2.25,57.745-2.25" transform="translate(-7.64 -125.897)" fill="#2a2e39"/>
            <path id="Trazado_863401" data-name="Trazado 863401" d="M125.758,332.309s12.58,44.038,2.288,101.514c-.337,1.882-24.215,0-24.215,0l-6.946-73.392Z" transform="translate(-38.234 -131.14)" fill="#2a2e39"/>
            <path id="Trazado_863402" data-name="Trazado 863402" d="M97.73,173.144S81.962,181.5,67.9,172.5c0,0-21.373.562-25.873,9s-5.062,75.369,1.688,90.555c0,0,33.747,10.687,61.307-3.937,0,0,17.436-83.243,11.811-89.43s-19.1-5.545-19.1-5.545" transform="translate(-15.25 -68.075)" fill="#484d5d"/>
            <g id="Grupo_1088644" data-name="Grupo 1088644" transform="translate(23.394 125.587)" opacity="0.4">
              <g id="Grupo_1088643" data-name="Grupo 1088643">
                <g id="Grupo_1088642" data-name="Grupo 1088642" clip-path="url(#clip-path-9)">
                  <path id="Trazado_863403" data-name="Trazado 863403" d="M43.235,223.479c14.352-2.108,28.868-2.932,43.191-5.193a98.851,98.851,0,0,0,20.912-5.221,35.645,35.645,0,0,0,8.685-4.443c.5-.381,1-.773,1.49-1.165-2.265,25.646-12.489,74.456-12.489,74.456-27.56,14.624-61.307,3.937-61.307,3.937-4.189-9.426-5.561-38.782-4.923-61.716l4.442-.654" transform="translate(-38.645 -207.457)" fill="#2a2e39"/>
                </g>
              </g>
            </g>
            <path id="Trazado_863404" data-name="Trazado 863404" d="M48.161,228.12l-23.623-13.5s-16.873,41.247-10.874,54,16.5,8.249,34.5-40.5" transform="translate(-4.883 -84.697)" fill="#6b7e96"/>
            <g id="Grupo_1088647" data-name="Grupo 1088647" transform="translate(15.722 129.924)" opacity="0.3">
              <g id="Grupo_1088646" data-name="Grupo 1088646">
                <g id="Grupo_1088645" data-name="Grupo 1088645" clip-path="url(#clip-path-10)">
                  <path id="Trazado_863405" data-name="Trazado 863405" d="M25.97,225.156c2.177-6.241,3.933-10.534,3.933-10.534l23.623,13.5c-1.528,4.139-3,7.953-4.423,11.47A112.575,112.575,0,0,1,25.97,225.156" transform="translate(-25.97 -214.621)" fill="#3f4c5b"/>
                </g>
              </g>
            </g>
            <path id="Trazado_863406" data-name="Trazado 863406" d="M57.151,215.429a80.253,80.253,0,0,1-31.5-12.749s5.624-24.372,20.623-28.123,16.5-2.25,16.5-2.25Z" transform="translate(-10.124 -67.882)" fill="#484d5d"/>
            <path id="Trazado_863407" data-name="Trazado 863407" d="M278.595,284.562a132.65,132.65,0,0,1,22.771,55.549c5.175,33.812,1.725,74.87,1.725,74.87h-31.4s-18.286-43.818-22.081-63.14,2.415-59,2.415-59Z" transform="translate(-98.021 -112.298)" fill="#d4826e"/>
            <path id="Trazado_863408" data-name="Trazado 863408" d="M252.081,361.588c-1.06-3.624-1.917-6.944-2.467-9.746-3.8-19.321,2.415-59,2.415-59l26.567-8.281a132.649,132.649,0,0,1,22.771,55.549c.464,3.033.858,6.124,1.192,9.238-15.887,7.436-33.06,10.955-50.478,12.239" transform="translate(-98.021 -112.298)" fill="#ba6250"/>
            <path id="Trazado_863409" data-name="Trazado 863409" d="M187.946,284.562a132.65,132.65,0,0,0-22.771,55.549c-5.175,33.812-1.725,74.87-1.725,74.87h31.4s18.286-43.818,22.081-63.14-2.415-59-2.415-59Z" transform="translate(-64.058 -112.298)" fill="#d4826e"/>
            <path id="Trazado_863410" data-name="Trazado 863410" d="M215.543,361.588c1.06-3.624,1.917-6.944,2.467-9.746,3.8-19.321-2.415-59-2.415-59l-26.567-8.281a132.65,132.65,0,0,0-22.771,55.549c-.464,3.033-.858,6.124-1.192,9.238,15.887,7.436,33.06,10.955,50.478,12.239" transform="translate(-65.14 -112.298)" fill="#ba6250"/>
            <path id="Trazado_863411" data-name="Trazado 863411" d="M188.118,274.25s-22.778,25.441-24.5,60.289c0,0,29.672,13.111,51.063,18.631h3.8S252.631,341.44,268.5,326.6c0,0-9.315-40.713-30.707-55.549s-49.678,3.2-49.678,3.2" transform="translate(-64.568 -104.656)" fill="#738cc4"/>
            <g id="Grupo_1088650" data-name="Grupo 1088650" transform="translate(122.303 160.542)" opacity="0.3" style="mix-blend-mode: overlay;isolation: isolate">
              <g id="Grupo_1088649" data-name="Grupo 1088649">
                <g id="Grupo_1088648" data-name="Grupo 1088648" clip-path="url(#clip-path-11)">
                  <path id="Trazado_863412" data-name="Trazado 863412" d="M256.23,273.606a39.376,39.376,0,0,0-3.275-2.551c-21.391-14.836-49.677,3.2-49.677,3.2s-.458.511-1.247,1.486c17.413,4.768,37.388,4.542,54.2-2.131" transform="translate(-202.032 -265.199)" fill="#332845"/>
                </g>
              </g>
            </g>
            <path id="Trazado_863413" data-name="Trazado 863413" d="M157.915,375.259A372.483,372.483,0,0,0,214.5,394.58v-3.106l-54.514-24.842Z" transform="translate(-62.319 -144.686)" fill="#86a6e1"/>
            <path id="Trazado_863414" data-name="Trazado 863414" d="M254.236,388.206V392s41.058-11.041,52.443-25.531l-2.07-7.246s-21.392,18.976-50.374,28.982" transform="translate(-100.33 -141.762)" fill="#86a6e1"/>
            <path id="Trazado_863415" data-name="Trazado 863415" d="M233.392,34.3s-17.711-13.8-31.972-2.07-2.99,18.861-11.271,28.062-6.9,20.241-1.84,29.212-.69,12.881-.69,12.881,21.851,7.821,34.732-.23,29.442-1.61,29.442-1.61l-1.15-22.081Z" transform="translate(-72.701 -10.852)" fill="#f4b8b8"/>
            <path id="Trazado_863416" data-name="Trazado 863416" d="M231.822,34.454a33.265,33.265,0,0,0-4.041-2.571,37.59,37.59,0,0,0-4.96-2.323,30.666,30.666,0,0,0-3.193-1.037,28.262,28.262,0,0,0-3.63-.747,21.148,21.148,0,0,0-8.218.414,17.333,17.333,0,0,0-4.176,1.622c-.691.332-1.328.779-2,1.182l-.953.7c-.154.116-.332.231-.467.35l-.473.389c-.65.515-1.229,1.058-1.828,1.6l-.861.866c-.285.293-.546.606-.821.909a16.5,16.5,0,0,0-2.648,4.114,14.592,14.592,0,0,0-1.171,4.8c-.141,1.681-.07,3.411-.127,5.193a15.6,15.6,0,0,1-.993,5.344,14.328,14.328,0,0,1-2.981,4.483l-.849.966a10.59,10.59,0,0,0-.8.972,20.785,20.785,0,0,0-1.395,2.008l-.635,1.046-.532,1.091a19.828,19.828,0,0,0-.908,2.222,22.493,22.493,0,0,0-1.011,9.076,28.518,28.518,0,0,0,1.987,8.055c.467,1.218,1.027,2.3,1.531,3.409.232.553.505,1.056.686,1.611a15.954,15.954,0,0,1,.507,1.605,10.441,10.441,0,0,1,.041,5.543,7.559,7.559,0,0,1-1.8,3.063,5.027,5.027,0,0,1-.961.808,5,5,0,0,0,.907-.858,7.727,7.727,0,0,0,1.6-3.084,10.053,10.053,0,0,0-.278-5.332,17.552,17.552,0,0,0-1.3-3.071c-.527-1.041-1.141-2.181-1.648-3.4a29.413,29.413,0,0,1-2.271-8.247,22.627,22.627,0,0,1,.857-9.56,21.091,21.091,0,0,1,.929-2.368l.548-1.165.655-1.116a22.03,22.03,0,0,1,1.475-2.181,11.219,11.219,0,0,1,.822-1l.844-.97A12.992,12.992,0,0,0,190,54.753a14.3,14.3,0,0,0,.875-4.891c.064-1.706,0-3.474.154-5.26a15.968,15.968,0,0,1,1.3-5.225,17,17,0,0,1,2.9-4.414c.295-.317.578-.644.88-.948l.916-.894c.64-.567,1.276-1.141,1.917-1.633l.478-.383c.175-.147.342-.249.513-.375l1.015-.718a21.96,21.96,0,0,1,2.136-1.2,18.4,18.4,0,0,1,4.452-1.592,22.038,22.038,0,0,1,8.57-.205,28.706,28.706,0,0,1,6.9,2.076,38.081,38.081,0,0,1,4.9,2.566,33.811,33.811,0,0,1,2.927,2.015c.651.5.979.787.979.787" transform="translate(-71.422 -10.532)" fill="#f4b8b8"/>
            <path id="Trazado_863417" data-name="Trazado 863417" d="M256.662,147.27c-10.8,1.921-11.657-11.948-9.326-22.148l-20.982,2.041s4.08,14.571,0,20.4c-2.419,3.455-9.449,1.584-16.229,1.067-.051,3.264-.148,6.525-.251,9.788,20.182,4.867,58.572,7.664,62.048,1.12,4.954-9.324-2.146-14.6-15.26-12.267" transform="translate(-82.823 -49.377)" fill="#d4826e"/>
            <path id="Trazado_863418" data-name="Trazado 863418" d="M257.442,139.114a36.35,36.35,0,0,1,.638-13.991l-20.982,2.04a55.964,55.964,0,0,1,1.786,11.253,26.815,26.815,0,0,0,18.557.7" transform="translate(-93.567 -49.378)" fill="#ba6250"/>
            <path id="Trazado_863419" data-name="Trazado 863419" d="M227.974,48.22S208.7,47.184,205.442,69.709c-3.205,22.148,7.7,35.261,23.9,35.261,17.194,0,26.227-13.113,27.685-26.519s-9.815-27.61-29.049-30.232" transform="translate(-80.853 -19.026)" fill="#d4826e"/>
            <path id="Trazado_863420" data-name="Trazado 863420" d="M254.5,30.729s-12.421-1.38-13.8,15.181c-1.034,12.412,9.661,16.562,15.641,17.942s13.341,5.98,9.2,12.88-3.68,12.421.46,16.1-2.76,14.721-2.76,14.721,23,.92,23.462-10.581c.349-8.734-3.681-8.281-2.3-13.341,2.118-7.764,11.041-11.961,1.84-22.081s3.68-28.982-31.742-30.822" transform="translate(-94.961 -12.115)" fill="#ffcecd"/>
            <path id="Trazado_863421" data-name="Trazado 863421" d="M303.711,99.348s-.018-.315-.053-.906c-.018-.295-.03-.66-.093-1.083s-.1-.91-.211-1.447a12.682,12.682,0,0,0-1.254-3.7c-.344-.675-.786-1.357-1.164-2.174a5.5,5.5,0,0,1-.486-2.815,16.058,16.058,0,0,1,2-5.916,47.817,47.817,0,0,0,3-6.007,8.368,8.368,0,0,0,.482-3.3,8.791,8.791,0,0,0-.949-3.268,15.459,15.459,0,0,0-2-2.969c-.39-.485-.791-.889-1.247-1.391l-.625-.709c-.209-.231-.407-.535-.61-.8a19.935,19.935,0,0,1-2.907-7.178c-.575-2.452-.915-4.863-1.516-7.106a18.419,18.419,0,0,0-2.638-6.025,14.749,14.749,0,0,0-4.305-4.006,22.781,22.781,0,0,0-4.587-2.171c-.713-.273-1.4-.468-2.036-.65-.633-.2-1.226-.33-1.763-.453-1.068-.264-1.921-.418-2.5-.53l-.891-.173.9.1c.587.07,1.457.133,2.544.341.546.091,1.152.187,1.8.347.653.144,1.361.3,2.1.53a21.023,21.023,0,0,1,4.836,1.981,14.993,14.993,0,0,1,4.73,4.077,16.178,16.178,0,0,1,1.763,2.957,23.235,23.235,0,0,1,1.214,3.354c.657,2.318,1.082,4.742,1.642,7.123a27.57,27.57,0,0,0,1.048,3.5,14.929,14.929,0,0,0,1.677,3.172c.179.235.316.469.528.707l.621.713c.389.433.868.929,1.262,1.427a16.738,16.738,0,0,1,2.154,3.244,9.093,9.093,0,0,1,.418,7.554,42.879,42.879,0,0,1-3.238,6.1,23.672,23.672,0,0,0-1.357,2.775,13.111,13.111,0,0,0-.477,1.38,6.746,6.746,0,0,0-.165.677,4.118,4.118,0,0,0-.115.669,4.9,4.9,0,0,0,.311,2.487c.3.768.7,1.493,1.015,2.207a13.06,13.06,0,0,1,1.057,3.881,12.589,12.589,0,0,1,.111,1.479c.027.43.01.794,0,1.09-.014.591-.022.907-.022.907" transform="translate(-109.451 -13.644)" fill="#ffcecd"/>
            <path id="Trazado_863422" data-name="Trazado 863422" d="M247.863,34.18l-.255.11c-.167.075-.422.173-.734.34a11.771,11.771,0,0,0-2.521,1.7,12.858,12.858,0,0,0-2.851,3.71,19.479,19.479,0,0,0-1.839,5.78c-.079.554-.191,1.114-.231,1.7q-.042.435-.084.877l-.021.223-.005.055s0,.043,0,0v.142l-.005.456c.005.607-.042,1.245.007,1.855.074.6.123,1.214.215,1.829a13.762,13.762,0,0,0,3.473,6.925c.114.126.223.258.342.381l.381.346.766.7a20.957,20.957,0,0,0,1.708,1.223,22.9,22.9,0,0,0,3.822,1.958,28.937,28.937,0,0,0,4.186,1.338l1.1.271c.386.1.761.211,1.132.328a21.083,21.083,0,0,1,2.189.835,16.275,16.275,0,0,1,4,2.5,8.563,8.563,0,0,1,2.7,3.983,6.524,6.524,0,0,1,.226,2.447,7.979,7.979,0,0,1-.613,2.312,10.828,10.828,0,0,1-.527,1.038l-.539.941c-.38.628-.662,1.236-.971,1.851a13.564,13.564,0,0,0-1.414,7.6,8.687,8.687,0,0,0,1.262,3.336,10.766,10.766,0,0,0,1.052,1.366l.6.6a4.7,4.7,0,0,1,.61.7,5.331,5.331,0,0,1,.82,3.34,12.756,12.756,0,0,1-.536,2.954,27.664,27.664,0,0,1-1.8,4.459c-.591,1.191-1.128,2.086-1.5,2.693s-.583.92-.583.92a38.588,38.588,0,0,0,1.835-3.726,27.33,27.33,0,0,0,1.542-4.477,12.179,12.179,0,0,0,.368-2.837,4.76,4.76,0,0,0-.772-2.853,3.909,3.909,0,0,0-.531-.578l-.661-.623a11.45,11.45,0,0,1-1.19-1.451,9.622,9.622,0,0,1-1.513-3.651,14.157,14.157,0,0,1,1.3-8.279c.314-.658.631-1.352.989-1.963l.524-.949a9.453,9.453,0,0,0,.447-.915,5.826,5.826,0,0,0,.292-3.887,7.23,7.23,0,0,0-2.314-3.334,15.033,15.033,0,0,0-3.673-2.266,20.224,20.224,0,0,0-2.044-.792c-.35-.11-.7-.215-1.043-.308l-1.094-.275a30.4,30.4,0,0,1-4.366-1.422,22.267,22.267,0,0,1-5.825-3.457l-.816-.764-.4-.381c-.126-.135-.243-.279-.365-.418a14.4,14.4,0,0,1-3.567-7.578c-.081-.672-.114-1.343-.168-2-.029-.648.038-1.257.051-1.872l.019-.456,0-.114.006-.082.007-.058.028-.227c.039-.3.076-.6.114-.9.059-.6.192-1.17.292-1.737a18.391,18.391,0,0,1,2.152-5.886,13.2,13.2,0,0,1,3.126-3.667,10.892,10.892,0,0,1,2.662-1.566c.324-.148.584-.228.757-.291l.262-.093" transform="translate(-94.07 -13.489)" fill="#ffcecd"/>
            <path id="Trazado_863423" data-name="Trazado 863423" d="M293.42,102.458s1.748-8.743.874-12.24c0,0,5.828-3.788,6.7,2.623s-4.08,10.2-7.577,9.617" transform="translate(-115.793 -35.165)" fill="#d4826e"/>
            <path id="Trazado_863424" data-name="Trazado 863424" d="M210.839,94.953s-.012-.076-.036-.218a6.158,6.158,0,0,1-.067-.623,9.151,9.151,0,0,1,.123-2.253,6.876,6.876,0,0,1,.431-1.49,4.941,4.941,0,0,1,.39-.783c.079-.13.154-.264.245-.39l.313-.364a4.389,4.389,0,0,1,.74-.668,5.4,5.4,0,0,1,.912-.494,8.31,8.31,0,0,1,1.015-.246l.515-.036.258-.016.065,0,.032,0h.024l.067.005.113.012a8.656,8.656,0,0,1,.92.143,5.581,5.581,0,0,1,1.018.362,3.876,3.876,0,0,1,.857.536l.381.315c.117.111.219.236.326.352a4.123,4.123,0,0,1,.556.734,5.871,5.871,0,0,1,.412.759,7.509,7.509,0,0,1,.511,1.457,9.362,9.362,0,0,1,.275,2.238,6.05,6.05,0,0,1-.024.627c-.013.143-.021.22-.021.22s-.072-.3-.227-.806a16.793,16.793,0,0,0-.752-2.019,10.983,10.983,0,0,0-.666-1.222,4.935,4.935,0,0,0-.435-.6,4.32,4.32,0,0,0-.506-.551c-.093-.084-.179-.179-.277-.257l-.311-.213a4.26,4.26,0,0,0-.659-.365,4.754,4.754,0,0,0-.674-.231,8.012,8.012,0,0,0-.871-.114l-.113-.015c.025,0-.065-.005.053,0h-.042l-.048,0-.194.009-.389.013c-.255.023-.489.111-.735.154-.215.114-.453.183-.659.312a3.168,3.168,0,0,0-.576.443l-.262.254-.226.289a3.887,3.887,0,0,0-.407.6,9.184,9.184,0,0,0-.593,1.248,15.747,15.747,0,0,0-.611,2.064c-.119.516-.17.82-.17.82" transform="translate(-83.155 -34.477)" fill="#2a2e39"/>
            <path id="Trazado_863425" data-name="Trazado 863425" d="M249.6,94.953s-.012-.076-.036-.218-.056-.354-.067-.623a9.151,9.151,0,0,1,.123-2.253,6.875,6.875,0,0,1,.431-1.49,4.99,4.99,0,0,1,.39-.783c.079-.13.154-.264.245-.39l.313-.364a4.413,4.413,0,0,1,.74-.668,5.4,5.4,0,0,1,.912-.494,8.339,8.339,0,0,1,1.015-.246l.515-.036.258-.016.065,0,.032,0h.024l.068.005.113.012a8.656,8.656,0,0,1,.92.143,5.581,5.581,0,0,1,1.018.362,3.877,3.877,0,0,1,.857.536l.381.315c.117.111.219.236.326.352a4.123,4.123,0,0,1,.556.734,5.876,5.876,0,0,1,.412.759,7.512,7.512,0,0,1,.511,1.457,9.363,9.363,0,0,1,.275,2.238,6.054,6.054,0,0,1-.024.627c-.013.143-.021.22-.021.22s-.072-.3-.227-.806a16.689,16.689,0,0,0-.752-2.019,10.98,10.98,0,0,0-.666-1.222,4.942,4.942,0,0,0-.435-.6,4.322,4.322,0,0,0-.506-.551c-.093-.084-.179-.179-.277-.257l-.311-.213a4.235,4.235,0,0,0-.659-.365,4.754,4.754,0,0,0-.674-.231,8.013,8.013,0,0,0-.871-.114l-.112-.015.053,0h-.043l-.048,0-.194.009-.389.013c-.255.023-.489.111-.735.154-.215.114-.453.183-.659.312a3.169,3.169,0,0,0-.576.443l-.262.254-.226.289a3.89,3.89,0,0,0-.407.6,9.185,9.185,0,0,0-.593,1.248,15.747,15.747,0,0,0-.611,2.064c-.119.516-.17.82-.17.82" transform="translate(-98.45 -34.477)" fill="#2a2e39"/>
            <path id="Trazado_863426" data-name="Trazado 863426" d="M228.631,93.631a8.985,8.985,0,0,1-.015,1.184c-.031.392-.076.783-.143,1.171a11.526,11.526,0,0,1-.248,1.158,10.692,10.692,0,0,1-.35,1.142A10.386,10.386,0,0,1,227.4,99.4c-.084.184-.195.361-.3.539a4.492,4.492,0,0,1-.342.524,4.191,4.191,0,0,1-.4.5,5.3,5.3,0,0,1-.459.467c-.18.138-.352.282-.541.409l-.631.312-.034-1.18c.366.151.732.3,1.093.47s.726.322,1.081.5a19.382,19.382,0,0,1,2.1,1.174,19.212,19.212,0,0,1-2.38-.378c-.392-.076-.775-.178-1.162-.271s-.769-.2-1.15-.306l-1.271-.359,1.237-.821c.127-.084.254-.164.381-.239l.359-.311c.118-.108.221-.248.335-.367a3.9,3.9,0,0,0,.313-.408,3.547,3.547,0,0,0,.3-.436c.089-.156.2-.3.281-.458.175-.317.355-.635.515-.969s.326-.668.489-1.006l.467-1.035c.3-.7.613-1.4.944-2.122" transform="translate(-88.009 -36.95)" fill="#ba6250"/>
            <path id="Trazado_863427" data-name="Trazado 863427" d="M226.878,120.426s.26.07.714.17,1.1.241,1.86.387c.384.068.8.14,1.236.2.435.079.9.109,1.374.176s.969.065,1.465.112c.5,0,1,.055,1.507.006a11.372,11.372,0,0,0,1.5-.091c.245-.031.49-.052.732-.073l.706-.13.686-.127.646-.172.619-.16c.2-.058.382-.134.564-.2.358-.138.705-.236,1-.352.283-.136.541-.245.753-.338.426-.182.683-.279.683-.279s-.185.189-.532.508c-.174.158-.387.354-.642.567s-.579.395-.927.611c-.175.105-.354.228-.548.332l-.626.277-.668.291c-.231.093-.479.143-.726.219l-.759.212c-.26.053-.525.093-.794.131a12.3,12.3,0,0,1-1.634.148c-.551.034-1.1-.041-1.634-.058-.535-.055-1.059-.142-1.558-.242a12.386,12.386,0,0,1-1.419-.374,11.262,11.262,0,0,1-1.229-.449,11.715,11.715,0,0,1-1.737-.89,6.065,6.065,0,0,1-.608-.421" transform="translate(-89.534 -47.184)" fill="#ba6250"/>
            <path id="Trazado_863428" data-name="Trazado 863428" d="M244.262,78.55a3.8,3.8,0,0,1,.322-.811,6.836,6.836,0,0,1,.518-.864c.113-.159.243-.321.378-.5s.307-.329.474-.509a8.568,8.568,0,0,1,1.22-1.01,8.441,8.441,0,0,1,1.588-.833,9.07,9.07,0,0,1,1.86-.541,8.258,8.258,0,0,1,.99-.1,6.591,6.591,0,0,1,1-.028l.99.091c.164.017.33.028.49.057l.47.118q.469.114.923.248a4.249,4.249,0,0,1,.864.318,15.957,15.957,0,0,1,1.548.758c.456.3.876.592,1.254.869.185.146.373.265.528.413l.436.426c.271.269.493.519.676.72.364.406.548.66.548.66s-.322-.057-.842-.2c-.259-.071-.574-.152-.92-.262a11.1,11.1,0,0,0-1.157-.338c-.424-.11-.873-.235-1.336-.38-.468-.128-.97-.2-1.467-.335-.5-.157-1.022-.159-1.537-.269l-.389-.068-.391-.021-.782-.054a4.6,4.6,0,0,0-.775,0c-.255.021-.518-.013-.768.022a14.412,14.412,0,0,0-1.48.219,12.515,12.515,0,0,0-1.389.352c-.226.059-.427.161-.639.229a4.817,4.817,0,0,0-.6.239c-.39.159-.742.331-1.058.493s-.6.31-.823.443-.414.237-.531.319l-.193.122" transform="translate(-96.394 -28.942)" fill="#2a2e39"/>
            <path id="Trazado_863429" data-name="Trazado 863429" d="M221.2,80.368s-.271-.13-.714-.361l-1.788-.932c-.722-.375-1.542-.805-2.412-1.2-.432-.2-.883-.375-1.328-.555a12.218,12.218,0,0,0-1.354-.412,7.425,7.425,0,0,0-1.324-.22,6.877,6.877,0,0,0-1.266.022c-.209.013-.4.078-.609.1l-.588.158-.565.2-.53.241c-.337.173-.664.338-.942.511s-.551.311-.743.459c-.406.279-.674.432-.674.432a7.47,7.47,0,0,1,.245-.776,6.308,6.308,0,0,1,.4-.852,6.732,6.732,0,0,1,.712-1.022c.156-.173.326-.347.5-.532.194-.166.4-.33.623-.5.231-.155.481-.3.739-.446a7.69,7.69,0,0,1,.846-.349,5.627,5.627,0,0,1,.925-.228c.159-.024.32-.056.481-.073l.488-.021a7.3,7.3,0,0,1,1.931.217,9.173,9.173,0,0,1,1.762.64,10.166,10.166,0,0,1,1.5.905,11.223,11.223,0,0,1,2.191,2.075,8.726,8.726,0,0,1,1.483,2.516" transform="translate(-81.437 -29.208)" fill="#2a2e39"/>
            <path id="Trazado_863430" data-name="Trazado 863430" d="M296.411,101.743a4.465,4.465,0,0,0,.6-.68,3.261,3.261,0,0,0,.218-.367,1.679,1.679,0,0,0,.131-.369,1.17,1.17,0,0,0,0-.343.528.528,0,0,0-.04-.154.406.406,0,0,0-.068-.144c-.033-.045-.042-.094-.089-.137l-.116-.129c-.03-.045-.1-.079-.138-.121l-.139-.122-.139-.122-.024-.22a16.212,16.212,0,0,1-.12-1.7,14.651,14.651,0,0,1,.051-1.706,10.761,10.761,0,0,1,.292-1.733,6.05,6.05,0,0,1,.325-.88,2.973,2.973,0,0,1,.605-.875,1.716,1.716,0,0,1,1.172-.489l.041,0H299l.1.007h.006l.051.01.1.019.2.038a2.889,2.889,0,0,1,.61.274,2.859,2.859,0,0,1,.406.384,3.462,3.462,0,0,1,.284.43,4.263,4.263,0,0,1,.339.878,7.263,7.263,0,0,1,.142.875,6.96,6.96,0,0,1,.03.86,7.981,7.981,0,0,1-.2,1.682c-.1-.553-.225-1.092-.354-1.618-.067-.263-.149-.519-.224-.772a6.3,6.3,0,0,0-.283-.722,3.534,3.534,0,0,0-.356-.617,2.451,2.451,0,0,0-.211-.231c-.073-.067-.153-.1-.217-.156a.428.428,0,0,1-.143-.06l-.206-.019-.1-.009-.051,0h-.01l.086.007,0,0-.01,0a.5.5,0,0,0-.294.18,2.8,2.8,0,0,0-.53,1.171,11.225,11.225,0,0,0-.294,1.518c-.057.525-.134,1.055-.169,1.592s-.087,1.082-.1,1.611l-.162-.341.177.208a1.353,1.353,0,0,1,.162.221l.138.25a1.418,1.418,0,0,1,.1.275.975.975,0,0,1,.059.291,1.2,1.2,0,0,1,0,.3,1.561,1.561,0,0,1-.159.549,2.229,2.229,0,0,1-.3.432,2.445,2.445,0,0,1-.369.329,3.174,3.174,0,0,1-.834.446" transform="translate(-116.974 -36.092)" fill="#ba6250"/>
            <path id="Trazado_863431" data-name="Trazado 863431" d="M342.826,212.306c-5.175-11.386-36.918-40.023-36.918-40.023L289,190.569l25.877,24.152-16.838,28.47a1.189,1.189,0,0,1,.178.362c1.918,2.746,3.863,5.471,5.612,8.33,11.015-5.2,41.228-34.663,38.995-39.578" transform="translate(-114.05 -67.989)" fill="#d4826e"/>
            <path id="Trazado_863432" data-name="Trazado 863432" d="M315.269,202.486a53.472,53.472,0,0,0,9.267-12.334c-9.344-9.493-18.628-17.869-18.628-17.869L289,190.568l19.438,18.143a57.87,57.87,0,0,0,6.829-6.226" transform="translate(-114.05 -67.988)" fill="#ba6250"/>
            <path id="Trazado_863433" data-name="Trazado 863433" d="M174.341,243.031l-17.249-22.418,21-25.031-17.54-14.859s-25.874,29.8-29.34,40.81c-1.361,4.327,24.195,24.279,36.847,30.493a43.991,43.991,0,0,0,6.279-9" transform="translate(-51.761 -71.319)" fill="#d4826e"/>
            <path id="Trazado_863434" data-name="Trazado 863434" d="M164.7,209.446a49.365,49.365,0,0,1-9.874-10.263c7.5-9.746,15.065-18.461,15.065-18.461l17.54,14.859-15.776,18.8a53.4,53.4,0,0,1-6.955-4.939" transform="translate(-61.1 -71.319)" fill="#ba6250"/>
            <path id="Trazado_863435" data-name="Trazado 863435" d="M177.027,200.545s-17.251-7.246-21.391-13.456c0,0,15.526-29.326,35.192-23.807Z" transform="translate(-61.419 -64.164)" fill="#fff"/>
            <g id="Grupo_1088653" data-name="Grupo 1088653" transform="translate(94.216 104.747)" opacity="0.06" style="mix-blend-mode: multiply;isolation: isolate">
              <g id="Grupo_1088652" data-name="Grupo 1088652">
                <g id="Grupo_1088651" data-name="Grupo 1088651" clip-path="url(#clip-path-12)">
                  <path id="Trazado_863436" data-name="Trazado 863436" d="M170.392,173.031c-8.975,7.259-14.756,18.178-14.756,18.178,4.14,6.21,21.391,13.456,21.391,13.456l3.659-9.878a55.29,55.29,0,0,1-10.294-21.756" transform="translate(-155.635 -173.031)" fill="#332845"/>
                </g>
              </g>
            </g>
            <path id="Trazado_863437" data-name="Trazado 863437" d="M201.731,162.242s1.725,10.7,21.736,12.076,28.292-13.8,28.292-13.8,3.8-2.07,11.041,1.725,20.7,17.941,20.7,17.941-14.491,18.976-25.187,21.392l-3.451-3.451s0,18.976-4.485,32.778c0,0-7.936,7.591-54.514,2.07,0,0-17.251-18.976-11.386-38.3s10.351-32.432,10.351-32.432Z" transform="translate(-72.322 -63.123)" fill="#fff"/>
            <rect id="Rectángulo_397463" data-name="Rectángulo 397463" width="5.463" height="46.699" transform="translate(124.961 120.438) rotate(-82.883)" fill="#d45858"/>
            <rect id="Rectángulo_397464" data-name="Rectángulo 397464" width="5.463" height="46.699" transform="translate(124.42 124.775) rotate(-82.883)" fill="#df895c"/>
            <rect id="Rectángulo_397465" data-name="Rectángulo 397465" width="5.463" height="46.699" transform="translate(123.811 129.654) rotate(-82.883)" fill="#e3c16c"/>
            <rect id="Rectángulo_397466" data-name="Rectángulo 397466" width="5.463" height="46.699" transform="translate(123.134 135.075) rotate(-82.883)" fill="#72b9be"/>
            <rect id="Rectángulo_397467" data-name="Rectángulo 397467" width="5.463" height="46.699" transform="translate(122.457 140.497) rotate(-82.883)" fill="#738cc4"/>
            <rect id="Rectángulo_397468" data-name="Rectángulo 397468" width="5.463" height="46.699" transform="matrix(0.124, -0.992, 0.992, 0.124, 121.78, 145.918)" fill="#765ea5"/>
            <g id="Grupo_1088656" data-name="Grupo 1088656" transform="translate(112.491 135.001)" opacity="0.06" style="mix-blend-mode: multiply;isolation: isolate">
              <g id="Grupo_1088655" data-name="Grupo 1088655">
                <g id="Grupo_1088654" data-name="Grupo 1088654" clip-path="url(#clip-path-13)">
                  <path id="Trazado_863438" data-name="Trazado 863438" d="M202.742,245.779a27.617,27.617,0,0,1-16.918-7.772,57.221,57.221,0,0,0,11.052,19.848c46.578,5.52,54.514-2.07,54.514-2.07,4.485-13.8,4.485-32.777,4.485-32.777s-24.5,25.532-53.134,22.771" transform="translate(-185.823 -223.008)" fill="#332845"/>
                </g>
              </g>
            </g>
            <path id="Trazado_863439" data-name="Trazado 863439" d="M301.452,292.327s-7.559-8.465-10.884-9.07-22.675,6.954,0,2.721c0,0-24.792,12.093-.3,3.023,0,0-18.442,19.35,2.419,2.116,0,0-13,22.373,2.418,1.814,0,0,6.349,6.651,6.349-.6" transform="translate(-110.284 -111.769)" fill="#d4826e"/>
            <path id="Trazado_863440" data-name="Trazado 863440" d="M190.316,287.218s6.336-9.5,9.564-10.569,23.568,3.731.383,2.711c0,0,26.4,8.553.728,2.969,0,0,21.1,16.676-2.111,2.449,0,0,16.1,20.455-2.154,2.148,0,0-5.387,7.52-6.41.292" transform="translate(-75.105 -109.113)" fill="#d4826e"/>
          </g>
        </g>
      </g>
    </g>
    <g id="Grupo_1088664" data-name="Grupo 1088664" transform="translate(-2410.226 -7819.179)">
      <g id="Grupo_1088663" data-name="Grupo 1088663" transform="translate(0 0)" clip-path="url(#clip-path-14)">
        <path id="Trazado_863441" data-name="Trazado 863441" d="M6.826,5.993C16.417-6.516,35.6,4.325,23.506,18.086,20.17,22.256-.68,35.6.989,21.839c.834-8.34,15.429-9.591,20.016-5,5.421,5,3.753,15.846-3.336,18.765C6.826,40.6-.68,25.175,5.159,16.418,9.328,9.746,28.927,3.908,34.348,11,41.437,21,27.259,28.511,20.587,30.6,16,32.264-4.015,33.932,1.405,23.09c2.5-6.255,16.68-2.918,19.182,2.085" transform="translate(-0.116 -0.116)" fill="none" stroke="#fc6a5a" stroke-linecap="round" stroke-linejoin="round" stroke-width="0.964"/>
      </g>
    </g>
    <g id="Grupo_1088666" data-name="Grupo 1088666" transform="translate(-2692.428 -7816.835)">
      <g id="Grupo_1088665" data-name="Grupo 1088665" transform="translate(0 0)" clip-path="url(#clip-path-15)">
        <path id="Trazado_863442" data-name="Trazado 863442" d="M16.709,22.049c12.659-4.059-.928,12.156-4.362.154s17.965-11.626,16.046,4.481C26.2,43.553-2.275,26.235,9.375,10.615c13.648-18.778,33.1,22.426,12.4,24.885C9.177,37-6.171,13.817,3.558,3.535c7.106-7.78,26.905.636,27.7,10.4" transform="translate(-0.205 -0.205)" fill="none" stroke="#fc6a5a" stroke-linecap="round" stroke-linejoin="round" stroke-width="0.964"/>
      </g>
    </g>
    <g id="Grupo_1088668" data-name="Grupo 1088668" transform="translate(-2689.338 -7771.415)">
      <g id="Grupo_1088667" data-name="Grupo 1088667" transform="translate(0 0)" clip-path="url(#clip-path-16)">
        <path id="Trazado_863443" data-name="Trazado 863443" d="M.427,30.451a.427.427,0,0,1-.159-.824l21.417-8.553L6.871,22.65a.428.428,0,0,1-.345-.729l12.1-11.98L8.28,11.251a.428.428,0,0,1-.426-.635l5.373-9.47L1.651,4.637A.427.427,0,1,1,1.4,3.819L14,.019a.427.427,0,0,1,.5.62L9.019,10.3,19.771,8.935a.427.427,0,0,1,.354.728L7.994,21.671,24.678,19.9a.428.428,0,0,1,.2.822l-24.3,9.7a.417.417,0,0,1-.159.031" transform="translate(0 0)" fill="#e8664e"/>
      </g>
    </g>
    <g id="Grupo_1088670" data-name="Grupo 1088670" transform="translate(-2407.229 -7760.998) rotate(-30)">
      <g id="Grupo_1088669" data-name="Grupo 1088669" transform="translate(0 0)" clip-path="url(#clip-path-17)">
        <path id="Trazado_863444" data-name="Trazado 863444" d="M26.4,20.615a.608.608,0,0,1-.432-.179c-1.541-1.541-1.308-3.323-1.1-4.9.194-1.479.361-2.758-.754-3.873s-2.392-.949-3.873-.755c-1.573.206-3.355.439-4.9-1.1s-1.307-3.322-1.1-4.895c.194-1.479.363-2.757-.752-3.872a.611.611,0,1,1,.864-.864C15.9,1.72,15.662,3.5,15.456,5.074c-.194,1.479-.363,2.757.752,3.871s2.393.948,3.874.755c1.572-.206,3.355-.439,4.9,1.1s1.308,3.324,1.1,4.9c-.193,1.479-.361,2.757.754,3.873a.611.611,0,0,1-.432,1.043" transform="translate(-1.333 0)" fill="#e8664e"/>
        <path id="Trazado_863445" data-name="Trazado 863445" d="M19.746,27.271a.608.608,0,0,1-.432-.179c-1.542-1.541-1.308-3.323-1.1-4.9.193-1.479.361-2.758-.754-3.873s-2.394-.948-3.874-.754c-1.57.205-3.355.439-4.9-1.1s-1.306-3.322-1.1-4.895c.194-1.479.362-2.757-.753-3.871A.611.611,0,0,1,7.7,6.836c1.541,1.54,1.308,3.322,1.1,4.895-.193,1.479-.362,2.756.752,3.871s2.394.948,3.874.754c1.571-.206,3.355-.439,4.9,1.1s1.308,3.323,1.1,4.9c-.194,1.48-.361,2.759.754,3.874a.611.611,0,0,1-.432,1.043" transform="translate(-0.666 -0.666)" fill="#e8664e"/>
        <path id="Trazado_863446" data-name="Trazado 863446" d="M13.09,33.927a.606.606,0,0,1-.432-.179c-1.542-1.541-1.308-3.323-1.1-4.9.194-1.479.361-2.758-.754-3.873s-2.394-.948-3.874-.755c-1.572.206-3.356.439-4.9-1.1S.725,19.8.931,18.226c.193-1.479.362-2.756-.752-3.871a.611.611,0,0,1,.864-.864c1.541,1.541,1.307,3.322,1.1,4.895-.193,1.479-.362,2.757.753,3.872s2.392.948,3.873.754c1.573-.206,3.355-.439,4.9,1.1s1.308,3.323,1.1,4.9c-.194,1.48-.361,2.758.754,3.874a.611.611,0,0,1-.432,1.043" transform="translate(0 -1.333)" fill="#e8664e"/>
      </g>
    </g>
  </g>
</svg>
