<svg xmlns="http://www.w3.org/2000/svg" xmlns:xlink="http://www.w3.org/1999/xlink" width="349" height="227.742" viewBox="0 0 349 227.742">
  <defs>
    <radialGradient id="radial-gradient" cx="0.64" cy="0.402" r="0.5" gradientUnits="objectBoundingBox">
      <stop offset="0" stop-color="#f0f5fb"/>
      <stop offset="1" stop-color="#aec6e2"/>
    </radialGradient>
    <filter id="_220901-aca10-des-f1-Transgenero-derechos" x="-53" y="-53" width="469" height="347.742" filterUnits="userSpaceOnUse">
      <feOffset dx="7" dy="7" input="SourceAlpha"/>
      <feGaussianBlur stdDeviation="20" result="blur"/>
      <feFlood flood-opacity="0.149"/>
      <feComposite operator="in" in2="blur"/>
      <feComposite in="SourceGraphic"/>
    </filter>
    <clipPath id="clip-path">
      <g transform="matrix(1, 0, 0, 1, 0, 0)" filter="url(#_220901-aca10-des-f1-Transgenero-derechos)">
        <path id="_220901-aca10-des-f1-Transgenero-derechos-2" data-name="220901-aca10-des-f1-Transgenero-derechos" d="M24,0H325a24,24,0,0,1,24,24V227.742a0,0,0,0,1,0,0H0a0,0,0,0,1,0,0V24A24,24,0,0,1,24,0Z" transform="translate(-4392 -10242.05)" fill="url(#radial-gradient)"/>
      </g>
    </clipPath>
    <filter id="_220901-aca10-des-f1-Transgenero-derechos-3" x="-53" y="-53" width="469" height="347.742" filterUnits="userSpaceOnUse">
      <feOffset dx="7" dy="7" input="SourceAlpha"/>
      <feGaussianBlur stdDeviation="20" result="blur-2"/>
      <feFlood flood-opacity="0.149"/>
      <feComposite operator="in" in2="blur-2"/>
      <feComposite in="SourceGraphic"/>
    </filter>
    <linearGradient id="linear-gradient" x1="0.136" y1="-0.051" x2="0.773" y2="1" gradientUnits="objectBoundingBox">
      <stop offset="0" stop-color="#91b0dd"/>
      <stop offset="1" stop-color="#3b4b63"/>
    </linearGradient>
  </defs>
  <g id="Enmascarar_grupo_1079046" data-name="Enmascarar grupo 1079046" transform="translate(4392 10242.053)" clip-path="url(#clip-path)">
    <g transform="matrix(1, 0, 0, 1, -4392, -10242.05)" filter="url(#_220901-aca10-des-f1-Transgenero-derechos-3)">
      <path id="_220901-aca10-des-f1-Transgenero-derechos-4" data-name="220901-aca10-des-f1-Transgenero-derechos" d="M24,0H325a24,24,0,0,1,24,24V227.742a0,0,0,0,1,0,0H0a0,0,0,0,1,0,0V24A24,24,0,0,1,24,0Z" fill="url(#radial-gradient)"/>
    </g>
    <g id="Grupo_1104323" data-name="Grupo 1104323" transform="translate(-4373.8 -10602.023)">
      <g id="Grupo_1104293" data-name="Grupo 1104293" transform="translate(64.14 444.804)">
        <path id="Unión_34" data-name="Unión 34" d="M4448.573,10286.334c-.891-.506-1.779-1.009-2.713-1.538-.408.482-.8.312-1.2.022s-.682-.7-1.371-.653c-.191.008-.437-.214-.615-.358-1.079-.889-2.107-1.825-3.225-2.667s-2.365-1.593-3.514-2.414c-11.172-8.012-22.377-16-33.02-24.443-9.574-7.6-19.548-14.861-29.54-22.127-3.63-2.636-7.163-5.354-10.772-8.012-4.7-3.462-9.391-6.917-14.133-10.343-2.251-1.632-4.588-3.171-6.9-4.743a13.114,13.114,0,0,0-1.415-.757c-2.038-1.043-5.371-.338-6.176,1.769-.55,1.456-1.371,2.905-1.025,4.443a15.178,15.178,0,0,0,1.5,4.008,32.776,32.776,0,0,0,9.982,11.068,83.859,83.859,0,0,0,13.276,7.6c.6.281,1.257.5,1.854.782,1.448.679,2.874.3,4.307-.031a3.824,3.824,0,0,0,.405-.176c2.391-1.02,5.066-.214,6,1.844a4.58,4.58,0,0,1,.214.974,29.194,29.194,0,0,1,6.641,3.715,1.637,1.637,0,0,1-.016,2.858,14.348,14.348,0,0,1-5.525,2.8,5.084,5.084,0,0,1-1.422.168c-2.835-.036-5.662-.168-8.182-1.363-1.1-.521-2.177-1.079-3.2-1.686-1.51-.881-2.949-1.847-4.459-2.734a153.057,153.057,0,0,1-13.723-8.634c-4.691-3.486-9.352-7.01-13.927-10.6a22.33,22.33,0,0,1-6.034-6.625,24.3,24.3,0,0,1-2.053-6.527,11.416,11.416,0,0,1-.034-5.117,10.549,10.549,0,0,1,2.316-4.482,25.489,25.489,0,0,1,5.729-4.771,38.985,38.985,0,0,1,4.888-2.757c1.709-.79,3.617-1.319,5.394-2.017,5.4-2.112,11.208-3.308,16.9-4.771,4.911-1.266,9.775-2.605,14.717-3.777a43.908,43.908,0,0,1,11.038-1.371,50.253,50.253,0,0,1,13.023,1.939q1.669.469,3.336.942a27.046,27.046,0,0,1,9.192,4.42c4.6,3.483,9.292,6.917,13.684,10.573a33.3,33.3,0,0,1,10.914,16.622,13.857,13.857,0,0,0,1.035,2.114c.5,1.01,1.074,2,1.479,3.034a2.506,2.506,0,0,1-.514,2.5,9.214,9.214,0,0,1-5.556,3.342,5.578,5.578,0,0,1-3.494-.354,9.766,9.766,0,0,1-3.405-2.476,3.328,3.328,0,0,1-.651-3.429c.052-.184.114-.369.176-.537-.7-.276-1.41-.506-2.045-.834-1.557-.806-1.849-1.725-.981-3.011a16.889,16.889,0,0,1,1.332-1.786,1.855,1.855,0,0,0-.085-2.789c-2.481-2.574-4.958-5.158-7.5-7.691a37.242,37.242,0,0,0-6.212-4.918,33.228,33.228,0,0,0-11.371-4.583,56.951,56.951,0,0,1-5.605-1.594,12.825,12.825,0,0,0-5.822-.436c.222.377.413.712.627,1.043a35.221,35.221,0,0,0,5.355,6.212c5.838,5.69,11.66,11.4,17.658,16.976,4.573,4.253,9.393,8.33,14.159,12.45.95.829,2.138,1.472,3.171,2.236a135.514,135.514,0,0,1,12.734,10.985c8.67,8.222,17.511,16.334,26.328,24.462,5.693,5.246,11.446,10.448,17.178,15.675.689.63,1.263,1.3.979,2.2a.6.6,0,0,1-.3.3,5.759,5.759,0,0,0-.966.289,3.671,3.671,0,0,1-3.671.023c-.813-.377-1.732-.612-2.579-.95a9.416,9.416,0,0,1-1.472-.674c-.865-.5-1.678-1.049-2.536-1.555a4.267,4.267,0,0,0-.973-.408c-.759-.237-1.531-.449-2.3-.674a1.1,1.1,0,0,1,.06-.137c.836.238,1.67.465,2.69.752a3.251,3.251,0,0,0-.354-.507q-7.11-6.642-14.247-13.275c-4.7-4.354-9.938-8.314-15.161-12.257-3.832-2.9-7.679-5.794-11.624-8.59-2.3-1.632-4.792-3.08-7.216-4.6a18.621,18.621,0,0,0-1.812-.924,5,5,0,0,0-1.089-.361c-.873-.184-1.165-.055-1.247.645a3.711,3.711,0,0,0,.051,1.423c1.036,3.816,3.664,6.92,6.674,9.933,5.138,5.136,10.41,10.186,15.972,15.045,4.542,3.966,9.184,7.857,13.774,11.794,1.325,1.145,2.582,2.324,3.891,3.458a1.755,1.755,0,0,1,.542,1.9c-.119.514-.656.751-1.245.9-.186.044-.369.085-.553.132-.3.008-.606.008-.914.008A8.467,8.467,0,0,1,4448.573,10286.334Zm-106.2-78.743c2.515,1.645,4.875,3.429,7.266,5.192q12.393,9.108,24.771,18.238c6.713,4.927,13.537,9.76,20.2,14.732,6.031,4.514,11.858,9.2,17.849,13.749,7.464,5.673,15,11.263,22.494,16.894a29.74,29.74,0,0,0,6.556,3.953c2.654,1.1,5.081,2.527,7.581,3.831.924.491,1.784,1.057,2.7,1.563a11.936,11.936,0,0,0,1.227.537c.036-.039.075-.075.105-.106l-.007-.008c-.031.034-.065.065-.091.091-.413-.176-.852-.32-1.234-.529-.914-.5-1.771-1.071-2.7-1.562-2.5-1.309-4.926-2.733-7.573-3.831a29.977,29.977,0,0,1-6.556-3.953c-7.5-5.639-15.037-11.236-22.5-16.9-5.985-4.552-11.81-9.23-17.849-13.743-6.651-4.979-13.475-9.814-20.2-14.74q-12.409-9.091-24.766-18.241c-2.389-1.754-4.756-3.548-7.263-5.192a7.25,7.25,0,0,0-7.859-.256,3.9,3.9,0,0,0-1.433,1.26,11.355,11.355,0,0,0-1.585,3.992,11.508,11.508,0,0,1,1.585-3.979,3.983,3.983,0,0,1,1.425-1.257,7.632,7.632,0,0,1,3.757-1.038A7.347,7.347,0,0,1,4342.369,10207.591Zm73.6,33.8a13.615,13.615,0,0,1,3.1,1.332c3.277,1.978,6.618,3.894,9.69,6.055,4.749,3.341,9.262,6.889,13.919,10.3a169.675,169.675,0,0,1,20.118,17.18c2.174,2.2,4.557,4.263,6.788,6.414.6.591,1.022,1.28,2.081,1.442.137.023.246.146.385.191.641.235,1.278.5,1.937.705a20.024,20.024,0,0,1,2.153.619.962.962,0,0,0,.708.049.9.9,0,0,1-.7-.071c-.658-.282-1.441-.391-2.153-.62-.658-.206-1.3-.459-1.944-.705-.131-.046-.248-.168-.385-.183-1.048-.168-1.472-.86-2.073-1.441-2.238-2.163-4.622-4.224-6.8-6.413a167.892,167.892,0,0,0-20.118-17.183c-4.658-3.424-9.171-6.972-13.912-10.312-3.064-2.161-6.421-4.074-9.7-6.047a13.68,13.68,0,0,0-3.1-1.34c-1.957-.573-3.5,0-4.056,1.316a2.649,2.649,0,0,1,2.6-1.518A5.157,5.157,0,0,1,4415.966,10241.394Zm-95.33-31.254a24.416,24.416,0,0,0,.728,3.622c.909,4.47,3.667,8.144,7.759,11.231,2.8,2.106,5.6,4.206,8.427,6.269,3.721,2.711,7.408,5.461,11.263,8.056,3.049,2.053,6.413,3.809,9.476,5.856a23.993,23.993,0,0,0,6.122,3.146,12.269,12.269,0,0,0,6.542.32,11.92,11.92,0,0,0,4.733-2.458,2.27,2.27,0,0,0,.426-.415,2.362,2.362,0,0,1-.418.4,12.014,12.014,0,0,1-4.732,2.461,12.318,12.318,0,0,1-6.55-.322,24.148,24.148,0,0,1-6.122-3.147c-3.055-2.048-6.411-3.812-9.468-5.861-3.854-2.59-7.534-5.34-11.262-8.053q-4.249-3.1-8.427-6.267c-4.092-3.088-6.85-6.762-7.759-11.231a23.327,23.327,0,0,1-.736-3.63,8.116,8.116,0,0,1,.072-1.508A8.147,8.147,0,0,0,4320.637,10210.14Zm48.171,30.781a.6.6,0,0,0-.062.225.617.617,0,0,1,.062-.2,1.587,1.587,0,0,0,.168-.55A1.705,1.705,0,0,1,4368.808,10240.921Zm52.025-18.277a1.889,1.889,0,0,0,.648,2.174,20.132,20.132,0,0,0,2.06,1.438,3.128,3.128,0,0,0,2.675.2,6.768,6.768,0,0,0,3.264-2.1,2.182,2.182,0,0,0,.488-1.051,2.273,2.273,0,0,1-.488,1.033,6.9,6.9,0,0,1-3.256,2.1,3.13,3.13,0,0,1-2.675-.2,22.185,22.185,0,0,1-2.06-1.446,1.882,1.882,0,0,1-.648-2.174c.01-.046.023-.093.036-.14C4420.862,10222.535,4420.846,10222.587,4420.833,10222.644Zm-2.866-3.441c.63.237,1.257.482,1.9.707,1.033.344,1.456.945,1.234,1.82-.01.039-.021.075-.031.111.013-.039.023-.083.039-.127.214-.88-.2-1.477-1.234-1.83-.643-.223-1.273-.457-1.9-.7-.274-.1-.367-.248-.32-.424C4417.6,10218.946,4417.686,10219.094,4417.967,10219.2Zm-30.42-26.408a38.205,38.205,0,0,0,4.748,1.34,31.9,31.9,0,0,1,15.943,7.6c3.79,3.493,7.307,7.178,10.862,10.823a2.766,2.766,0,0,1,.9,2.422,2.767,2.767,0,0,0-.888-2.445c-3.555-3.646-7.072-7.319-10.87-10.815a31.89,31.89,0,0,0-15.936-7.609,37.694,37.694,0,0,1-4.749-1.34,15.716,15.716,0,0,0-7.539-.482c-.937.149-1.539.514-1.7,1.03.17-.509.772-.86,1.7-1.015a17.673,17.673,0,0,1,2.884-.245A14.688,14.688,0,0,1,4387.547,10192.794Zm-58.809,5.241a1.393,1.393,0,0,1-.137.449,1.411,1.411,0,0,0,.145-.465.107.107,0,0,1,.016-.041A.152.152,0,0,0,4328.739,10198.035Zm1.4-10.479a31.456,31.456,0,0,1-7.136-3.765,76.809,76.809,0,0,1-8.841-7.467,15.167,15.167,0,0,1-4.234-7.886c-.072-.338-.178-.668-.266-1v-1.448c.1-.385.17-.779.31-1.159a9.134,9.134,0,0,1,4.56-4.96,24.366,24.366,0,0,1,10.549-2.639,11.95,11.95,0,0,1,4.663.7,66.506,66.506,0,0,1,14.293,7.116,29.263,29.263,0,0,1,8.445,8.477,10.224,10.224,0,0,1,1.271,6.581,5.927,5.927,0,0,1-2.133,3.883c-.989.922-2.063,1.784-3.1,2.678a1.542,1.542,0,0,0-.2.264c-.062-.039-.121-.072-.186-.111.245-.333.483-.663.805-1.1-.243.1-.369.137-.467.193a16,16,0,0,1-7.5,2.239c-1.528.082-3.034.3-4.56.415q-.486.037-.964.036A14.862,14.862,0,0,1,4330.138,10187.556Zm-1.175-27.963c2.825,1.217,5.634,2.456,8.378,3.772a36.23,36.23,0,0,1,10.87,7.891,13.45,13.45,0,0,1,1,1.184,13.512,13.512,0,0,0-1-1.189,36.217,36.217,0,0,0-10.87-7.89c-2.752-1.317-5.562-2.554-8.378-3.77a8.673,8.673,0,0,0-1.163-.4A8.682,8.682,0,0,1,4328.963,10159.593Zm-8.36-.349c-2.481.362-4.608,1.214-5.91,3.023-.62.855-1.175,1.738-1.756,2.608a4.541,4.541,0,0,0-.334.6,4.555,4.555,0,0,1,.334-.591c.581-.873,1.136-1.756,1.756-2.61,1.306-1.808,3.429-2.662,5.913-3.023.141-.021.282-.041.423-.061Z" transform="translate(-4309.66 -10157.22)" fill="url(#linear-gradient)"/>
      </g>
      <g id="Grupo_1104294" data-name="Grupo 1104294" transform="translate(189.616 371.921)">
        <path id="Trazado_906337" data-name="Trazado 906337" d="M321.43,563.831c.629-2.609,2.141-4.745,3.594-6.94,2.414-3.648,4.731-7.349,6.8-11.217a131.693,131.693,0,0,0,6.74-15.86,16.191,16.191,0,0,0,1.224-7.193,35.863,35.863,0,0,0-1.1-6.184c-.683-2.458-1.8-4.794-2.463-7.257-.863-3.224-1.458-6.52-2.17-9.788a1.215,1.215,0,0,0-.224-.561c-.049.824-.063,1.653-.161,2.473-.322,2.78-.741,5.55-.995,8.335-.546,5.984-2.185,11.768-3.136,17.679a8.6,8.6,0,0,0,1.2,6.486,9.691,9.691,0,0,1,1.731,6.52,4.173,4.173,0,0,1-.449,1.429.964.964,0,0,1-1.829.044c-.263-.468-.376-1.024-.61-1.512s-.522-.922-.785-1.38l-.224.059c-.054.283-.127.566-.156.854-.107,1.112-.185,2.224-.307,3.336a25.835,25.835,0,0,0,.19,6.286c.1.771.141,1.595-.649,2.058s-1.473.019-2.141-.38a4.4,4.4,0,0,1-1.682-2.131,17.423,17.423,0,0,1-1.453-6.291,66.963,66.963,0,0,1,.258-11.865c.107-.814.356-1.614.522-2.424a3.229,3.229,0,0,0,.068-.78c-.132-4.16-.341-8.32-.4-12.48-.078-6.613-.151-13.231-.029-19.844a31.455,31.455,0,0,1,1.809-11.022,35.888,35.888,0,0,1,2.141-4.345,10.2,10.2,0,0,1,2.731-2.892,21.185,21.185,0,0,1,11.368-4.326c5.16-.536,10.31-1.171,15.479-1.507,3.862-.254,7.754-.19,11.626-.112,2.619.054,5.243.3,7.852.6a17.94,17.94,0,0,1,3.745.941,10.565,10.565,0,0,1,6.676,7.189,69.849,69.849,0,0,1,3.121,12.714c.224,1.736.3,3.487.444,5.233.039.5.093.995.137,1.492v6.311c-.078,1.307-.117,2.619-.249,3.921-.3,3.024-.6,6.047-.975,9.066-.341,2.78-.722,5.555-1.161,8.32-.288,1.809-.741,3.594-1.068,5.4-.141.785-.1,1.6-.224,2.385a27.429,27.429,0,0,1-4.043,10.236.868.868,0,0,1-.288.351c-.258.122-.575.307-.8.244a.819.819,0,0,1-.38-.668c.049-1.048.229-2.087.254-3.136a52.79,52.79,0,0,0-.137-5.54c-.083.224-.156.454-.254.673a12.114,12.114,0,0,1-.766,1.58,1.223,1.223,0,0,1-1.38.536,1.142,1.142,0,0,1-.873-1.044,15.963,15.963,0,0,1-.2-2.151c-.01-1.678-.015-3.365.078-5.038a1.9,1.9,0,0,1,1.619-1.756,3.1,3.1,0,0,0,1.024-.415c.4-.288.814-.624.429-1.244a1.305,1.305,0,0,1-.059-.707c.239-3.741-.4-7.423-.7-11.129-.2-2.443-.224-4.906-.478-7.34-.337-3.219-.746-6.428-1.258-9.622-.395-2.477-.98-4.926-1.517-7.384a5.556,5.556,0,0,0-.79-1.79,9.068,9.068,0,0,0-.112,1.083c.02,1.444.141,2.9.073,4.336-.083,1.722-.254,3.448-.507,5.155-.522,3.5-1.053,7.008-1.721,10.485-.5,2.594-1.19,5.155-1.853,7.71a14.339,14.339,0,0,0,.117,7.34,69.265,69.265,0,0,0,4.97,13.577q3.709,7.4,7.871,14.533a28.054,28.054,0,0,1,1.887,3.96,5.374,5.374,0,0,1-.741,5.35,27.914,27.914,0,0,1-5.447,5.486A33.759,33.759,0,0,1,372,573c-.5.2-.59.444-.619.951-.083,1.526-.219,3.053-.424,4.57-.6,4.462-1.273,8.915-1.863,13.377-.293,2.209-.478,4.438-.7,6.657-.3,2.96-.556,5.925-.907,8.881-.571,4.8-1.346,9.578-1.1,14.445a5.932,5.932,0,0,1-.385,2.1,1.874,1.874,0,0,1-1.765,1.248,6.046,6.046,0,0,1-3.068-.507c-1.648-.707-3.355-1.268-4.979-2.019a20.81,20.81,0,0,1-2.765-1.736c-.727-.488-1.419-1.024-2.126-1.536-.215-.156-.507-.258-.624-.463a1.733,1.733,0,0,1-.312-1.044c.039-.2.546-.419.844-.419,1.049,0,2.1.141,3.146.146,1.658.01,3.311-.049,4.916-.078,0-1.926.068-3.741-.015-5.55-.137-2.863-.4-5.721-.571-8.583q-.4-6.723-.722-13.45c-.132-2.668-.249-5.34-.322-8.013-.049-1.77-.01-3.541-.01-5.413-.419.049-.814.107-1.214.132-1.9.122-3.8.249-5.7.346-.4.02-.571.1-.619.536-.21,1.956-.41,3.916-.722,5.857-.366,2.263-.927,4.5-1.268,6.764-.488,3.2-.8,6.423-1.287,9.622-.532,3.5-1.107,6.993-1.77,10.471-.917,4.809-1.931,9.593-2.907,14.392a1.63,1.63,0,0,0-.034.258,1.523,1.523,0,0,1-1.18,1.595h-.263a2.026,2.026,0,0,0-.371-.112c-4.838-.59-8.427-3.307-11.524-6.813a8.04,8.04,0,0,1-1.195-2.1,1.346,1.346,0,0,1,.029-1.141c.146-.2.717-.185,1.073-.117.683.137,1.331.439,2.014.566,1.448.263,2.916.458,4.418.688a26.518,26.518,0,0,0,.419-2.634c.254-3.843.527-7.691.663-11.539s.161-7.705.171-11.563c.015-5.277-.044-10.558-.049-15.835a.693.693,0,0,0-.59-.771c-1.6-.522-3.194-1.063-4.77-1.643a24.23,24.23,0,0,1-6.759-3.706,6.779,6.779,0,0,1-2.443-3.487c-.1-.351-.18-.707-.273-1.063C321.43,564.8,321.43,564.313,321.43,563.831ZM382.049,542.6c.034.01.063.024.1.034.1-.21.2-.419.3-.624a37.5,37.5,0,0,0,3.16-10.651q.849-5.245,1.609-10.5a94.72,94.72,0,0,0,1.214-10.69c.156-4.838.293-9.671-.02-14.513A69.487,69.487,0,0,0,385,479.72a8.865,8.865,0,0,0-5-5.94,13.789,13.789,0,0,0-4.911-1.068c-8.476-.258-16.952-.385-25.384.775-3.965.546-7.959.946-11.865,1.765-5.087,1.068-9.139,3.682-11.07,8.832-.2.551-.419,1.1-.595,1.668a41.3,41.3,0,0,0-1.546,11.675c-.117,6.2-.01,12.4-.078,18.6-.044,3.853-.249,7.705-.361,11.558-.029.956.1,1.926.024,2.877-.117,1.458-.473,2.9-.517,4.36-.083,2.755-.107,5.521.015,8.276a14.946,14.946,0,0,0,1.541,6.062,6.513,6.513,0,0,0,1.248,1.57.911.911,0,0,0,.824.127c.156-.068.259-.493.229-.736-.112-.912-.312-1.809-.444-2.716a34.464,34.464,0,0,1,.073-7.6,7.4,7.4,0,0,1,.19-1.229c.307-1.146,1.107-1.419,2.092-.741a3.455,3.455,0,0,1,1.439,2.121c.063.259.122.517.185.771a1.808,1.808,0,0,0,.229-.834,8.2,8.2,0,0,0-1.746-4.979,12.232,12.232,0,0,1-1.39-2.585,9.826,9.826,0,0,1-.093-5.452c1.083-5.618,2.429-11.187,3.048-16.893.3-2.736.746-5.457,1.107-8.188a37.411,37.411,0,0,1,1.322-7.145,1.411,1.411,0,0,0,.083-.512c-.054-1.619-.117-3.238-.176-4.857-.029-.81-.059-1.619-.039-2.429,0-.22.2-.434.312-.649.19.176.488.317.546.527a12.828,12.828,0,0,1,.419,2.048c.254,2.287.4,4.594.722,6.871s.78,4.521,1.273,6.764a48,48,0,0,0,2.453,8.827A40.142,40.142,0,0,1,340.806,516c1.346,4.657,1.687,9.349.054,14.011-.844,2.414-1.868,4.765-2.741,7.164a72.481,72.481,0,0,1-6.91,13.46c-1.887,3.024-3.984,5.916-5.984,8.871a6.786,6.786,0,0,0-.683,1.117,17.5,17.5,0,0,0-1.229,3.3c-.351,1.834.634,3.18,2.029,4.267a17.964,17.964,0,0,0,4.935,2.829c2.336.839,4.555,2.009,7.067,2.375.824.122,1.59.678,2.414.81,5.979.941,11.958,1.643,18.03.7a63.773,63.773,0,0,0,9.676-1.985,35.337,35.337,0,0,0,15.523-9.31,18.223,18.223,0,0,0,1.736-2.219,2.741,2.741,0,0,0,.263-2.814c-.619-1.3-1.3-2.57-2.039-3.809-1.653-2.785-3.423-5.5-5.018-8.32-1.01-1.785-1.746-3.721-2.673-5.555a53.309,53.309,0,0,1-5.623-16.615,20.1,20.1,0,0,1,.161-6.837c.546-2.7,1.234-5.369,1.717-8.081.566-3.185,1.019-6.393,1.439-9.6.385-2.95.629-5.921.995-8.871.215-1.76-.234-3.638.892-5.243.093-.132.161-.273.341-.58.493.668.946,1.185,1.292,1.77a13.95,13.95,0,0,1,1.995,4.184c.561,2.741,1.18,5.467,1.668,8.222.454,2.58.824,5.184,1.122,7.788q.593,5.216.995,10.451c.166,2.136.219,4.282.2,6.423a29.287,29.287,0,0,1-.458,3.6,2.617,2.617,0,0,1-2.5,2.594,1.2,1.2,0,0,0-1.122,1.214,18.4,18.4,0,0,0,0,2.541c.107,1.229.317,2.448.483,3.667a4.177,4.177,0,0,0,.7-1.175c.317-.717.575-1.468.956-2.151.4-.7,1.092-.634,1.453.088a2.085,2.085,0,0,1,.19.556,19.152,19.152,0,0,1,.21,5.56C382.278,541.144,382.152,541.87,382.049,542.6Zm-43.506,33.572c0,.034-.02.166-.02.293,0,2.56.01,5.126,0,7.686-.02,9.7-.093,19.4-1.341,29.042-.239,1.858-.688,3.692-1.107,5.521a2.765,2.765,0,0,1-.746,1.185c-.122.127-.512,0-.78-.01.029-.229.054-.458.1-.688a.711.711,0,0,1,.093-.219,45.527,45.527,0,0,1-6.335-1.761,10.929,10.929,0,0,0,1.536,2.209,22.03,22.03,0,0,0,7.588,4.94c.98.376,2.029.585,3.068.878.078-.327.122-.473.146-.619.683-3.892,1.4-7.783,2.039-11.685.8-4.872,1.551-9.754,2.3-14.635.58-3.78,1.083-7.574,1.717-11.344.551-3.292,1.229-6.559,1.843-9.788C345.239,576.837,341.9,576.506,338.543,576.169Zm12.865,42.2v.1a18.417,18.417,0,0,1,2.238,1.351c2.638,2.1,5.838,3,8.93,3.994,1.975.634,2.268.1,2.346-1.775a4.754,4.754,0,0,0,0-.527,68.165,68.165,0,0,1,.9-12.68c.361-2.687.575-5.394.853-8.091.317-3.111.532-6.237.97-9.329.839-5.9,1.8-11.778,2.736-17.8-3.648,1.2-7.164,2.429-10.929,2.643,0,.249,0,.375,0,.5q.256,8.142.507,16.284c.137,4.38.2,8.759.444,13.128.239,4.311.41,8.617.224,12.933a2.237,2.237,0,0,1-.117.771c-.083.19-.332.473-.454.449a.812.812,0,0,1-.517-.463,6.682,6.682,0,0,1-.185-1.19,2.138,2.138,0,0,0-.532,0,6.388,6.388,0,0,1-2.526-.063C354.675,618.456,353.037,618.446,351.408,618.373Z" transform="translate(-321.43 -422.695)" fill="#311d48"/>
        <path id="Trazado_906338" data-name="Trazado 906338" d="M377.168,414.959a2.039,2.039,0,0,1-1.887,1.868c-2.5.546-4.965,1.219-7.466,1.741a29.909,29.909,0,0,1-14.543-.473,2.44,2.44,0,0,1-1.873-1.58c-.278.434-.473.795-.717,1.117a1.572,1.572,0,0,1-1.658.712c-2.424-.561-4.867-1.073-7.252-1.775a31.656,31.656,0,0,1-4.014-1.751,15.238,15.238,0,0,1-1.517-.766c-.219-.132-.517-.4-.5-.58a1.1,1.1,0,0,1,.5-.654,8.653,8.653,0,0,1,1.01-.468,9.837,9.837,0,0,0,5.725-8.564,21.292,21.292,0,0,0-1.268-8.5,17.662,17.662,0,0,1-.249-9.7,13.765,13.765,0,0,1,5.667-8.32,25.467,25.467,0,0,1,8.505-4.3,29.071,29.071,0,0,1,9.168-.99,15.121,15.121,0,0,1,6.906,2.063,4.183,4.183,0,0,1,.995.746c1.336,1.536,2.736,3.029,3.911,4.682a16.43,16.43,0,0,1,1.848,3.745,44.8,44.8,0,0,1,1.858,5.725,43.527,43.527,0,0,1,.766,5.638,16.626,16.626,0,0,0,1.6,6.038,2.434,2.434,0,0,0,.6.849c1.692,1.268,3.141,2.872,5.189,3.643a1.6,1.6,0,0,1,.931,1.887,4,4,0,0,1-.863,1.58,31.607,31.607,0,0,1-6.413,5.4,21.708,21.708,0,0,1-3.092,1.38A1.719,1.719,0,0,1,377.168,414.959Zm-39.132-1.78c0,.073,0,.151-.01.224,1.453.527,2.877,1.161,4.365,1.546,2.087.546,4.233.883,6.34,1.361.424.1.658.044.839-.332.493-1.024,1-2.039,1.5-3.063.21-.429.366-.97,1-.839.571.117.575.634.624,1.1.078.741.171,1.478.239,2.219a.894.894,0,0,0,.839.917c.756.117,1.5.283,2.253.439a22.236,22.236,0,0,0,12.021-.458c.034-.015.083.01.176.024-.112.151-.21.278-.356.468.356-.078.61-.127.863-.185,2.19-.507,4.379-1.01,6.559-1.546a.7.7,0,0,0,.4-.468c.093-.424.044-.883.156-1.3a1.42,1.42,0,0,1,.536-.873c.224-.107.658.083.927.254a2.968,2.968,0,0,1,.717.761.7.7,0,0,0,.966.258,11.768,11.768,0,0,0,1.99-.975c2.229-1.658,4.414-3.375,6.6-5.087a4.3,4.3,0,0,0,.59-.673c-1.244-.795-2.434-1.517-3.57-2.307-.59-.41-1.039-1.014-1.634-1.414a6.763,6.763,0,0,1-2.531-3.419,24.25,24.25,0,0,1-1.185-6.228,25.258,25.258,0,0,0-1.468-6.9c-.839-2.082-1.38-4.311-2.824-6.106-.863-1.073-1.848-2.053-2.677-3.15a8.367,8.367,0,0,0-6.4-3.228c-4.414-.341-8.564.946-12.724,2.165a3.652,3.652,0,0,0-.707.346c-1.019.551-2.034,1.112-3.053,1.663a10.263,10.263,0,0,0-5.447,6.091c-.073.249-.2.488-.293.732a14.357,14.357,0,0,0-.454,9.2,29.552,29.552,0,0,1,1.336,9.1,15.118,15.118,0,0,1-1.873,6.223,7.178,7.178,0,0,1-1.244,1.517c-.5.522-1.044.995-1.585,1.473a6.965,6.965,0,0,1-.688.488c-.034-.044-.068-.083-.1-.127.117-.161.234-.322.356-.488l-.063-.078C338.909,412.74,338.47,412.959,338.036,413.178Z" transform="translate(-328.761 -371.921)" fill="#311d48"/>
        <path id="Trazado_906339" data-name="Trazado 906339" d="M383.956,544.192c.1-.731.234-1.458.307-2.19a19.15,19.15,0,0,0-.21-5.56,2.492,2.492,0,0,0-.19-.556c-.361-.727-1.063-.795-1.453-.088-.38.683-.639,1.434-.956,2.151a4.179,4.179,0,0,1-.7,1.175c-.166-1.224-.376-2.443-.483-3.667a18.415,18.415,0,0,1,0-2.541A1.2,1.2,0,0,1,381.4,531.7a2.613,2.613,0,0,0,2.5-2.595,29.285,29.285,0,0,0,.458-3.6c.024-2.141-.034-4.292-.2-6.423q-.4-5.238-.995-10.451-.446-3.906-1.122-7.788c-.483-2.755-1.1-5.482-1.668-8.222a14.067,14.067,0,0,0-1.995-4.184c-.346-.585-.8-1.107-1.292-1.77-.176.3-.249.449-.341.58-1.127,1.6-.678,3.482-.892,5.243-.361,2.955-.61,5.92-.995,8.871-.419,3.209-.873,6.418-1.439,9.6-.483,2.711-1.17,5.379-1.717,8.081a20.1,20.1,0,0,0-.161,6.837,53.186,53.186,0,0,0,5.623,16.615c.922,1.839,1.663,3.77,2.673,5.555,1.595,2.819,3.36,5.535,5.018,8.32.736,1.239,1.419,2.512,2.038,3.809a2.74,2.74,0,0,1-.263,2.814,17.736,17.736,0,0,1-1.736,2.219,35.292,35.292,0,0,1-15.523,9.31,63.78,63.78,0,0,1-9.676,1.985c-6.067.936-12.051.239-18.03-.7-.829-.132-1.59-.688-2.414-.81-2.507-.361-4.731-1.536-7.067-2.375a17.96,17.96,0,0,1-4.935-2.828c-1.4-1.087-2.38-2.433-2.029-4.267a17.723,17.723,0,0,1,1.229-3.3,6.592,6.592,0,0,1,.683-1.117c2-2.955,4.092-5.852,5.984-8.871a72.327,72.327,0,0,0,6.911-13.46c.878-2.4,1.9-4.75,2.741-7.164,1.629-4.662,1.292-9.354-.054-14.011a40.729,40.729,0,0,0-1.648-4.765,48.379,48.379,0,0,1-2.453-8.827c-.493-2.239-.946-4.5-1.273-6.764s-.468-4.584-.722-6.871a12.715,12.715,0,0,0-.419-2.048c-.059-.21-.356-.351-.546-.527-.107.215-.307.429-.312.649-.019.81.01,1.619.039,2.429.054,1.619.122,3.238.176,4.857a1.524,1.524,0,0,1-.083.512,37.476,37.476,0,0,0-1.322,7.145c-.361,2.731-.814,5.452-1.107,8.188-.615,5.706-1.965,11.275-3.048,16.893a9.871,9.871,0,0,0,.093,5.452,12.235,12.235,0,0,0,1.39,2.585,8.21,8.21,0,0,1,1.746,4.979,1.807,1.807,0,0,1-.229.834c-.063-.258-.122-.517-.185-.771a3.481,3.481,0,0,0-1.439-2.121c-.985-.678-1.78-.4-2.092.741a6.507,6.507,0,0,0-.19,1.229,34.466,34.466,0,0,0-.073,7.6c.132.907.332,1.809.444,2.716.029.244-.068.668-.229.736a.911.911,0,0,1-.824-.127,6.3,6.3,0,0,1-1.248-1.57,14.966,14.966,0,0,1-1.541-6.062c-.122-2.755-.1-5.521-.015-8.276.044-1.458.4-2.9.517-4.36.078-.951-.054-1.917-.024-2.877.112-3.853.317-7.705.361-11.558.068-6.2-.039-12.4.078-18.6a41.3,41.3,0,0,1,1.546-11.675c.176-.561.39-1.112.6-1.668,1.931-5.15,5.984-7.764,11.07-8.832,3.906-.819,7.905-1.224,11.865-1.765,8.432-1.161,16.908-1.034,25.384-.775a13.764,13.764,0,0,1,4.911,1.068,8.865,8.865,0,0,1,5,5.94,69.487,69.487,0,0,1,3.414,15.928c.312,4.843.171,9.676.02,14.513a94.713,94.713,0,0,1-1.214,10.69c-.512,3.506-1.039,7.008-1.609,10.5a37.5,37.5,0,0,1-3.16,10.651c-.1.21-.2.414-.3.624C384.02,544.217,383.986,544.207,383.956,544.192Z" transform="translate(-323.337 -424.291)" fill="#311d48"/>
        <path id="Trazado_906340" data-name="Trazado 906340" d="M345.874,686.62c3.36.332,6.7.663,10.1,1-.615,3.228-1.292,6.5-1.843,9.788-.629,3.77-1.131,7.564-1.717,11.344-.751,4.882-1.5,9.763-2.3,14.635-.639,3.9-1.356,7.788-2.039,11.685-.024.151-.068.3-.146.619-1.044-.293-2.087-.5-3.068-.878a22.123,22.123,0,0,1-7.588-4.94,10.428,10.428,0,0,1-1.536-2.209,46.417,46.417,0,0,0,6.335,1.76.782.782,0,0,0-.093.219c-.044.224-.068.458-.1.688.268.01.658.137.78.01a2.812,2.812,0,0,0,.746-1.185c.419-1.829.863-3.663,1.107-5.521,1.248-9.641,1.322-19.341,1.341-29.042,0-2.56,0-5.126,0-7.686A2.47,2.47,0,0,1,345.874,686.62Z" transform="translate(-328.761 -533.146)" fill="#311d48"/>
        <path id="Trazado_906341" data-name="Trazado 906341" d="M382.9,726.155c1.629.073,3.267.083,4.887.254a6.481,6.481,0,0,0,2.526.063,2.131,2.131,0,0,1,.532,0,6.757,6.757,0,0,0,.185,1.19.812.812,0,0,0,.517.463c.122.024.371-.258.454-.449a2.126,2.126,0,0,0,.117-.771c.185-4.316.015-8.622-.224-12.933-.244-4.37-.307-8.754-.444-13.128q-.256-8.142-.507-16.284c0-.127,0-.259,0-.5,3.76-.215,7.281-1.444,10.929-2.643-.931,6.018-1.9,11.9-2.736,17.8-.439,3.092-.653,6.218-.97,9.329-.278,2.7-.488,5.4-.853,8.091a68.192,68.192,0,0,0-.9,12.68,4.747,4.747,0,0,1,0,.527c-.078,1.873-.371,2.409-2.346,1.775-3.1-.995-6.3-1.892-8.929-3.994a19.746,19.746,0,0,0-2.238-1.351A.941.941,0,0,1,382.9,726.155Z" transform="translate(-352.922 -530.477)" fill="#311d48"/>
        <path id="Trazado_906342" data-name="Trazado 906342" d="M340.445,415.522l1.307-.663.063.078c-.117.161-.234.322-.356.488.034.044.068.083.1.127a7.606,7.606,0,0,0,.688-.488c.541-.478,1.088-.951,1.585-1.473a7.059,7.059,0,0,0,1.244-1.517,15.14,15.14,0,0,0,1.873-6.223,29.535,29.535,0,0,0-1.336-9.1,14.323,14.323,0,0,1,.454-9.2c.1-.244.219-.478.293-.732a10.294,10.294,0,0,1,5.447-6.091c1.019-.551,2.034-1.112,3.053-1.663a3.65,3.65,0,0,1,.707-.346c4.155-1.219,8.305-2.507,12.724-2.165a8.367,8.367,0,0,1,6.4,3.228c.829,1.1,1.814,2.078,2.677,3.15,1.444,1.795,1.985,4.023,2.824,6.106a25.118,25.118,0,0,1,1.468,6.9,24.043,24.043,0,0,0,1.185,6.228,6.764,6.764,0,0,0,2.531,3.419c.6.4,1.049,1,1.634,1.414,1.136.79,2.326,1.512,3.57,2.307a4.025,4.025,0,0,1-.59.673c-2.19,1.712-4.37,3.428-6.6,5.087a12.14,12.14,0,0,1-1.99.975.7.7,0,0,1-.966-.258,3.141,3.141,0,0,0-.717-.761c-.268-.171-.707-.361-.927-.254a1.441,1.441,0,0,0-.536.873c-.112.415-.063.873-.156,1.3a.712.712,0,0,1-.4.468c-2.18.532-4.375,1.034-6.559,1.546-.254.059-.512.112-.863.185.146-.2.244-.322.356-.468-.093-.015-.141-.039-.176-.024a22.282,22.282,0,0,1-12.021.458c-.746-.156-1.5-.322-2.253-.439a.894.894,0,0,1-.839-.917c-.068-.741-.161-1.478-.239-2.219-.049-.463-.054-.98-.624-1.1-.634-.132-.79.41-1,.839-.5,1.019-1,2.039-1.5,3.063-.185.38-.415.429-.839.332-2.107-.478-4.248-.819-6.34-1.361-1.487-.39-2.911-1.024-4.365-1.546C340.44,415.673,340.44,415.6,340.445,415.522Z" transform="translate(-331.169 -374.265)" fill="#311d48"/>
      </g>
    </g>
  </g>
</svg>
