<svg xmlns="http://www.w3.org/2000/svg" xmlns:xlink="http://www.w3.org/1999/xlink" width="349" height="227.742" viewBox="0 0 349 227.742">
  <defs>
    <filter id="Rectángulo_402096" x="-53" y="-53" width="469" height="347.742" filterUnits="userSpaceOnUse">
      <feOffset dx="7" dy="7" input="SourceAlpha"/>
      <feGaussianBlur stdDeviation="20" result="blur"/>
      <feFlood flood-opacity="0.149"/>
      <feComposite operator="in" in2="blur"/>
      <feComposite in="SourceGraphic"/>
    </filter>
    <clipPath id="clip-path">
      <g transform="matrix(1, 0, 0, 1, 0, 0)" filter="url(#Rectángulo_402096)">
        <path id="Rectángulo_402096-2" data-name="Rectángulo 402096" d="M24,0H325a24,24,0,0,1,24,24V227.742a0,0,0,0,1,0,0H0a0,0,0,0,1,0,0V24A24,24,0,0,1,24,0Z" transform="translate(-7960.56 6220.95)" fill="#472385" opacity="0.46"/>
      </g>
    </clipPath>
    <clipPath id="clip-path-2">
      <rect id="Rectángulo_402094" data-name="Rectángulo 402094" width="351" height="311" fill="#472385"/>
    </clipPath>
  </defs>
  <g id="Enmascarar_grupo_1078960" data-name="Enmascarar grupo 1078960" transform="translate(7960.563 -6220.945)" clip-path="url(#clip-path)">
    <g id="Grupo_1097725" data-name="Grupo 1097725" transform="translate(23.438 1627.314)">
      <g id="Grupo_1097724" data-name="Grupo 1097724" transform="translate(-7987.415 4579.353)">
        <path id="Trazado_875570" data-name="Trazado 875570" d="M0,0H351V311H0Z" transform="translate(0.415 0.647)" fill="#472385"/>
        <path id="Trazado_875571" data-name="Trazado 875571" d="M401.007,321.452l-7.22,1.335-1.613,7.611-1.613-7.611-7.22-1.338,7.189-1.757,1.644-7.189,1.645,7.189Z" transform="translate(-111.843 -117.737)" fill="#472385"/>
        <path id="Trazado_875572" data-name="Trazado 875572" d="M251.334,24.057l-5.172.956-1.156,5.452-1.156-5.452-5.172-.959,5.149-1.258,1.178-5.149,1.178,5.149Z" transform="translate(-152.153 7.849)" fill="#472385"/>
        <path id="Trazado_875573" data-name="Trazado 875573" d="M473.8,142.978l-4.035.746-.9,4.254-.9-4.254-4.035-.749,4.018-.981.919-4.018.919,4.018Z" transform="translate(-134.725 -52.007)" fill="#472385"/>
        <path id="Trazado_875574" data-name="Trazado 875574" d="M473.8,451.232l-4.035.746-.9,4.254-.9-4.254-4.035-.748,4.018-.982.919-4.018.919,4.018Z" transform="translate(-134.725 -168.102)" fill="#472385"/>
        <path id="Trazado_875575" data-name="Trazado 875575" d="M30.1,323.835l-4.035.746-.9,4.254-.9-4.254-4.035-.748,4.018-.982.919-4.018.919,4.018Z" transform="translate(-7.619 -120.122)" fill="#472385"/>
        <path id="Trazado_875576" data-name="Trazado 875576" d="M90.1,151l-4.035.746-.9,4.254-.9-4.254L80.23,151l4.018-.982L85.167,146l.919,4.018Z" transform="translate(-30.216 -55.029)" fill="#472385"/>
        <g id="Grupo_1097723" data-name="Grupo 1097723" transform="translate(0.415 0.647)">
          <g id="Grupo_1097722" data-name="Grupo 1097722" clip-path="url(#clip-path-2)">
            <path id="Trazado_875577" data-name="Trazado 875577" d="M431.75,254.561a1.174,1.174,0,1,0,0,2.34,1.174,1.174,0,1,0,0-2.34" transform="translate(-128.079 -96.563)" fill="#472385"/>
            <path id="Trazado_875578" data-name="Trazado 875578" d="M46.595,44.477a1.174,1.174,0,1,0,0,2.34,1.174,1.174,0,1,0,0-2.34" transform="translate(-13.903 -17.441)" fill="#472385"/>
            <path id="Trazado_875579" data-name="Trazado 875579" d="M46.595,44.477a1.174,1.174,0,1,0,0,2.34,1.174,1.174,0,1,0,0-2.34" transform="translate(137.097 -33.441)" fill="#472385"/>
            <path id="Trazado_875580" data-name="Trazado 875580" d="M429.938,28.247a1.174,1.174,0,1,0,0,2.34,1.174,1.174,0,1,0,0-2.34" transform="translate(-127.542 -11.329)" fill="#472385"/>
            <path id="Trazado_875581" data-name="Trazado 875581" d="M58.837,286.247a1.174,1.174,0,1,0,0,2.34,1.174,1.174,0,1,0,0-2.34" transform="translate(-17.532 -108.496)" fill="#472385"/>
            <path id="Trazado_875582" data-name="Trazado 875582" d="M302.5,42.6a1.174,1.174,0,1,0,0,2.34,1.174,1.174,0,1,0,0-2.34" transform="translate(-89.764 -16.734)" fill="#472385"/>
            <path id="Trazado_875583" data-name="Trazado 875583" d="M410.017,166.333a.831.831,0,1,0,0,1.655.831.831,0,1,0,0-1.655" transform="translate(-121.747 -63.335)" fill="#472385"/>
            <path id="Trazado_875584" data-name="Trazado 875584" d="M45.47,431.012a.831.831,0,1,0,0,1.655.831.831,0,1,0,0-1.655" transform="translate(-13.68 -163.018)" fill="#472385"/>
            <path id="Trazado_875585" data-name="Trazado 875585" d="M391.345,273.04a2.251,2.251,0,1,0,0,4.486,2.251,2.251,0,1,0,0-4.486" transform="translate(-115.755 -103.522)" fill="#472385"/>
            <path id="Trazado_875586" data-name="Trazado 875586" d="M448.82,106a2.251,2.251,0,1,0,0,4.486,2.251,2.251,0,1,0,0-4.486" transform="translate(-132.793 -40.612)" fill="#472385"/>
            <path id="Trazado_875587" data-name="Trazado 875587" d="M61.82,418.8a2.251,2.251,0,1,0,0,4.486,2.251,2.251,0,1,0,0-4.486" transform="translate(-18.07 -158.42)" fill="#472385"/>
          </g>
        </g>
      </g>
    </g>
    <g id="Grupo_1104328" data-name="Grupo 1104328" transform="translate(-8440.613 5822.443)">
      <path id="Trazado_906343" data-name="Trazado 906343" d="M773.344,583.578a7.481,7.481,0,0,0-.321-.692,116.3,116.3,0,0,0-8.534-13.789c-.92-1.212-1.79-2.453-2.709-3.665-1.483-1.961-2.987-3.914-4.492-5.861-.756-.977-1.526-1.939-2.289-2.909-1.818-2.324-3.672-4.634-5.44-6.987-2.617-3.494-5.426-6.909-7.686-10.581-2.652-4.292-4.877-8.8-7.144-13.261a23.061,23.061,0,0,1-1.811-7.044c-.364-2.331-.478-4.677-.642-7.03-.128-1.8-.506-3.593-.713-5.4-.278-2.374-.535-4.741-.742-7.123-.471-5.4-.841-10.809-1.362-16.213a57.669,57.669,0,0,0-2.766-11.992,30.737,30.737,0,0,0-2.731-6.424c-.406-.684-.7-1.419-1.091-2.11-.585-1.02-1.169-2.046-1.825-3.03a71.188,71.188,0,0,0-4.763-6.374,80.308,80.308,0,0,0-5.825-6.267,91.25,91.25,0,0,0-7.222-6.288,40.027,40.027,0,0,0-6.952-4.249,44.583,44.583,0,0,0-30.4-3.772,28.976,28.976,0,0,0-2.973.977c-.2.064-.371.185-.57.25-.364.114-.848.314-.984-.135a.531.531,0,0,1,.064-.357c-1.1-.463-1.4-1.633-1.954-2.6-.014.021-.029.05-.043.071a.623.623,0,0,1-.8.285.559.559,0,0,1-.435-.741,5.357,5.357,0,0,1,.193-.535,1.627,1.627,0,0,0-.684-1.989,2.042,2.042,0,0,0-2.239.107,1.027,1.027,0,0,1-.741.05c-.121-.043-.143-.371-.128-.563.007-.135.135-.264.221-.428a3.207,3.207,0,0,0-2.652-.307,6.373,6.373,0,0,0-1.355.513,1.234,1.234,0,0,0-.77.934,4.772,4.772,0,0,1-.556,1.39,1.43,1.43,0,0,1-1.69.642,1.29,1.29,0,0,1-.877-1.447,3.3,3.3,0,0,1,1.105-1.968c.143-.135.285-.271.414-.4-.335-.948-.777-1.219-1.782-.97a7.65,7.65,0,0,0-1.818.734,13.637,13.637,0,0,0-3.387,2.659,2.34,2.34,0,0,0-.834,1.747,1.9,1.9,0,0,1-.356.955,1.194,1.194,0,0,1-1.233.563,1.073,1.073,0,0,1-1-.841,1.508,1.508,0,0,1,0-.905,9.362,9.362,0,0,1,1.027-1.918.9.9,0,0,0,.029-1.184,3.567,3.567,0,0,0-2.5-1.6,6.39,6.39,0,0,0-4.549.813,1.756,1.756,0,0,0-.984,1.262.672.672,0,0,1-.806.677c-.456-.043-.677-.414-.592-.934a5.208,5.208,0,0,0,.171-1.184c-.107-1.654-1.219-2.631-3.094-2.51a12.08,12.08,0,0,0-8.285,3.672,1.8,1.8,0,0,0-.592,1.889.812.812,0,0,1,.014.371.921.921,0,0,1-.763.9,1.035,1.035,0,0,1-1.191-.578,4.81,4.81,0,0,1-.271-1.262,3.055,3.055,0,0,1,.064-.684,4.67,4.67,0,0,0-3.85-.335,3.8,3.8,0,0,0-3.073,3.422,6.645,6.645,0,0,0,1.1,4.649,3.587,3.587,0,0,1,.264.406c.364.706.121,1.1-.763,1.276-1.2.242-2.424.449-3.608.756a22.5,22.5,0,0,0-2.545.913,5.333,5.333,0,0,0-.984.549c-1.911,1.248-1.419,3.037.178,4.028.228.143.506.235.72.385a.848.848,0,0,1,.328,1.233,1.191,1.191,0,0,1-1.376.428,1.748,1.748,0,0,1-.471-.207,6.576,6.576,0,0,0-4.592-.62c-1.6.2-2.1,1.169-1.4,2.453.135.25.314.485.463.727a.567.567,0,0,1-.171.834.772.772,0,0,1-.97-.029,2.127,2.127,0,0,1-.6-.642c-.763-1.476-2.224-1.954-3.886-1.989a6.433,6.433,0,0,0-5.183,2.125,4.348,4.348,0,0,0-.905,1.754c-.414,1.6.763,2.952,2.624,3.13.506.05.906.193,1.005.67.086.428-.214.72-.884.863s-1.4.207-2.075.378c-3.729.927-5.1,2.93-4.328,6.239a7.484,7.484,0,0,0,6.3,5.49c.513.086,1.055.057,1.583.1a3.548,3.548,0,0,1,.927.143.835.835,0,0,1,.25,1.519,4.276,4.276,0,0,1-.834.392,14.249,14.249,0,0,0-5.611,3.879,7.614,7.614,0,0,0-1.248,2.032,2.979,2.979,0,0,0,1.3,3.807,9.039,9.039,0,0,0,4.093,1.419,10.117,10.117,0,0,1,1.148.164c.848.214,1.005.756.371,1.312a10.432,10.432,0,0,1-.92.627,14.635,14.635,0,0,0-1.433,1.1,1.7,1.7,0,0,0-.585,2.118,2.421,2.421,0,0,0,2.239,1.169,2.175,2.175,0,0,1,.528,0c.207.071.485.2.535.349a.68.68,0,0,1-.221.556c-.207.207-.521.328-.742.52a4.8,4.8,0,0,0-.52,6.067,4.532,4.532,0,0,0,3.422,1.426c.563.043,1.134-.021,1.7.014.841.043,1.119.492.684,1.141a16.206,16.206,0,0,1-1.148,1.34c.535-.093.884-.15,1.233-.207a.973.973,0,0,1,1.041.285c.278.385.1.734-.235,1-.471.371-.991.692-1.49,1.048-.684.485-1.412.941-2.039,1.483s-.57.97.185,1.348a18.877,18.877,0,0,0,2.324.891c.456.164.948.25,1.4.406,1.219.421,1.633,1.069,1.4,2.189-.121.578-.314,1.141-.435,1.718-.214,1.055.193,1.7,1.369,1.968a12.363,12.363,0,0,0,2.517.264c1.782.021,1.939.157,1.576,1.647a.38.38,0,0,0,.007.121,2.025,2.025,0,0,0,1.4.021c.813-.128,1.3.15,1.248.841a2.49,2.49,0,0,0,1.105,2.381c.093.064.1.214.178.378-.278.157-.535.307-.692.392a37.359,37.359,0,0,1-.5,4.2,15.024,15.024,0,0,1-1.269,3.237c-.784,1.59-1.683,3.137-2.51,4.713a23.866,23.866,0,0,1-2.809,4.15c-1.954,2.317-4.014,4.563-6.1,6.788a50.6,50.6,0,0,0-6.852,8.37,14.189,14.189,0,0,1-1.027,1.519,26.555,26.555,0,0,0-4.085,7.415c-.784,2.146-1.675,4.271-2.4,6.431a23.377,23.377,0,0,0-1,6.331,57.207,57.207,0,0,0,.314,10.766q.225,1.658.471,3.315a2.343,2.343,0,0,0,1.768,1.9,38.91,38.91,0,0,0,9.618,2.167,18.618,18.618,0,0,0,4.5.007,9.945,9.945,0,0,1,.292-6.6c.7-2.167,1.469-4.328,2.353-6.445a18.536,18.536,0,0,1,4.278-5.718,3.41,3.41,0,0,1,.734-.52.833.833,0,0,1,1.062.093,2.125,2.125,0,0,1,.271.841c.007.029-.014.057-.029.086-1.226,2.417-1.29,4.991-1.319,7.565-.029,1.954.043,3.9.071,5.854a6.773,6.773,0,0,0,.078.927,4.477,4.477,0,0,0,2.588,3.429,42.792,42.792,0,0,0,10.987,4.085,80.984,80.984,0,0,0,12.441,1.8,53.736,53.736,0,0,0,11.122-.421c.8-.128,1.611-.193,2.5-.3.029-.221.064-.456.093-.7.941-8,.563-16.028.606-24.049.007-.991-.007-1.982.057-2.973a11.021,11.021,0,0,1,.364-1.611c-.307-.143-.756-.378-1.226-.585a31.89,31.89,0,0,1-7.964-5.212,13.659,13.659,0,0,1-2.838-3.458,38.014,38.014,0,0,1-4.164-10.188c-.72-2.866-1.754-5.668-2.588-8.513-.542-1.854-.984-3.736-1.5-5.7a4.807,4.807,0,0,1-4.485,1.191,10.457,10.457,0,0,1-3.38,3.273,2.9,2.9,0,0,1-3.066.214,2.116,2.116,0,0,1-1.269-1.412,10.132,10.132,0,0,1,1.233-8.356,2.73,2.73,0,0,1,.706-.806,1.193,1.193,0,0,0,.535-1.483,11.083,11.083,0,0,0-.906-2.26,28.6,28.6,0,0,0-4.563-5.69,8.627,8.627,0,0,1-2.681-5.433,19.7,19.7,0,0,1,.207-4.442,10.231,10.231,0,0,1,.357-1.733,3.908,3.908,0,0,1,5.162-2.289,8.9,8.9,0,0,1,3.843,2.4,52.059,52.059,0,0,1,3.6,4.478,30.322,30.322,0,0,1,1.875,3.665c.834.3.834.3.613,1.29-.342,1.526.185,2.082,1.954,2.039.9-.021,1.255-.371,1.219-1.169-.007-.207,0-.421,0-.677.292-.05.549-.093.863-.15-.114-.257-.221-.485-.321-.706-.342-.763-.214-1.034.649-1.383.478-.193.984-.356,1.44-.585,1.176-.585,1.233-1.005.228-1.832-.414-.335-.877-.62-1.319-.941a3.99,3.99,0,0,1-.627-.492c-.378-.406-.271-.692.25-.97,3.672-1.954,4.435-5.1,1.683-8.035a16.549,16.549,0,0,0-2.488-1.868c-.357-.257-.756-.456-1.134-.692-.414-.257-.827-.549-.677-1.055s.627-.627,1.155-.663c.107-.007.214-.007.321-.014.913-.114,1.3-.642.934-1.39a2.883,2.883,0,0,0-.82-.948,16.351,16.351,0,0,0-1.561-.962,3.658,3.658,0,0,1-.72-.392c-.2-.185-.435-.478-.392-.677s.385-.428.649-.506a10.1,10.1,0,0,1,1.248-.164,14.293,14.293,0,0,0,2.16-.421c.97-.321,1.29-.948.934-1.8a6.34,6.34,0,0,0-1.012-1.618,14.178,14.178,0,0,0-4.064-3.23,4.829,4.829,0,0,1-.627-.342c-.478-.356-.378-.82.235-.97a8.137,8.137,0,0,1,1.262-.15,1.966,1.966,0,0,0,1.426-.556c-.285-.185-.535-.385-.813-.528-.364-.185-.77-.314-1.141-.492a1.606,1.606,0,0,1-.863-1.005,17.855,17.855,0,0,1-.756-7.722,9.987,9.987,0,0,1,1.255-4.1c1.226-2.025,2.438-4.057,3.843-5.989a27.82,27.82,0,0,1,6.723-6.16,43.041,43.041,0,0,1,17.76-7.116,63.856,63.856,0,0,1,10.445-.941c.385,0,.77-.093,1.162-.114a3.248,3.248,0,0,1,.834.036.461.461,0,0,1,.3.328.374.374,0,0,1-.121.242,1.562,1.562,0,0,1,1.226.977.128.128,0,0,1,.05-.036,1.633,1.633,0,0,1,.257.542,28.907,28.907,0,0,0,1.825,6.189,14.028,14.028,0,0,0,.834,1.9c4.292,8.377,10.8,15.215,19.065,20.812a64.106,64.106,0,0,0,10.88,5.768c6.837,2.916,13.889,5.4,20.983,7.807.592.2,1.184.414,1.761.642a2.743,2.743,0,0,1,.706.4.536.536,0,0,1,.128.834,1.368,1.368,0,0,1-.813.292,2.015,2.015,0,0,1-.692-.207,6.9,6.9,0,0,0-3.551-.178c-.977.185-1.091.478-.592,1.241a.527.527,0,0,1,.128.406c-.271-.193-.563-.378-.813-.592-.513-.435-.492-.877.093-1.226a3.546,3.546,0,0,1,.877-.307c.335-.086.677-.128,1.2-.221-4.534-1.618-8.891-3.18-13.361-4.777-.021.4-.064.756-.064,1.112a34.7,34.7,0,0,0,1.283,9.475,22.617,22.617,0,0,0,5.069,9.212c.991,1.091,1.9,2.232,2.838,3.358.456.549.421.749-.036,1.333a1.064,1.064,0,0,0-.285.642c.064.827.2,1.654.285,2.488a.78.78,0,0,0,.756.763c.692.107,1.376.207,2.118.321.135-.307.257-.528.328-.749.357-1.069.7-2.139,1.041-3.215a4.018,4.018,0,0,1,.221-.62c1.134-2.3,2.21-4.62,3.437-6.88a11.277,11.277,0,0,1,3.294-3.494,6.347,6.347,0,0,1,3.986-1.312,3.506,3.506,0,0,1,3.529,2.224,11.222,11.222,0,0,1,.57,5.326,15.433,15.433,0,0,1-.6,2.823,7.285,7.285,0,0,1-.97,2.146c-1.005,1.419-2.139,2.766-3.23,4.142a1.437,1.437,0,0,1-.52.449.827.827,0,0,1-.656-.007.969.969,0,0,1-.193-.642c-.007-.1.128-.214.207-.314l3.016-4.043a9.941,9.941,0,0,0,1.711-7.579,8.853,8.853,0,0,0-.713-1.939.887.887,0,0,0-.87-.578,7.265,7.265,0,0,0-1.676.05,9.03,9.03,0,0,0-3.686,1.74,13.322,13.322,0,0,0-3.508,4.356,37.309,37.309,0,0,0-3.237,7.543,2.293,2.293,0,0,1-1.554,1.675c-.135,3.986-.264,7.971-.4,12.049.592-.442,1.077-.806,1.626-1.212,0-.357.014-.784-.007-1.219a1.275,1.275,0,0,1,.863-1.269c1.982-.962,2.4-.328,2.431,1.084.014.456,0,.92,0,1.369,1.084.528,1.162.613,1.312,1.526a3.184,3.184,0,0,0,1.6-2.224c.271-1.462.406-2.945.649-4.413.171-1.041.392-2.075.642-3.1a3.91,3.91,0,0,1,1.255-1.911,2.478,2.478,0,0,1,.563-.3l.185.121a2.49,2.49,0,0,1-.285.606,4.5,4.5,0,0,0-.92,2.246c-.25,2.032-.449,4.071-.813,6.082a2.151,2.151,0,0,0,.677,2.331,11.018,11.018,0,0,1,.934,1.126,11.849,11.849,0,0,1,2.9,7.144,16.885,16.885,0,0,1-.264,5.083,5.466,5.466,0,0,1-5.29,3.964,9.169,9.169,0,0,1-6.987-2.8c-.086-.093-.185-.171-.357-.328-.378.891-.742,1.711-1.062,2.545a4.714,4.714,0,0,0-.036,2.667,9.179,9.179,0,0,1-.143,3.964,7.4,7.4,0,0,1-2.4,3.658c-.549.485-1.112.955-1.647,1.447a2,2,0,0,0-.7,1.875c.592,3.65-2.4,7.629-6.139,8.934-1.084.378-2.182.727-3.28,1.069-.8.25-1.262.613-1.348,1.447a4.264,4.264,0,0,1-1.989,3.166.82.82,0,0,0-.4.692,74.736,74.736,0,0,0-.52,7.786c-.078,3.65-.357,7.3-.52,10.951-.05,1.012-.007,2.032-.007,3.123.414-.071.8-.107,1.155-.2a4.385,4.385,0,0,1,4.7,1.961,6.54,6.54,0,0,1,.635,4.556,14.126,14.126,0,0,0,1.711.549c2.488.463,5,.848,7.486,1.312a90.217,90.217,0,0,1,16.463,4.527,26.505,26.505,0,0,1,9.019,6.082,45.477,45.477,0,0,1,6.067,7.493c.171.264.349.528.513.777a35.347,35.347,0,0,0,9.711-1.961,31.073,31.073,0,0,0,10.9-6.31c1.946-1.8,3.836-3.65,5.682-5.526a18.95,18.95,0,0,0,3.28-4.435,2.562,2.562,0,0,1,.513-.7,1.074,1.074,0,0,1,1.733.271,3.481,3.481,0,0,1,.257,1.176c.071.827.093,1.654.143,2.709a7.144,7.144,0,0,0,.521-.649,19.362,19.362,0,0,0,2.773-9.54A31.743,31.743,0,0,0,773.344,583.578ZM722.266,507.9a4.537,4.537,0,0,0-.684-.749c-.364.585-.635,1.02-.9,1.454-.563.927-1.169,1.839-1.668,2.795a20.388,20.388,0,0,0-1.034,2.524c-.242.677-.4,1.376-.613,2.117.328.143.635.264.934.406a2.015,2.015,0,0,1,1.383,2.2,7.272,7.272,0,0,1-.72,2.018c-.314.613-.592.656-1.59.492.093-.349.164-.7.285-1.041s.314-.692.449-1.041c.321-.8.264-1.547-1.027-1.932a9.377,9.377,0,0,1-.613.92,1.936,1.936,0,0,1-2.966-.078.831.831,0,0,1-.1-.763c.193-.3.556-.135.841.007.093.043.185.093.278.135a.6.6,0,0,0,.92-.321,9.128,9.128,0,0,0,.442-1.333,15.837,15.837,0,0,1,2.189-5.29c.713-1.062,1.148-2.26,1.775-3.365a10.119,10.119,0,0,1,1.4-2.061,6.887,6.887,0,0,1,1.961-1.376,1.749,1.749,0,0,1,2.424.827,2.254,2.254,0,0,1,.15,1.44c-.392,1.212-.927,2.4-1.412,3.586a.471.471,0,0,1-.164.235c-.221.128-.485.328-.692.3a.91.91,0,0,1-.542-.478C722.716,509,722.537,508.43,722.266,507.9Z" transform="translate(-12.64 -1.73)" fill="#f39200"/>
      <g id="Grupo_1104296" data-name="Grupo 1104296" transform="translate(563.31 511.535)">
        <path id="Trazado_906344" data-name="Trazado 906344" d="M632.073,593.123a13.659,13.659,0,0,1-2.838-3.458,38.014,38.014,0,0,1-4.164-10.188c-.72-2.866-1.754-5.668-2.588-8.513-.542-1.854-.984-3.736-1.5-5.7a4.807,4.807,0,0,1-4.485,1.191,10.457,10.457,0,0,1-3.38,3.273,2.9,2.9,0,0,1-3.066.214,2.116,2.116,0,0,1-1.269-1.412,10.132,10.132,0,0,1,1.233-8.356,2.731,2.731,0,0,1,.706-.806,1.193,1.193,0,0,0,.535-1.483,11.086,11.086,0,0,0-.905-2.26,28.6,28.6,0,0,0-4.563-5.69c-.193-.185-.371-.378-.542-.57H604.01a2.485,2.485,0,0,0,1.112,2.153c.093.064.1.214.178.378-.278.157-.535.307-.692.392a37.371,37.371,0,0,1-.5,4.2,15.028,15.028,0,0,1-1.269,3.237c-.784,1.59-1.683,3.137-2.51,4.713a23.864,23.864,0,0,1-2.809,4.15c-1.953,2.317-4.014,4.563-6.1,6.788a50.593,50.593,0,0,0-6.852,8.37,14.2,14.2,0,0,1-1.027,1.519,26.552,26.552,0,0,0-4.085,7.415c-.784,2.146-1.675,4.271-2.4,6.431a23.376,23.376,0,0,0-1,6.331,57.208,57.208,0,0,0,.314,10.766q.225,1.658.471,3.315a2.343,2.343,0,0,0,1.768,1.9,38.908,38.908,0,0,0,9.618,2.167,18.618,18.618,0,0,0,4.5.007,9.944,9.944,0,0,1,.292-6.6c.7-2.167,1.469-4.328,2.353-6.445a18.535,18.535,0,0,1,4.278-5.718,3.411,3.411,0,0,1,.734-.521.833.833,0,0,1,1.062.093,2.127,2.127,0,0,1,.271.841c.007.029-.014.057-.028.086-1.226,2.417-1.291,4.991-1.319,7.565-.029,1.954.043,3.9.071,5.854a6.773,6.773,0,0,0,.078.927A4.477,4.477,0,0,0,603.1,623.1a42.788,42.788,0,0,0,10.987,4.085,80.978,80.978,0,0,0,12.441,1.8,53.733,53.733,0,0,0,11.122-.421c.8-.128,1.611-.193,2.5-.3.029-.221.064-.456.093-.7.941-8,.563-16.028.606-24.049.007-.991-.007-1.982.057-2.973a11.03,11.03,0,0,1,.364-1.611c-.307-.143-.756-.378-1.226-.585A32.03,32.03,0,0,1,632.073,593.123Z" transform="translate(-575.941 -549.353)" fill="#4243a3"/>
        <path id="Trazado_906345" data-name="Trazado 906345" d="M638,549.9c.62-.014.977-.185,1.134-.549H636.14C636.418,549.763,637.017,549.927,638,549.9Z" transform="translate(-593.22 -549.35)" fill="#2d2e83"/>
      </g>
      <g id="Grupo_1104297" data-name="Grupo 1104297" transform="translate(679.771 510.444)">
        <path id="Trazado_906346" data-name="Trazado 906346" d="M770.881,549.895a1.437,1.437,0,0,1-.52.449.828.828,0,0,1-.656-.007.969.969,0,0,1-.193-.642c-.007-.1.128-.214.207-.314.385-.513.763-1.027,1.148-1.54h-5.34c-.242.57-.456,1.155-.663,1.733-.242.677-.4,1.376-.613,2.117.328.143.635.264.934.406a2.015,2.015,0,0,1,1.383,2.2,7.272,7.272,0,0,1-.72,2.018c-.314.613-.592.656-1.59.492.093-.349.164-.7.285-1.041s.314-.692.449-1.041c.321-.8.264-1.547-1.027-1.932a9.375,9.375,0,0,1-.613.92,1.937,1.937,0,0,1-2.966-.078.831.831,0,0,1-.1-.763c.193-.3.556-.135.841.007.093.043.185.093.278.135a.6.6,0,0,0,.92-.321,9.128,9.128,0,0,0,.442-1.333,18.63,18.63,0,0,1,1.191-3.522h-2.88c-.121.357-.235.72-.342,1.084a2.293,2.293,0,0,1-1.554,1.675c-.135,3.986-.264,7.971-.4,12.049.592-.442,1.077-.806,1.626-1.212,0-.356.014-.784-.007-1.219a1.275,1.275,0,0,1,.863-1.269c1.982-.962,2.4-.328,2.431,1.084.014.456,0,.92,0,1.369,1.084.528,1.162.613,1.312,1.526a3.185,3.185,0,0,0,1.6-2.224c.271-1.462.406-2.945.649-4.413.171-1.041.392-2.075.642-3.1a3.91,3.91,0,0,1,1.255-1.911,2.475,2.475,0,0,1,.563-.3l.185.121a2.492,2.492,0,0,1-.285.606,4.5,4.5,0,0,0-.92,2.246c-.25,2.032-.449,4.071-.813,6.082a2.151,2.151,0,0,0,.677,2.331,11.018,11.018,0,0,1,.934,1.127,11.848,11.848,0,0,1,2.9,7.144,16.881,16.881,0,0,1-.264,5.083,5.466,5.466,0,0,1-5.29,3.964,9.169,9.169,0,0,1-6.987-2.8c-.086-.093-.185-.171-.356-.328-.378.891-.741,1.711-1.062,2.545a4.714,4.714,0,0,0-.036,2.667,9.18,9.18,0,0,1-.143,3.964,7.4,7.4,0,0,1-2.4,3.658c-.549.485-1.112.955-1.647,1.447a2,2,0,0,0-.7,1.875c.592,3.65-2.4,7.629-6.139,8.934-1.084.378-2.182.727-3.28,1.069-.8.25-1.262.613-1.348,1.447a4.263,4.263,0,0,1-1.989,3.166.82.82,0,0,0-.4.692,74.719,74.719,0,0,0-.521,7.786c-.078,3.65-.356,7.3-.52,10.951-.05,1.012-.007,2.032-.007,3.123.414-.071.8-.107,1.155-.2a4.385,4.385,0,0,1,4.7,1.961,6.54,6.54,0,0,1,.635,4.556,14.133,14.133,0,0,0,1.711.549c2.488.463,5,.848,7.486,1.312a90.217,90.217,0,0,1,16.463,4.527,26.505,26.505,0,0,1,9.019,6.082,45.484,45.484,0,0,1,6.068,7.493c.171.264.349.528.513.777a35.346,35.346,0,0,0,9.711-1.961,31.073,31.073,0,0,0,10.9-6.31c1.946-1.8,3.836-3.65,5.682-5.526a18.95,18.95,0,0,0,3.28-4.435,2.564,2.564,0,0,1,.513-.7,1.074,1.074,0,0,1,1.733.271,3.479,3.479,0,0,1,.257,1.176c.071.827.093,1.654.143,2.709a7.136,7.136,0,0,0,.521-.649,19.362,19.362,0,0,0,2.773-9.54,30.42,30.42,0,0,0-2.339-12.755,7.48,7.48,0,0,0-.321-.692,116.3,116.3,0,0,0-8.534-13.789c-.92-1.212-1.79-2.453-2.709-3.665-1.483-1.961-2.987-3.914-4.492-5.861-.756-.977-1.526-1.939-2.289-2.909-1.818-2.324-3.672-4.634-5.44-6.987-2.617-3.494-5.426-6.909-7.686-10.581-2.652-4.292-4.877-8.8-7.144-13.261a23.061,23.061,0,0,1-1.811-7.044c-.342-2.2-.464-4.4-.613-6.609h-6.659C771.986,548.526,771.43,549.21,770.881,549.895Z" transform="translate(-739.286 -547.82)" fill="#36a9e1"/>
        <path id="Trazado_906347" data-name="Trazado 906347" d="M764.027,549.2c.692.107,1.376.207,2.118.321.135-.307.257-.528.328-.749l.3-.92H763.2c.021.193.05.392.071.585A.79.79,0,0,0,764.027,549.2Z" transform="translate(-746.15 -547.829)" fill="#36a9e1"/>
      </g>
      <g id="Grupo_1104298" data-name="Grupo 1104298" transform="translate(679.757 510.451)">
        <path id="Trazado_906348" data-name="Trazado 906348" d="M777.553,550.345a.969.969,0,0,1-.193-.642c-.007-.1.128-.214.207-.314.385-.513.763-1.027,1.148-1.54h-5.34c-.242.57-.456,1.155-.663,1.733-.242.677-.4,1.376-.613,2.117.328.143.635.264.934.406a2.015,2.015,0,0,1,1.383,2.2,7.27,7.27,0,0,1-.72,2.018c-.314.613-.592.656-1.59.492.093-.349.164-.7.285-1.041s.314-.692.449-1.041c.321-.8.264-1.547-1.027-1.932a9.376,9.376,0,0,1-.613.92,1.937,1.937,0,0,1-2.966-.078.831.831,0,0,1-.1-.763c.193-.3.556-.135.841.007.093.043.185.093.278.135a.6.6,0,0,0,.92-.321,9.128,9.128,0,0,0,.442-1.333,18.622,18.622,0,0,1,1.191-3.522h-2.88c-.121.357-.235.72-.342,1.084a2.293,2.293,0,0,1-1.554,1.675c-.135,3.986-.264,7.971-.4,12.049.592-.442,1.077-.806,1.626-1.212,0-.356.014-.784-.007-1.219a1.275,1.275,0,0,1,.863-1.269c1.982-.962,2.4-.328,2.431,1.084.014.456,0,.92,0,1.369,1.084.528,1.162.613,1.312,1.526a3.185,3.185,0,0,0,1.6-2.224c.271-1.462.406-2.945.649-4.413.171-1.041.392-2.075.642-3.1A3.911,3.911,0,0,1,777,551.286a2.477,2.477,0,0,1,.563-.3l.064.043c.107-.214.235-.414.357-.62A.668.668,0,0,1,777.553,550.345Z" transform="translate(-747.12 -547.836)" fill="#e6007e"/>
        <path id="Trazado_906349" data-name="Trazado 906349" d="M820.213,619.228a7.481,7.481,0,0,0-.321-.692,116.3,116.3,0,0,0-8.534-13.789c-.92-1.212-1.79-2.453-2.709-3.665-1.483-1.961-2.987-3.914-4.492-5.861-.756-.977-1.526-1.939-2.289-2.909-1.818-2.324-3.672-4.634-5.44-6.987-2.617-3.494-5.426-6.909-7.686-10.581-2.652-4.292-4.877-8.8-7.144-13.261a23.061,23.061,0,0,1-1.811-7.044c-.342-2.2-.463-4.4-.613-6.609h-6.659c-.549.684-1.105,1.369-1.647,2.053a1.437,1.437,0,0,1-.52.449,1.038,1.038,0,0,1-.235.057c-.121.207-.242.406-.357.62.043.029.086.057.121.078a2.49,2.49,0,0,1-.285.606,4.5,4.5,0,0,0-.92,2.246c-.25,2.032-.449,4.071-.813,6.082a2.151,2.151,0,0,0,.677,2.331,11.018,11.018,0,0,1,.934,1.126,11.849,11.849,0,0,1,2.9,7.144,16.883,16.883,0,0,1-.264,5.083,5.466,5.466,0,0,1-5.29,3.964,9.169,9.169,0,0,1-6.987-2.8c-.086-.093-.185-.171-.357-.328-.378.891-.742,1.711-1.062,2.545a4.713,4.713,0,0,0-.036,2.667,9.179,9.179,0,0,1-.143,3.964,7.4,7.4,0,0,1-2.4,3.658c-.549.485-1.112.955-1.647,1.447a2,2,0,0,0-.7,1.875c.592,3.65-2.4,7.629-6.139,8.934-1.084.378-2.182.727-3.28,1.069-.8.25-1.262.613-1.348,1.447a4.264,4.264,0,0,1-1.989,3.166.82.82,0,0,0-.4.692,74.734,74.734,0,0,0-.52,7.786c-.078,3.65-.357,7.3-.52,10.951-.05,1.012-.007,2.032-.007,3.123.414-.071.8-.107,1.155-.2a4.385,4.385,0,0,1,4.7,1.961,6.54,6.54,0,0,1,.635,4.556,14.126,14.126,0,0,0,1.711.549c2.488.463,5,.848,7.486,1.312a90.217,90.217,0,0,1,16.463,4.527,26.5,26.5,0,0,1,9.019,6.082,45.477,45.477,0,0,1,6.067,7.493c.171.264.349.528.513.777a35.35,35.35,0,0,0,9.711-1.961,31.073,31.073,0,0,0,10.9-6.31c1.946-1.8,3.836-3.65,5.682-5.526a18.95,18.95,0,0,0,3.28-4.435,2.562,2.562,0,0,1,.513-.7,1.074,1.074,0,0,1,1.733.271,3.48,3.48,0,0,1,.257,1.176c.071.827.093,1.654.143,2.709a7.144,7.144,0,0,0,.521-.649,19.362,19.362,0,0,0,2.773-9.54A30.308,30.308,0,0,0,820.213,619.228Z" transform="translate(-739.266 -547.83)" fill="#e6007e"/>
        <path id="Trazado_906350" data-name="Trazado 906350" d="M764.027,549.2c.692.107,1.376.207,2.118.321.135-.307.257-.528.328-.749l.3-.92H763.2c.021.193.05.392.071.585A.79.79,0,0,0,764.027,549.2Z" transform="translate(-746.136 -547.836)" fill="#e6007e"/>
      </g>
      <path id="Trazado_906351" data-name="Trazado 906351" d="M662.2,444.934V432.379c-.349-.52-.585-1.141-.906-1.7-.014.021-.029.05-.043.071a.623.623,0,0,1-.8.285.559.559,0,0,1-.435-.742,5.348,5.348,0,0,1,.193-.535,1.626,1.626,0,0,0-.685-1.989,2.042,2.042,0,0,0-2.239.107,1.028,1.028,0,0,1-.741.05c-.121-.043-.143-.371-.128-.563.007-.135.135-.264.221-.428a3.207,3.207,0,0,0-2.652-.307,6.373,6.373,0,0,0-1.355.513,1.234,1.234,0,0,0-.77.934,4.772,4.772,0,0,1-.556,1.39,1.43,1.43,0,0,1-1.69.642,1.29,1.29,0,0,1-.877-1.447,3.3,3.3,0,0,1,1.105-1.968c.143-.135.285-.271.414-.4-.335-.948-.777-1.219-1.782-.97a7.651,7.651,0,0,0-1.818.734,13.635,13.635,0,0,0-3.387,2.659,2.34,2.34,0,0,0-.834,1.747,1.9,1.9,0,0,1-.357.955,1.194,1.194,0,0,1-1.233.563,1.073,1.073,0,0,1-1-.841,1.508,1.508,0,0,1,0-.905,9.369,9.369,0,0,1,1.027-1.918.9.9,0,0,0,.029-1.184,3.567,3.567,0,0,0-2.5-1.6,6.389,6.389,0,0,0-4.549.813,1.756,1.756,0,0,0-.984,1.262.672.672,0,0,1-.806.677c-.456-.043-.677-.414-.592-.934a5.212,5.212,0,0,0,.171-1.184c-.107-1.654-1.219-2.631-3.094-2.51a12.08,12.08,0,0,0-8.285,3.672,1.8,1.8,0,0,0-.592,1.889.812.812,0,0,1,.014.371.921.921,0,0,1-.763.9,1.035,1.035,0,0,1-1.191-.577,5.111,5.111,0,0,1-.271-1.262,3.059,3.059,0,0,1,.064-.684,4.67,4.67,0,0,0-3.85-.335,3.8,3.8,0,0,0-3.073,3.422,6.645,6.645,0,0,0,1.1,4.649,3.592,3.592,0,0,1,.264.406c.364.706.121,1.1-.763,1.276-1.2.242-2.424.449-3.608.756a22.508,22.508,0,0,0-2.545.913,5.33,5.33,0,0,0-.984.549c-1.911,1.248-1.419,3.037.178,4.028.228.143.506.235.72.385a.848.848,0,0,1,.328,1.233,1.191,1.191,0,0,1-1.376.428,1.75,1.75,0,0,1-.471-.207,6.576,6.576,0,0,0-4.592-.62c-1.6.2-2.1,1.169-1.4,2.453.135.25.314.485.463.727a.567.567,0,0,1-.171.834.772.772,0,0,1-.97-.029,2.128,2.128,0,0,1-.6-.642c-.756-1.476-2.224-1.954-3.886-1.989a6.432,6.432,0,0,0-5.183,2.125,4.347,4.347,0,0,0-.906,1.754c-.414,1.6.763,2.952,2.624,3.13.506.05.905.192,1.005.67.086.428-.214.72-.891.863s-1.4.207-2.075.378c-3.729.927-5.1,2.93-4.328,6.239a7.484,7.484,0,0,0,6.3,5.49c.513.086,1.055.057,1.583.1a3.548,3.548,0,0,1,.927.143.835.835,0,0,1,.25,1.519,4.278,4.278,0,0,1-.834.392,14.249,14.249,0,0,0-5.611,3.879,7.616,7.616,0,0,0-1.248,2.032,2.979,2.979,0,0,0,1.3,3.807,9.039,9.039,0,0,0,4.092,1.419,10.108,10.108,0,0,1,1.148.164c.848.214,1.005.756.371,1.312a10.439,10.439,0,0,1-.92.627,14.641,14.641,0,0,0-1.433,1.1,1.7,1.7,0,0,0-.585,2.118,2.422,2.422,0,0,0,2.239,1.169,2.171,2.171,0,0,1,.528,0c.207.071.485.2.535.349a.68.68,0,0,1-.221.556c-.207.207-.52.328-.741.52a4.8,4.8,0,0,0-.521,6.067,4.532,4.532,0,0,0,3.422,1.426c.563.043,1.134-.021,1.7.014.841.043,1.119.492.684,1.141a16.182,16.182,0,0,1-1.148,1.34c.535-.093.884-.15,1.233-.207a.973.973,0,0,1,1.041.285c.278.385.1.734-.235,1-.471.371-.991.692-1.49,1.048-.685.485-1.412.941-2.039,1.483s-.57.97.185,1.348a18.886,18.886,0,0,0,2.324.891c.456.164.948.25,1.4.406,1.219.421,1.633,1.069,1.4,2.189-.121.577-.314,1.141-.435,1.718-.214,1.055.193,1.7,1.369,1.968a12.359,12.359,0,0,0,2.517.264c1.782.021,1.939.157,1.576,1.647a.382.382,0,0,0,.007.121,2.025,2.025,0,0,0,1.4.021c.813-.128,1.3.15,1.248.841-.007.1-.007.2-.007.292h1.3a8.534,8.534,0,0,1-2.2-4.934,19.7,19.7,0,0,1,.207-4.442,10.238,10.238,0,0,1,.356-1.733,3.909,3.909,0,0,1,5.162-2.289,8.9,8.9,0,0,1,3.843,2.4,52.059,52.059,0,0,1,3.6,4.478A30.326,30.326,0,0,1,620,510.514c.834.3.834.3.613,1.29a1.761,1.761,0,0,0,.15,1.561h2.909a1.339,1.339,0,0,0,.121-.692c-.007-.207,0-.421,0-.677.292-.05.549-.093.863-.15-.114-.257-.221-.485-.321-.706-.342-.763-.214-1.034.649-1.383.478-.193.984-.356,1.44-.585,1.176-.585,1.233-1.005.228-1.832-.414-.335-.877-.62-1.319-.941a3.99,3.99,0,0,1-.627-.492c-.378-.406-.271-.692.25-.97,3.672-1.954,4.435-5.1,1.683-8.035a16.546,16.546,0,0,0-2.488-1.868c-.356-.257-.756-.456-1.134-.692-.414-.257-.827-.549-.677-1.055s.627-.627,1.155-.663c.107-.007.214-.007.321-.014.913-.114,1.3-.642.934-1.39a2.881,2.881,0,0,0-.82-.948,16.342,16.342,0,0,0-1.561-.962,3.658,3.658,0,0,1-.72-.392c-.2-.185-.435-.478-.392-.677s.385-.428.649-.506a10.1,10.1,0,0,1,1.248-.164,14.29,14.29,0,0,0,2.16-.421c.97-.321,1.291-.948.934-1.8a6.342,6.342,0,0,0-1.012-1.618,14.177,14.177,0,0,0-4.064-3.23,4.832,4.832,0,0,1-.627-.342c-.478-.356-.378-.82.235-.97a8.137,8.137,0,0,1,1.262-.15,1.966,1.966,0,0,0,1.426-.556c-.285-.185-.535-.385-.813-.528-.364-.185-.77-.314-1.141-.492a1.606,1.606,0,0,1-.863-1.005,17.855,17.855,0,0,1-.756-7.722,9.988,9.988,0,0,1,1.255-4.1c1.226-2.025,2.438-4.057,3.843-5.989a27.82,27.82,0,0,1,6.723-6.16,43.04,43.04,0,0,1,17.76-7.116,63.856,63.856,0,0,1,10.445-.941c.385,0,.77-.093,1.162-.114a3.248,3.248,0,0,1,.834.036.461.461,0,0,1,.3.328.374.374,0,0,1-.121.242C662.118,444.913,662.154,444.927,662.2,444.934Z" transform="translate(-14.464 -1.738)" fill="#1d71b8"/>
      <path id="Trazado_906352" data-name="Trazado 906352" d="M671.681,453.46a.348.348,0,0,1-.143.1,5.1,5.1,0,0,1-.934.15,90.936,90.936,0,0,0-13.5,1.889c-8.114,1.961-15.115,5.554-20.555,11.265a33.641,33.641,0,0,0-5.055,7.18,9.312,9.312,0,0,0-.991,4.527c-.007,1.454.043,2.909.1,4.363a7.713,7.713,0,0,0,.235,1.2,3.012,3.012,0,0,0,1.6-.948,28.566,28.566,0,0,1,8.934-7.194,61.586,61.586,0,0,1,12.648-5.419,56.313,56.313,0,0,1,15.878-2.139,9.352,9.352,0,0,1,1.269.057c.414.057.756.235.7.67-.05.371-.357.506-.749.535-.741.057-1.483.128-2.224.15a59.313,59.313,0,0,0-30.016,9.889,19.716,19.716,0,0,0-3.936,3.629c-.613.756-1.255,1.5-1.911,2.282.635.428,1.4.848,1.184,1.747-.214.856-1.112,1.034-1.918,1.362.677.52,1.333.991,1.954,1.49a9.474,9.474,0,0,1,2.524,2.845c.97,1.832.278,3.237-1.925,3.843-.535.15-1.1.221-1.747.349.235.178.435.328.627.478a12.365,12.365,0,0,1,1.255.991c1.069,1.1,1.034,2.246-.114,3.5.456.278.913.556,1.362.834a7.828,7.828,0,0,1,3.836,5.048,5.212,5.212,0,0,1-1.084,4.6,4.106,4.106,0,0,1-3.052,1.661c.371.228.635.371.87.542a6.672,6.672,0,0,1,1.005.813,1.431,1.431,0,0,1-.406,2.41,13.293,13.293,0,0,1-2.032.77,6.952,6.952,0,0,1-.8.178c.135.235.221.421.335.592a11.493,11.493,0,0,1,.77,1.112c.371.727.143,1.127-.685,1.476a1.374,1.374,0,0,0-.585.449,2.623,2.623,0,0,1-2.31,1.091c-.214,0-.428-.021-.635-.021-1.647-.021-2.645-.692-2.724-2.11-.171-3.023-1.711-5.511-3.757-7.821-.563-.635-1.112-1.283-1.683-1.918a7.625,7.625,0,0,0-3.38-2.175c-1.768-.585-3.109-.036-3.629,1.547a9.029,9.029,0,0,0-.485,2.552,22.19,22.19,0,0,0,.228,3.7,5.213,5.213,0,0,0,1.576,3.094,31.636,31.636,0,0,1,5.761,7.2,9.357,9.357,0,0,1,.078-1.483c.221-1.091.905-1.583,2.182-1.661.171-.007.349-.021.585-.036-.984-2.716-1.654-5.469-3.38-7.985a3.3,3.3,0,0,0-1.611,1.5,12.616,12.616,0,0,0-.556,1.968c-.078.349-.093.727-.578.777s-.663-.314-.763-.649a24.506,24.506,0,0,1-.813-3.059,14.489,14.489,0,0,1,0-2.781c.021-.463.1-.984.656-1.191a1.666,1.666,0,0,1,1.654.385,15.818,15.818,0,0,1,1.889,1.754,18.308,18.308,0,0,1,3.444,6.132c.385,1.126.82,2.239,1.241,3.351a3.963,3.963,0,0,0,.314.685,1.894,1.894,0,0,0,2.039,1.184c-.727,1-1.654.656-3.109-1.077-.292-.014-.606-.043-.92-.043-.977,0-1.333.364-1.191,1.219a3.587,3.587,0,0,0,.221.713c.128.328.292.663-.114.927-.435.285-.706-.078-1.034-.228.171.756.335,1.512.52,2.346.178-.007.406-.029.635-.029a3.611,3.611,0,0,1,3.458,2.453,8.968,8.968,0,0,1,.171,4.057c-.036.214-.086.421-.143.72,1.7.642,2.809-.278,4.021-1.077a61.535,61.535,0,0,1-1.626-9.725,1.38,1.38,0,0,1,.827,1.2c.52,2.339,1.062,4.67,1.561,7.016a97.408,97.408,0,0,0,3.486,12.235c.827,2.331,1.412,4.727,2.132,7.087a27.933,27.933,0,0,0,4.1,7.921,13.447,13.447,0,0,0,2.5,2.51,43.568,43.568,0,0,0,13.81,7.315,24.654,24.654,0,0,1,5.8,2.674,14.962,14.962,0,0,0,4.584,1.889,3.455,3.455,0,0,0,.941.078c.528-.014,1.048-.064,1.711-.107-.071.492-.128.927-.193,1.376a8.324,8.324,0,0,1-4.214-.235,18.2,18.2,0,0,1-3.978-1.932,17.466,17.466,0,0,0-4.542-2.182c-1.775-.592-3.529-1.233-5.44-1.9,0,.834-.014,1.626,0,2.41.064,3.13.242,6.26.193,9.383-.071,4.021-.285,8.049-.513,12.064-.164,2.909-.378,5.811-.685,8.713-.264,2.5-.684,4.977-1.055,7.465-.114.741-.406.77-1.2.463a30.6,30.6,0,0,0-2.959-.813c-.029.064-.057.121-.093.185.349.157.706.307,1.048.478a65.1,65.1,0,0,0,14.844,5.148c2.524.606,5.041,1.233,7.586,1.747a25.6,25.6,0,0,0,4.314.478,21,21,0,0,0,3.03-.349,40.321,40.321,0,0,0,10.26-2.567,12.2,12.2,0,0,0,1.433-.613,52.132,52.132,0,0,0,11.686-8.121,1.764,1.764,0,0,0,.6-1.6,49.053,49.053,0,0,1-.014-10.481c.221-2.688.328-5.383.528-8.071.15-2.011.371-4.007.556-6.018.014-.178,0-.364,0-.62a45.42,45.42,0,0,1-7.565.941,2.116,2.116,0,0,0-1.59.627c-1.4,1.754-3.472,2.281-5.747,2.3a39.94,39.94,0,0,1-4.007-.321c-.242-.021-.485-.057-.677-.086-1.854,1.683-4.064,1.8-6.41,1.276a27.494,27.494,0,0,1-2.709-.806,3.941,3.941,0,0,1-1.1-.542,3.753,3.753,0,0,0-1.283-.756,1.444,1.444,0,0,1-.891-1.711c.128-.428.292-.513,1.091-.513.078.314.164.642.257,1.027a1.849,1.849,0,0,1,1.583.856,1.275,1.275,0,0,0,.67.428,13.371,13.371,0,0,0,5.49.82c.834-.1,1.675-.157,2-1.077.171-.5.777-.435,1.291-.378,1.226.143,2.453.349,3.679.378a17.854,17.854,0,0,0,3.258-.278,3.572,3.572,0,0,0,2.2-1.219,3.414,3.414,0,0,1,2.31-1.184c1.747-.221,3.508-.428,5.24-.72a19.015,19.015,0,0,0,3.044-.763,3.009,3.009,0,0,0,2.239-2.609,2.781,2.781,0,0,1,2.3-2.488c1.027-.328,2.061-.656,3.066-1.034a8.982,8.982,0,0,0,4.962-4.135,4.632,4.632,0,0,0,.606-3.159,3.634,3.634,0,0,1,1.583-3.814c.264-.207.513-.428.784-.627a6.161,6.161,0,0,0,2.56-6.859,5.461,5.461,0,0,1,.414-4.085,8.256,8.256,0,0,0,.863-5.347c-.221-1.718-.521-3.437-.7-5.162a6.446,6.446,0,0,1,.157-2.945,1.481,1.481,0,0,0,.029-.913,9.718,9.718,0,0,1-.157-3.6c.1-2.381.235-4.763.364-7.144.029-.556.086-1.105.135-1.74H720.17a8.086,8.086,0,0,0-.214,1.1c-.185,3.4-.242,6.816-.556,10.2-.242,2.588-.777,5.155-1.226,7.722a4.718,4.718,0,0,1-1.733,2.816,16.882,16.882,0,0,1-4.449,2.98,3.241,3.241,0,0,0-1.9,2,22.177,22.177,0,0,0-1.048,4.92,16.781,16.781,0,0,1-.456,2.281,4.485,4.485,0,0,1-1.847,2.545,4.639,4.639,0,0,1-1.961.834,13.774,13.774,0,0,1-6.559-.692,4.16,4.16,0,0,1-2.752-2.638c-.1-.342-.214-.656.128-.941a.721.721,0,0,0,.171-.948,15.607,15.607,0,0,0-1.077-1.9c-.449-.656-.513-.692,0-1.3a.788.788,0,0,0,.171-.948,10.159,10.159,0,0,0-1.012-1.718,25.7,25.7,0,0,0-12.192-8.349,36.074,36.074,0,0,0-6.018-1.782c-.806-.114-1.611-.193-2.424-.257a.787.787,0,0,1-.813-.649,19.529,19.529,0,0,1,5.005.285c1.5.342,2.959.834,4.428,1.276a26.375,26.375,0,0,1,12.955,8.656,9.789,9.789,0,0,1,1.084,1.59,2.341,2.341,0,0,1,.021,2.659c.7,1.255,1.462,2.5.642,3.978a4.049,4.049,0,0,0,1.761,1.54,10.946,10.946,0,0,0,6.267.941,2.744,2.744,0,0,0,1.59-.856A5.334,5.334,0,0,0,707.565,556c.257-1.59.513-3.187.848-4.763a5.521,5.521,0,0,1,3.394-3.907,24.321,24.321,0,0,0,3.736-2.431,3.447,3.447,0,0,0,1.383-2.339,94.066,94.066,0,0,0,1.276-9.868c.128-2.41.271-4.827.4-7.237a2.884,2.884,0,0,1,.962-2.445,19.139,19.139,0,0,1-.257-2.153c-.007-.984.1-1.968.128-2.952a1.035,1.035,0,0,0-.178-.67c-.913-1.141-1.839-2.274-2.8-3.38a23.864,23.864,0,0,1-5.034-9.44,31.327,31.327,0,0,1-1.105-8.934c.014-.742.107-1.476.171-2.289-.257-.114-.563-.257-.87-.385-2.638-1.119-5.326-2.175-7.914-3.372a57.248,57.248,0,0,1-13.981-9.3,56.1,56.1,0,0,1-9.048-9.939,35.534,35.534,0,0,1-6.067-13.183,9.271,9.271,0,0,1-.093-1.939.8.8,0,0,1,.378-.592A1.493,1.493,0,0,0,671.681,453.46Zm1.875,94.484c1,1.162,2.011,2.317,3.116,3.4a6.472,6.472,0,0,0,5.084,1.675c.25-.014.492-.043.742-.057a1.016,1.016,0,0,1,.991.414.75.75,0,0,1-.164,1.027c-.093.093-.193.178-.364.335a8.883,8.883,0,0,0,.478,1.162,8.59,8.59,0,0,0,3.579,3.586,1.384,1.384,0,0,1,.877,1.8c-.185.542.078.87.556,1.176a12.15,12.15,0,0,0,6.588,2.046,6.7,6.7,0,0,1,.848.036c.891.128,1.233.656.777,1.333a11.3,11.3,0,0,1-1.6,1.961c-1.34,1.276-2.752,2.5-4.15,3.729a6.961,6.961,0,0,1-3.415,1.6,23.5,23.5,0,0,1-6.324.435,12.533,12.533,0,0,1-2.474-.471c-2.146-.635-2.838-1.675-2.5-3.629.135-.8.285-1.59.421-2.381a2.856,2.856,0,0,0,.057-.649.839.839,0,0,0-.806-.848,6.7,6.7,0,0,0-3.144-.007c-.4.143-.813.185-.941-.271-.121-.421.228-.6.649-.692a8.008,8.008,0,0,1,4.164.328,1.349,1.349,0,0,1,.977,1.333c.021.649-.043,1.3-.071,1.946-.029.677-.1,1.362-.093,2.039a1.442,1.442,0,0,0,1.3,1.5,13.857,13.857,0,0,0,3.123.414c1.754-.093,3.5-.385,5.247-.649a5.154,5.154,0,0,0,2.588-1.2c1.426-1.2,2.831-2.431,4.235-3.658a4.405,4.405,0,0,0,.421-.478c-.834-.114-1.561-.178-2.274-.321a13.228,13.228,0,0,1-5.133-2.331,1.865,1.865,0,0,1-.856-2.31,1.992,1.992,0,0,0,.057-.414,9.064,9.064,0,0,1-3.344-2.5,7.884,7.884,0,0,1-1.811-3.408c-.6-.064-1.134-.093-1.647-.185a7.548,7.548,0,0,1-3.929-1.9,16.048,16.048,0,0,1-3.622-4.984,6.375,6.375,0,0,1-.278-3.75c.064-.421.193-.834.321-1.39a1.287,1.287,0,0,1,.578,1.369A4.663,4.663,0,0,0,673.556,547.944Zm-1.7,10.631a19.854,19.854,0,0,1,3.765.15c1.861.357,3.743.635,5.618.948.349.057.692.121,1.034.207.364.093.656.278.62.649-.043.435-.435.563-.841.549a14.882,14.882,0,0,1-2.11-.185,23.871,23.871,0,0,1-2.866-.649,9.788,9.788,0,0,0-3.429-.442A1.508,1.508,0,0,1,671.859,558.574Z" transform="translate(-24.069 -10.293)" fill="#efaa57"/>
      <path id="Trazado_906353" data-name="Trazado 906353" d="M745.622,706.792H584.66c.57-2.2,1.069-4.42,1.725-6.6a39.178,39.178,0,0,1,6.2-12.556,27.154,27.154,0,0,1,12.563-9.112,46.936,46.936,0,0,1,13.725-2.6c2.4-.143,4.8-.321,7.194-.549,1.184-.114,2.353-.385,3.7-.606.164.235.385.549.6.863a22.416,22.416,0,0,0,1.105-2.781,24.543,24.543,0,0,1,1.276-3.03,2.761,2.761,0,0,1,2.681-1.355c1.34.014,2.688-.078,4.028-.157.8-.043,1.59-.157,2.481-.242-.043.435-.078.756-.107,1.02a10.8,10.8,0,0,1-3.793.563c-1.091.078-2.189.157-3.265.328-.884.143-1.02.542-.513,1.2a6.969,6.969,0,0,0,2.381,1.961c1.989,1.005,3.978,2.018,6.01,2.952a55.528,55.528,0,0,0,9.647,3.087,72.015,72.015,0,0,0,11.529,2.431,19.418,19.418,0,0,0,5.6-.1c1.376-.285,2.731-.627,4.1-.934a40.486,40.486,0,0,0,10.616-3.65c1.925-1.048,3.929-1.982,5.811-3.073,1.946-1.127,3.836-2.331,5.675-3.593a5.2,5.2,0,0,0,2.239-4.442c.021-.991-.741-1.39-1.775-.97-.335.135-.649.314-1.048.513v-1.027c.513-.028.97-.071,1.426-.064a2.463,2.463,0,0,1,2.4,1.4,2.868,2.868,0,0,1,.349,1.062c.05,1.533.406,3.073-.05,4.613a1.519,1.519,0,0,0,.135,1.454c.449-.635.9-1.276,1.291-1.832,1.176.364,2.253.756,3.372,1.027,1.29.314,2.609.556,3.928.77a94.12,94.12,0,0,1,16.541,4.3,25.325,25.325,0,0,1,9.483,5.96c.471.464.92.941,1.362,1.426s.863.984,1.269,1.49.806,1.02,1.191,1.54c.406.549.791,1.1,1.169,1.661a6.754,6.754,0,0,1,1,1.626c.171.578.67.941.9,1.462.371.87.856,1.7,1.248,2.56A61.212,61.212,0,0,1,745.622,706.792Z" transform="translate(-15.134 -70.799)" fill="#dedc00"/>
      <path id="Trazado_906354" data-name="Trazado 906354" d="M776.633,590.89c-.05-.428-.014-.87-.078-1.3a27.119,27.119,0,0,0-3.622-10.324c-1.376-2.3-2.716-4.627-4.15-6.9-.991-1.569-2.089-3.087-3.187-4.606-1.169-1.626-2.374-3.23-3.593-4.827-1.041-1.362-2.117-2.709-3.187-4.057-1.276-1.6-2.56-3.194-3.836-4.791-1.419-1.775-2.845-3.551-4.249-5.333-.906-1.148-1.811-2.3-2.688-3.458-1.155-1.526-2.26-3.073-3.422-4.592a41.747,41.747,0,0,1-4.071-6.3c-1.084-2.117-2.217-4.221-3.358-6.31a25.2,25.2,0,0,1-2.581-6.075c-.371-1.54-.613-3.109-.934-4.663-.25-1.176-.228-2.417-1.055-3.465a.426.426,0,0,1-.036-.421,2.46,2.46,0,0,0,.171-1.975,88.906,88.906,0,0,1-1.6-11.7c-.342-4.848-.677-9.7-1.077-14.552a70.167,70.167,0,0,0-2.617-13.425,51.637,51.637,0,0,0-5.062-11.486,62.551,62.551,0,0,0-7.928-10.752c-.941-1.048-1.839-2.132-2.873-3.1-1.932-1.811-3.886-3.608-5.939-5.312a46.688,46.688,0,0,0-6.894-4.784,64.592,64.592,0,0,0-9.033-4.1,46.026,46.026,0,0,0-20.519-2.253,25.458,25.458,0,0,0-8.328,2.3,1.073,1.073,0,0,0-.421.463,2.366,2.366,0,0,0,.549.157,2.923,2.923,0,0,1-.549-.157.525.525,0,0,0-.064.356c.135.449.62.25.984.135.2-.064.371-.185.57-.25a29.574,29.574,0,0,1,2.973-.977,44.583,44.583,0,0,1,30.4,3.772,39.757,39.757,0,0,1,6.952,4.249,91.249,91.249,0,0,1,7.222,6.288,78.958,78.958,0,0,1,5.825,6.267,71.537,71.537,0,0,1,4.763,6.374c.663.984,1.248,2.011,1.825,3.03.392.692.684,1.426,1.091,2.11a30.957,30.957,0,0,1,2.731,6.424,57.564,57.564,0,0,1,2.766,11.992c.52,5.4.891,10.809,1.362,16.213.207,2.374.464,4.748.742,7.123.214,1.8.592,3.593.713,5.4.164,2.346.278,4.691.642,7.03a23.063,23.063,0,0,0,1.811,7.044c2.267,4.463,4.492,8.962,7.144,13.261,2.26,3.665,5.069,7.08,7.686,10.581,1.761,2.36,3.622,4.663,5.44,6.987.756.97,1.533,1.932,2.289,2.909,1.5,1.946,3.009,3.9,4.492,5.861.92,1.212,1.79,2.453,2.709,3.665a116.285,116.285,0,0,1,8.534,13.789c.121.221.214.456.321.692a30.331,30.331,0,0,1,2.339,12.755,19.511,19.511,0,0,1-2.773,9.54,6.867,6.867,0,0,1-.52.649c-.05-1.055-.071-1.882-.143-2.709a3.48,3.48,0,0,0-.257-1.176,1.074,1.074,0,0,0-1.733-.271,2.459,2.459,0,0,0-.513.7,18.9,18.9,0,0,1-3.28,4.435c-1.854,1.875-3.736,3.729-5.682,5.526a31.009,31.009,0,0,1-10.9,6.31,35.349,35.349,0,0,1-9.711,1.961c-.164-.25-.342-.513-.513-.777a45.486,45.486,0,0,0-6.068-7.493,26.506,26.506,0,0,0-9.019-6.082,90.631,90.631,0,0,0-16.463-4.527c-2.488-.464-5-.856-7.486-1.312a14.1,14.1,0,0,1-1.711-.549,6.528,6.528,0,0,0-.635-4.556,4.385,4.385,0,0,0-4.7-1.961c-.357.093-.734.128-1.155.2,0-1.091-.043-2.1.007-3.123.164-3.65.442-7.3.52-10.951a74.881,74.881,0,0,1,.521-7.786.82.82,0,0,1,.4-.692,4.2,4.2,0,0,0,1.989-3.166c.093-.834.549-1.2,1.348-1.447,1.1-.342,2.2-.692,3.28-1.069,3.736-1.3,6.731-5.29,6.139-8.934a2.01,2.01,0,0,1,.7-1.875c.542-.492,1.105-.963,1.647-1.447a7.4,7.4,0,0,0,2.4-3.658,9.185,9.185,0,0,0,.143-3.964,4.777,4.777,0,0,1,.036-2.667c.328-.827.692-1.647,1.062-2.545.171.157.271.242.357.328a9.242,9.242,0,0,0,6.987,2.8,5.472,5.472,0,0,0,5.29-3.964,16.447,16.447,0,0,0,.264-5.084,11.832,11.832,0,0,0-2.9-7.144,11.041,11.041,0,0,0-.934-1.127,2.151,2.151,0,0,1-.677-2.331c.364-2.018.563-4.057.813-6.082a4.327,4.327,0,0,1,.92-2.246,3.139,3.139,0,0,0,.285-.606l-.185-.121a2.641,2.641,0,0,0-.563.3,3.91,3.91,0,0,0-1.255,1.911c-.242,1.027-.471,2.06-.642,3.1-.242,1.469-.378,2.952-.649,4.413a3.151,3.151,0,0,1-1.6,2.224c-.15-.913-.228-1-1.312-1.526,0-.456.007-.913,0-1.369-.036-1.412-.449-2.053-2.431-1.084a1.266,1.266,0,0,0-.863,1.269c.021.428.007.863.007,1.219-.549.406-1.034.777-1.626,1.212.135-4.078.271-8.057.4-12.049a2.3,2.3,0,0,0,1.554-1.675,37.482,37.482,0,0,1,3.237-7.543,13.415,13.415,0,0,1,3.508-4.356,9.03,9.03,0,0,1,3.686-1.74,8.174,8.174,0,0,1,1.675-.05.878.878,0,0,1,.87.578,8.854,8.854,0,0,1,.713,1.939,9.941,9.941,0,0,1-1.711,7.579c-1,1.348-2.011,2.7-3.016,4.043-.078.107-.214.214-.207.314a1.01,1.01,0,0,0,.193.642.859.859,0,0,0,.656.007,1.372,1.372,0,0,0,.52-.449c1.091-1.369,2.224-2.724,3.23-4.142a7.469,7.469,0,0,0,.97-2.146,16.2,16.2,0,0,0,.6-2.823,11.223,11.223,0,0,0-.57-5.326,3.515,3.515,0,0,0-3.529-2.225,6.347,6.347,0,0,0-3.986,1.312,11.44,11.44,0,0,0-3.294,3.494c-1.226,2.26-2.3,4.584-3.437,6.88a4.941,4.941,0,0,0-.221.62c-.349,1.069-.692,2.146-1.041,3.216-.078.228-.193.442-.328.749-.742-.114-1.426-.214-2.118-.321a.785.785,0,0,1-.756-.763c-.086-.827-.228-1.654-.285-2.488a1.064,1.064,0,0,1,.285-.642c.456-.585.492-.777.036-1.333-.934-1.127-1.847-2.267-2.838-3.358a22.616,22.616,0,0,1-5.069-9.212,34.7,34.7,0,0,1-1.283-9.475c0-.357.036-.713.064-1.112,4.47,1.6,8.827,3.151,13.361,4.777-.528.093-.87.135-1.2.221a3.546,3.546,0,0,0-.877.307c-.585.349-.606.784-.093,1.226.25.214.542.392.813.592a.527.527,0,0,0-.128-.406c-.5-.756-.385-1.048.592-1.241a6.9,6.9,0,0,1,3.551.178,1.87,1.87,0,0,0,.692.207,1.368,1.368,0,0,0,.813-.292.536.536,0,0,0-.128-.834,2.864,2.864,0,0,0-.706-.4c-.578-.228-1.169-.442-1.761-.642-7.087-2.41-14.138-4.891-20.983-7.807a64.378,64.378,0,0,1-10.88-5.768c-8.263-5.6-14.773-12.427-19.065-20.812a14.013,14.013,0,0,1-.834-1.9,28.784,28.784,0,0,1-1.825-6.189,1.974,1.974,0,0,0-.257-.542.217.217,0,0,1-.05.036,2.572,2.572,0,0,1,.171.67,2.572,2.572,0,0,0-.171-.67.818.818,0,0,0-.378.592,10.342,10.342,0,0,0,.093,1.939,35.532,35.532,0,0,0,6.067,13.183,55.835,55.835,0,0,0,9.048,9.939,57.251,57.251,0,0,0,13.982,9.3c2.588,1.2,5.276,2.253,7.914,3.372.307.128.613.271.87.385-.064.82-.157,1.554-.171,2.289a31.075,31.075,0,0,0,1.105,8.934,24,24,0,0,0,5.034,9.44c.963,1.112,1.889,2.246,2.8,3.379a1.059,1.059,0,0,1,.178.67c-.029.984-.135,1.968-.128,2.952a19.32,19.32,0,0,0,.257,2.153,2.884,2.884,0,0,0-.963,2.445c-.128,2.41-.264,4.827-.4,7.237a94.084,94.084,0,0,1-1.276,9.868,3.432,3.432,0,0,1-1.383,2.339,24.319,24.319,0,0,1-3.736,2.431A5.506,5.506,0,0,0,696,542.165c-.342,1.576-.592,3.173-.848,4.763a5.334,5.334,0,0,1-1.412,3.244,2.7,2.7,0,0,1-1.59.856,10.945,10.945,0,0,1-6.267-.941,3.967,3.967,0,0,1-1.761-1.54c.827-1.469.057-2.724-.642-3.978a2.341,2.341,0,0,0-.021-2.659,9.784,9.784,0,0,0-1.084-1.59,26.375,26.375,0,0,0-12.955-8.656c-1.469-.442-2.923-.934-4.428-1.276a19.531,19.531,0,0,0-5.005-.285.781.781,0,0,0,.813.649c.813.064,1.618.143,2.424.257a36.081,36.081,0,0,1,6.018,1.782,25.733,25.733,0,0,1,12.192,8.349,9.454,9.454,0,0,1,1.012,1.718.788.788,0,0,1-.171.948c-.513.606-.449.649,0,1.3a15.6,15.6,0,0,1,1.077,1.9.736.736,0,0,1-.171.948c-.342.285-.235.6-.128.941a4.16,4.16,0,0,0,2.752,2.638,13.852,13.852,0,0,0,6.559.692,4.6,4.6,0,0,0,1.961-.834,4.463,4.463,0,0,0,1.847-2.545,16.781,16.781,0,0,0,.456-2.281,22.181,22.181,0,0,1,1.048-4.92,3.24,3.24,0,0,1,1.9-2,16.711,16.711,0,0,0,4.449-2.98,4.718,4.718,0,0,0,1.733-2.816c.449-2.567.991-5.133,1.226-7.722.314-3.394.371-6.8.556-10.2a8.105,8.105,0,0,1,.214-1.1H710.2c-.05.635-.107,1.184-.135,1.74-.128,2.381-.264,4.763-.364,7.144a9.887,9.887,0,0,0,.157,3.6,1.48,1.48,0,0,1-.029.913,6.349,6.349,0,0,0-.157,2.945c.178,1.725.478,3.437.7,5.162a8.263,8.263,0,0,1-.863,5.347,5.5,5.5,0,0,0-.414,4.085,6.161,6.161,0,0,1-2.56,6.859c-.271.2-.513.428-.784.627a3.638,3.638,0,0,0-1.583,3.814,4.633,4.633,0,0,1-.606,3.159,9.011,9.011,0,0,1-4.962,4.135c-1.012.371-2.039.706-3.066,1.034a2.789,2.789,0,0,0-2.3,2.488,3.009,3.009,0,0,1-2.239,2.609,19.019,19.019,0,0,1-3.044.763c-1.733.292-3.494.5-5.24.72a3.443,3.443,0,0,0-2.31,1.184,3.554,3.554,0,0,1-2.2,1.219,17.854,17.854,0,0,1-3.258.278c-1.233-.029-2.453-.235-3.679-.378-.513-.057-1.112-.121-1.29.378-.321.927-1.162.977-2,1.077a13.37,13.37,0,0,1-5.49-.82,1.276,1.276,0,0,1-.67-.428,1.824,1.824,0,0,0-1.583-.856c-.1-.385-.178-.713-.257-1.027-.8,0-.962.078-1.091.513a1.444,1.444,0,0,0,.891,1.711,3.822,3.822,0,0,1,1.283.756,4.151,4.151,0,0,0,1.1.542c.891.292,1.79.6,2.709.806,2.346.528,4.556.414,6.41-1.276.193.021.435.064.677.086,1.333.114,2.674.335,4.007.321,2.267-.021,4.349-.549,5.747-2.3a2.155,2.155,0,0,1,1.59-.627,45.419,45.419,0,0,0,7.565-.941c0,.257.014.442,0,.62-.185,2-.406,4.007-.556,6.018-.2,2.688-.307,5.383-.528,8.071a49.049,49.049,0,0,0,.014,10.481,1.757,1.757,0,0,1-.6,1.6,52.3,52.3,0,0,1-11.686,8.121,15.188,15.188,0,0,1-1.433.613,40.4,40.4,0,0,1-10.26,2.567,20.034,20.034,0,0,1-3.03.349,25.772,25.772,0,0,1-4.313-.478c-2.545-.513-5.062-1.141-7.586-1.747a65.1,65.1,0,0,1-14.844-5.148c-.342-.178-.7-.321-1.048-.478.029-.064.057-.121.093-.185a30.605,30.605,0,0,1,2.959.813c.8.3,1.1.278,1.2-.463.371-2.488.791-4.969,1.055-7.465.307-2.895.52-5.8.684-8.713.228-4.021.442-8.042.513-12.064.057-3.123-.121-6.253-.193-9.383-.014-.791,0-1.583,0-2.41,1.9.67,3.658,1.319,5.44,1.9a17.577,17.577,0,0,1,4.542,2.182,18.192,18.192,0,0,0,3.978,1.932,8.251,8.251,0,0,0,4.214.235c.064-.449.121-.891.193-1.376-.663.043-1.184.093-1.711.107a3.455,3.455,0,0,1-.941-.078,14.888,14.888,0,0,1-4.584-1.889,24.653,24.653,0,0,0-5.8-2.674,43.712,43.712,0,0,1-13.81-7.315,13.891,13.891,0,0,1-2.5-2.51,27.933,27.933,0,0,1-4.1-7.921c-.727-2.36-1.3-4.756-2.132-7.087a98.123,98.123,0,0,1-3.486-12.235c-.5-2.339-1.034-4.677-1.561-7.016a1.393,1.393,0,0,0-.827-1.2,61.533,61.533,0,0,0,1.626,9.725c-1.219.8-2.324,1.718-4.021,1.077.057-.292.114-.506.143-.72a8.967,8.967,0,0,0-.171-4.057,3.611,3.611,0,0,0-3.458-2.453c-.228,0-.456.021-.635.029-.185-.834-.357-1.59-.52-2.346-.078-.135-.157-.278-.235-.414a31.635,31.635,0,0,0-5.761-7.2,5.213,5.213,0,0,1-1.576-3.094,22.15,22.15,0,0,1-.228-3.7,9.031,9.031,0,0,1,.485-2.552c.52-1.583,1.861-2.132,3.629-1.547a7.626,7.626,0,0,1,3.38,2.175c.57.635,1.119,1.283,1.683,1.918,2.053,2.317,3.593,4.8,3.757,7.821.078,1.426,1.084,2.1,2.724,2.11.214,0,.428.021.635.021a2.615,2.615,0,0,0,2.31-1.091,1.532,1.532,0,0,1,.585-.449c.827-.349,1.055-.749.684-1.476a11.086,11.086,0,0,0-.77-1.112c-.114-.171-.207-.357-.335-.592a6.947,6.947,0,0,0,.8-.178,12.586,12.586,0,0,0,2.032-.77,1.434,1.434,0,0,0,.406-2.41,6.6,6.6,0,0,0-1.005-.813c-.235-.171-.5-.314-.87-.542a4.106,4.106,0,0,0,3.052-1.661,5.255,5.255,0,0,0,1.084-4.6A7.789,7.789,0,0,0,623.813,494c-.449-.278-.906-.556-1.362-.834,1.148-1.248,1.183-2.4.114-3.5a12.377,12.377,0,0,0-1.255-.991c-.193-.15-.392-.292-.627-.478.649-.128,1.212-.2,1.747-.349,2.2-.613,2.895-2.011,1.925-3.843a9.3,9.3,0,0,0-2.524-2.845c-.62-.5-1.276-.977-1.954-1.49.806-.321,1.7-.5,1.918-1.362.221-.9-.549-1.319-1.184-1.747.656-.784,1.3-1.526,1.911-2.282a19.506,19.506,0,0,1,3.936-3.629,59.313,59.313,0,0,1,30.016-9.889c.741-.021,1.483-.093,2.224-.15.385-.029.7-.171.749-.535.057-.435-.292-.613-.7-.67a9.453,9.453,0,0,0-1.269-.057,56.316,56.316,0,0,0-15.878,2.139,61.589,61.589,0,0,0-12.648,5.419,28.651,28.651,0,0,0-8.934,7.194,3.01,3.01,0,0,1-1.6.948,7.713,7.713,0,0,1-.235-1.2c-.057-1.454-.107-2.909-.1-4.363a9.411,9.411,0,0,1,.991-4.527,33.038,33.038,0,0,1,5.055-7.18c5.433-5.7,12.441-9.3,20.555-11.265a89.872,89.872,0,0,1,13.5-1.889,5.1,5.1,0,0,0,.934-.15.308.308,0,0,0,.143-.1,1.687,1.687,0,0,0-.2-.029,1.68,1.68,0,0,1,.2.029.393.393,0,0,0,.121-.242.461.461,0,0,0-.3-.328,3.247,3.247,0,0,0-.834-.036c-.385.021-.77.114-1.162.114a63.218,63.218,0,0,0-10.445.941,43.04,43.04,0,0,0-17.76,7.116,27.963,27.963,0,0,0-6.723,6.16c-1.4,1.932-2.617,3.964-3.843,5.989a9.988,9.988,0,0,0-1.255,4.1,17.855,17.855,0,0,0,.756,7.722,1.606,1.606,0,0,0,.863,1.005c.371.178.777.307,1.141.492a8.732,8.732,0,0,1,.813.528,1.909,1.909,0,0,1-1.426.556,8.245,8.245,0,0,0-1.262.15c-.613.15-.713.613-.235.97a5.873,5.873,0,0,0,.627.342,14.177,14.177,0,0,1,4.064,3.23,6.338,6.338,0,0,1,1.012,1.618c.357.848.036,1.476-.934,1.8a14.294,14.294,0,0,1-2.16.421,11.677,11.677,0,0,0-1.248.164c-.264.078-.606.3-.649.506s.2.492.392.677a4.588,4.588,0,0,0,.72.392,16.349,16.349,0,0,1,1.561.962,2.8,2.8,0,0,1,.82.948c.371.741-.021,1.276-.934,1.39a2.413,2.413,0,0,1-.321.014c-.528.029-1.005.171-1.155.663s.257.8.677,1.055c.378.235.777.435,1.134.692a16.543,16.543,0,0,1,2.488,1.868c2.752,2.93,1.989,6.082-1.683,8.035-.528.278-.627.563-.25.97a4.247,4.247,0,0,0,.627.492c.435.314.906.6,1.319.941,1.005.827.948,1.248-.228,1.832-.456.228-.962.385-1.44.585-.87.349-.991.62-.649,1.383.1.228.207.449.321.706-.314.05-.57.1-.863.15,0,.264-.007.471,0,.677.036.8-.321,1.148-1.219,1.169-1.761.043-2.3-.506-1.954-2.039.221-.984.221-.984-.613-1.29a30.333,30.333,0,0,0-1.875-3.665,48.517,48.517,0,0,0-3.6-4.478,8.946,8.946,0,0,0-3.843-2.4,3.9,3.9,0,0,0-5.162,2.289,9.583,9.583,0,0,0-.356,1.733,19.692,19.692,0,0,0-.207,4.442,8.61,8.61,0,0,0,2.681,5.433,28.609,28.609,0,0,1,4.563,5.69,10.33,10.33,0,0,1,.906,2.26,1.191,1.191,0,0,1-.535,1.483,2.729,2.729,0,0,0-.706.806,10.132,10.132,0,0,0-1.233,8.356,2.116,2.116,0,0,0,1.269,1.412,2.869,2.869,0,0,0,3.066-.214,10.6,10.6,0,0,0,3.38-3.273,4.807,4.807,0,0,0,4.485-1.191c.513,1.968.948,3.85,1.5,5.7.834,2.845,1.868,5.647,2.588,8.513a37.917,37.917,0,0,0,4.164,10.188,13.785,13.785,0,0,0,2.838,3.458,31.89,31.89,0,0,0,7.964,5.212c.463.207.92.435,1.226.585a10.177,10.177,0,0,0-.364,1.611c-.064.991-.05,1.982-.057,2.973-.036,8.021.342,16.042-.606,24.049-.029.235-.064.471-.093.7-.884.107-1.7.171-2.5.3a52.747,52.747,0,0,1-11.122.421,81.993,81.993,0,0,1-12.441-1.8,42.791,42.791,0,0,1-10.987-4.085,4.489,4.489,0,0,1-2.588-3.429,6.783,6.783,0,0,1-.078-.927c-.029-1.954-.093-3.9-.071-5.854.036-2.574.093-5.148,1.319-7.565.014-.029.036-.064.029-.086a2.165,2.165,0,0,0-.271-.841.841.841,0,0,0-1.062-.093,3.245,3.245,0,0,0-.734.52,18.536,18.536,0,0,0-4.278,5.718c-.884,2.118-1.654,4.278-2.353,6.445a9.9,9.9,0,0,0-.292,6.6,18.262,18.262,0,0,1-4.5-.007,38.909,38.909,0,0,1-9.618-2.167,2.334,2.334,0,0,1-1.768-1.9q-.246-1.658-.471-3.315a57.813,57.813,0,0,1-.314-10.766,23.9,23.9,0,0,1,1-6.331c.727-2.167,1.619-4.285,2.4-6.431a26.277,26.277,0,0,1,4.085-7.415,14.189,14.189,0,0,0,1.027-1.519,50.241,50.241,0,0,1,6.852-8.37c2.1-2.224,4.157-4.463,6.1-6.788a23.1,23.1,0,0,0,2.809-4.15c.827-1.576,1.725-3.123,2.51-4.713a15.03,15.03,0,0,0,1.269-3.237,37.572,37.572,0,0,0,.5-4.2c.157-.086.406-.235.692-.392-.071-.164-.086-.307-.178-.378a2.49,2.49,0,0,1-1.105-2.381c.057-.692-.435-.963-1.248-.841a2.064,2.064,0,0,1-1.4-.021.386.386,0,0,1-.007-.121c.371-1.49.207-1.626-1.576-1.647a11.878,11.878,0,0,1-2.517-.264c-1.176-.264-1.583-.913-1.369-1.968.121-.578.314-1.141.435-1.718.242-1.112-.178-1.761-1.4-2.189-.456-.157-.948-.25-1.4-.406a21.148,21.148,0,0,1-2.324-.891c-.756-.378-.813-.806-.185-1.348s1.348-.991,2.039-1.483c.492-.349,1.012-.677,1.49-1.048.335-.264.513-.613.235-1a.973.973,0,0,0-1.041-.285c-.349.057-.7.121-1.233.207a16.194,16.194,0,0,0,1.148-1.34c.435-.642.157-1.091-.685-1.141-.563-.029-1.134.029-1.7-.014a4.532,4.532,0,0,1-3.422-1.426,4.8,4.8,0,0,1,.52-6.067c.221-.2.535-.314.741-.52a.658.658,0,0,0,.221-.556c-.05-.15-.328-.278-.535-.349a2.174,2.174,0,0,0-.528,0,2.422,2.422,0,0,1-2.239-1.169,1.7,1.7,0,0,1,.585-2.118,14.636,14.636,0,0,1,1.433-1.1c.3-.221.642-.392.92-.627.635-.556.478-1.1-.371-1.312a10.1,10.1,0,0,0-1.148-.164,9.039,9.039,0,0,1-4.093-1.419,2.979,2.979,0,0,1-1.3-3.807,7.616,7.616,0,0,1,1.248-2.032,14.249,14.249,0,0,1,5.611-3.879,3.9,3.9,0,0,0,.834-.392.833.833,0,0,0-.25-1.519,3.273,3.273,0,0,0-.927-.143c-.528-.043-1.069-.007-1.583-.1a7.476,7.476,0,0,1-6.3-5.49c-.777-3.308.6-5.3,4.328-6.239.677-.171,1.39-.235,2.075-.378s.977-.435.884-.863c-.1-.478-.5-.627-1.005-.67-1.854-.178-3.037-1.533-2.624-3.13a4.392,4.392,0,0,1,.905-1.754,6.4,6.4,0,0,1,5.183-2.125c1.661.036,3.13.513,3.886,1.989a2.213,2.213,0,0,0,.6.642.763.763,0,0,0,.97.029.567.567,0,0,0,.171-.834c-.15-.242-.328-.478-.463-.727-.692-1.283-.2-2.246,1.4-2.453a6.61,6.61,0,0,1,4.592.62,1.851,1.851,0,0,0,.471.207,1.191,1.191,0,0,0,1.376-.428.848.848,0,0,0-.328-1.233c-.214-.157-.492-.242-.72-.385-1.6-.991-2.089-2.788-.178-4.028a6.311,6.311,0,0,1,.984-.549,22.509,22.509,0,0,1,2.545-.913c1.184-.307,2.4-.513,3.608-.756.884-.178,1.119-.57.763-1.276a3.584,3.584,0,0,0-.264-.406,6.682,6.682,0,0,1-1.1-4.649,3.8,3.8,0,0,1,3.073-3.422,4.667,4.667,0,0,1,3.85.335,3.023,3.023,0,0,0-.064.684,4.98,4.98,0,0,0,.271,1.262,1.035,1.035,0,0,0,1.191.578.916.916,0,0,0,.763-.9.811.811,0,0,0-.014-.371,1.789,1.789,0,0,1,.592-1.889,12.08,12.08,0,0,1,8.285-3.672c1.875-.114,2.98.856,3.094,2.51a5.273,5.273,0,0,1-.171,1.184c-.086.52.143.891.592.934a.672.672,0,0,0,.806-.677,1.783,1.783,0,0,1,.984-1.262,6.39,6.39,0,0,1,4.549-.813,3.559,3.559,0,0,1,2.5,1.6.9.9,0,0,1-.029,1.184,9.75,9.75,0,0,0-1.027,1.918,1.509,1.509,0,0,0,0,.905,1.06,1.06,0,0,0,1,.841,1.172,1.172,0,0,0,1.233-.563,1.97,1.97,0,0,0,.357-.955,2.39,2.39,0,0,1,.834-1.747,13.636,13.636,0,0,1,3.387-2.659,7.773,7.773,0,0,1,1.818-.734c1.005-.257,1.44.014,1.782.97-.128.128-.264.264-.414.4A3.337,3.337,0,0,0,645.9,428.1a1.29,1.29,0,0,0,.877,1.447,1.418,1.418,0,0,0,1.69-.642,4.774,4.774,0,0,0,.556-1.39,1.249,1.249,0,0,1,.77-.934,6.784,6.784,0,0,1,1.355-.513,3.233,3.233,0,0,1,2.652.307c-.086.164-.214.292-.221.428-.007.193.014.52.128.563a1.025,1.025,0,0,0,.742-.05,2.042,2.042,0,0,1,2.239-.107,1.627,1.627,0,0,1,.684,1.989c-.057.178-.143.349-.193.535a.563.563,0,0,0,.435.741.64.64,0,0,0,.8-.285c.014-.021.029-.05.043-.071a2.974,2.974,0,0,0-.905-1.048,3.047,3.047,0,0,1,.905,1.048,2.31,2.31,0,0,0,.264-.613,2.882,2.882,0,0,0-2.125-3.265,12.409,12.409,0,0,0-1.8-.285c-1.561-1.768-3.679-1.512-5.861-1.02-.121-.185-.235-.335-.335-.492a2.953,2.953,0,0,0-2.831-1.319,7.417,7.417,0,0,0-2.039.456,13.139,13.139,0,0,0-4.078,2.467c-.221.185-.456.364-.734.578a5.472,5.472,0,0,0-4.164-2.4,8.462,8.462,0,0,0-5.012.991c-.064-.221-.1-.371-.15-.513a3.791,3.791,0,0,0-3.593-2.6,7.916,7.916,0,0,1-.82-.157h-.428c-.663.093-1.326.157-1.982.285-3.016.585-5.675,1.7-7.543,3.986a7.5,7.5,0,0,0-4.684-.385c-2.609.585-4.249,2.274-4.492,4.62a7.15,7.15,0,0,0,1.034,4.848,2.993,2.993,0,0,1,.164.364c-.963.207-1.9.364-2.8.606a22.619,22.619,0,0,0-2.681.87c-2.952,1.2-3.822,2.581-3.458,5.376-.734.05-1.483.05-2.2.171-2.16.364-3.052,1.119-3.593,2.973a8.531,8.531,0,0,0-3.807-.656,7.905,7.905,0,0,0-5.2,2.239,3.72,3.72,0,0,0,.007,5.64,2.341,2.341,0,0,1,.221.278c-.264.114-.506.228-.749.328-.414.178-.834.342-1.241.528-3.722,1.7-4.542,4.67-3.636,7.615a9.249,9.249,0,0,0,6.246,6.139c.157.057.321.107.563.193-.257.193-.478.335-.67.506-1.141.97-2.324,1.9-3.394,2.93a6.182,6.182,0,0,0-1.633,2.788,4.212,4.212,0,0,0,2.153,5.034,10.127,10.127,0,0,0,3.836,1.276l1.283.193c-.328.264-.578.421-.777.62a11.48,11.48,0,0,0-1.554,1.626c-.934,1.426-.392,3,1.212,3.85.214.114.435.2.77.342-.193.264-.371.506-.549.756a5.461,5.461,0,0,0-.841,4.905,4.443,4.443,0,0,0,4.449,3.123c.806.021,1.618-.05,2.5-.086-.15.414-.613.606-.934.891-.25.221-.542.4-.791.613-.642.549-.649.72-.064,1.462-.285.207-.585.406-.856.635a7.065,7.065,0,0,0-1,.955,2,2,0,0,0,.656,3.173,9.089,9.089,0,0,0,3.244,1.084c.649.128,1.3.257,2.068.414-.078.449-.128.834-.207,1.212a14.908,14.908,0,0,0-.364,1.633,2.4,2.4,0,0,0,2.089,2.652,17.133,17.133,0,0,0,2.2.3c.271.036.542.05.806.071-.171,1.932.528,2.488,2.909,2.3a3.826,3.826,0,0,0,1.376,2.089c.143.1.135.4.143.613a12.693,12.693,0,0,1-1.569,6.752c-.963,1.69-1.832,3.415-2.766,5.119a14.673,14.673,0,0,1-1.362,2.2,77.521,77.521,0,0,1-6.652,7.593c-.121.114-.25.221-.356.342-2.481,2.895-5.269,5.59-7.415,8.706-.692,1.005-1.462,1.975-2.232,2.945a20.753,20.753,0,0,0-2.716,4.4c-.727,1.611-1.483,3.208-2.239,4.813a29.408,29.408,0,0,0-2.581,10.573c-.107,1.419-.285,2.831-.428,4.242v1.49c.128.92.264,1.832.392,2.752.228,1.626.428,3.258.692,4.877a6.145,6.145,0,0,0,.492,1.512,3.083,3.083,0,0,0,1.918,1.64,38.794,38.794,0,0,0,13.047,2.175,18.1,18.1,0,0,0,2.838-.314c.82-.15,1.034-.435.813-1.134a6.629,6.629,0,0,1,.264-4.3c.92-2.531,1.939-5.041,3-7.529a15.2,15.2,0,0,1,1.39-2.289c.264-.4.6-.763,1.012-1.283a6.043,6.043,0,0,1,.093.727c.007,3.28-.014,6.567.014,9.846a8.5,8.5,0,0,0,.278,2.025,5.793,5.793,0,0,0,2.873,3.437,34.612,34.612,0,0,0,11.044,4.385,110.642,110.642,0,0,0,12.62,2,57.431,57.431,0,0,0,11.45.043c.663-.071,1.326-.164,2.16-.271-.064.756-.114,1.454-.193,2.146s-.193,1.4-.285,2.06c-2.374.078-4.691.135-7,.242a5.06,5.06,0,0,0-3.529,1.7,9.851,9.851,0,0,0-2.417,4.328c-1.54.135-3.1.321-4.677.406a99.3,99.3,0,0,0-11.835.948c-7.037,1.226-13.482,3.522-18.63,8.078a34.509,34.509,0,0,0-7.686,10.067,56.091,56.091,0,0,0-4.805,13.525,1.823,1.823,0,0,0-.021.278h3.187c.57-2.2,1.069-4.42,1.725-6.6a39.178,39.178,0,0,1,6.2-12.556,27.155,27.155,0,0,1,12.563-9.112,46.936,46.936,0,0,1,13.725-2.6c2.4-.143,4.8-.321,7.194-.549,1.184-.114,2.353-.385,3.7-.606.164.235.385.549.6.863a22.422,22.422,0,0,0,1.105-2.781,24.551,24.551,0,0,1,1.276-3.03,2.761,2.761,0,0,1,2.681-1.355c1.34.014,2.688-.078,4.028-.157.8-.043,1.59-.157,2.481-.242-.043.435-.078.756-.107,1.02a10.8,10.8,0,0,1-3.793.563c-1.091.078-2.189.157-3.265.328-.884.143-1.02.542-.513,1.2a6.97,6.97,0,0,0,2.381,1.961c1.989,1.005,3.978,2.018,6.01,2.952a55.526,55.526,0,0,0,9.647,3.087,72.008,72.008,0,0,0,11.529,2.431,19.416,19.416,0,0,0,5.6-.1c1.376-.285,2.731-.627,4.1-.934a40.49,40.49,0,0,0,10.616-3.65c1.925-1.048,3.929-1.982,5.811-3.073,1.946-1.127,3.836-2.331,5.675-3.593a5.205,5.205,0,0,0,2.239-4.442c.021-.991-.742-1.39-1.775-.97-.335.135-.649.314-1.048.513v-1.027c.513-.029.97-.071,1.426-.064a2.463,2.463,0,0,1,2.4,1.4,2.868,2.868,0,0,1,.349,1.062c.05,1.533.406,3.073-.05,4.613a1.519,1.519,0,0,0,.135,1.454c.449-.635.9-1.276,1.29-1.832,1.176.364,2.253.756,3.372,1.027,1.29.314,2.609.556,3.929.77a94.121,94.121,0,0,1,16.541,4.3,25.323,25.323,0,0,1,9.483,5.961c.471.463.92.941,1.362,1.426s.863.984,1.269,1.49.806,1.02,1.191,1.54c.406.549.791,1.1,1.169,1.661a6.755,6.755,0,0,1,1,1.626c.171.578.67.941.9,1.462.371.87.856,1.7,1.248,2.56a60.013,60.013,0,0,1,3.593,12.007h2.766c-.392-1.818-.727-3.65-1.191-5.461a41.121,41.121,0,0,0-3.066-8.285c-.078-.164-.128-.342-.2-.535,1.276-.128,2.5-.242,3.729-.385a23.923,23.923,0,0,0,5.212-1.233,34.422,34.422,0,0,0,12.962-7.886,62.269,62.269,0,0,0,6.531-7.08,1.179,1.179,0,0,0,.128-.356c.093.05.193.107.285.157.014.171.029.342.036.506.014.464.014.927.043,1.39.057.827.378,1.291.97,1.4a1.462,1.462,0,0,0,1.483-.713,26.557,26.557,0,0,0,1.618-2.289,22.472,22.472,0,0,0,3.037-7.394c.135-.663.214-1.333.321-2v-5.019C776.768,591.681,776.676,591.289,776.633,590.89ZM716.7,528.455c.856-.221.991.378,1.169.834a7.563,7.563,0,0,1-.264,5.882,6.661,6.661,0,0,1-.791,1.077,13.163,13.163,0,0,1-.342-8.035C716.586,528.341,716.664,528.469,716.7,528.455Zm-1.889-5.133c-.029.627-.064,1.219-.093,1.811-.863.05-.9.021-1.055-.677S713.6,523.649,714.811,523.321Zm-2.788,4.114a.869.869,0,0,1,.449-1.048,6.546,6.546,0,0,1,1.954-.3c1.226-.043,1.226-.014,1.911.435-.143.356-.314.72-.435,1.105a14.775,14.775,0,0,0-.2,8.435,3.5,3.5,0,0,0,2.8,2.524c1.569.385,2.674-.15,3.044-1.526a10.294,10.294,0,0,0,.143-4.613,29.858,29.858,0,0,0-1.084-3.957,17.376,17.376,0,0,0-1.119-2.21c.036,0,.128-.014.157.007,1.647,1.747,3.244,3.5,3.757,5.825a15.768,15.768,0,0,1,.107,7.272,4.6,4.6,0,0,1-4.649,3.244c-2.624-.057-6.488-1.711-6.837-5.4-.228-2.4-.292-4.813-.357-7.222a8.645,8.645,0,0,1,.414-1.683A2.52,2.52,0,0,0,712.023,527.435Zm-103.3,1.954a5.586,5.586,0,0,1,2.1-4.777,4.132,4.132,0,0,1,.741-.335c.071-.207.171-.485.292-.82a1.972,1.972,0,0,1,.991,1.782,7.187,7.187,0,0,1-1.3,4.435,2.025,2.025,0,0,1-1.718.941.873.873,0,0,1-.955-.585A2.1,2.1,0,0,1,608.72,529.389Zm5.768-.171a14.209,14.209,0,0,1-1.105,1.576,15.354,15.354,0,0,1-1.569,1.376,2.29,2.29,0,0,1-.257.171c-1.262.749-1.839.592-2.524-.763.221,0,.406-.007.585,0a3.053,3.053,0,0,0,2.645-1.134,6.878,6.878,0,0,0,1.369-5.761,7,7,0,0,0-.984-1.782,1.947,1.947,0,0,1,2.289,1.39,18.765,18.765,0,0,1,.193,3.23C615.143,528.141,614.11,528.476,614.488,529.217Z" transform="translate(-11.687 -1.249)" fill="#311d48"/>
      <path id="Trazado_906355" data-name="Trazado 906355" d="M694.167,578.66a1.287,1.287,0,0,1,.578,1.369,4.745,4.745,0,0,0,1.176,3.85c1,1.162,2.011,2.317,3.116,3.4a6.472,6.472,0,0,0,5.084,1.675c.25-.014.492-.043.742-.057a1.016,1.016,0,0,1,.991.414.75.75,0,0,1-.164,1.027c-.093.093-.193.178-.364.335a8.88,8.88,0,0,0,.478,1.162,8.589,8.589,0,0,0,3.579,3.586,1.384,1.384,0,0,1,.877,1.8c-.185.542.078.87.556,1.176a12.15,12.15,0,0,0,6.588,2.046,6.677,6.677,0,0,1,.848.036c.891.128,1.233.656.777,1.333a11.309,11.309,0,0,1-1.6,1.961c-1.34,1.276-2.752,2.5-4.15,3.729a6.962,6.962,0,0,1-3.415,1.6,23.5,23.5,0,0,1-6.324.435,12.536,12.536,0,0,1-2.474-.471c-2.146-.635-2.838-1.676-2.5-3.629.135-.8.285-1.59.421-2.381a2.852,2.852,0,0,0,.057-.649.839.839,0,0,0-.806-.848,6.7,6.7,0,0,0-3.144-.007c-.4.143-.813.185-.941-.271-.121-.421.228-.6.649-.692a8.009,8.009,0,0,1,4.164.328,1.349,1.349,0,0,1,.977,1.333c.021.649-.043,1.3-.071,1.946-.029.677-.1,1.362-.093,2.039a1.442,1.442,0,0,0,1.3,1.5,13.857,13.857,0,0,0,3.123.414c1.754-.093,3.508-.385,5.248-.649a5.154,5.154,0,0,0,2.588-1.2c1.426-1.2,2.831-2.431,4.235-3.658a4.405,4.405,0,0,0,.421-.478c-.834-.114-1.561-.178-2.274-.321a13.229,13.229,0,0,1-5.133-2.331,1.865,1.865,0,0,1-.856-2.31,1.993,1.993,0,0,0,.057-.414,9.065,9.065,0,0,1-3.344-2.5,7.884,7.884,0,0,1-1.811-3.408c-.6-.064-1.134-.093-1.647-.185a7.548,7.548,0,0,1-3.929-1.9,16.047,16.047,0,0,1-3.622-4.984,6.375,6.375,0,0,1-.278-3.75A11.412,11.412,0,0,1,694.167,578.66Z" transform="translate(-46.434 -46.228)" fill="#311d48"/>
      <path id="Trazado_906356" data-name="Trazado 906356" d="M776.874,539.28c-.364.585-.635,1.02-.9,1.454-.563.927-1.169,1.839-1.668,2.795a20.388,20.388,0,0,0-1.034,2.524c-.242.677-.4,1.376-.613,2.117.328.143.635.264.934.406a2.015,2.015,0,0,1,1.383,2.2,7.27,7.27,0,0,1-.72,2.018c-.314.613-.592.656-1.59.492.093-.349.164-.7.285-1.041s.314-.692.449-1.041c.321-.8.264-1.547-1.027-1.932a9.388,9.388,0,0,1-.613.92,1.937,1.937,0,0,1-2.966-.078.831.831,0,0,1-.1-.763c.193-.3.556-.135.841.007.093.043.185.093.278.135a.6.6,0,0,0,.92-.321,9.128,9.128,0,0,0,.442-1.333,15.836,15.836,0,0,1,2.189-5.29c.713-1.062,1.148-2.26,1.775-3.365a10.119,10.119,0,0,1,1.4-2.06,6.885,6.885,0,0,1,1.961-1.376,1.749,1.749,0,0,1,2.424.827,2.254,2.254,0,0,1,.15,1.44c-.392,1.212-.927,2.4-1.412,3.586a.472.472,0,0,1-.164.235c-.221.128-.485.328-.692.3a.91.91,0,0,1-.542-.478c-.271-.528-.449-1.1-.72-1.633A3.888,3.888,0,0,0,776.874,539.28Z" transform="translate(-67.94 -33.855)" fill="#311d48"/>
      <path id="Trazado_906357" data-name="Trazado 906357" d="M624.642,552.323c-.078-.135-.157-.278-.235-.414a9.355,9.355,0,0,1,.078-1.483c.221-1.091.905-1.583,2.182-1.661.171-.007.349-.021.585-.036-.984-2.716-1.661-5.469-3.38-7.985a3.3,3.3,0,0,0-1.611,1.5,12.611,12.611,0,0,0-.556,1.968c-.078.349-.093.727-.578.777s-.663-.314-.763-.649a24.513,24.513,0,0,1-.813-3.059,14.485,14.485,0,0,1,0-2.781c.021-.463.1-.984.656-1.191a1.666,1.666,0,0,1,1.654.385,15.818,15.818,0,0,1,1.889,1.754,18.311,18.311,0,0,1,3.444,6.132c.385,1.127.82,2.239,1.241,3.351a3.969,3.969,0,0,0,.314.684,1.894,1.894,0,0,0,2.039,1.184c-.727,1-1.654.656-3.109-1.077-.292-.014-.606-.043-.92-.043-.977,0-1.333.364-1.191,1.219a3.583,3.583,0,0,0,.221.713c.128.328.292.663-.114.927C625.241,552.829,624.97,552.472,624.642,552.323Z" transform="translate(-25.128 -34.335)" fill="#311d48"/>
      <path id="Trazado_906358" data-name="Trazado 906358" d="M694.43,600.884a19.854,19.854,0,0,1,3.765.15c1.861.357,3.743.635,5.618.948.349.057.692.121,1.034.207.364.093.656.278.62.649-.043.435-.435.563-.841.549a14.882,14.882,0,0,1-2.11-.185,23.874,23.874,0,0,1-2.866-.649,9.788,9.788,0,0,0-3.429-.442A1.508,1.508,0,0,1,694.43,600.884Z" transform="translate(-46.64 -52.602)" fill="#311d48"/>
      <path id="Trazado_906359" data-name="Trazado 906359" d="M775.441,568.2c.036,0,.128-.014.157.007,1.647,1.747,3.244,3.5,3.757,5.825a15.768,15.768,0,0,1,.107,7.272,4.6,4.6,0,0,1-4.649,3.244c-2.624-.057-6.488-1.711-6.838-5.4-.228-2.4-.292-4.813-.356-7.222a8.645,8.645,0,0,1,.414-1.683,2.356,2.356,0,0,0-.043-.891.869.869,0,0,1,.449-1.048,6.544,6.544,0,0,1,1.954-.3c1.226-.043,1.226-.014,1.911.435-.143.357-.314.72-.435,1.105a14.775,14.775,0,0,0-.2,8.435,3.5,3.5,0,0,0,2.8,2.524c1.569.385,2.674-.15,3.044-1.526a10.294,10.294,0,0,0,.143-4.613,29.858,29.858,0,0,0-1.084-3.957A17.978,17.978,0,0,0,775.441,568.2Z" transform="translate(-67.647 -43.165)" fill="#ebde46"/>
      <path id="Trazado_906360" data-name="Trazado 906360" d="M626.087,565.14c.071-.207.171-.485.292-.82a1.972,1.972,0,0,1,.991,1.782,7.187,7.187,0,0,1-1.3,4.435,2.025,2.025,0,0,1-1.718.941.873.873,0,0,1-.955-.585,2.208,2.208,0,0,1-.143-.635,5.586,5.586,0,0,1,2.1-4.777A3.411,3.411,0,0,1,626.087,565.14Z" transform="translate(-26.21 -42.112)" fill="#fff"/>
      <path id="Trazado_906361" data-name="Trazado 906361" d="M627.3,563.544a1.947,1.947,0,0,1,2.289,1.39,18.766,18.766,0,0,1,.193,3.23c.007.613-1.02.948-.642,1.69a14.2,14.2,0,0,1-1.105,1.576,15.36,15.36,0,0,1-1.568,1.376,2.287,2.287,0,0,1-.257.171c-1.262.749-1.839.592-2.524-.763.221,0,.406-.007.585,0a3.054,3.054,0,0,0,2.645-1.134,6.878,6.878,0,0,0,1.369-5.761A6.966,6.966,0,0,0,627.3,563.544Z" transform="translate(-26.337 -41.885)" fill="#bebdbd"/>
      <path id="Trazado_906362" data-name="Trazado 906362" d="M774.191,570.99c.114.128.193.25.221.242.856-.221.991.378,1.169.834a7.564,7.564,0,0,1-.264,5.882,6.665,6.665,0,0,1-.791,1.077A13.159,13.159,0,0,1,774.191,570.99Z" transform="translate(-69.399 -44.026)" fill="#936037"/>
      <path id="Trazado_906363" data-name="Trazado 906363" d="M771.47,565.941c-.863.05-.9.021-1.055-.677s-.071-.806,1.148-1.134C771.527,564.757,771.5,565.356,771.47,565.941Z" transform="translate(-68.432 -42.057)" fill="#b17f4a"/>
      <g id="Grupo_1104299" data-name="Grupo 1104299" transform="translate(647.889 429.681)">
        <path id="Trazado_906364" data-name="Trazado 906364" d="M746.774,516.242c.357-1.069.7-2.139,1.041-3.216a4.02,4.02,0,0,1,.221-.62c1.134-2.3,2.21-4.62,3.437-6.88a11.277,11.277,0,0,1,3.294-3.494,6.347,6.347,0,0,1,3.986-1.312,3.506,3.506,0,0,1,3.529,2.224,11.223,11.223,0,0,1,.57,5.326,15.438,15.438,0,0,1-.6,2.823,7.285,7.285,0,0,1-.97,2.146c-.863,1.219-1.818,2.381-2.759,3.558h7.935c-.043-.635-.086-1.262-.128-1.9-.128-1.8-.506-3.593-.72-5.4-.278-2.374-.535-4.741-.741-7.123-.471-5.4-.841-10.809-1.362-16.213a57.668,57.668,0,0,0-2.766-11.992,30.744,30.744,0,0,0-2.731-6.424c-.406-.684-.7-1.419-1.091-2.11-.585-1.02-1.169-2.046-1.825-3.03a71.176,71.176,0,0,0-4.763-6.374,80.291,80.291,0,0,0-5.825-6.267,91.245,91.245,0,0,0-7.222-6.288,40.022,40.022,0,0,0-6.952-4.249,44.583,44.583,0,0,0-30.4-3.772,28.983,28.983,0,0,0-2.973.977c-.2.064-.371.185-.57.25-.364.114-.848.314-.984-.135a.531.531,0,0,1,.064-.356,2.235,2.235,0,0,1-.9-.706v12.4a1.528,1.528,0,0,1,.955.905.128.128,0,0,1,.05-.036,1.632,1.632,0,0,1,.257.542,28.907,28.907,0,0,0,1.825,6.189,14.013,14.013,0,0,0,.834,1.9c4.292,8.378,10.8,15.215,19.065,20.812a64.1,64.1,0,0,0,10.88,5.768c6.837,2.916,13.889,5.4,20.983,7.807.592.2,1.184.414,1.761.642a2.742,2.742,0,0,1,.706.4.536.536,0,0,1,.128.834,1.368,1.368,0,0,1-.813.292,2.016,2.016,0,0,1-.692-.207,6.9,6.9,0,0,0-3.551-.178c-.977.185-1.091.478-.592,1.241a.527.527,0,0,1,.128.406c-.271-.193-.563-.378-.813-.592-.513-.435-.492-.877.093-1.226a3.547,3.547,0,0,1,.877-.307c.335-.086.677-.128,1.2-.221-4.534-1.618-8.891-3.18-13.361-4.777-.021.4-.064.756-.064,1.112a34.7,34.7,0,0,0,1.283,9.475,22.616,22.616,0,0,0,5.069,9.212c.991,1.091,1.9,2.232,2.838,3.358.456.549.421.749-.036,1.333a1.064,1.064,0,0,0-.285.642c.064.827.2,1.654.285,2.488a.78.78,0,0,0,.756.763c.271.043.542.078.813.121h1.39C746.632,516.591,746.717,516.42,746.774,516.242Z" transform="translate(-694.57 -434.545)" fill="#683c11"/>
        <path id="Trazado_906365" data-name="Trazado 906365" d="M783.022,532.677a8.85,8.85,0,0,0-.713-1.939.887.887,0,0,0-.87-.578,7.266,7.266,0,0,0-1.675.05,9.031,9.031,0,0,0-3.686,1.74,13.323,13.323,0,0,0-3.508,4.356,37.307,37.307,0,0,0-3.237,7.543,3.656,3.656,0,0,1-.143.392h2.759a13.987,13.987,0,0,1,1.6-3.244c.713-1.062,1.148-2.26,1.775-3.365a10.122,10.122,0,0,1,1.4-2.061,6.886,6.886,0,0,1,1.961-1.376,1.748,1.748,0,0,1,2.424.827,2.254,2.254,0,0,1,.15,1.44c-.392,1.212-.927,2.4-1.412,3.586a.472.472,0,0,1-.164.235c-.221.128-.485.328-.692.3a.91.91,0,0,1-.542-.478c-.271-.528-.449-1.1-.72-1.633a4.532,4.532,0,0,0-.684-.749c-.364.585-.635,1.02-.9,1.454-.563.927-1.176,1.839-1.668,2.795a18.9,18.9,0,0,0-.941,2.26h4.813q1.487-1.989,2.966-3.978A9.968,9.968,0,0,0,783.022,532.677Z" transform="translate(-715.988 -461.982)" fill="#ffe7a1"/>
      </g>
      <g id="Grupo_1104300" data-name="Grupo 1104300" transform="translate(591.722 443.167)">
        <path id="Trazado_906366" data-name="Trazado 906366" d="M622.821,539.278a3.3,3.3,0,0,0-1.611,1.5,12.624,12.624,0,0,0-.556,1.968c-.078.349-.093.727-.578.777s-.663-.314-.763-.649a24.5,24.5,0,0,1-.813-3.059,14.494,14.494,0,0,1,0-2.781c.021-.463.1-.984.656-1.191a1.666,1.666,0,0,1,1.654.385,15.822,15.822,0,0,1,1.889,1.754,18.309,18.309,0,0,1,3.444,6.132c.107.307.214.613.328.92H628.9a2.349,2.349,0,0,1-.164-.777c-.171-3.023-1.711-5.511-3.757-7.821-.563-.635-1.112-1.283-1.683-1.918a7.625,7.625,0,0,0-3.38-2.175c-1.768-.585-3.109-.036-3.629,1.547a9.028,9.028,0,0,0-.485,2.552,22.2,22.2,0,0,0,.228,3.7,5.213,5.213,0,0,0,1.576,3.094c.613.585,1.2,1.184,1.768,1.8h6.075A23.205,23.205,0,0,0,622.821,539.278Z" transform="translate(-615.792 -476.037)" fill="#ce8637"/>
        <path id="Trazado_906367" data-name="Trazado 906367" d="M677.872,453.531a2.485,2.485,0,0,0-.271-.071.349.349,0,0,1-.143.1,5.1,5.1,0,0,1-.934.15,90.937,90.937,0,0,0-13.5,1.889c-8.114,1.961-15.115,5.554-20.555,11.265a33.641,33.641,0,0,0-5.055,7.18,9.312,9.312,0,0,0-.991,4.527c-.007,1.454.043,2.909.1,4.363a7.713,7.713,0,0,0,.235,1.2,3.011,3.011,0,0,0,1.6-.948,28.568,28.568,0,0,1,8.934-7.194,61.588,61.588,0,0,1,12.648-5.419,56.312,56.312,0,0,1,15.878-2.139,9.353,9.353,0,0,1,1.269.057c.335.043.627.178.692.463.029.014.064.021.093.036V453.531Z" transform="translate(-621.712 -453.46)" fill="#e94e1b"/>
        <path id="Trazado_906368" data-name="Trazado 906368" d="M678.5,475.2a.5.5,0,0,1,.007.207c-.05.371-.357.506-.749.535-.741.057-1.483.128-2.224.15a59.313,59.313,0,0,0-30.016,9.889,19.714,19.714,0,0,0-3.936,3.629c-.613.756-1.255,1.5-1.911,2.282.635.428,1.4.848,1.184,1.747-.214.856-1.112,1.034-1.918,1.362.677.521,1.333.991,1.954,1.49a9.475,9.475,0,0,1,2.524,2.845c.97,1.832.278,3.237-1.925,3.843-.535.15-1.1.221-1.747.349.235.178.435.328.627.478a12.374,12.374,0,0,1,1.255.991c1.069,1.1,1.034,2.246-.114,3.5.456.278.913.556,1.362.834a7.829,7.829,0,0,1,3.836,5.048,5.212,5.212,0,0,1-1.084,4.6,4.106,4.106,0,0,1-3.052,1.661c.371.228.635.371.87.542a6.675,6.675,0,0,1,1.005.813,1.431,1.431,0,0,1-.406,2.41,13.293,13.293,0,0,1-2.032.77,6.952,6.952,0,0,1-.8.178c.135.235.221.421.335.592a11.485,11.485,0,0,1,.77,1.112c.371.727.143,1.127-.685,1.476a1.37,1.37,0,0,0-.314.178H678.6V475.243C678.56,475.221,678.532,475.214,678.5,475.2Z" transform="translate(-622.436 -459.7)" fill="#ce8637"/>
      </g>
      <g id="Grupo_1104301" data-name="Grupo 1104301" transform="translate(647.847 511.478)">
        <path id="Trazado_906369" data-name="Trazado 906369" d="M745.382,573.733c-.221-1.718-.513-3.437-.7-5.162a6.446,6.446,0,0,1,.157-2.945,1.48,1.48,0,0,0,.029-.913,9.873,9.873,0,0,1-.157-3.6c.1-2.381.235-4.763.364-7.144.029-.556.086-1.105.135-1.74h-2.438a8.088,8.088,0,0,0-.214,1.1c-.185,3.4-.242,6.816-.556,10.2-.242,2.588-.777,5.155-1.226,7.722a4.718,4.718,0,0,1-1.733,2.816,16.883,16.883,0,0,1-4.449,2.98,3.241,3.241,0,0,0-1.9,2,22.179,22.179,0,0,0-1.048,4.92,16.784,16.784,0,0,1-.456,2.282,4.486,4.486,0,0,1-1.847,2.545,4.639,4.639,0,0,1-1.961.834,13.773,13.773,0,0,1-6.559-.692,4.16,4.16,0,0,1-2.752-2.638c-.1-.342-.214-.656.128-.941a.721.721,0,0,0,.171-.948,15.591,15.591,0,0,0-1.077-1.9c-.449-.656-.513-.692,0-1.3a.788.788,0,0,0,.171-.948,10.155,10.155,0,0,0-1.012-1.718,25.713,25.713,0,0,0-12.185-8.349,36.079,36.079,0,0,0-6.018-1.782c-.806-.114-1.611-.193-2.424-.257a.813.813,0,0,1-.72-.4h-.563V571.2a1.257,1.257,0,0,1,.428,1.248,4.738,4.738,0,0,0,1.176,3.85c1,1.162,2.011,2.317,3.116,3.4a6.472,6.472,0,0,0,5.084,1.675c.25-.014.492-.043.741-.057a1.016,1.016,0,0,1,.991.414.75.75,0,0,1-.164,1.027c-.093.093-.193.178-.364.335a8.892,8.892,0,0,0,.478,1.162,8.589,8.589,0,0,0,3.579,3.586,1.384,1.384,0,0,1,.877,1.8c-.185.542.078.87.556,1.176a12.15,12.15,0,0,0,6.588,2.046,6.7,6.7,0,0,1,.848.036c.891.128,1.233.656.777,1.333a11.307,11.307,0,0,1-1.6,1.961c-1.34,1.276-2.752,2.5-4.15,3.729a6.961,6.961,0,0,1-3.415,1.6,23.5,23.5,0,0,1-6.324.435,12.538,12.538,0,0,1-2.474-.471c-2.146-.635-2.838-1.676-2.5-3.629.135-.8.285-1.59.421-2.381a2.852,2.852,0,0,0,.057-.649.839.839,0,0,0-.806-.848,6.7,6.7,0,0,0-3.144-.007.824.824,0,0,1-.777-.007V605.19c.043,0,.086-.007.128-.007-.043.314-.086.606-.128.9v3.929c.121-.007.264-.014.442-.014.078.314.164.642.257,1.027a1.849,1.849,0,0,1,1.583.856,1.275,1.275,0,0,0,.67.428,13.371,13.371,0,0,0,5.49.82c.834-.1,1.675-.157,2-1.077.171-.5.777-.435,1.291-.378,1.226.143,2.453.349,3.679.378a17.849,17.849,0,0,0,3.258-.278,3.572,3.572,0,0,0,2.2-1.219,3.414,3.414,0,0,1,2.31-1.184c1.747-.221,3.508-.428,5.24-.72a19.012,19.012,0,0,0,3.044-.763,3.009,3.009,0,0,0,2.239-2.609,2.781,2.781,0,0,1,2.3-2.488c1.027-.328,2.06-.656,3.066-1.034a8.982,8.982,0,0,0,4.962-4.135,4.632,4.632,0,0,0,.606-3.159,3.634,3.634,0,0,1,1.583-3.814c.264-.207.513-.428.784-.627a6.161,6.161,0,0,0,2.56-6.859,5.461,5.461,0,0,1,.414-4.085A8.143,8.143,0,0,0,745.382,573.733Z" transform="translate(-694.519 -550.12)" fill="#2d2e83"/>
        <path id="Trazado_906370" data-name="Trazado 906370" d="M695.031,566.652a19.529,19.529,0,0,1,5.005.285c1.5.342,2.959.834,4.428,1.276a26.375,26.375,0,0,1,12.955,8.656,9.794,9.794,0,0,1,1.084,1.59,2.341,2.341,0,0,1,.021,2.659c.7,1.255,1.462,2.5.642,3.978a4.05,4.05,0,0,0,1.761,1.54,10.945,10.945,0,0,0,6.267.941,2.744,2.744,0,0,0,1.59-.856,5.334,5.334,0,0,0,1.412-3.244c.257-1.59.513-3.187.848-4.763a5.521,5.521,0,0,1,3.394-3.907,24.322,24.322,0,0,0,3.736-2.431,3.447,3.447,0,0,0,1.383-2.339,94.081,94.081,0,0,0,1.276-9.868c.128-2.41.271-4.827.4-7.237a2.884,2.884,0,0,1,.963-2.446c-.057-.428-.121-.827-.178-1.219H694.56V566.9h.563A.794.794,0,0,1,695.031,566.652Z" transform="translate(-694.524 -549.27)" fill="#eac868"/>
        <path id="Trazado_906371" data-name="Trazado 906371" d="M724.6,659.015c.513-1.069-.114-8.142.171-11.636.221-2.688.328-5.383.528-8.071.15-2.011.371-4.007.556-6.018.014-.178,0-.364,0-.62a45.413,45.413,0,0,1-7.565.941,2.117,2.117,0,0,0-1.59.627c-1.4,1.754-3.472,2.282-5.747,2.3a39.9,39.9,0,0,1-4.007-.321c-.242-.021-.485-.057-.677-.086-1.854,1.683-4.064,1.8-6.41,1.276a27.476,27.476,0,0,1-2.709-.806,3.942,3.942,0,0,1-1.1-.542,3.754,3.754,0,0,0-1.283-.756.869.869,0,0,1-.235-.1l-.029,35.834s7.5,1.348,19.293-4.007C713.967,666.964,722.887,662.579,724.6,659.015Z" transform="translate(-694.51 -573.208)" fill="#eac868"/>
        <path id="Trazado_906372" data-name="Trazado 906372" d="M708.717,599.018a9.063,9.063,0,0,1-3.344-2.5,7.884,7.884,0,0,1-1.811-3.408c-.6-.064-1.134-.093-1.647-.185a7.521,7.521,0,0,1-3.928-1.9,16.139,16.139,0,0,1-3.437-4.6v10.317a19.59,19.59,0,0,1,3.679.15c1.861.357,3.743.635,5.618.948.349.057.692.121,1.034.207.364.093.656.278.62.649-.043.435-.435.563-.841.549a14.883,14.883,0,0,1-2.11-.185,23.885,23.885,0,0,1-2.866-.649,9.788,9.788,0,0,0-3.429-.442,1.509,1.509,0,0,1-1.7-.963v6.01a1.263,1.263,0,0,1,.478-.185,8.009,8.009,0,0,1,4.164.328,1.349,1.349,0,0,1,.977,1.333c.021.649-.043,1.3-.071,1.946-.029.677-.1,1.362-.093,2.039a1.442,1.442,0,0,0,1.3,1.5,13.857,13.857,0,0,0,3.123.414c1.754-.093,3.5-.385,5.248-.649a5.154,5.154,0,0,0,2.588-1.2c1.426-1.2,2.83-2.431,4.235-3.658a4.4,4.4,0,0,0,.421-.478c-.834-.114-1.561-.178-2.274-.321a13.23,13.23,0,0,1-5.133-2.331,1.865,1.865,0,0,1-.856-2.31A2.722,2.722,0,0,0,708.717,599.018Z" transform="translate(-694.522 -559.933)" fill="#eac868"/>
      </g>
      <g id="Grupo_1104302" data-name="Grupo 1104302" transform="translate(531.932 417.6)">
        <path id="Trazado_906373" data-name="Trazado 906373" d="M695.087,431.474q0-6.214-.007-12.434a3.4,3.4,0,0,0-.057-1.012.746.746,0,0,0-.556-.428.788.788,0,0,0-.6.392,2.456,2.456,0,0,0-.071.92V429.97A3.2,3.2,0,0,0,695.087,431.474Z" transform="translate(-578.389 -417.6)" fill="#311d48"/>
        <path id="Trazado_906374" data-name="Trazado 906374" d="M774.557,515.608q-30.512.16-61.024.314-31.678.171-63.362.349H648.7v-1.283q-.032-21.325-.057-42.658-.011-11.785-.014-23.578a1.584,1.584,0,0,0-1.219-.642,1.605,1.605,0,0,1,1.219.642q0-6.16-.007-12.313a3.119,3.119,0,0,1-1.283-1.519q0,6.417.007,12.826.032,33.592.078,67.184v1.29c-.428.014-.706.036-.991.036q-34.918.182-69.843.371-21.582.107-43.164.207a5.213,5.213,0,0,0-.948.057c-.335.064-.627.271-.528.585a.962.962,0,0,0,.592.435,3,3,0,0,0,.841.029q30.458-.139,60.917-.271,25.881-.128,51.769-.3h1.355v1.291q.021,16.962.043,33.916.032,41.816.057,83.632a3.187,3.187,0,0,0,.043,1.012c.071.214.385.371.592.556.207-.185.52-.342.592-.556a3.2,3.2,0,0,0,.043-1.012q-.043-58.682-.086-117.37v-1.426c.414-.021.727-.05,1.034-.05q51.292-.278,102.59-.549c7.408-.036,14.816-.05,22.216-.093a9.173,9.173,0,0,0,1.618-.285v-.556A2.754,2.754,0,0,0,774.557,515.608Z" transform="translate(-531.932 -422.571)" fill="#311d48"/>
      </g>
      <path id="Trazado_906375" data-name="Trazado 906375" d="M742.053,517.321c-.913-1.141-1.839-2.274-2.8-3.38a23.865,23.865,0,0,1-5.034-9.44,31.327,31.327,0,0,1-1.105-8.934c.014-.741.107-1.476.171-2.289-.257-.114-.563-.257-.87-.385-2.638-1.119-5.326-2.175-7.914-3.372a57.251,57.251,0,0,1-13.982-9.3,56.1,56.1,0,0,1-9.048-9.939A35.533,35.533,0,0,1,695.4,457.1a9.267,9.267,0,0,1-.093-1.939.794.794,0,0,1,.378-.592,1.6,1.6,0,0,0-.528-.684v67.6h46.978c-.014-.178-.029-.349-.029-.528-.007-.984.1-1.968.128-2.952A1.082,1.082,0,0,0,742.053,517.321Z" transform="translate(-46.85 -10.413)" fill="#ffe7a1"/>
    </g>
  </g>
</svg>
