<svg xmlns="http://www.w3.org/2000/svg" xmlns:xlink="http://www.w3.org/1999/xlink" width="349" height="227.742" viewBox="0 0 349 227.742">
  <defs>
    <filter id="Rectángulo_394180" x="-53" y="-53" width="469" height="347.742" filterUnits="userSpaceOnUse">
      <feOffset dx="7" dy="7" input="SourceAlpha"/>
      <feGaussianBlur stdDeviation="20" result="blur"/>
      <feFlood flood-opacity="0.149"/>
      <feComposite operator="in" in2="blur"/>
      <feComposite in="SourceGraphic"/>
    </filter>
    <clipPath id="clip-path">
      <g transform="matrix(1, 0, 0, 1, 0, 0)" filter="url(#Rectángulo_394180)">
        <path id="Rectángulo_394180-2" data-name="Rectángulo 394180" d="M24,0H325a24,24,0,0,1,24,24V227.742a0,0,0,0,1,0,0H0a0,0,0,0,1,0,0V24A24,24,0,0,1,24,0Z" transform="translate(-8463.56 5108.95)" fill="#12263f" opacity="0.46"/>
      </g>
    </clipPath>
    <clipPath id="clip-path-2">
      <rect id="Rectángulo_394178" data-name="Rectángulo 394178" width="351" height="311" fill="none" stroke="#e9cfb0" stroke-width="1"/>
    </clipPath>
    <clipPath id="clip-path-3">
      <rect id="Rectángulo_394179" data-name="Rectángulo 394179" width="304.768" height="271.494" fill="none"/>
    </clipPath>
  </defs>
  <g id="_9" data-name="9" transform="translate(8463.563 -5108.945)" clip-path="url(#clip-path)">
    <g id="Grupo_1079430" data-name="Grupo 1079430" transform="translate(20 -766)">
      <rect id="Rectángulo_394177" data-name="Rectángulo 394177" width="351" height="311" transform="translate(-8484 5875)" fill="#fff0df"/>
      <path id="Trazado_845492" data-name="Trazado 845492" d="M401.007,321.452l-7.22,1.335-1.613,7.611-1.613-7.611-7.22-1.338,7.189-1.757,1.644-7.189,1.645,7.189Z" transform="translate(-8596.259 5756.615)" fill="#e9cfb0"/>
      <path id="Trazado_845493" data-name="Trazado 845493" d="M251.334,24.057l-5.172.956-1.156,5.452-1.156-5.452-5.172-.959,5.149-1.258,1.178-5.149,1.178,5.149Z" transform="translate(-8636.567 5882.202)" fill="#e9cfb0"/>
      <path id="Trazado_845494" data-name="Trazado 845494" d="M473.8,142.978l-4.035.746-.9,4.254-.9-4.254-4.035-.749,4.018-.981.919-4.018.919,4.018Z" transform="translate(-8619.14 5822.345)" fill="#e9cfb0"/>
      <path id="Trazado_845495" data-name="Trazado 845495" d="M473.8,451.232l-4.035.746-.9,4.254-.9-4.254-4.035-.748,4.018-.982.919-4.018.919,4.018Z" transform="translate(-8619.14 5706.25)" fill="#e9cfb0"/>
      <g id="Grupo_1079427" data-name="Grupo 1079427" transform="translate(-8484 5875)">
        <g id="Grupo_1079426" data-name="Grupo 1079426" clip-path="url(#clip-path-2)">
          <path id="Trazado_845496" data-name="Trazado 845496" d="M431.75,254.561a1.174,1.174,0,1,0,0,2.34,1.174,1.174,0,1,0,0-2.34" transform="translate(-128.079 -96.563)" fill="#e9cfb0" stroke="#e9cfb0" stroke-width="1"/>
          <path id="Trazado_845497" data-name="Trazado 845497" d="M46.595,44.477a1.174,1.174,0,1,0,0,2.34,1.174,1.174,0,1,0,0-2.34" transform="translate(-13.903 -17.441)" fill="#fff" stroke="#e9cfb0" stroke-width="1"/>
          <path id="Trazado_845498" data-name="Trazado 845498" d="M46.595,44.477a1.174,1.174,0,1,0,0,2.34,1.174,1.174,0,1,0,0-2.34" transform="translate(137.097 -33.441)" fill="#fff" stroke="#e9cfb0" stroke-width="1"/>
          <path id="Trazado_845499" data-name="Trazado 845499" d="M429.938,28.247a1.174,1.174,0,1,0,0,2.34,1.174,1.174,0,1,0,0-2.34" transform="translate(-127.542 -11.329)" fill="#fff" stroke="#e9cfb0" stroke-width="1"/>
          <path id="Trazado_845500" data-name="Trazado 845500" d="M58.837,286.247a1.174,1.174,0,1,0,0,2.34,1.174,1.174,0,1,0,0-2.34" transform="translate(-17.532 -108.496)" fill="#fff" stroke="#e9cfb0" stroke-width="1"/>
          <path id="Trazado_845501" data-name="Trazado 845501" d="M302.5,42.6a1.174,1.174,0,1,0,0,2.34,1.174,1.174,0,1,0,0-2.34" transform="translate(-89.764 -16.734)" fill="#fff" stroke="#e9cfb0" stroke-width="1"/>
          <path id="Trazado_845502" data-name="Trazado 845502" d="M410.017,166.333a.831.831,0,1,0,0,1.655.831.831,0,1,0,0-1.655" transform="translate(-121.747 -63.335)" fill="#fff" stroke="#e9cfb0" stroke-width="1"/>
          <path id="Trazado_845503" data-name="Trazado 845503" d="M45.47,431.012a.831.831,0,1,0,0,1.655.831.831,0,1,0,0-1.655" transform="translate(-13.68 -163.018)" fill="#fff" stroke="#e9cfb0" stroke-width="1"/>
          <path id="Trazado_845504" data-name="Trazado 845504" d="M391.345,273.04a2.251,2.251,0,1,0,0,4.486,2.251,2.251,0,1,0,0-4.486" transform="translate(-115.755 -103.522)" fill="#e9cfb0" stroke="#e9cfb0" stroke-width="1"/>
          <path id="Trazado_845505" data-name="Trazado 845505" d="M448.82,106a2.251,2.251,0,1,0,0,4.486,2.251,2.251,0,1,0,0-4.486" transform="translate(-132.793 -40.612)" fill="none" stroke="#e9cfb0" stroke-width="1"/>
          <path id="Trazado_845506" data-name="Trazado 845506" d="M61.82,418.8a2.251,2.251,0,1,0,0,4.486,2.251,2.251,0,1,0,0-4.486" transform="translate(-18.07 -158.42)" fill="#fff" stroke="#e9cfb0" stroke-width="1"/>
        </g>
      </g>
      <g id="Grupo_1079429" data-name="Grupo 1079429" transform="translate(-8459.978 5885.99)">
        <g id="Grupo_1079428" data-name="Grupo 1079428" transform="translate(0 -0.003)" clip-path="url(#clip-path-3)">
          <path id="Trazado_845507" data-name="Trazado 845507" d="M1363.2,727.739c.49-3.978,11.091-9.59,16.827-8.494-2.057-2.042-4.31-4.519-4.31-4.519l4.873-4.969a26.774,26.774,0,0,0,2.388,11.017c3.929,8.1,18.908,9.4,19.487,16.443.588,7.156-11.741,14.01-27.537,15.307s-37.028-5.763-37.616-12.919c-.341-4.148,24.713-2.31,25.889-11.866" transform="translate(-1151.948 -611.377)" fill="#cc8262"/>
          <path id="Trazado_845508" data-name="Trazado 845508" d="M1497.637,751.734a10.389,10.389,0,0,0,6.318-2.136c4.579-3.49,11.755-11.672,8.37-27.257a51.549,51.549,0,0,0-5-13.295l-18.153,10.3-.023-.042c2.087,3.764,4.666,11.786,2.154,13.7a10.435,10.435,0,0,0,6.333,18.734" transform="translate(-1281.054 -610.764)" fill="#cc8262"/>
          <path id="Trazado_845509" data-name="Trazado 845509" d="M1523.442,694.557c.338,6.185-1.283,11.122-4.646,14.185-2.742,2.5-10.337,3.481-14.722-.431-.53-2.409-.125-.884-.969-2.468l17.477-9.449c.219.406,1.57-5.663,2.861-1.836" transform="translate(-1294.76 -597.189)" fill="#3f0700"/>
          <path id="Trazado_845510" data-name="Trazado 845510" d="M1502.964,783.623l-.022-.042.022.042Z" transform="translate(-1294.62 -674.969)" fill="#b74b2b"/>
          <path id="Trazado_845511" data-name="Trazado 845511" d="M1053.551,58.762a7.457,7.457,0,0,1,1-12.963,7.457,7.457,0,0,1,5.47-11.766c.021,0,.041,0,.063,0a11.521,11.521,0,0,1,14.877-16.025c-.026-.173-.055-.344-.07-.521a7.467,7.467,0,0,1,13.739-4.626A7.457,7.457,0,0,1,1099.8,8.892c-1.447-2.51-1.687-5.908,2.682-8.014,7.411-3.573,11.265,4.6,11.6,8.711.018.22.021.438.02.655a7.46,7.46,0,0,1,12.833,4.547,7.636,7.636,0,0,1,.01.959,7.457,7.457,0,0,1,11.763,7.919,7.46,7.46,0,0,1,8.454,11.152A10.284,10.284,0,1,1,1154,54.22a10.282,10.282,0,0,1-4.088,19.272c-.149.012-.3.02-.448.026a7.454,7.454,0,0,1-7.989,11.53,7.461,7.461,0,0,1-13.424,6.368c-8.219,2.543-19.886,3.426-30.462,2.737a7.462,7.462,0,0,1-14.363.449c0,.028,0,.054,0,.082.239,3.684-1.958,9.745-8.78,7.228-7.058-2.6-5.841-9.451-3.508-13.668a7.455,7.455,0,0,1-9.948-8.882,11.071,11.071,0,0,1-7.444-20.6" transform="translate(-902.495 0.004)" fill="#3f0700"/>
          <path id="Trazado_845512" data-name="Trazado 845512" d="M1324.264,671.762c13.309-.054,2.273-17.368,1.339-32.184,0,0-17.714,32.251-1.339,32.184m.446-19.372q.168-.45.339-.892c.284,1.1.574,2.177.855,3.223a72.6,72.6,0,0,1,2.01,8.758c.341,2.684-.084,3.484-.223,3.666-.195.255-.955.556-2.456.562h-.038c-2.04,0-2.441-.677-2.612-.966-.464-.784-1.683-4.136,2.125-14.35" transform="translate(-1134.725 -550.926)" fill="#5b72bc"/>
          <path id="Trazado_845513" data-name="Trazado 845513" d="M1306.342,408.6c7.919,9.923,19.4,21.083,29.729,15.059s15.93-18.532,6.9-40.345c-6.333-15.294-21.965-22.862-32.292-16.839-4.671,2.724-13.583,7.52-13.224,15.288.518,11.175,3.967,20.671,8.888,26.837" transform="translate(-1117.604 -313.894)" fill="#cc8262"/>
          <path id="Trazado_845514" data-name="Trazado 845514" d="M1628.624,465.723c.718,3.642-.274,6.944-2.215,7.377s-4.1-2.169-4.817-5.809.274-6.943,2.216-7.376,4.1,2.169,4.816,5.809" transform="translate(-1396.622 -396.124)" fill="#cc8262"/>
          <path id="Trazado_845515" data-name="Trazado 845515" d="M1474.882,667.321s12.017-6.166,12.027-5.911c.165,4.5-2.089,14.53-12.027,5.911" transform="translate(-1270.449 -569.725)" fill="#f4ebe4"/>
          <path id="Trazado_845516" data-name="Trazado 845516" d="M1521.586,516.336a1.964,1.964,0,1,0,.922-2.705,2.022,2.022,0,0,0-.922,2.705" transform="translate(-1310.509 -442.292)" fill="#3f0700"/>
          <path id="Trazado_845517" data-name="Trazado 845517" d="M1505.056,514.669a.373.373,0,0,1-.321-.563c.028-.048,2.893-4.757,7.814-3.1a.373.373,0,0,1-.238.707c-4.348-1.463-6.832,2.6-6.936,2.776a.373.373,0,0,1-.321.182" transform="translate(-1296.12 -439.87)" fill="#3f0700"/>
          <path id="Trazado_845518" data-name="Trazado 845518" d="M1477.349,476.315a1.487,1.487,0,0,0,2.1.706,11.454,11.454,0,0,0,1.17-.715c.8-.468,1.607-.913,2.438-1.313,1.205-.581,2.829-.716,3.525-2.035a.62.62,0,0,0-.024-.72c-.652-.725-2.268-.251-3.038-.044a24.124,24.124,0,0,0-4.868,1.741,2.2,2.2,0,0,0-1.3,2.381" transform="translate(-1272.519 -406.446)" fill="#3f0700"/>
          <path id="Trazado_845519" data-name="Trazado 845519" d="M1379.962,585.224a1.964,1.964,0,1,1-2.646-1.079,2.022,2.022,0,0,1,2.646,1.079" transform="translate(-1185.441 -503.032)" fill="#3f0700"/>
          <path id="Trazado_845520" data-name="Trazado 845520" d="M1360.559,585.183a.368.368,0,0,1-.142-.028.372.372,0,0,1-.2-.487c1.981-4.8,7.414-3.87,7.469-3.86a.373.373,0,0,1-.133.734c-.2-.036-4.9-.828-6.646,3.41a.373.373,0,0,1-.345.231" transform="translate(-1171.651 -500.234)" fill="#3f0700"/>
          <path id="Trazado_845521" data-name="Trazado 845521" d="M1345.916,545.806a1.487,1.487,0,0,1-.6,2.132,11.528,11.528,0,0,1-1.25.566c-.834.394-1.659.814-2.458,1.275-1.158.669-2.184,1.935-3.666,1.768a.618.618,0,0,1-.581-.425c-.233-.947,1.07-2.017,1.673-2.536a24.087,24.087,0,0,1,4.179-3.044,2.2,2.2,0,0,1,2.7.265" transform="translate(-1151.969 -469.635)" fill="#3f0700"/>
          <path id="Trazado_845522" data-name="Trazado 845522" d="M1453.4,569.97a4.964,4.964,0,0,1-2.311-.564c-1.884-.987-1.88-4.041-1.876-8.269,0-1.971.005-4.2-.2-6.513a.373.373,0,0,1,.743-.065c.2,2.341.2,4.592.2,6.578,0,3.816-.008,6.831,1.476,7.608a4.513,4.513,0,0,0,4.448-.237,3.225,3.225,0,0,0,1.736-2.261.373.373,0,1,1,.745,0,3.845,3.845,0,0,1-2.1,2.9,5.55,5.55,0,0,1-2.869.823" transform="translate(-1248.166 -477.398)" fill="#3f0700"/>
          <path id="Trazado_845523" data-name="Trazado 845523" d="M1401.906,326.659a9.42,9.42,0,1,0,8.617-10.16,9.42,9.42,0,0,0-8.617,10.16" transform="translate(-1207.56 -272.601)" fill="#3f0700"/>
          <path id="Trazado_845524" data-name="Trazado 845524" d="M1335.982,343.111a5.517,5.517,0,1,0,5.046-5.95,5.517,5.517,0,0,0-5.046,5.95" transform="translate(-1150.785 -290.41)" fill="#3f0700"/>
          <path id="Trazado_845525" data-name="Trazado 845525" d="M1528.526,726.855a4.276,4.276,0,0,1-1.625-.344.373.373,0,0,1,.282-.69c2.925,1.2,4.275-1.783,4.331-1.911a.373.373,0,0,1,.684.3c-.014.032-1.186,2.647-3.672,2.647" transform="translate(-1315.058 -623.377)" fill="#3f0700"/>
          <path id="Trazado_845526" data-name="Trazado 845526" d="M1481.689,297.354a.343.343,0,0,1-.332-.429c2.517-9.534-8.189-14.784-8.3-14.836a.342.342,0,0,1,.3-.617c.113.054,11.322,5.552,8.664,15.627a.342.342,0,0,1-.33.255" transform="translate(-1268.712 -242.428)" fill="#ce936b"/>
          <path id="Trazado_845527" data-name="Trazado 845527" d="M1375.864,339.135a.342.342,0,0,1-.317-.469c.938-2.335.993-4.356.165-6.006a7.418,7.418,0,0,0-4.3-3.382.342.342,0,0,1,.175-.661,8.007,8.007,0,0,1,4.739,3.737c.92,1.833.873,4.042-.141,6.567a.342.342,0,0,1-.317.215" transform="translate(-1181.098 -283.057)" fill="#ce936b"/>
          <path id="Trazado_845528" data-name="Trazado 845528" d="M1327.27,360.531a.339.339,0,0,1-.2-.066c-.159-.116-3.867-2.878-3.073-7.216a.342.342,0,1,1,.672.123c-.716,3.909,2.768,6.515,2.8,6.54a.342.342,0,0,1-.2.618" transform="translate(-1140.381 -304.043)" fill="#ce936b"/>
          <path id="Trazado_845529" data-name="Trazado 845529" d="M1668.019,335.44a6.258,6.258,0,0,1-4.621-2.165,5.934,5.934,0,0,1-1.11-6.134.342.342,0,1,1,.641.236,5.271,5.271,0,0,0,.982,5.447,5.381,5.381,0,0,0,5.111,1.821c1.855-.423,3.256-2.014,3.944-4.48a4.96,4.96,0,0,0-.667-4.522c-2.955-3.943-12-4.094-12.092-4.095a.342.342,0,0,1,0-.684h0c.385,0,9.473.156,12.631,4.368a5.613,5.613,0,0,1,.779,5.117c-.76,2.719-2.341,4.482-4.451,4.963a5.192,5.192,0,0,1-1.156.128" transform="translate(-1429.797 -276.389)" fill="#ce936b"/>
          <path id="Trazado_845530" data-name="Trazado 845530" d="M1655.467,563.993c15.354-5.692-8.94-31.2-12.562-29.662-1.492.633.083,34.287,12.563,29.662m-9.768-22.575a36.257,36.257,0,0,1,3.88,4.124c3.022,3.734,4.853,7.4,4.9,9.793.022,1.206-.332,2.09-2.167,2.77a2.4,2.4,0,0,1-.814.17h0c-.2,0-.793-.008-1.662-1.089-2.625-3.261-3.842-10.915-4.13-15.768" transform="translate(-1414.781 -460.21)" fill="#5b72bc"/>
          <path id="Trazado_845531" data-name="Trazado 845531" d="M941.827,925.1s.483,1.022,1.448,2.64c3.283,5.488,12.167,17.819,26.827,20.209,2.678.435,16.121-20.119,16.547-13.416,0,0-29.073,60.119-28.174,61.643h121.248c8.716-19.753,10.948-56.791,11.006-57.042,1.007-4.858,8.039-15.109,9-19.428,1.783-7.943,8.088-10.772,8.424-15.235,4.179-55.383-5.742-49.152-5.742-49.152-20.067-10.407-46.983-13.928-46.983-13.928a17.142,17.142,0,0,1-1.67,1.622,39.64,39.64,0,0,1-10.781,6.131c-7.522,3-16.888,4.8-25.181,3.377A25.5,25.5,0,0,1,1008.3,849c-.586-.378-1.159-.78-1.713-1.216,0,0-49.6,4.4-55.39,17.664-7.933,18.179-9.375,59.66-9.375,59.66" transform="translate(-811.28 -724.768)" fill="#f9e0c4"/>
          <path id="Trazado_845532" data-name="Trazado 845532" d="M1223.893,1555.122s72.274,41.836,84.481,41.217c6.682-.339,9.848-.875,13.733-5.114,6-6.546,8.389-21.684,8.389-21.684l-17.807-6.779Z" transform="translate(-1054.249 -1339.566)" fill="#3f0700"/>
          <path id="Trazado_845533" data-name="Trazado 845533" d="M1093.676,1698.869l20.884-41.713-8.222,41.713" transform="translate(-942.082 -1427.457)" fill="#3f0700"/>
          <path id="Trazado_845534" data-name="Trazado 845534" d="M1547.058,1161.452l25.316,1.663a13.512,13.512,0,0,0-12.267-9.123c-5.7-.375-10.471,4.267-13.049,7.46" transform="translate(-1332.621 -994.019)" fill="#f74b4b"/>
          <path id="Trazado_845535" data-name="Trazado 845535" d="M1336.97,1147.18l25.709,1.688a16.768,16.768,0,0,0-13.888-9.218c-5.552-.372-9.585,3.048-11.821,7.529" transform="translate(-1151.653 -981.659)" fill="#f74b4b"/>
          <path id="Trazado_845536" data-name="Trazado 845536" d="M1322.405,1201.545c-.022.336-.029.669-.025,1.01l57.43,3.772c.048-.338.082-.669.1-1.005a18.37,18.37,0,0,0-1.075-7.6l-25.317-1.663a27.533,27.533,0,0,0-2.068,2.893,17.115,17.115,0,0,0-1.343-3.117l-25.709-1.688a19.638,19.638,0,0,0-2,7.4" transform="translate(-1139.084 -1028.623)" fill="#eaa04e"/>
          <path id="Trazado_845537" data-name="Trazado 845537" d="M1322.386,1254.834a20.576,20.576,0,0,0,2.367,8.7l51.753,3.4a21.43,21.43,0,0,0,3.309-8.328Z" transform="translate(-1139.09 -1080.901)" fill="#efdd60"/>
          <path id="Trazado_845538" data-name="Trazado 845538" d="M1339.462,1317.608a48.951,48.951,0,0,0,5.89,8.936l39.252,2.578a48.337,48.337,0,0,0,6.612-8.115Z" transform="translate(-1153.799 -1134.974)" fill="#70c176"/>
          <path id="Trazado_845539" data-name="Trazado 845539" d="M1381.954,1382.076a95.435,95.435,0,0,0,8.524,9.105l21.649,1.421a92.119,92.119,0,0,0,9.079-7.949Z" transform="translate(-1190.401 -1190.506)" fill="#5b72bc"/>
          <path id="Trazado_845540" data-name="Trazado 845540" d="M1443.45,1447.766a124.735,124.735,0,0,0,10.622,9.014,117.3,117.3,0,0,0,11.026-7.592Z" transform="translate(-1243.373 -1247.091)" fill="#4a3584"/>
          <path id="Trazado_845541" data-name="Trazado 845541" d="M1879.538,1311.692s-31.828-2.79-45.714-20.961l22.292-6.836s26.363,11.4,23.423,27.8" transform="translate(-1579.638 -1105.934)" fill="#3f0700"/>
          <path id="Trazado_845542" data-name="Trazado 845542" d="M1446.732,131.664a.341.341,0,0,1-.294-.167,13.528,13.528,0,0,0-4.556-4.23c-4.082-2.334-8.877-2.349-14.253-.045a.342.342,0,1,1-.269-.628c13.366-5.729,19.6,4.451,19.666,4.555a.342.342,0,0,1-.293.516" transform="translate(-1229.334 -107.54)" fill="#ce936b"/>
          <path id="Trazado_845543" data-name="Trazado 845543" d="M1216.314,231.583a.342.342,0,0,1-.332-.262,7.329,7.329,0,0,1,.976-6.431c2.488-3.257,7.642-3.445,7.861-3.452a.355.355,0,0,1,.352.331.342.342,0,0,1-.331.352c-.051,0-5.052.188-7.339,3.186a6.684,6.684,0,0,0-.854,5.853.342.342,0,0,1-.333.422" transform="translate(-1047.169 -190.744)" fill="#ce936b"/>
          <path id="Trazado_845544" data-name="Trazado 845544" d="M1159.021,432.815a.342.342,0,0,1-.121-.661c1.73-.659,2.744-1.592,3.015-2.773.525-2.293-1.857-4.847-1.88-4.873a.342.342,0,1,1,.5-.469c.109.115,2.655,2.849,2.05,5.495-.325,1.417-1.481,2.514-3.438,3.259a.345.345,0,0,1-.122.022" transform="translate(-998.075 -365.17)" fill="#ce936b"/>
          <path id="Trazado_845545" data-name="Trazado 845545" d="M1643.313,488.124a.373.373,0,0,1-.333-.541,2.976,2.976,0,0,0,.372-2.546,1.762,1.762,0,0,0-1.115-.868.373.373,0,0,1,.154-.73,2.494,2.494,0,0,1,1.629,1.267,3.628,3.628,0,0,1-.374,3.213.373.373,0,0,1-.333.205" transform="translate(-1414.354 -416.423)" fill="#3f0700"/>
          <path id="Trazado_845546" data-name="Trazado 845546" d="M467.615,141.448s4.7-2.765,12.056-.547,21.477,9.1,22.277,18.074,8.168,6.7,8.948,14.337-3.212,7.55-1.107,14.837,6.876,3.79,8.743,11.746c1.425,6.072-3.475,13.84-1.978,17.745,3.9,10.171,9.13,6.851,13.458,15.517,7.289,14.6-16.879,54.29-16.879,54.29l-71.3,5.522-2.114-118.4Z" transform="translate(-378.772 -120.628)" fill="#f9e0c4"/>
          <path id="Trazado_845547" data-name="Trazado 845547" d="M814.034,238.094a49.37,49.37,0,0,0,1.788,5.918,20.108,20.108,0,0,0,2.805,5.265,13.336,13.336,0,0,0,2.054,2.061c.391.329.818.664,1.258,1.095a5.559,5.559,0,0,1,1.164,1.606,6.7,6.7,0,0,1,.535,1.869,12.6,12.6,0,0,1,.1,1.757c0,.286-.008.568-.026.844s-.028.555-.066.849a15.1,15.1,0,0,1-.275,1.712,55.82,55.82,0,0,1-2.068,6.11,14.237,14.237,0,0,0-.709,2.755,7.882,7.882,0,0,0-.079,1.317c0,.108,0,.216,0,.324l.037.319a3.057,3.057,0,0,0,.1.611l.069.284a1.276,1.276,0,0,0,.084.286l.222.576a11.1,11.1,0,0,0,.647,1.159,19.79,19.79,0,0,0,1.753,2.3c.651.765,1.355,1.532,2.064,2.342a31.022,31.022,0,0,1,2.1,2.6,12.067,12.067,0,0,1,1.731,3.3,8.158,8.158,0,0,1,.316,4.1,10.785,10.785,0,0,1-1.409,3.639,23.969,23.969,0,0,1-2.025,2.826l-2.009,2.418a13.9,13.9,0,0,0-1.525,2.207c-.1.173-.156.334-.231.5a3.921,3.921,0,0,0-.135.442,1.833,1.833,0,0,0-.049.72,1.941,1.941,0,0,0,.034.241,2.759,2.759,0,0,0,.052.278c.035.185.09.37.141.555a8.054,8.054,0,0,0,.435,1.108,16.559,16.559,0,0,0,3.249,4.3c1.368,1.388,2.917,2.719,4.514,4.175.8.731,1.613,1.5,2.422,2.375a13.379,13.379,0,0,1,2.312,3.277,7.4,7.4,0,0,1,.7,2.491,6.527,6.527,0,0,1-.367,2.861,7.924,7.924,0,0,1-1.276,2.233,11.757,11.757,0,0,1-1.519,1.553,3.124,3.124,0,0,1-4.085-4.729c.032-.027.064-.054.1-.08l.022-.017a5.749,5.749,0,0,0,.715-.656,2.17,2.17,0,0,0,.325-.455.451.451,0,0,0,.063-.222,1.3,1.3,0,0,0-.127-.52,7.726,7.726,0,0,0-1.249-1.874c-.581-.689-1.264-1.4-1.984-2.111-1.442-1.435-3.023-2.908-4.536-4.578a21.547,21.547,0,0,1-4.017-5.941,13.1,13.1,0,0,1-.631-1.866c-.078-.326-.152-.653-.2-.989-.03-.166-.053-.334-.07-.5s-.042-.317-.048-.548a6.874,6.874,0,0,1,.29-2.429,8.92,8.92,0,0,1,.389-1.057c.154-.315.307-.641.479-.922a18.576,18.576,0,0,1,2.171-2.906l2.115-2.337a19.684,19.684,0,0,0,1.727-2.191,6.444,6.444,0,0,0,.947-2.093,3.833,3.833,0,0,0-.075-2.025,7.947,7.947,0,0,0-1.081-2.243A27.02,27.02,0,0,0,822.442,282c-.638-.8-1.321-1.6-2-2.471a23.409,23.409,0,0,1-1.953-2.819,14.5,14.5,0,0,1-.825-1.658l-.314-.929a3.151,3.151,0,0,1-.121-.486l-.1-.5a5.947,5.947,0,0,1-.11-.971l-.03-.476c0-.158.007-.316.011-.473a8.051,8.051,0,0,1,.061-.938c.044-.3.062-.622.132-.915a17.571,17.571,0,0,1,1-3.343,55.625,55.625,0,0,0,2.215-5.68,12.167,12.167,0,0,0,.276-1.348c.04-.218.064-.458.086-.7s.043-.481.053-.714a9.9,9.9,0,0,0-.01-1.339,4,4,0,0,0-.244-1.067,2.771,2.771,0,0,0-.576-.859c-.278-.3-.656-.632-1.058-1a15.983,15.983,0,0,1-2.321-2.544,22.4,22.4,0,0,1-2.909-6.018,51.348,51.348,0,0,1-1.6-6.246.984.984,0,0,1,1.919-.431Z" transform="translate(-699.528 -204.437)" fill="#f088b6"/>
          <path id="Trazado_845548" data-name="Trazado 845548" d="M761.246,656.3a.342.342,0,0,1-.274-.545c3.416-4.617,1.571-6.242-.565-8.125-1.256-1.107-2.556-2.252-2.822-4.063-.406-2.761,1.991-5.385,4.1-7.7,1.622-1.776,3.154-3.454,3.195-4.876.1-3.427-2.052-4.951-4.329-6.565-2.582-1.83-5.251-3.722-4.67-8.434,1.08-8.748,12.782-11.406,12.9-11.432a.342.342,0,0,1,.146.668c-.113.025-11.348,2.582-12.368,10.848-.532,4.307,1.857,6,4.386,7.792,2.323,1.646,4.725,3.349,4.617,7.142-.048,1.675-1.663,3.445-3.373,5.317-2.11,2.311-4.292,4.7-3.933,7.14.23,1.563,1.38,2.577,2.6,3.649,2.189,1.928,4.451,3.923.662,9.044a.342.342,0,0,1-.275.139" transform="translate(-651.044 -520.754)" fill="#ce936b"/>
          <path id="Trazado_845549" data-name="Trazado 845549" d="M513.344,544.067l17.462-13.4s.04.048.108.144c-.693-.971-6.593-9.851-.542-22.439a11.006,11.006,0,0,0-19.839-9.537,45.73,45.73,0,0,0-3.424,31.739,39.625,39.625,0,0,0,6.235,13.494" transform="translate(-435.583 -424.315)" fill="#f29c8b"/>
          <path id="Trazado_845550" data-name="Trazado 845550" d="M504.672,599.587c5.088,8.281,17.449,2.388,22.719-3.668.086-.779,1.23-5.3,1.419-6.133L507.048,586.7a41.7,41.7,0,0,0-2.376,12.89" transform="translate(-434.719 -505.375)" fill="#3f0700"/>
          <path id="Trazado_845551" data-name="Trazado 845551" d="M290.006,734.687l-21.582,3.731c-1,12.973-17.728,8.067-16.979,15.8.491,5.075-34.295,53.422-18.946,57.88,64.366,18.695,94.76-59.949,94.76-59.949-8.483-.167-34.508-7.11-37.253-17.463" transform="translate(-196.901 -632.852)" fill="#f29c8b"/>
          <path id="Trazado_845552" data-name="Trazado 845552" d="M661.816,763.1a2.743,2.743,0,1,1-2.743-2.743,2.743,2.743,0,0,1,2.743,2.743" transform="translate(-565.356 -654.966)" fill="#5b72bc"/>
          <path id="Trazado_845553" data-name="Trazado 845553" d="M634.467,805.935a2.743,2.743,0,1,1-2.743-2.743,2.743,2.743,0,0,1,2.743,2.743" transform="translate(-541.798 -691.861)" fill="#5b72bc"/>
          <path id="Trazado_845554" data-name="Trazado 845554" d="M589.135,839.651a2.743,2.743,0,1,1-2.743-2.743,2.743,2.743,0,0,1,2.743,2.743" transform="translate(-502.749 -720.904)" fill="#5b72bc"/>
          <path id="Trazado_845555" data-name="Trazado 845555" d="M538.155,859.442a2.743,2.743,0,1,1-2.743-2.743,2.743,2.743,0,0,1,2.743,2.743" transform="translate(-458.836 -737.952)" fill="#5b72bc"/>
          <path id="Trazado_845556" data-name="Trazado 845556" d="M481.01,856.81a2.743,2.743,0,1,1-2.743-2.743,2.743,2.743,0,0,1,2.743,2.743" transform="translate(-409.612 -735.685)" fill="#5b72bc"/>
          <path id="Trazado_845557" data-name="Trazado 845557" d="M226.131,1139.621,341.98,1146.2c-12.039-31.737-.965-69.387-2.82-71.7-1.253-1.566-7.559-16.925-15.492-32.465-2.034-3.988-4.177-7.985-6.372-11.765-2.167-3.747-4.385-7.28-6.6-10.374-.113,0-.227.009-.345.009h-.095c-.194,0-.388-.009-.577-.019-.066,0-.128,0-.194-.01a.007.007,0,0,0-.01,0,11.8,11.8,0,0,1-2.138-.35,10.3,10.3,0,0,1-1.3-.4c-.331-.118-.657-.256-.979-.406-4.077,2.143-10.941,6.1-16.046,10.87-5.256,4.919-12.976,11.547-12.976,11.547l-.482-.563c-1.793-2.077-8.236-9.508-14.1-15.738-1.419-1.509-2.8-2.947-4.077-4.215-3.846-3.845-6.708-6.2-6.537-4.5s-2.933,18.789-7.091,40.517c-.828,4.352-1.7,8.888-2.6,13.524-1.093,5.634-2.224,11.415-3.354,17.186q-.61,3.122-1.221,6.22c-.014.066-.023.133-.037.194-.1.516-.2,1.031-.3,1.542q-.432,2.207-.865,4.39-.057.291-.113.582v0c-.128.634-.251,1.263-.374,1.892q-.248,1.256-.492,2.5-.532,2.689-1.055,5.312-.383,1.951-.766,3.87c-2.559,12.937-4.858,17.862-6.443,25.781" transform="translate(-194.787 -874.785)" fill="#3f0700"/>
          <path id="Trazado_845558" data-name="Trazado 845558" d="M496.405,221.664c-.9-4.145-4.3-7.868-9.152-10.224a21.172,21.172,0,0,0-17.4-.763c-8.611,3.253-13.972,9.28-18.128,17.645-4.9,9.859-5.885,21.3-2.971,30.189,1.749,5.333,4.663,10.278,9.33,12.6,4.81,2.39,9.465,1.76,15.095-.032,8.94-2.845,18.466-9.955,21.62-20.293,2.691-8.821,1.063-9.558,1.2-18.389.062-4.117,1.2-7.1.41-10.73" transform="translate(-385.146 -180.175)" fill="#f29c8b"/>
          <path id="Trazado_845559" data-name="Trazado 845559" d="M767.413,499.269c-2.215,2.959-5.32,4.426-6.934,3.278s-1.127-4.478,1.088-7.436,5.32-4.427,6.934-3.278,1.127,4.477-1.088,7.436" transform="translate(-654.248 -423.323)" fill="#f29c8b"/>
          <path id="Trazado_845560" data-name="Trazado 845560" d="M705.163,435.109a2.111,2.111,0,1,0,2.882-1.064,2.173,2.173,0,0,0-2.882,1.064" transform="translate(-607.208 -373.702)" fill="#3f0700"/>
          <path id="Trazado_845561" data-name="Trazado 845561" d="M701.043,432.335a.373.373,0,0,1-.349-.242c-1.733-4.637-6.828-3.952-7.045-3.921a.373.373,0,0,1-.109-.738c.059-.008,5.906-.809,7.852,4.4a.373.373,0,0,1-.349.5" transform="translate(-597.135 -368.145)" fill="#3f0700"/>
          <path id="Trazado_845562" data-name="Trazado 845562" d="M707.9,373.74a1.6,1.6,0,0,0,.832,2.228,12.244,12.244,0,0,0,1.39.492c.929.346,1.85.722,2.748,1.143,1.3.611,2.515,1.875,4.086,1.561a.665.665,0,0,0,.584-.508c.164-1.035-1.328-2.062-2.022-2.564a25.923,25.923,0,0,0-4.751-2.882,2.36,2.36,0,0,0-2.867.529" transform="translate(-609.599 -321.265)" fill="#3f0700"/>
          <path id="Trazado_845563" data-name="Trazado 845563" d="M551.735,363.66a2.111,2.111,0,1,1-.893-2.938,2.174,2.174,0,0,1,.893,2.938" transform="translate(-471.796 -310.541)" fill="#3f0700"/>
          <path id="Trazado_845564" data-name="Trazado 845564" d="M542.416,359.169a.373.373,0,0,1-.327-.193c-.106-.191-2.637-4.668-7.381-3.246a.373.373,0,0,1-.214-.714c5.324-1.593,8.219,3.549,8.248,3.6a.373.373,0,0,1-.326.552" transform="translate(-460.179 -305.543)" fill="#3f0700"/>
          <path id="Trazado_845565" data-name="Trazado 845565" d="M553.827,318.658a1.6,1.6,0,0,1-2.182.947,12.386,12.386,0,0,1-1.319-.659c-.894-.429-1.8-.832-2.729-1.186-1.343-.513-3.094-.511-3.959-1.86a.666.666,0,0,1-.039-.773c.632-.836,2.407-.474,3.25-.322a25.884,25.884,0,0,1,5.371,1.423,2.359,2.359,0,0,1,1.607,2.431" transform="translate(-468.157 -270.988)" fill="#3f0700"/>
          <path id="Trazado_845566" data-name="Trazado 845566" d="M578.228,405.8H578.2c-.217-.019-5.314-.51-6.54-4.389-.311-.985.846-1.833,2.6-3.118,2.214-1.623,5.559-4.077,7.532-8.1a.373.373,0,0,1,.67.328c-2.054,4.191-5.489,6.709-7.761,8.376-1.275.935-2.479,1.818-2.328,2.293,1.075,3.4,5.847,3.867,5.895,3.871a.373.373,0,0,1-.033.744" transform="translate(-492.375 -335.926)" fill="#3f0700"/>
          <path id="Trazado_845567" data-name="Trazado 845567" d="M0,351.77H120.253a8.748,8.748,0,0,1-1.329-4.347c0-5.738,8.908-17.366,6.9-22.886-5.989-16.462-13.108-3.066-19.958-19.622-3.992-9.65,2.663-12.309-2-22.621-1.84-4.082-4.806-4.641-7.942-6.22h0a15.1,15.1,0,0,1-2.961-1.916,14.118,14.118,0,0,1-2.063-2.176c-2.63-3.42,4.849-7.474.662-14.3-1.537-2.512-3.557-2.98-5.511-3.9h0a7.846,7.846,0,0,1-3.278-2.6,10.549,10.549,0,0,1-1.183-2.143,11.052,11.052,0,0,1-.818-2.89c-.724-5.738,5.255-7.115,3.813-11.746-2.545-8.141-10.563-3.576-12.309-12.308s3.908-6.9,3.657-12.64-10.175-5.43-10.426-9.669c-.184-3.151,4.863-6.027,7.063-9.754a6.154,6.154,0,0,0,.922-4.22v-.009c-.331-1.954-1.613-4.026-3.2-6.173a0,0,0,0,1,0-.005v0c-3.274-4.423-7.853-9.111-8.075-13.477a8.42,8.42,0,0,1,1.8-6.287,8.259,8.259,0,0,0,1.2-5.189c-.17-5.487-3.827-6.651-2.332-13.473,1.1-5,5.658-6.4,6.656-10.643s3.075-9.229,7.815-10.98,15.412-.809,26.283-6.608a2.481,2.481,0,0,0,.411-.275c2-1.551,3.056-6.2,1.036-10.549-1.977-4.272-6.921-8.259-16.836-8.78-9.674-.5-16.637,2.133-23.2,9.579-3.576,4.059-6.736,3.061-9.731,7.053a14.6,14.6,0,0,0-2.289,4.215v0c-.771,2.252-.842,4.106-3.113,7.19-3.491,4.74-8.24,4.352-10.563,8.732-2.242,4.244,2.663,6.069.918,14.054S31.273,148.5,28.78,158.814c-2.086,8.624,4.324,10.814,3.822,17.3-.445,5.8-5.09,4.56-7.569,11.377-.989,2.725.128,5.185,1.173,7.682,1.06,2.54,2.039,5.118.658,8.051-3.628,7.7-12.058,2.327-13.222,14.134-.766,7.786,8.482,10.814,5.738,17.3a7.583,7.583,0,0,1-2.441,3.183c-3.4,2.583-8.274,2.076-9.452,6.8-.009.042-.019.085-.028.127C5.78,252,16.126,255.5,14.64,263.348c-1.173,6.182-8.316,5.071-9.314,13.557-1.027,8.718,8.78,9.026,10.946,14.779a7.168,7.168,0,0,1,.364,3.349c-.823,7.625-6.074,10.657-7.881,16.263v0a12.862,12.862,0,0,0-.6,3.941c0,8.482,2,13.723,2,18.709,0,4.6-9.963,12.167-10.152,17.82" transform="translate(0 -80.358)" fill="#f9e0c4"/>
          <path id="Trazado_845568" data-name="Trazado 845568" d="M197.922,379.47H254.31a15.8,15.8,0,0,1-.623-4.238c0-5.594,5.28-17.278,4.34-22.659-2.809-16.048-12.759-4.314-14.1-20.715-.672-8.2,4.889-10.062,2.7-20.115-.863-3.979-6.4-4.175-7.882-8.368-1.186-3.351,4.073-8.971,2.11-15.629a6.792,6.792,0,0,0-2.584-3.8h0a5.959,5.959,0,0,1-1.537-2.536,15.816,15.816,0,0,1-.554-2.089,20.5,20.5,0,0,1-.384-2.818c-.339-5.594,2.464-6.936,1.788-11.45-1.193-7.936-4.953-3.487-5.772-12s1.832-6.728,1.715-12.322-4.771-5.294-4.889-9.425c-.086-3.071,2.28-5.875,3.312-9.509a11.53,11.53,0,0,0,.432-4.113v-.009a24.468,24.468,0,0,0-1.5-6.018s0,0,0,0v0c-1.535-4.311-3.682-8.881-3.787-13.138-.091-3.624,1.444-8.48,1.4-11.187-.08-5.349-4.244-8.057-3.544-14.707.515-4.87,5.833-5.6,6.3-9.732s-1.2-9.51,1.026-11.217,7.608-4.6,9.424-7.84c2.086-3.727,7.628-8.889,11.586-10.5,12.617-5.147,19.882,2.482,20.923.487,1.131-2.169-9.808-10.433-19.233-7.873-8.579,2.331-14.963,6.464-18.042,13.723-1.677,3.957-6.666,1.555-10.81,5.92-1.2,1.269-1.621,5.643-2.686,8.65-1.637,4.621-5.986,4.91-7.075,9.179-1.051,4.137,1.249,5.916.43,13.7s-5.785,3.618-6.954,13.671c-.978,8.406,3.6,11.138,3.365,17.46-.209,5.658-4.385,4.056-5.547,10.7-.464,2.656,2.058,5.443,2.548,7.878a17.95,17.95,0,0,1,.308,7.849c-1.7,7.507-5.654,2.269-6.2,13.778-.359,7.59,3.977,10.542,2.691,16.864a9.083,9.083,0,0,1-1.145,3.1c-1.595,2.518-3.879,2.024-4.432,6.626,0,.041-.009.083-.013.124-.788,7.051,4.063,10.459,3.367,18.114-.55,6.027-3.9,4.943-4.368,13.216-.481,8.5,4.117,8.8,5.133,14.406a14.15,14.15,0,0,1,.171,3.265c-.386,7.434-6.455,12.127-7.8,19.85-1.42,8.145,4.76,13.227,4.76,18.088,0,4.487-4.672,11.86-4.76,17.371" transform="translate(-170.306 -108.059)" fill="#de7e9e"/>
          <path id="Trazado_845569" data-name="Trazado 845569" d="M314.318,805.063l-.636-.165c.537-2.076,2.261-4.717,4.257-7.777,3.178-4.871,6.78-10.392,6.78-15.418,0-9.177-4.994-13.6-9.007-17.162-2.818-2.5-5.251-4.655-5.251-7.777,0-4.686,1.86-8.008,3.5-10.938,1.5-2.684,2.921-5.219,2.781-8.43-.223-5.071-4.812-7-9.672-9.044-3.067-1.289-6.237-2.623-8.081-4.831-4.724-5.657-.044-10.543,4.482-15.268,4.339-4.53,8.437-8.808,5.5-13.891-1-1.737-3.371-2.754-5.66-3.738a16.339,16.339,0,0,1-5.094-2.914c-4.726-4.764-.38-9.743,3.112-13.743.733-.84,1.426-1.634,1.989-2.373,1.525-2,3.811-6.006,1.988-10.338a28.373,28.373,0,0,0-2.421-4.044c-2.359-3.512-4.8-7.143-2.206-10.426,5.881-7.444,4.414-12.1,2.861-17.021-.987-3.129-2.008-6.365-1-10.337l.637.161c-.961,3.791-.013,6.8.991,9.978,1.536,4.871,3.125,9.909-2.973,17.626-2.3,2.906.008,6.335,2.236,9.651a29.313,29.313,0,0,1,2.479,4.149c1.448,3.443.713,7.347-2.068,11-.577.757-1.277,1.559-2.017,2.407-3.485,3.992-7.435,8.518-3.14,12.848a15.911,15.911,0,0,0,4.886,2.772c2.388,1.026,4.857,2.087,5.97,4.014,3.182,5.51-1.281,10.169-5.6,14.675-4.525,4.724-8.8,9.187-4.453,14.392,1.741,2.085,4.837,3.387,7.832,4.646,4.834,2.033,9.832,4.134,10.073,9.621.149,3.4-1.314,6.012-2.864,8.78-1.68,3-3.417,6.1-3.417,10.617,0,2.826,2.219,4.794,5.03,7.285,4.112,3.645,9.229,8.182,9.229,17.654,0,5.221-3.658,10.83-6.886,15.777-1.964,3.011-3.66,5.611-4.171,7.582" transform="translate(-255.094 -533.569)" fill="#f9e0c4"/>
          <path id="Trazado_845570" data-name="Trazado 845570" d="M532.864,514.04s15.283,6.726,15.542,6.621-12.371,9.506-15.542-6.621" transform="translate(-459.004 -442.789)" fill="#f4ebe4"/>
          <path id="Trazado_845571" data-name="Trazado 845571" d="M819.224,878.116a17.526,17.526,0,0,0,1,5.563c.076.218.156.435.241.648l.08.2.374.941.114.284.1.26.459,1.145,1.065,2.7,2.1,5.435q2.079,5.456,4.073,10.941c.279.761.554,1.528.828,2.289q3.541,9.835,6.746,19.712c2.37,7.337,4.575,14.693,6.452,21.959.936,3.633,1.788,7.242,2.5,10.771.554,2.767,1.027,5.506,1.339,8.07l-10.667,43.28h27.446l13.979-37.674a10.978,10.978,0,0,0,.7-4.04l-.038-1.576c-.119-2.412-.317-4.726-.573-6.978s-.558-4.432-.889-6.594c-.676-4.309-1.476-8.486-2.351-12.607-1.755-8.236-3.794-16.23-5.975-24.145s-4.522-15.723-6.973-23.486q-1.837-5.826-3.76-11.613l-1.954-5.8-.568-1.646-.435-1.258-1.041-2.961a17.693,17.693,0,0,0-29-6.826,17.791,17.791,0,0,0-5.364,13" transform="translate(-705.669 -740.898)" fill="#f29c8b"/>
          <path id="Trazado_845572" data-name="Trazado 845572" d="M793.187,995.754a4.4,4.4,0,1,1,4.4-4.4,4.409,4.409,0,0,1-4.4,4.4m0-7.984a3.58,3.58,0,1,0,3.579,3.579,3.583,3.583,0,0,0-3.579-3.579" transform="translate(-679.45 -850.145)" fill="#fff"/>
          <path id="Trazado_845573" data-name="Trazado 845573" d="M825.438,862.659l-.044,0a.373.373,0,0,1-.327-.413c1.733-14.854,4.689-21.56,4.719-21.627a.373.373,0,0,1,.68.306c-.029.065-2.941,6.686-4.658,21.407a.373.373,0,0,1-.37.329" transform="translate(-710.703 -723.909)" fill="#3f0700"/>
          <path id="Trazado_845574" data-name="Trazado 845574" d="M805.881,1034.975a.365.365,0,0,1-.11-.017.372.372,0,0,1-.246-.466,31.771,31.771,0,0,1,1.092-3.077.373.373,0,0,1,.686.293,31.125,31.125,0,0,0-1.066,3,.373.373,0,0,1-.356.263" transform="translate(-693.857 -888.256)" fill="#3f0700"/>
          <path id="Trazado_845575" data-name="Trazado 845575" d="M879.521,1122.247a.373.373,0,0,1-.365-.3c-1.171-5.521.134-7.1.286-7.257a.373.373,0,0,1,.547.507c-.031.037-1.185,1.5-.1,6.6a.373.373,0,0,1-.287.442.378.378,0,0,1-.078.008" transform="translate(-756.88 -960.086)" fill="#3f0700"/>
          <path id="Trazado_845576" data-name="Trazado 845576" d="M780.519,515.384a.373.373,0,0,1-.061-.741c1.89-.315,1.754-2.688,1.748-2.789a.373.373,0,0,1,.744-.049c.072,1.087-.33,3.233-2.369,3.574a.394.394,0,0,1-.062.005" transform="translate(-672.011 -440.564)" fill="#3f0700"/>
          <path id="Trazado_845577" data-name="Trazado 845577" d="M545.731,584.877a5.373,5.373,0,0,1-4.739-2.265.373.373,0,0,1,.637-.388c1.43,2.349,4.895,1.861,4.929,1.856a.373.373,0,0,1,.111.737,6.738,6.738,0,0,1-.939.059" transform="translate(-465.959 -501.368)" fill="#3f0700"/>
          <path id="Trazado_845578" data-name="Trazado 845578" d="M595.042,203.677a.342.342,0,0,1-.182-.631,12.83,12.83,0,0,1,8.426-1.893.342.342,0,0,1-.086.678,12.143,12.143,0,0,0-7.975,1.794.34.34,0,0,1-.182.053" transform="translate(-512.269 -173.185)" fill="#ce936b"/>
          <path id="Trazado_845579" data-name="Trazado 845579" d="M365.719,396.733a.329.329,0,0,1-.328-.305c-.761-10.663,4.558-14.173,4.785-14.317a.329.329,0,0,1,.353.554c-.052.034-5.214,3.473-4.483,13.716a.328.328,0,0,1-.3.351h-.024" transform="translate(-314.681 -329.102)" fill="#f9e0c4"/>
          <path id="Trazado_845580" data-name="Trazado 845580" d="M1770.456,1001.565c-.015.14-.091.575-.143.9l-.042.259-.05.278-.1.558c-.126.735-.279,1.5-.428,2.269s-.3,1.535-.469,2.312-.315,1.548-.5,2.33c-.356,1.561-.693,3.122-1.087,4.688l-.57,2.349c-.194.783-.406,1.566-.608,2.349l-.613,2.35c-.205.783-.435,1.563-.65,2.345-.444,1.562-.858,3.132-1.341,4.687s-.927,3.119-1.411,4.674l-1.5,4.655-.376,1.164-.4,1.156-.8,2.313c-.533,1.542-1.052,3.09-1.632,4.616l-1.7,4.6c-.576,1.527-1.2,3.038-1.791,4.559-1.168,3.053-2.484,6.04-3.751,9.053-.619,1.514-1.324,2.985-1.992,4.474l-2.027,4.462-.184.406a15.617,15.617,0,0,0,28.139,13.539l2.442-4.8c.806-1.6,1.649-3.194,2.4-4.822,1.537-3.244,3.122-6.471,4.553-9.763.727-1.642,1.477-3.275,2.184-4.926l2.085-4.969c.709-1.651,1.357-3.327,2.017-5l.988-2.509.494-1.254.471-1.264,1.875-5.061c.609-1.694,1.19-3.4,1.786-5.1s1.146-3.42,1.713-5.133c.278-.86.568-1.714.836-2.578l.8-2.595c.264-.866.537-1.728.794-2.6l.759-2.619c.516-1.739.985-3.51,1.467-5.273.245-.877.463-1.782.695-2.672s.457-1.786.672-2.7.439-1.814.647-2.759l.158-.7.157-.724c.108-.518.2-.924.333-1.628l.154-.82a17.431,17.431,0,0,0-34.259-6.453c-.085.45-.155.937-.2,1.385" transform="translate(-1503.037 -849.307)" fill="#cc8262"/>
          <path id="Trazado_845581" data-name="Trazado 845581" d="M1166.65,1431.405c6.785,3.266,13.537,6.466,20.334,9.652s13.608,6.327,20.461,9.437,13.747,6.171,20.74,9.166c1.758.742,3.491,1.5,5.271,2.23l5.336,2.194,5.459,2.141c1.87.7,3.786,1.385,5.685,2.077,8.744,3.186,19.241-3.515,22.427-12.259s-2.147-16.219-10.891-19.405a16.985,16.985,0,0,0-2.6-.721l-.538-.1-5.039-.935-5.205-1.094-5.28-1.2c-1.761-.4-3.543-.845-5.314-1.265q-10.652-2.583-21.39-5.449-10.717-2.844-21.444-5.83c-7.139-1.987-14.307-4.016-21.4-6.07a9.351,9.351,0,0,0-6.66,17.406Z" transform="translate(-1000.341 -1217.667)" fill="#cc8262"/>
          <path id="Trazado_845582" data-name="Trazado 845582" d="M1004.217,1371.728c0,7.191,6.585,13.02,14.707,13.02s14.707-5.829,14.707-13.02-6.584-13.02-14.707-13.02-14.707,5.829-14.707,13.02" transform="translate(-865.023 -1170.377)" fill="#cc8262"/>
          <path id="Trazado_845583" data-name="Trazado 845583" d="M925.383,1352.368l20.373,5.687a4.678,4.678,0,1,0,2.515-9.011,4.944,4.944,0,0,0-.81-.151l-21.056-2.022a2.807,2.807,0,0,0-1.023,5.5" transform="translate(-795.348 -1160.17)" fill="#cc8262"/>
          <path id="Trazado_845584" data-name="Trazado 845584" d="M937.9,1414.818l12.982,2.052a4.2,4.2,0,1,0,1.313-8.305,4.594,4.594,0,0,0-.594-.051l-13.142-.2a3.27,3.27,0,0,0-.56,6.5" transform="translate(-805.52 -1213.111)" fill="#cc8262"/>
          <path id="Trazado_845585" data-name="Trazado 845585" d="M951.46,1467.3l8.714.272a4.218,4.218,0,1,0,.263-8.432,4.437,4.437,0,0,0-.9.068l-8.573,1.587a3.281,3.281,0,0,0,.495,6.5" transform="translate(-816.84 -1256.888)" fill="#cc8262"/>
          <path id="Trazado_845586" data-name="Trazado 845586" d="M987.907,1512.779l19.6-.912a3.732,3.732,0,1,0-.347-7.456c-.117.005-.239.017-.353.033l-19.43,2.768a2.8,2.8,0,0,0,.525,5.567" transform="translate(-848.45 -1295.881)" fill="#cc8262"/>
          <path id="Trazado_845587" data-name="Trazado 845587" d="M1040.965,1257.751a39.224,39.224,0,0,0,3.537,2.711,41.163,41.163,0,0,0,3.835,2.285c1.289.692,2.627,1.3,3.693,1.852a7.283,7.283,0,0,1,1.174.709c.1.083.116.13.081.112a.658.658,0,0,1-.191-.216h0v0l.218.387,2.117,3.759c.716,1.246,1.418,2.5,2.149,3.739l2.175,3.723c.744,1.229,1.47,2.469,2.229,3.689a4.66,4.66,0,0,0,7.926-4.9c-.751-1.224-1.536-2.428-2.3-3.643l-2.358-3.609c-.781-1.206-1.589-2.4-2.384-3.593l-2.416-3.573.213.39a7.418,7.418,0,0,0-1.365-1.885,8.634,8.634,0,0,0-1.493-1.192,15.139,15.139,0,0,0-2.439-1.215c-1.424-.563-2.622-.98-3.807-1.447s-2.307-.959-3.422-1.514-2.2-1.166-3.29-1.814l-.05-.03a3.272,3.272,0,0,0-3.826,5.277" transform="translate(-895.709 -1078.469)" fill="#cc8262"/>
          <path id="Trazado_845588" data-name="Trazado 845588" d="M1141.474,1489.393s-2.924-1.734-7.716-.2-5.547-4.925-5.547-4.925l10.577-5.456,3.945,7.555Z" transform="translate(-971.83 -1273.837)" fill="#cc8262"/>
          <path id="Trazado_845589" data-name="Trazado 845589" d="M1065.537,1331.556s1.434,3.218-5.365,3.329,1.091,3.554,1.091,3.554l11.668-1.511-3.861-5.876Z" transform="translate(-910.841 -1146.555)" fill="#cc8262"/>
          <path id="Trazado_845590" data-name="Trazado 845590" d="M1833.442,982.457s32.494,2.113,45.714,20.961c0,0,6.139-33.235,4.628-52.437-.544-6.917-3.846-22.463-17.113-24.583-36.248-5.791-33.229,56.059-33.229,56.059" transform="translate(-1579.256 -797.66)" fill="#f9e0c4"/>
          <path id="Trazado_845591" data-name="Trazado 845591" d="M1831.467,1024.586a.373.373,0,0,1-.372-.368c-.22-18.7,4.67-31.194,8.809-38.38,4.5-7.811,8.991-11.137,9.18-11.275a.373.373,0,0,1,.439.6c-.045.033-4.576,3.4-9,11.087-4.082,7.1-8.9,19.451-8.686,37.958a.372.372,0,0,1-.369.377Z" transform="translate(-1577.281 -839.416)" fill="#3f0700"/>
        </g>
      </g>
    </g>
  </g>
</svg>
